<svg width="72" height="72" viewBox="0 0 72 72" fill="none" xmlns="http://www.w3.org/2000/svg">
<circle cx="35.9567" cy="35.9567" r="35.9567" transform="matrix(-1 0 0 1 71.9136 0)" fill="#38B000"/>
<path d="M35.2091 36.7187C35.2091 38.3287 35.0391 39.7061 34.6992 40.851C34.3772 41.9959 33.9032 42.9351 33.2771 43.6685C32.6688 44.3841 31.9175 44.9118 31.0231 45.2517C30.1286 45.5916 29.109 45.7615 27.9641 45.7615C26.8192 45.7615 25.7995 45.5916 24.9051 45.2517C24.0106 44.9118 23.2503 44.3841 22.6242 43.6685C22.016 42.9351 21.5509 41.9959 21.2289 40.851C20.9069 39.7061 20.7459 38.3287 20.7459 36.7187V34.411C20.7459 32.801 20.9069 31.4236 21.2289 30.2787C21.5509 29.1338 22.016 28.1946 22.6242 27.4612C23.2503 26.7277 24.0106 26.1911 24.9051 25.8512C25.7995 25.5113 26.8192 25.3414 27.9641 25.3414C29.109 25.3414 30.1286 25.5113 31.0231 25.8512C31.9175 26.1911 32.6688 26.7277 33.2771 27.4612C33.9032 28.1946 34.3772 29.1338 34.6992 30.2787C35.0391 31.4236 35.2091 32.801 35.2091 34.411V36.7187ZM30.6206 34.411C30.6206 33.3556 30.549 32.488 30.4059 31.8082C30.2807 31.1284 30.0928 30.5917 29.8424 30.1982C29.6098 29.8046 29.3326 29.5363 29.0106 29.3932C28.6886 29.2322 28.3397 29.1517 27.9641 29.1517C27.5884 29.1517 27.2396 29.2322 26.9176 29.3932C26.5956 29.5363 26.3183 29.8046 26.0857 30.1982C25.8532 30.5917 25.6653 31.1284 25.5222 31.8082C25.397 32.488 25.3344 33.3556 25.3344 34.411V36.7187C25.3344 37.7741 25.397 38.6417 25.5222 39.3215C25.6653 40.0013 25.8532 40.538 26.0857 40.9315C26.3183 41.3251 26.5956 41.5934 26.9176 41.7365C27.2396 41.8796 27.5884 41.9512 27.9641 41.9512C28.3397 41.9512 28.6886 41.8796 29.0106 41.7365C29.3326 41.5934 29.6098 41.3251 29.8424 40.9315C30.0928 40.538 30.2807 40.0013 30.4059 39.3215C30.549 38.6417 30.6206 37.7741 30.6206 36.7187V34.411ZM43.4343 41.7097V30.1714L39.946 31.674C39.8029 31.7277 39.6955 31.7545 39.624 31.7545C39.4272 31.7545 39.3288 31.6382 39.3288 31.4057V28.3467C39.3288 28.1678 39.4183 28.0426 39.5972 27.971L44.454 25.6902C44.615 25.6186 44.8207 25.5829 45.0712 25.5829H47.4862C47.826 25.5829 47.996 25.7528 47.996 26.0927V41.7097H51.5648C51.7079 41.7097 51.8332 41.7634 51.9405 41.8707C52.0478 41.9601 52.1015 42.0764 52.1015 42.2195V44.9834C52.1015 45.1265 52.0478 45.2517 51.9405 45.359C51.8332 45.4664 51.7079 45.52 51.5648 45.52H39.8655C39.7224 45.52 39.5972 45.4664 39.4898 45.359C39.3825 45.2517 39.3288 45.1265 39.3288 44.9834V42.2195C39.3288 42.0764 39.3825 41.9601 39.4898 41.8707C39.5972 41.7634 39.7224 41.7097 39.8655 41.7097H43.4343Z" fill="white"/>
</svg>
