<svg width="38" height="40" viewBox="0 0 38 40" fill="none" xmlns="http://www.w3.org/2000/svg">
<path d="M15.0976 0.872374C4.27594 1.83574 -1.40694 10.6233 0.494344 20.466C0.387919 21.2593 0.476553 22.1257 0.866287 23.0904C4.66769 32.5057 13.8676 42.1777 25.0684 39.2346C34.6752 36.7139 39.208 24.8863 37.2403 15.831C35.1269 5.93825 24.8297 0.0105402 15.0976 0.872374ZM22.7764 28.2842C17.7254 29.5304 13.4958 24.2299 11.869 20.0541C11.7351 19.7059 11.5642 19.3836 11.3762 19.0844C10.407 14.3807 12.5026 11.019 17.9583 10.8375C22.6416 10.6897 27.4246 13.5343 28.4629 18.2891C29.3624 22.3895 27.076 27.2117 22.7764 28.2842Z" fill="#E3DBD8" fill-opacity="0.3"/>
</svg>
