<svg width="65" height="74" viewBox="0 0 65 74" fill="none" xmlns="http://www.w3.org/2000/svg">
<path d="M16.1257 10.4068C15.2581 10.5755 13.054 14.3427 11.0539 18.8737C7.96566 25.9297 7.75067 27.246 9.02804 28.2581C12.1686 30.9442 13.6665 29.6001 16.9697 21.2278C20.4156 12.0936 20.2913 9.38879 16.1257 10.4068Z" fill="#FFD000"/>
<path d="M32.6002 32.6284C23.2403 39.0618 21.2864 41.4089 24.6086 42.5359C25.9583 42.9937 29.7475 41.0377 36.0801 36.703C41.3691 33.0562 45.72 29.7857 45.8961 29.2666C46.0369 28.8514 45.0358 28.0487 43.6862 27.5909C41.8174 26.9569 39.0719 28.2251 32.6002 32.6284Z" fill="#FFD000"/>
<path d="M45.9331 50.7562C36.5989 52.3361 27.8821 55.1674 28.2214 56.556C28.7981 58.9512 32.3335 59.1086 40.4923 56.8983C45.0398 55.7784 49.8654 54.5212 51.3577 54.2171C52.8501 53.913 54.2052 53.3308 54.3813 52.8117C55.1209 50.6315 51.5892 49.7808 45.9331 50.7562Z" fill="#FFD000"/>
</svg>
