<svg width="330" height="310" viewBox="0 0 364 382" fill="none" xmlns="http://www.w3.org/2000/svg">
<path d="M272.444 12.6682C280.582 5.77487 289.848 1.32492 300.279 1.79907H300.28C309.512 2.21765 317.656 6.4999 324.626 12.8098C331.165 18.7285 336.632 26.3998 340.94 34.2239L341.786 35.7903C366.609 82.6919 368.033 139.574 354.533 191.06V191.061C347.333 218.561 331.544 263.109 309.441 302.079C298.39 321.564 285.78 339.62 271.902 353.451C258.019 367.287 242.93 376.834 226.92 379.428C210.652 382.059 193.883 377.972 177.29 369.582C160.695 361.192 144.335 348.528 128.923 334.101C98.7798 305.884 72.3902 271.049 55.0728 248.596H55.103L53.937 247.085C29.4726 215.4 7.47972 180.063 2.33936 140.619L2.10693 138.739C-2.53947 98.5631 14.7896 53.6834 51.2085 36.7766L51.2075 36.7756C82.9575 22.0514 122.481 31.9272 149.074 54.9709V54.9719C175.664 77.9855 190.86 111.943 198.64 146.468L199.389 149.794L200.446 146.552C212.874 108.401 230.085 71.7999 251.59 37.9241C257.351 28.8599 264.3 19.5666 272.444 12.6682Z" stroke="#FFB700" stroke-width="1.87468"/>
</svg>
