<svg width="213" height="300" viewBox="0 0 213 348" fill="none" xmlns="http://www.w3.org/2000/svg">
<path d="M179.202 20.7147C187.428 21.5313 195.667 27.8864 201.943 39.5017C211.894 57.9247 212.7 78.5295 209.297 99.1503C205.893 119.781 198.296 140.325 191.534 158.591C180.33 188.836 164.309 218.571 150.495 248.426C135.717 280.368 127.68 311.347 120.259 345.006C117.939 342.045 115.291 339.446 112.628 336.937C109.458 333.95 106.287 331.105 103.492 327.856L103.491 327.855L101.376 325.379C96.4721 319.587 91.7861 313.682 87.2431 307.549C75.8281 292.11 65.4802 275.919 56.1936 259.12L56.198 259.122L54.8443 256.636C23.5096 199.1 -3.85699 125.586 1.99485 59.2275L2.13949 57.6614L2.30257 56.0554C4.08352 39.4507 8.86212 22.5239 20.7515 11.2833C30.0008 2.53461 41.2658 0.246716 52.0277 2.44491C62.816 4.64865 73.1025 11.3677 80.2549 20.6366L80.2558 20.637C91.9945 35.8292 96.2823 55.3527 100.292 74.4076C102.5 84.9035 104.71 95.3952 106.92 105.886C109.131 116.376 111.341 126.867 113.548 137.362L115.385 137.349C122.396 101.433 136.039 66.8037 155.439 35.7706C162.465 24.5352 171.022 19.9028 179.202 20.7147Z" stroke="#FFB700" stroke-width="1.87468"/>
</svg>
