<svg width="21" height="19" viewBox="0 0 21 19" fill="none" xmlns="http://www.w3.org/2000/svg">
<path d="M6.36997 8.82803H1.46436C1.54804 3.94334 2.51033 3.13794 5.51227 1.35979C5.85744 1.1506 5.9725 0.711292 5.7633 0.355661C5.56457 0.0104909 5.1148 -0.104566 4.76963 0.104628C1.23425 2.19657 0 3.47266 0 9.54975V15.1875C0 16.9761 1.4539 18.4196 3.23205 18.4196H6.36997C8.21087 18.4196 9.60202 17.0284 9.60202 15.1875V12.0496C9.60202 10.2192 8.21087 8.82803 6.36997 8.82803Z" fill="#FFB700"/>
<path d="M17.6873 8.82803H12.7817C12.8654 3.94334 13.8277 3.13794 16.8296 1.35979C17.1748 1.1506 17.2898 0.711292 17.0806 0.355661C16.8715 0.0104909 16.4321 -0.104566 16.0765 0.104628C12.5411 2.19657 11.3069 3.47266 11.3069 9.56021V15.198C11.3069 16.9866 12.7608 18.43 14.5389 18.43H17.6768C19.5178 18.43 20.9089 17.0389 20.9089 15.198V12.0601C20.9194 10.2192 19.5282 8.82803 17.6873 8.82803Z" fill="#FFB700"/>
</svg>
