<svg width="558" height="225" viewBox="0 0 558 225" fill="none" xmlns="http://www.w3.org/2000/svg">
<path d="M25.3304 175.582C27.6792 175.435 29.9819 175.246 32.2846 175.1L32.2846 175.163C32.2846 175.163 32.6991 175.1 32.8833 175.058C71.6608 172.329 107.859 166.326 145.163 160.763C148.893 160.218 152.578 159.672 156.308 159.126C121.491 165.99 87.0429 173.168 52.9168 180.725C22.1067 187.526 49.0483 207.424 79.3979 201.379C146.913 187.945 219.218 180.704 291.154 174.197C291.385 174.197 291.615 174.155 291.845 174.134C246.436 183.643 201.027 193.151 155.663 202.66C124.991 209.083 151.657 229.716 182.144 223.314C293.365 200.015 404.585 176.716 515.806 153.417C544.313 147.435 522.99 129.089 495.588 131.545C478.778 133.056 461.877 134.484 444.883 135.89C479.561 129.929 513.273 123.002 544.544 113.619C569.965 106 553.524 89.25 524.326 91.7478C495.266 94.2456 466.298 96.9323 437.422 99.787C457.962 95.9668 478.548 92.1466 499.088 88.3264C529.945 82.5961 518.984 62.2147 485.134 65.2582C427.843 70.4008 370.598 75.7323 313.398 81.1477C326.155 79.1747 338.958 77.2856 351.808 75.4174C378.933 71.7652 406.059 68.1339 433.185 64.4816C464.041 60.3256 453.08 39.3984 423.56 41.0356C426.415 33.5631 410.112 24.3485 390.217 26.3845L386.947 26.7204C402.099 19.4158 382.526 5.20549 358.439 7.40945C321.182 10.8308 283.832 13.7485 246.298 16.2253C251.133 8.56389 237.409 -1.88919 214.474 0.293793C171.644 4.38685 132.36 12.8878 97.3129 24.7473C78.7071 31.0443 81.7467 48.0463 110.576 47.0388C134.939 46.1782 159.256 45.1077 183.526 43.8693C171.828 46.4511 160.131 49.0329 148.479 51.6566C124.485 57.0931 136.367 71.7022 158.196 73.5913C142.906 76.7188 127.616 79.8253 112.327 82.9529C101.596 85.1358 98.0958 89.5648 99.4775 93.8887C74.0556 99.1153 48.818 104.531 23.8106 110.177C-3.82177 116.411 16.1196 134.903 44.0284 132.049C102.701 126.025 161.466 120.189 220.277 114.459C152.992 126.969 85.6612 139.479 18.3763 152.01C-6.07836 156.565 -6.8153 177.387 25.3304 175.498L25.3304 175.582Z" fill="#FBE149" fill-opacity="0.2"/>
</svg>
