<svg width="200" height="112" viewBox="0 0 200 112" fill="none" xmlns="http://www.w3.org/2000/svg">
<path d="M156.562 76.8257C170.597 71.0012 182.001 61.4368 188.8 51.4989C191.898 47.0515 194.381 42.2305 196.143 37.2395C197.515 33.4619 198.42 29.6126 198.83 25.8049C199.088 23.3662 199.111 20.9631 198.899 18.6342C198.701 17.0388 198.538 16.2415 198.433 16.2599C198.327 16.2783 198.614 19.6721 197.654 25.8288C196.248 34.3983 192.574 42.906 187.089 50.295C180.427 59.5809 169.332 68.382 155.85 73.6659C148.724 76.4702 141.484 78.1398 134.387 78.6159C126.612 79.1747 119.168 78.0413 112.487 75.2817C105.482 72.3414 99.7424 67.2626 95.8286 60.5405C93.653 56.8625 92.1938 52.6422 91.5168 48.07C94.4238 48.6318 97.4511 49.2566 100.659 49.7062C104.469 50.3114 108.449 50.3624 112.503 49.8581C116.756 49.2893 121.054 47.7245 125.097 45.2734C129.224 42.8215 132.963 39.4483 136.003 35.4348C139.042 31.4213 141.294 26.8837 142.571 22.2001C143.931 16.9169 143.599 11.7024 141.633 7.46179C140.504 5.11265 138.746 3.2701 136.532 2.11442C134.393 1.05646 131.968 0.54557 129.408 0.613185C127.104 0.648797 124.755 0.942865 122.397 1.49088C120.09 1.9999 117.784 2.69605 115.497 3.57311C113.239 4.40649 111.008 5.43283 108.827 6.64123C106.641 7.82708 104.522 9.21915 102.498 10.7978C100.471 12.3654 98.5725 14.1511 96.8424 16.1174C95.0662 18.0463 93.4837 20.1658 92.1352 22.4221C89.4203 26.9514 87.6116 31.8786 86.8565 36.8029C86.6402 38.159 86.4938 39.5097 86.4181 40.8487C84.95 40.6394 83.4718 40.4697 81.9968 40.3726C75.6153 39.9645 68.904 41.1162 62.326 43.7481C56.9195 45.9268 51.6681 48.9252 46.7513 52.641C39.3248 58.3278 32.6373 65.234 27.0208 73.0166C23.2502 78.1511 19.7899 83.5054 16.67 89.0331C14.1848 93.3686 12.4567 96.7001 11.222 99.19C10.2354 101.155 9.52327 102.66 9.04124 103.767L8.96825 102.613C8.80758 101.135 8.49428 99.7154 8.03364 98.3795C7.27745 96.1984 6.24688 94.1914 4.96519 92.4038C2.78952 89.4128 1.02399 88.029 0.453262 88.44C-0.117463 88.851 0.651283 91.1373 1.94783 94.4821C2.7042 96.3528 3.33035 98.3056 3.82224 100.328C4.09325 101.439 4.26499 102.598 4.33546 103.791L4.37505 105.811C4.39268 106.223 4.41135 106.658 4.47961 107.152C4.55694 107.74 4.70732 108.297 4.92718 108.81C5.20364 109.44 5.62178 109.964 6.15232 110.345C6.68287 110.725 7.313 110.953 7.99868 111.013C8.32895 111.037 8.66719 111.029 9.00959 110.988C9.36032 110.935 9.72112 110.843 9.89597 110.804L10.9874 110.462C12.3456 110.03 13.633 109.594 14.8608 109.138C17.0409 108.342 19.2053 107.421 21.3439 106.382C24.962 104.594 27.0732 103.061 26.928 102.417C26.7827 101.774 24.3984 102.15 20.6832 103.048C18.8196 103.492 16.6326 104.08 14.201 104.727L11.9433 105.31C12.6761 104.289 13.5682 102.866 14.7782 100.897C16.2515 98.4849 18.1992 95.3345 20.7847 91.1412C23.9925 85.9374 27.4538 80.8817 31.1495 76.0022C36.4893 68.8589 42.7661 62.5221 49.6919 57.2826C54.1389 53.9778 58.8742 51.3078 63.7433 49.3597C69.4801 47.0723 75.3316 46.0791 80.8923 46.4489C82.791 46.5451 84.6857 46.8261 86.6523 47.1352C87.2765 53.1886 89.1006 58.7493 92.0125 63.4758C96.4243 70.7926 102.835 76.2721 110.615 79.3774C117.833 82.2137 125.853 83.2887 134.202 82.5389C141.664 81.875 149.252 79.947 156.691 76.8248L156.562 76.8257ZM91.717 36.8206C92.4038 32.635 93.9825 28.4585 96.3248 24.6308C97.4667 22.7459 98.8078 20.9802 100.312 19.3805C101.827 17.7347 103.477 16.2438 105.229 14.9372C106.992 13.5853 108.837 12.3963 110.736 11.387C112.671 10.3393 114.648 9.45241 116.647 8.73569C118.661 8.00049 120.69 7.42622 122.716 7.01801C124.713 6.56815 126.701 6.32979 128.651 6.30644C130.387 6.17426 132.028 6.50757 133.431 7.27728C134.834 8.04699 135.957 9.22964 136.701 10.7219C138.07 13.863 138.259 17.6824 137.235 21.5371C136.772 23.4181 136.058 25.2768 135.118 27.0511C134.192 28.8575 133.08 30.58 131.808 32.1778C129.304 35.342 126.296 38.0179 122.997 40.0151C119.698 42.0123 116.191 43.2818 112.723 43.7332C109.184 44.1384 105.711 44.0719 102.383 43.5353C98.6424 43.0081 94.9708 42.1791 91.2923 41.4623C91.345 39.9147 91.498 38.3484 91.7503 36.7742" fill="#FFB700"/>
</svg>
