<svg width="40" height="24" viewBox="0 0 40 24" fill="none" xmlns="http://www.w3.org/2000/svg">
<path d="M23.5791 23.4034C24.4298 22.7223 24.4188 22.0683 23.5551 21.339C23.1729 20.9959 19.4394 19.2913 15.2654 17.5136C11.0603 15.6987 7.32673 13.9941 6.91044 13.648C6.13705 13.0642 6.14006 13.03 6.83528 12.1634C7.22453 11.6478 9.8017 9.70985 12.5805 7.8241C15.579 5.78588 17.6857 4.11576 17.8642 3.65031C18.3689 2.21685 18.079 1.60693 16.8261 1.3932C15.843 1.23766 14.9944 1.50645 12.4032 2.82444C8.11868 5.0241 4.45809 7.55382 2.9593 9.34635C1.92099 10.5952 1.70228 11.1259 1.55774 12.763C1.40416 14.5024 1.47938 14.8184 2.44033 16.0032C4.02017 17.9644 5.60308 18.7228 13.1606 21.1087C22.1235 23.928 22.7966 24.0905 23.5791 23.4034Z" fill="#FFB700"/>
<path d="M16.2545 14.2414C22.6827 14.6752 21.5564 14.662 26.1313 14.409C38.9487 13.7567 37.544 13.2244 38.3826 12.1802C38.6621 11.8321 38.8396 11.4728 38.745 11.3935C38.4725 11.0534 35.3525 10.2957 34.1841 10.2701C33.4922 10.2971 31.6789 10.3364 24.3814 10.289C17.575 10.3913 15.3971 10.4609 13.5638 11.1543C12.5243 11.5218 12.2145 11.8321 12.2224 12.3841C12.2497 13.3861 13.7248 14.0656 16.2545 14.2414Z" fill="#FFB700"/>
<path d="M35.8029 10.3437C29.3747 9.90989 30.501 9.92306 25.9261 10.176C13.1087 10.8284 14.5134 11.3607 13.6748 12.4049C13.3953 12.7529 13.2178 13.1123 13.3124 13.1916C13.5849 13.5317 16.7049 14.2894 17.8732 14.315C18.5652 14.288 20.3785 14.2486 27.676 14.2961C34.4824 14.1938 36.6603 14.1241 38.4936 13.4308C39.5331 13.0633 39.8429 12.753 39.8349 12.201C39.8077 11.199 38.3326 10.5195 35.8029 10.3437Z" fill="#FFB700"/>
</svg>
