<svg width="253" height="93" viewBox="0 0 253 93" fill="none" xmlns="http://www.w3.org/2000/svg">
<path d="M7.47315 34.1363C14.1006 28.6877 21.4017 24.1422 29.1899 20.6158C34.1229 18.2638 39.6983 15.8783 45.7111 13.5252C52.1343 10.9702 58.7236 8.87005 65.4316 7.23987C69.0462 6.37552 72.7124 5.75308 76.4066 5.37659C80.2371 4.93924 84.0979 4.85227 87.9424 5.11674C91.8848 5.34174 95.786 6.03964 99.5646 7.19587C103.398 8.30859 107.064 9.94521 110.46 12.0608L111.013 12.4263C110.842 12.5759 110.633 12.7023 110.442 12.8504C103.257 18.4836 98.0657 26.327 95.6478 35.2005C94.4692 39.7143 94.2085 44.4223 94.8813 49.0377C95.5828 53.8727 97.4948 58.442 100.435 62.3093C101.924 64.3962 103.732 66.2283 105.791 67.7368C108.085 69.4446 110.735 70.5984 113.538 71.1106C116.272 71.5385 119.065 71.376 121.735 70.6338C124.405 69.8917 126.892 68.5866 129.033 66.8038C132.91 63.5722 135.55 59.0671 136.495 54.0718C137.387 49.5024 137.382 44.8014 136.482 40.2376C135.635 35.7421 134.108 31.4076 131.957 27.3871C129.26 22.3757 125.74 17.8687 121.549 14.0597C122.698 13.5004 123.883 13.019 125.095 12.619C132.228 10.2061 139.798 9.43049 147.256 10.3482C154.217 11.1561 161.015 13.0281 167.418 15.9005C173.024 18.3796 178.308 21.5438 183.155 25.3231C187.2 28.6311 190.943 32.3031 194.337 36.2943C199.711 42.4825 204.398 49.251 208.315 56.4786C210.981 61.3053 213.282 66.3308 215.198 71.512C216.708 75.6807 217.66 78.7532 218.341 81.1566C218.967 83.2314 219.324 84.6168 219.645 85.6751L218.383 84.6282C214.786 81.6434 211.483 79.0049 208.644 76.8471C202.964 72.5517 199.15 70.0579 198.602 70.7069C198.054 71.3559 200.807 74.6837 205.752 79.7156C208.223 82.2518 211.225 85.1722 214.627 88.3656L215.917 89.5769C216.467 90.1043 217.06 90.5826 217.69 91.0066C218.1 91.272 218.531 91.5008 218.979 91.6904C219.549 91.9327 220.15 92.0933 220.763 92.1676C222.027 92.3205 223.308 92.0602 224.417 91.4245C225.78 90.5259 226.964 89.3751 227.908 88.0324L230.344 85.1098C243.562 68.6466 253.266 54.5393 251.935 53.609C250.605 52.6787 238.795 65.2505 225.558 81.7122L223.836 83.8968C223.781 82.7096 223.648 81.5275 223.439 80.3583C222.887 76.8595 222.073 73.4089 221.005 70.0362C219.305 64.4661 217.102 59.0678 214.424 53.9095C210.481 46.1549 205.65 38.9001 200.032 32.295C196.352 27.9333 192.278 23.9302 187.863 20.3379C182.531 16.1306 176.699 12.618 170.504 9.88214C163.368 6.67817 155.788 4.60408 148.027 3.73221C139.396 2.70028 130.642 3.64508 122.41 6.49707C120.034 7.30883 117.746 8.36229 115.578 9.64132C114.836 9.14001 114.093 8.63869 113.326 8.19642C109.485 5.88091 105.354 4.10081 101.043 2.90403C96.8671 1.72678 92.5695 1.04721 88.2367 0.879077C84.1044 0.679364 79.9618 0.860882 75.8602 1.42139C72.0116 1.89042 68.1973 2.61708 64.4422 3.59662C57.6082 5.40505 50.9139 7.72196 44.4138 10.5285C38.3453 13.0938 32.8228 15.6658 27.8463 18.2444C20.0439 22.1209 12.8464 27.1437 6.48661 33.1503C4.82221 34.7671 3.28246 36.5108 1.88095 38.3663C0.965425 39.6574 0.53823 40.295 0.628675 40.4234C0.71912 40.5518 2.96626 38.0209 7.51293 34.1392L7.47315 34.1363ZM115.091 18.1038C115.622 17.6768 116.19 17.293 116.759 16.9092C120.854 20.55 124.251 24.9277 126.778 29.8223C128.614 33.4012 129.9 37.2449 130.591 41.2204C131.304 45.1152 131.252 49.1161 130.437 52.9936C129.682 56.6826 127.683 59.9917 124.784 62.3509C123.374 63.5266 121.736 64.3884 119.978 64.88C118.219 65.3716 116.378 65.482 114.576 65.204C111.001 64.281 107.896 62.0406 105.865 58.9191C103.572 55.8224 102.101 52.1798 101.591 48.3387C101.114 44.5222 101.402 40.6458 102.437 36.9414C103.454 33.2155 105.067 29.683 107.211 26.4846C109.341 23.2629 111.991 20.4284 115.051 18.1009" fill="#FFB700"/>
</svg>
