<svg width="47" height="56" viewBox="0 0 47 56" fill="none" xmlns="http://www.w3.org/2000/svg">
<path d="M41.584 3.59077C39.9826 5.35291 36.1055 10.1358 32.9027 14.1636C29.6999 18.2752 26.8342 21.296 26.4971 20.8765C26.0757 20.5408 25.2328 17.1844 24.4743 13.4923C22.9572 6.0242 22.1143 4.76553 20.1758 6.35984C19.3329 7.03113 18.9115 8.79326 18.9115 11.4784C18.9115 15.3383 17.9001 17.3522 16.8044 15.5901C16.1301 14.4992 5.17321 8.03806 3.99324 8.03806C3.48753 8.03806 2.81326 8.62544 2.56041 9.38064C2.22327 10.3037 4.24609 12.9888 9.38742 18.1913C13.3488 22.303 16.5516 25.7433 16.2987 25.9111C16.1301 26.079 12.9274 27.2537 9.21885 28.5124C1.88613 31.1136 0.369019 31.9527 0.369019 33.7149C0.369019 35.1414 3.48753 35.2253 11.4102 33.9666C14.613 33.3792 17.4787 33.2114 17.7315 33.4631C18.0687 33.7149 15.9616 37.9104 13.0959 42.6934C8.12316 51.1684 6.77461 55.0283 9.05028 55.0283C10.4831 55.0283 13.5173 51.7558 18.4058 44.7072C20.5972 41.6025 22.7043 39.0852 22.9572 39.0852C23.2943 39.0852 24.4743 41.5186 25.4857 44.4555C27.3399 49.658 29.2785 51.8397 30.1213 49.7419C30.2899 49.1545 30.037 45.7981 29.447 42.1899C28.8571 38.5817 28.7728 35.477 29.1099 35.2253C29.5313 34.9736 32.0599 36.3161 34.6727 38.0783C48.0738 47.1407 50.7709 45.9659 40.404 35.7288C36.9483 32.2884 34.0827 29.2676 34.0827 28.9319C34.0827 28.5963 36.5269 27.6733 39.5611 26.9181C48.2424 24.5686 47.821 22.1351 38.9711 22.8064C36.2741 22.9743 34.0827 22.9743 34.0827 22.7225C34.0827 22.4708 36.7798 18.1074 39.9826 12.9049C45.461 4.17815 46.9781 0.486057 45.1239 0.486057C44.7025 0.486057 43.1011 1.91255 41.584 3.59077Z" fill="#38B000"/>
</svg>
