<svg width="28" height="32" viewBox="0 0 28 32" fill="none" xmlns="http://www.w3.org/2000/svg">
<path d="M19.327 29.3357C18.998 28.1549 17.9767 25.1568 17.0997 22.6595C16.1863 20.1395 15.6552 18.0622 15.9298 18.0268C16.1909 17.9316 17.881 18.4652 19.6941 19.1266C23.3569 20.4718 24.1346 20.4398 23.9707 19.1557C23.9089 18.6033 23.2576 17.9425 22.0897 17.2184C20.4108 16.1776 19.8111 15.1889 20.8769 15.1812C21.5355 15.1783 27.339 12.0924 27.6613 11.5725C27.7995 11.3496 27.7282 10.8941 27.4688 10.5791C27.1594 10.1816 25.4389 10.3489 21.7716 11.2116C18.901 11.8484 16.5297 12.332 16.5258 12.1753C16.4989 12.0558 16.8628 10.3278 17.3284 8.35424C18.2001 4.42172 18.2495 3.52695 17.4831 3.0518C16.8626 2.66715 15.9742 4.01867 14.3574 7.84914C13.738 9.41882 13.0282 10.7268 12.8496 10.7703C12.648 10.851 11.3987 8.79122 10.1012 6.23878C7.77333 1.7623 6.46282 0.127262 5.84117 1.13002C5.44976 1.76138 6.0443 3.98082 7.77471 8.03551C8.5265 9.83831 9.04583 11.4456 8.97676 11.557C8.88466 11.7056 7.50389 11.5693 5.95019 11.2231C3.1808 10.6373 1.70231 10.9032 2.38451 11.8403C2.59394 12.0729 4.12292 12.8666 5.85349 13.5795C7.58406 14.2925 8.9575 15.0925 8.9749 15.309C8.96927 15.5625 7.69459 16.3147 6.21439 16.9909C-1.38819 20.4523 -1.61399 21.9575 5.67069 20.1499C8.11108 19.5548 10.2078 19.1067 10.3538 19.1972C10.4998 19.2877 10.2336 20.6136 9.73319 22.1542C8.38365 26.6131 9.5572 27.0836 11.6827 23.003C12.3465 21.7692 12.9451 20.8036 13.0546 20.8715C13.1641 20.9394 14.3252 23.3044 15.7132 26.1185C18.0124 30.8857 19.2038 32.5498 19.7104 31.7327C19.8255 31.547 19.6425 30.4567 19.327 29.3357Z" fill="#FFD000"/>
</svg>
