<svg width="87" height="93" viewBox="0 0 87 93" fill="none" xmlns="http://www.w3.org/2000/svg">
<path d="M16.7389 75.8771C17.2406 76.8897 22.6314 78.3322 28.895 79.2646C38.6401 80.6841 40.3357 80.5036 41.1513 78.5861C43.4002 73.8046 41.236 72.4128 29.7952 71.1738C17.3667 70.0168 14.0738 71.0856 16.7389 75.8771Z" fill="#38B000"/>
<path d="M38.5611 48.043C49.6613 57.4059 53.2166 59.0206 53.4817 54.5429C53.5893 52.7239 49.8951 48.714 42.4072 42.3732C36.1206 37.0865 30.6156 32.8289 29.9159 32.7875C29.3562 32.7544 28.7054 34.2604 28.5977 36.0794C28.4486 38.5981 30.9415 41.554 38.5611 48.043Z" fill="#38B000"/>
<path d="M56.3992 25.4679C61.5066 36.4419 67.9479 46.2311 69.5451 45.3427C72.303 43.821 71.3005 39.4087 65.8139 30.0973C62.8938 24.8694 59.7104 19.3452 58.8303 17.6081C57.9503 15.871 56.7738 14.3972 56.0741 14.3558C53.1357 14.1818 53.2821 18.8242 56.3992 25.4679Z" fill="#38B000"/>
</svg>
