<svg width="55" height="56" viewBox="0 0 55 56" fill="none" xmlns="http://www.w3.org/2000/svg">
<rect y="0.452148" width="55.0037" height="55.0037" rx="9.2964" fill="white"/>
<g clip-path="url(#clip0_998_778)">
<circle cx="26.6211" cy="28.1547" r="25.4978" fill="white"/>
<path d="M23.1394 31.606C23.1394 29.6647 23.1394 27.8621 23.1394 25.9208C23.2781 23.4248 24.6647 22.1768 26.8834 23.1475C27.9927 23.5635 28.686 23.7021 29.518 23.2862C31.5979 22.1768 33.4005 23.0088 35.3418 23.7021C36.5898 24.1181 37.2831 25.0888 37.6991 26.3367C38.8084 29.942 38.8085 33.5473 38.6698 37.1526C38.6698 38.1232 38.2538 38.8165 37.1445 38.9552C36.8672 38.9552 36.7285 38.9552 36.4512 39.0938C32.5686 39.7872 32.1525 39.5098 32.5685 35.6272C32.7072 33.9633 32.9845 32.2993 32.5685 30.6353C32.2912 29.8033 32.0139 28.8327 30.9046 28.694C29.934 28.5554 29.2406 29.2487 28.686 29.942C28.1313 30.6353 27.9926 31.4673 27.9926 32.4379C27.9926 33.8246 27.9926 35.0726 27.9926 36.4592C27.9926 39.2325 27.854 39.3712 25.358 39.2325C23.0007 39.2325 23.0007 39.2325 23.0007 36.8752C23.1394 35.2112 23.1394 33.4086 23.1394 31.606Z" fill="#007200"/>
<path d="M15.5129 31.3295C15.5129 29.3882 15.5129 27.5855 15.5129 25.6442C15.5129 23.9803 16.4836 23.7029 17.8702 23.5643C19.3956 23.5643 19.6729 24.3963 19.6729 25.6442C19.9502 29.2495 19.9502 32.8548 19.8115 36.46C19.8115 37.708 19.8115 39.2333 17.8702 39.2333C16.2063 39.372 15.3743 38.6787 15.3743 37.0147C15.3743 35.0734 15.3743 32.9934 15.3743 31.0521C15.3743 31.3294 15.5129 31.3295 15.5129 31.3295Z" fill="#007200"/>
<path d="M16.7608 15.937C18.8408 15.937 19.9501 16.769 19.9501 18.017C19.9501 19.5423 18.1475 21.3449 16.7608 21.3449C15.3742 21.3449 14.4036 20.2356 14.4036 18.7103C14.5422 16.9077 15.3742 15.937 16.7608 15.937Z" fill="#007200"/>
</g>
<defs>
<clipPath id="clip0_998_778">
<rect width="50.9956" height="50.9956" fill="white" transform="translate(1.12329 2.65692)"/>
</clipPath>
</defs>
</svg>
