<svg width="50" height="49" viewBox="0 0 50 49" fill="none" xmlns="http://www.w3.org/2000/svg">
<rect x="0.776611" y="0.0256348" width="48.2344" height="48.2344" rx="8.01" fill="url(#paint0_linear_360_836)"/>
<path d="M25.1241 35.6914C23.161 35.6914 21.1978 35.8089 19.3502 35.6914C16.6942 35.4563 15.6548 34.516 15.1929 31.6951C14.6155 28.4041 14.3846 25.2306 14.731 21.9395C14.8465 20.7642 14.962 19.4713 15.1929 18.2959C15.5394 15.8276 16.5787 14.7698 19.0037 14.1821C20.0431 13.947 20.9669 13.8295 22.0062 13.947C24.2003 14.0645 26.3944 14.0645 28.5885 13.8294C29.6278 13.7119 30.5517 13.8295 31.591 13.947C33.5541 14.1821 34.9399 15.2399 35.1708 17.2381C35.8637 22.1746 36.4411 27.1112 35.5173 32.0477C35.0554 34.3985 34.016 35.3388 31.7065 35.8089C29.6278 35.9265 27.4337 35.8089 25.1241 35.6914ZM25.5861 19.9414C22.93 19.8239 20.6204 21.822 20.3895 24.2903C20.1585 27.3463 22.0062 29.3444 25.1241 29.5795C27.5492 29.697 29.8588 27.5813 30.0898 24.878C30.3207 22.4097 28.2421 20.0589 25.5861 19.9414ZM32.7458 18.0608C32.6303 17.3556 32.2839 16.8854 31.4755 16.8854C30.5517 16.8854 30.0898 17.4731 30.0898 18.2959C30.0898 19.1186 30.5517 19.7063 31.4755 19.7063C32.3993 19.5888 32.7458 19.0011 32.7458 18.0608Z" fill="white"/>
<defs>
<linearGradient id="paint0_linear_360_836" x1="24.8938" y1="0.0256348" x2="24.8938" y2="48.2601" gradientUnits="userSpaceOnUse">
<stop stop-color="#FFC909"/>
<stop offset="1" stop-color="#FFAA00"/>
</linearGradient>
</defs>
</svg>
