<svg width="49" height="49" viewBox="0 0 49 49" fill="none" xmlns="http://www.w3.org/2000/svg">
<rect y="0.0256348" width="48.2344" height="48.2344" rx="8.01" fill="url(#paint0_linear_360_816)"/>
<path d="M20.2913 27.3458C20.2913 25.6434 20.2913 24.0626 20.2913 22.3602C20.4129 20.1714 21.6289 19.077 23.5745 19.9282C24.5473 20.293 25.1552 20.4146 25.8848 20.0498C27.7088 19.077 29.2896 19.8066 30.992 20.4146C32.0863 20.7794 32.6943 21.6306 33.0591 22.725C34.0319 25.8865 34.0319 29.0481 33.9103 32.2097C33.9103 33.0609 33.5455 33.6689 32.5728 33.7905C32.3296 33.7905 32.208 33.7905 31.9648 33.9121C28.56 34.5201 28.1952 34.2769 28.56 30.8721C28.6816 29.4129 28.9248 27.9537 28.56 26.4945C28.3168 25.765 28.0736 24.9138 27.1008 24.7922C26.2496 24.6706 25.6416 25.2786 25.1552 25.8866C24.6688 26.4945 24.5472 27.2241 24.5472 28.0753C24.5472 29.2913 24.5472 30.3857 24.5472 31.6017C24.5472 34.0337 24.4256 34.1553 22.2369 34.0337C20.1697 34.0337 20.1697 34.0337 20.1697 31.9665C20.2913 30.5073 20.2913 28.9265 20.2913 27.3458Z" fill="white"/>
<path d="M13.6035 27.1032C13.6035 25.4009 13.6035 23.8201 13.6035 22.1177C13.6035 20.6585 14.4547 20.4153 15.6707 20.2937C17.0083 20.2937 17.2515 21.0233 17.2515 22.1177C17.4947 25.2792 17.4947 28.4408 17.3731 31.6024C17.3731 32.6968 17.3731 34.0344 15.6707 34.0344C14.2115 34.156 13.4819 33.548 13.4819 32.0888C13.4819 30.3864 13.4819 28.5624 13.4819 26.86C13.4819 27.1032 13.6035 27.1032 13.6035 27.1032Z" fill="white"/>
<path d="M14.6978 13.605C16.5217 13.605 17.4946 14.3346 17.4946 15.429C17.4946 16.7665 15.9138 18.3473 14.6978 18.3473C13.4818 18.3473 12.6306 17.3745 12.6306 16.037C12.7522 14.4562 13.4818 13.605 14.6978 13.605Z" fill="white"/>
<defs>
<linearGradient id="paint0_linear_360_816" x1="24.1172" y1="0.0256348" x2="24.1172" y2="48.2601" gradientUnits="userSpaceOnUse">
<stop stop-color="#FFC909"/>
<stop offset="1" stop-color="#FFAA00"/>
</linearGradient>
</defs>
</svg>
