<svg width="67" height="67" viewBox="0 0 67 67" fill="none" xmlns="http://www.w3.org/2000/svg">
<rect x="0.893555" y="0.569824" width="66.0392" height="66.0392" rx="11.1615" fill="white"/>
<path d="M44.8462 47.3036H37.585C38.8047 46.2339 39.9551 45.0901 41.0291 43.8791C45.0591 39.327 47.1952 34.5284 47.1952 30.0008C47.1952 26.6356 45.8341 23.4082 43.4112 21.0286C40.9884 18.649 37.7023 17.3121 34.2758 17.3121C30.8494 17.3121 27.5633 18.649 25.1404 21.0286C22.7176 23.4082 21.3564 26.6356 21.3564 30.0008C21.3564 34.5284 23.4867 39.327 27.5225 43.8791C28.5966 45.0901 29.7469 46.2339 30.9667 47.3036H23.7054C23.3939 47.3036 23.0952 47.4251 22.8749 47.6414C22.6547 47.8577 22.5309 48.1512 22.5309 48.4571C22.5309 48.763 22.6547 49.0564 22.8749 49.2727C23.0952 49.4891 23.3939 49.6106 23.7054 49.6106H44.8462C45.1577 49.6106 45.4565 49.4891 45.6767 49.2727C45.897 49.0564 46.0207 48.763 46.0207 48.4571C46.0207 48.1512 45.897 47.8577 45.6767 47.6414C45.4565 47.4251 45.1577 47.3036 44.8462 47.3036ZM23.7054 30.0008C23.7054 27.2474 24.8191 24.6068 26.8014 22.6599C28.7838 20.7129 31.4724 19.6192 34.2758 19.6192C37.0793 19.6192 39.7679 20.7129 41.7502 22.6599C43.7326 24.6068 44.8462 27.2474 44.8462 30.0008C44.8462 38.2528 36.7026 45.1407 34.2758 47.0152C31.849 45.1407 23.7054 38.2528 23.7054 30.0008ZM40.1483 30.0008C40.1483 28.8601 39.8039 27.745 39.1586 26.7965C38.5133 25.848 37.5962 25.1088 36.5231 24.6723C35.4501 24.2357 34.2693 24.1215 33.1302 24.3441C31.991 24.5666 30.9447 25.1159 30.1234 25.9225C29.3021 26.7291 28.7428 27.7568 28.5162 28.8756C28.2896 29.9944 28.4059 31.1541 28.8504 32.208C29.2949 33.2619 30.0476 34.1626 31.0133 34.7964C31.979 35.4301 33.1144 35.7684 34.2758 35.7684C35.8333 35.7684 37.327 35.1607 38.4283 34.0791C39.5296 32.9975 40.1483 31.5305 40.1483 30.0008ZM30.7524 30.0008C30.7524 29.3164 30.959 28.6473 31.3462 28.0782C31.7333 27.5092 32.2836 27.0656 32.9275 26.8037C33.5713 26.5418 34.2797 26.4732 34.9632 26.6068C35.6467 26.7403 36.2745 27.0699 36.7673 27.5538C37.2601 28.0378 37.5956 28.6544 37.7316 29.3257C37.8675 29.997 37.7978 30.6928 37.5311 31.3251C37.2644 31.9574 36.8128 32.4979 36.2334 32.8782C35.6539 33.2584 34.9727 33.4614 34.2758 33.4614C33.3413 33.4614 32.4451 33.0968 31.7844 32.4478C31.1236 31.7988 30.7524 30.9186 30.7524 30.0008Z" fill="#38B000" stroke="#38B000" stroke-width="0.13698"/>
</svg>
