<svg width="67" height="67" viewBox="0 0 67 67" fill="none" xmlns="http://www.w3.org/2000/svg">
<rect x="0.893555" y="0.286224" width="66.0392" height="66.0392" rx="11.1615" fill="white"/>
<path d="M42.9168 32.453V31.6756C42.9168 31.5592 42.9168 31.5011 42.9161 31.4518C42.8628 27.7335 39.8615 24.7322 36.1432 24.6789C36.094 24.6782 36.0358 24.6782 35.9194 24.6782H35.142M47.7762 33.4249V32.0643C47.7762 30.9034 47.7762 30.323 47.7324 29.8337C47.2581 24.5358 43.0594 20.3371 37.7615 19.8627C37.2722 19.8189 36.6917 19.8189 35.5309 19.8189L34.1703 19.8189M29.7416 29.7468C29.1186 31.1759 29.4339 32.8407 30.5363 33.943L33.8304 37.2372C34.9328 38.3396 36.5975 38.6548 38.0266 38.0319C39.4557 37.409 41.1205 37.7242 42.2228 38.8266L44.227 40.8307C44.3241 40.9278 44.3726 40.9764 44.4119 41.0192C45.3782 42.0708 45.3782 43.6872 44.4119 44.7389C44.3726 44.7817 44.3241 44.8302 44.227 44.9273L43.0088 46.1455C42.0167 47.1375 40.5866 47.554 39.2171 47.2496C29.8854 45.1759 22.5975 37.8881 20.5238 28.5564C20.2195 27.1869 20.6359 25.7567 21.628 24.7647L22.8462 23.5465C22.9433 23.4494 22.9918 23.4009 23.0346 23.3616C24.0862 22.3952 25.7027 22.3952 26.7543 23.3616C26.7971 23.4009 26.8456 23.4494 26.9427 23.5465L28.9469 25.5507C30.0492 26.653 30.3645 28.3177 29.7416 29.7468Z" stroke="#38B000" stroke-width="2.06161" stroke-linecap="round"/>
</svg>
