<svg width="55" height="55" viewBox="0 0 55 55" fill="none" xmlns="http://www.w3.org/2000/svg">
<rect width="55.0037" height="55.0037" rx="9.2964" fill="white"/>
<g clip-path="url(#clip0_998_789)">
<circle cx="27.7026" cy="27.7027" r="25.4978" fill="white"/>
<path d="M24.6708 34.4314C24.5402 32.733 24.5402 31.0346 24.4096 29.2056C24.4096 28.2911 24.0176 27.6378 22.9725 27.6378C22.3192 27.6378 21.666 27.7685 21.5354 26.854C21.4047 25.6781 21.1434 24.3717 21.5354 23.1959C21.5354 23.0653 22.058 22.804 22.3192 22.804C24.2789 23.1959 24.6708 22.1508 24.6708 20.583C24.6708 16.4024 28.1983 14.1814 32.7708 14.4427C34.0773 14.5733 34.0773 15.6185 34.0773 16.533C33.9466 17.4475 34.4692 18.754 32.7708 18.754C31.3337 18.6234 30.2886 19.1459 30.2886 20.8443C30.2886 22.0201 30.4192 22.9346 31.8563 23.0653C33.9466 23.1959 33.5547 24.633 33.5547 26.0701C33.6853 27.6379 32.9015 28.1604 31.4644 28.1604C30.0273 28.1604 29.766 28.9443 29.766 30.2507C29.766 33.1249 29.766 35.8684 29.6353 38.7426C29.5047 40.5717 29.1128 40.7023 26.6305 40.5716C24.9321 40.5716 24.6708 39.7878 24.8015 38.3507C24.5402 37.1749 24.5402 35.8685 24.6708 34.4314Z" fill="#007200"/>
</g>
<defs>
<clipPath id="clip0_998_789">
<rect width="50.9956" height="50.9956" fill="white" transform="translate(2.20483 2.20493)"/>
</clipPath>
</defs>
</svg>
