<svg width="67" height="67" viewBox="0 0 67 67" fill="none" xmlns="http://www.w3.org/2000/svg">
<rect x="0.893555" y="0.928528" width="66.0392" height="66.0392" rx="11.1615" fill="white"/>
<path d="M24.9137 28.1879L25.645 27.4566L24.9137 28.1879ZM22.2539 25.5281L21.5226 26.2594L22.2539 25.5281ZM33.2851 45.1774C32.7139 45.1774 32.2509 45.6404 32.2509 46.2116C32.2509 46.7827 32.7139 47.2457 33.2851 47.2457V45.1774ZM47.1362 43.3695L46.2995 42.7617L47.1362 43.3695ZM45.6109 44.8948L45.003 44.0582L45.6109 44.8948ZM45.6109 22.7081L46.2188 21.8715V21.8715L45.6109 22.7081ZM47.1362 24.2334L46.2995 24.8413V24.8413L47.1362 24.2334ZM23.717 22.7081L23.1091 21.8715V21.8715L23.717 22.7081ZM19.8408 33.8015C19.8408 34.3726 20.3038 34.8357 20.875 34.8357C21.4461 34.8357 21.9092 34.3726 21.9092 33.8015H19.8408ZM22.1917 24.2334L21.3551 23.6256H21.3551L22.1917 24.2334ZM19.4961 42.4196C18.9249 42.4196 18.4619 42.8826 18.4619 43.4538C18.4619 44.0249 18.9249 44.4879 19.4961 44.4879V42.4196ZM27.7695 44.4879C28.3406 44.4879 28.8036 44.0249 28.8036 43.4538C28.8036 42.8826 28.3406 42.4196 27.7695 42.4196V44.4879ZM19.4961 38.2829C18.9249 38.2829 18.4619 38.7459 18.4619 39.3171C18.4619 39.8882 18.9249 40.3512 19.4961 40.3512V38.2829ZM23.6328 40.3512C24.2039 40.3512 24.667 39.8882 24.667 39.3171C24.667 38.7459 24.2039 38.2829 23.6328 38.2829V40.3512ZM21.7313 25.0055L20.7997 24.5566L21.7313 25.0055ZM25.645 27.4566L23.1524 24.9641L21.6899 26.4267L24.1824 28.9192L25.645 27.4566ZM46.1755 24.9641L43.683 27.4566L45.1455 28.9192L47.638 26.4267L46.1755 24.9641ZM24.1824 28.9192C26.4599 31.1967 28.24 32.9799 29.8142 34.181C31.4123 35.4002 32.919 36.1166 34.664 36.1166V34.0482C33.5531 34.0482 32.4829 33.6155 31.0688 32.5366C29.6309 31.4395 27.9638 29.7755 25.645 27.4566L24.1824 28.9192ZM43.683 27.4566C41.3641 29.7755 39.697 31.4395 38.2591 32.5366C36.845 33.6155 35.7748 34.0482 34.664 34.0482V36.1166C36.4089 36.1166 37.9157 35.4002 39.5137 34.181C41.0879 32.9799 42.868 31.1967 45.1455 28.9192L43.683 27.4566ZM25.645 27.4566L22.9852 24.7968L21.5226 26.2594L24.1824 28.9192L25.645 27.4566ZM46.3427 24.7968L43.683 27.4566L45.1455 28.9192L47.8053 26.2594L46.3427 24.7968ZM33.2851 22.4256H36.0428V20.3572H33.2851V22.4256ZM36.0428 45.1774H33.2851V47.2457H36.0428V45.1774ZM47.4187 33.8015C47.4187 36.4098 47.4173 38.2829 47.2602 39.7334C47.1051 41.1646 46.8085 42.0612 46.2995 42.7617L47.9729 43.9774C48.7806 42.8656 49.1424 41.5634 49.3165 39.9562C49.4885 38.3684 49.4871 36.3637 49.4871 33.8015H47.4187ZM36.0428 47.2457C38.6051 47.2457 40.6098 47.2471 42.1976 47.0751C43.8047 46.901 45.1069 46.5393 46.2188 45.7315L45.003 44.0582C44.3026 44.5671 43.406 44.8637 41.9748 45.0188C40.5243 45.176 38.6511 45.1774 36.0428 45.1774V47.2457ZM46.2995 42.7617C45.9381 43.2592 45.5005 43.6967 45.003 44.0582L46.2188 45.7315C46.8919 45.2425 47.4838 44.6505 47.9729 43.9774L46.2995 42.7617ZM36.0428 22.4256C38.6511 22.4256 40.5243 22.427 41.9748 22.5842C43.406 22.7392 44.3026 23.0359 45.003 23.5448L46.2188 21.8715C45.1069 21.0637 43.8047 20.702 42.1976 20.5279C40.6098 20.3558 38.6051 20.3572 36.0428 20.3572V22.4256ZM45.003 23.5448C45.5005 23.9063 45.9381 24.3438 46.2995 24.8413L47.9729 23.6256C47.4838 22.9525 46.8919 22.3605 46.2188 21.8715L45.003 23.5448ZM33.2851 20.3572C30.7228 20.3572 28.7181 20.3558 27.1303 20.5279C25.5232 20.702 24.221 21.0637 23.1091 21.8715L24.3249 23.5448C25.0254 23.0359 25.9219 22.7392 27.3531 22.5842C28.8036 22.427 30.6768 22.4256 33.2851 22.4256V20.3572ZM23.1091 21.8715C22.436 22.3605 21.8441 22.9525 21.3551 23.6256L23.0284 24.8413C23.3898 24.3438 23.8274 23.9063 24.3249 23.5448L23.1091 21.8715ZM19.4961 44.4879H27.7695V42.4196H19.4961V44.4879ZM19.4961 40.3512H23.6328V38.2829H19.4961V40.3512ZM21.9092 33.8015C21.9092 31.5467 21.9098 29.8371 22.0133 28.468C22.1165 27.1013 22.3171 26.1722 22.663 25.4545L20.7997 24.5566C20.2892 25.6161 20.0616 26.845 19.9508 28.3122C19.8401 29.7768 19.8408 31.5765 19.8408 33.8015H21.9092ZM22.663 25.4545C22.7689 25.2347 22.8897 25.0321 23.0284 24.8413L21.3551 23.6256C21.1419 23.919 20.9579 24.2283 20.7997 24.5566L22.663 25.4545ZM22.9852 24.7968L22.4626 24.2743L21.0001 25.7368L21.5226 26.2594L22.9852 24.7968ZM49.4871 33.8015C49.4871 31.5765 49.4878 29.7768 49.3771 28.3122C49.2663 26.845 49.0387 25.6161 48.5282 24.5566L46.6649 25.4545C47.0108 26.1722 47.2114 27.1013 47.3146 28.468C47.4181 29.8371 47.4187 31.5467 47.4187 33.8015H49.4871ZM48.5282 24.5566C48.37 24.2283 48.186 23.919 47.9729 23.6256L46.2995 24.8413C46.4382 25.0321 46.559 25.2347 46.6649 25.4545L48.5282 24.5566ZM47.8053 26.2594L48.3279 25.7368L46.8653 24.2743L46.3427 24.7968L47.8053 26.2594Z" fill="#38B000"/>
</svg>
