<svg width="55" height="56" viewBox="0 0 55 56" fill="none" xmlns="http://www.w3.org/2000/svg">
<rect y="0.726074" width="55.0037" height="55.0037" rx="9.2964" fill="white"/>
<g clip-path="url(#clip0_998_798)">
<circle cx="26.6211" cy="28.4286" r="25.4978" fill="white"/>
<path d="M27.7646 41.3971C25.526 41.3971 23.2873 41.5312 21.1803 41.3971C18.1516 41.1291 16.9664 40.0568 16.4396 36.84C15.7812 33.0871 15.5179 29.4683 15.9129 25.7154C16.0446 24.375 16.1763 22.9007 16.4396 21.5603C16.8347 18.7457 18.0199 17.5394 20.7853 16.8692C21.9705 16.6011 23.024 16.4671 24.2091 16.6011C26.7112 16.7351 29.2132 16.7351 31.7152 16.4671C32.9004 16.333 33.9539 16.4671 35.139 16.6011C37.3777 16.8692 38.9579 18.0755 39.2213 20.3541C40.0114 25.9834 40.6698 31.6128 39.6164 37.2421C39.0896 39.9228 37.9044 40.9951 35.2707 41.5312C32.9004 41.6652 30.3984 41.5312 27.7646 41.3971ZM28.2914 23.4368C25.2626 23.3028 22.6289 25.5813 22.3655 28.396C22.1021 31.8809 24.2091 34.1594 27.7646 34.4275C30.53 34.5615 33.1638 32.1489 33.4271 29.0662C33.6905 26.2515 31.3201 23.5708 28.2914 23.4368ZM36.4559 21.2923C36.3242 20.4881 35.9292 19.9519 35.0074 19.9519C33.9539 19.9519 33.4271 20.6221 33.4271 21.5603C33.4271 22.4986 33.9539 23.1687 35.0074 23.1687C36.0608 23.0347 36.4559 22.3645 36.4559 21.2923Z" fill="#007200"/>
</g>
<defs>
<clipPath id="clip0_998_798">
<rect width="50.9956" height="50.9956" fill="white" transform="translate(1.12329 2.93085)"/>
</clipPath>
</defs>
</svg>
