<svg width="495" height="174" viewBox="0 0 495 174" fill="none" xmlns="http://www.w3.org/2000/svg">
<rect x="446.724" y="1" width="47.3905" height="47.3905" rx="8.00967" fill="#38B000" stroke="white" stroke-width="0.667473"/>
<path d="M476.881 24.0835V23.5256C476.881 23.4421 476.881 23.4003 476.88 23.365C476.842 20.6967 474.688 18.5429 472.02 18.5047C471.985 18.5042 471.943 18.5042 471.859 18.5042H471.302M480.368 24.7809V23.8045C480.368 22.9715 480.368 22.5549 480.337 22.2038C479.996 18.402 476.983 15.3889 473.181 15.0485C472.83 15.0171 472.414 15.0171 471.581 15.0171L470.604 15.0171M467.426 22.1415C466.979 23.167 467.205 24.3616 467.996 25.1527L470.36 27.5167C471.151 28.3077 472.346 28.534 473.372 28.0869C474.397 27.6399 475.592 27.8662 476.383 28.6572L477.821 30.0954C477.891 30.1651 477.926 30.1999 477.954 30.2306C478.647 30.9853 478.647 32.1453 477.954 32.9C477.926 32.9307 477.891 32.9655 477.821 33.0352L476.947 33.9094C476.235 34.6213 475.209 34.9201 474.226 34.7017C467.529 33.2136 462.3 27.9837 460.811 21.2872C460.593 20.3044 460.892 19.2781 461.604 18.5662L462.478 17.692C462.548 17.6224 462.582 17.5875 462.613 17.5593C463.368 16.8659 464.528 16.8659 465.282 17.5593C465.313 17.5875 465.348 17.6224 465.418 17.692L466.856 19.1302C467.647 19.9213 467.873 21.1159 467.426 22.1415Z" stroke="white" stroke-width="1.47944" stroke-linecap="round"/>
<path d="M254.802 26.3107C254.802 27.81 254.657 29.0917 254.366 30.1557C254.076 31.2036 253.657 32.0581 253.109 32.7191C252.561 33.364 251.9 33.8396 251.126 34.1459C250.352 34.4361 249.473 34.5812 248.49 34.5812C247.507 34.5812 246.62 34.4361 245.83 34.1459C245.056 33.8396 244.395 33.364 243.847 32.7191C243.315 32.0581 242.904 31.2036 242.614 30.1557C242.323 29.0917 242.178 27.81 242.178 26.3107V24.5211C242.178 23.0218 242.323 21.7482 242.614 20.7003C242.904 19.6362 243.315 18.7737 243.847 18.1127C244.395 17.4517 245.056 16.9761 245.83 16.686C246.62 16.3796 247.507 16.2265 248.49 16.2265C249.473 16.2265 250.352 16.3796 251.126 16.686C251.9 16.9761 252.561 17.4517 253.109 18.1127C253.657 18.7737 254.076 19.6362 254.366 20.7003C254.657 21.7482 254.802 23.0218 254.802 24.5211V26.3107ZM251.44 24.5211C251.44 23.4249 251.36 22.522 251.198 21.8127C251.053 21.0872 250.844 20.5149 250.57 20.0957C250.312 19.6765 250.005 19.3864 249.651 19.2251C249.296 19.0478 248.909 18.9591 248.49 18.9591C248.071 18.9591 247.684 19.0478 247.329 19.2251C246.975 19.3864 246.66 19.6765 246.386 20.0957C246.128 20.5149 245.919 21.0872 245.757 21.8127C245.612 22.522 245.54 23.4249 245.54 24.5211V26.3107C245.54 27.407 245.612 28.3098 245.757 29.0191C245.919 29.7285 246.128 30.2928 246.386 30.7119C246.66 31.1311 246.975 31.4293 247.329 31.6067C247.684 31.7679 248.071 31.8485 248.49 31.8485C248.909 31.8485 249.296 31.7679 249.651 31.6067C250.005 31.4293 250.312 31.1311 250.57 30.7119C250.844 30.2928 251.053 29.7285 251.198 29.0191C251.36 28.3098 251.44 27.407 251.44 26.3107V24.5211ZM269.454 28.6564C269.454 30.4782 268.946 31.9211 267.93 32.9851C266.914 34.0491 265.351 34.5812 263.239 34.5812C262.513 34.5812 261.731 34.5247 260.893 34.4119C260.055 34.299 259.289 34.1539 258.595 33.9766C258.467 33.9443 258.354 33.896 258.257 33.8315C258.176 33.7509 258.136 33.6219 258.136 33.4446V32.0178C258.136 31.8888 258.176 31.784 258.257 31.7034C258.338 31.6228 258.442 31.5825 258.571 31.5825H258.62C259.587 31.7115 260.45 31.8001 261.207 31.8485C261.981 31.8969 262.658 31.9211 263.239 31.9211C263.803 31.9211 264.27 31.8485 264.641 31.7034C265.012 31.5422 265.302 31.3246 265.512 31.0505C265.737 30.7603 265.891 30.4137 265.971 30.0106C266.052 29.6076 266.092 29.1562 266.092 28.6564V28.5355C266.092 27.5359 265.754 26.8346 265.076 26.4316C264.415 26.0285 263.327 25.827 261.812 25.827H258.547C258.467 25.827 258.402 25.7948 258.354 25.7303C258.305 25.6497 258.281 25.5771 258.281 25.5126V25.4643L259.055 16.8552C259.071 16.7263 259.119 16.6215 259.2 16.5409C259.297 16.4602 259.41 16.4199 259.539 16.4199H268.317C268.446 16.4199 268.559 16.4683 268.656 16.565C268.752 16.6456 268.801 16.7504 268.801 16.8794V18.7173C268.801 18.8463 268.752 18.9591 268.656 19.0559C268.559 19.1365 268.446 19.1768 268.317 19.1768H261.763L261.401 23.1911H261.812C262.731 23.1911 263.642 23.2556 264.544 23.3846C265.463 23.4974 266.286 23.7473 267.011 24.1342C267.737 24.505 268.325 25.0451 268.776 25.7545C269.228 26.4477 269.454 27.3747 269.454 28.5355V28.6564ZM290.586 29.3577C290.586 30.2605 290.425 31.0424 290.103 31.7034C289.796 32.3483 289.369 32.8884 288.821 33.3237C288.289 33.7428 287.652 34.0572 286.911 34.2668C286.169 34.4764 285.371 34.5812 284.517 34.5812C283.614 34.5812 282.783 34.5247 282.026 34.4119C281.284 34.299 280.567 34.1539 279.873 33.9766C279.744 33.9443 279.632 33.896 279.535 33.8315C279.454 33.7509 279.414 33.6461 279.414 33.5171V32.0178C279.414 31.8888 279.454 31.784 279.535 31.7034C279.615 31.6228 279.72 31.5825 279.849 31.5825H279.898C280.865 31.6792 281.727 31.7598 282.485 31.8243C283.259 31.8888 283.936 31.9211 284.517 31.9211C285.5 31.9211 286.193 31.7115 286.596 31.2923C287.015 30.857 287.225 30.2121 287.225 29.3577V28.8499C287.225 28.5274 287.193 28.2211 287.128 27.9309C287.08 27.6407 286.967 27.3828 286.79 27.1571C286.628 26.9314 286.403 26.754 286.113 26.625C285.822 26.4799 285.452 26.4074 285 26.4074H280.72C280.414 26.4074 280.26 26.2542 280.26 25.9479V24.4244C280.26 24.1181 280.414 23.9649 280.72 23.9649H285C285.452 23.9649 285.822 23.9005 286.113 23.7715C286.403 23.6425 286.628 23.4732 286.79 23.2636C286.967 23.0379 287.08 22.7881 287.128 22.514C287.193 22.2238 287.225 21.9175 287.225 21.595V21.2081C287.225 20.9018 287.185 20.6116 287.104 20.3375C287.04 20.0473 286.903 19.7975 286.693 19.5879C286.5 19.3783 286.225 19.209 285.871 19.08C285.516 18.9511 285.065 18.8866 284.517 18.8866C284.081 18.8866 283.694 18.8946 283.356 18.9108C283.033 18.9269 282.703 18.9511 282.364 18.9833C282.026 18.9994 281.663 19.0317 281.276 19.08C280.889 19.1284 280.43 19.1768 279.898 19.2251H279.849C279.72 19.2251 279.615 19.1848 279.535 19.1042C279.454 19.0236 279.414 18.9188 279.414 18.7898V17.2905C279.414 17.1615 279.454 17.0648 279.535 17.0003C279.632 16.9197 279.744 16.8633 279.873 16.831C280.567 16.6537 281.284 16.5086 282.026 16.3958C282.783 16.2829 283.614 16.2265 284.517 16.2265C285.387 16.2265 286.193 16.3152 286.935 16.4925C287.676 16.6698 288.313 16.96 288.845 17.3631C289.393 17.75 289.821 18.2578 290.127 18.8866C290.433 19.5153 290.586 20.2892 290.586 21.2081V21.595C290.586 22.4495 290.401 23.175 290.03 23.7715C289.676 24.3519 289.168 24.8194 288.507 25.1741C289.184 25.5449 289.7 26.0608 290.054 26.7218C290.409 27.3666 290.586 28.076 290.586 28.8499V29.3577ZM306.641 28.5838C306.641 29.4867 306.504 30.3089 306.23 31.0505C305.956 31.776 305.553 32.4047 305.021 32.9367C304.489 33.4526 303.836 33.8557 303.062 34.1459C302.288 34.4361 301.401 34.5812 300.402 34.5812C299.499 34.5812 298.661 34.4361 297.887 34.1459C297.113 33.8557 296.444 33.4123 295.88 32.8158C295.315 32.2032 294.872 31.4293 294.55 30.4943C294.227 29.5431 294.066 28.4146 294.066 27.1087V24.3277C294.066 22.8767 294.203 21.6353 294.477 20.6036C294.767 19.5718 295.194 18.7334 295.759 18.0885C296.323 17.4437 297.016 16.9761 297.838 16.686C298.677 16.3796 299.652 16.2265 300.764 16.2265C301.829 16.2265 302.739 16.2829 303.497 16.3958C304.255 16.5086 304.835 16.6053 305.238 16.686C305.416 16.7182 305.553 16.7746 305.649 16.8552C305.746 16.9197 305.794 17.0326 305.794 17.1938V18.6931C305.794 19.0317 305.641 19.201 305.335 19.201H305.238C305.013 19.1687 304.714 19.1365 304.344 19.1042C303.989 19.0559 303.602 19.0156 303.183 18.9833C302.78 18.9511 302.361 18.9269 301.925 18.9108C301.506 18.8946 301.119 18.8866 300.764 18.8866C300.152 18.8866 299.628 18.9591 299.193 19.1042C298.773 19.2493 298.427 19.4992 298.153 19.8539C297.895 20.1924 297.701 20.6439 297.572 21.2081C297.443 21.7724 297.371 22.4656 297.355 23.2878C297.742 23.2072 298.233 23.1427 298.83 23.0944C299.426 23.046 300.055 23.0218 300.716 23.0218C301.506 23.0218 302.256 23.1186 302.965 23.312C303.674 23.4894 304.303 23.7876 304.851 24.2068C305.399 24.6098 305.835 25.158 306.157 25.8512C306.48 26.5283 306.641 27.3586 306.641 28.342V28.5838ZM303.352 28.342C303.352 27.7778 303.263 27.3102 303.086 26.9394C302.909 26.5686 302.667 26.2784 302.361 26.0688C302.054 25.8431 301.7 25.69 301.296 25.6094C300.893 25.5126 300.474 25.4643 300.039 25.4643C299.684 25.4643 299.241 25.4885 298.709 25.5368C298.177 25.5852 297.726 25.6497 297.355 25.7303V27.1087C297.355 28.1244 297.427 28.9466 297.572 29.5753C297.734 30.2041 297.943 30.6958 298.201 31.0505C298.475 31.4052 298.798 31.647 299.168 31.776C299.555 31.9049 299.966 31.9694 300.402 31.9694C300.805 31.9694 301.184 31.9211 301.538 31.8243C301.909 31.7115 302.223 31.5261 302.481 31.2681C302.756 31.0102 302.965 30.6636 303.11 30.2283C303.271 29.793 303.352 29.2448 303.352 28.5838V28.342ZM321.873 28.5838C321.873 29.4867 321.736 30.3089 321.462 31.0505C321.188 31.776 320.785 32.4047 320.253 32.9367C319.721 33.4526 319.068 33.8557 318.294 34.1459C317.52 34.4361 316.634 34.5812 315.634 34.5812C314.731 34.5812 313.893 34.4361 313.119 34.1459C312.345 33.8557 311.676 33.4123 311.112 32.8158C310.548 32.2032 310.104 31.4293 309.782 30.4943C309.459 29.5431 309.298 28.4146 309.298 27.1087V24.3277C309.298 22.8767 309.435 21.6353 309.709 20.6036C309.999 19.5718 310.427 18.7334 310.991 18.0885C311.555 17.4437 312.248 16.9761 313.071 16.686C313.909 16.3796 314.884 16.2265 315.997 16.2265C317.061 16.2265 317.972 16.2829 318.729 16.3958C319.487 16.5086 320.067 16.6053 320.471 16.686C320.648 16.7182 320.785 16.7746 320.882 16.8552C320.978 16.9197 321.027 17.0326 321.027 17.1938V18.6931C321.027 19.0317 320.874 19.201 320.567 19.201H320.471C320.245 19.1687 319.947 19.1365 319.576 19.1042C319.221 19.0559 318.834 19.0156 318.415 18.9833C318.012 18.9511 317.593 18.9269 317.158 18.9108C316.738 18.8946 316.351 18.8866 315.997 18.8866C315.384 18.8866 314.86 18.9591 314.425 19.1042C314.006 19.2493 313.659 19.4992 313.385 19.8539C313.127 20.1924 312.934 20.6439 312.805 21.2081C312.676 21.7724 312.603 22.4656 312.587 23.2878C312.974 23.2072 313.466 23.1427 314.062 23.0944C314.659 23.046 315.287 23.0218 315.948 23.0218C316.738 23.0218 317.488 23.1186 318.197 23.312C318.907 23.4894 319.535 23.7876 320.084 24.2068C320.632 24.6098 321.067 25.158 321.389 25.8512C321.712 26.5283 321.873 27.3586 321.873 28.342V28.5838ZM318.584 28.342C318.584 27.7778 318.496 27.3102 318.318 26.9394C318.141 26.5686 317.899 26.2784 317.593 26.0688C317.286 25.8431 316.932 25.69 316.529 25.6094C316.126 25.5126 315.707 25.4643 315.271 25.4643C314.917 25.4643 314.473 25.4885 313.941 25.5368C313.409 25.5852 312.958 25.6497 312.587 25.7303V27.1087C312.587 28.1244 312.66 28.9466 312.805 29.5753C312.966 30.2041 313.175 30.6958 313.433 31.0505C313.707 31.4052 314.03 31.647 314.401 31.776C314.788 31.9049 315.199 31.9694 315.634 31.9694C316.037 31.9694 316.416 31.9211 316.771 31.8243C317.141 31.7115 317.456 31.5261 317.714 31.2681C317.988 31.0102 318.197 30.6636 318.342 30.2283C318.504 29.793 318.584 29.2448 318.584 28.5838V28.342ZM335.848 27.7133C335.848 28.0035 335.695 28.1486 335.388 28.1486H330.649C330.52 28.1486 330.407 28.1083 330.31 28.0276C330.213 27.947 330.165 27.8422 330.165 27.7133V26.1898C330.165 26.0608 330.213 25.956 330.31 25.8754C330.407 25.7787 330.52 25.7303 330.649 25.7303H335.388C335.695 25.7303 335.848 25.8834 335.848 26.1898V27.7133ZM346.06 34.3877C345.931 34.3877 345.818 34.3393 345.721 34.2426C345.625 34.1459 345.576 34.033 345.576 33.904V32.0662C345.576 31.9372 345.625 31.8324 345.721 31.7518C345.818 31.6712 345.931 31.6309 346.06 31.6309H349.3V19.733L346.133 20.7003C346.052 20.7325 345.955 20.7486 345.842 20.7486C345.665 20.7486 345.576 20.6519 345.576 20.4585V18.1853C345.576 18.0563 345.633 17.9676 345.746 17.9193L350.026 16.5167C350.107 16.4844 350.187 16.4602 350.268 16.4441C350.348 16.428 350.453 16.4199 350.582 16.4199H352.178C352.485 16.4199 352.638 16.5731 352.638 16.8794V31.6309H355.878C356.007 31.6309 356.12 31.6712 356.217 31.7518C356.313 31.8324 356.362 31.9372 356.362 32.0662V33.904C356.362 34.033 356.313 34.1459 356.217 34.2426C356.12 34.3393 356.007 34.3877 355.878 34.3877H346.06ZM371.546 20.6519C371.546 21.6676 371.288 22.5382 370.772 23.2636C370.272 23.973 369.522 24.6662 368.523 25.3434L366.346 26.7943C365.202 27.552 364.339 28.2856 363.759 28.995C363.195 29.6882 362.913 30.5346 362.913 31.5341V31.6309H370.869C370.998 31.6309 371.11 31.6712 371.207 31.7518C371.304 31.8324 371.352 31.9372 371.352 32.0662V33.904C371.352 34.033 371.304 34.1459 371.207 34.2426C371.11 34.3393 370.998 34.3877 370.869 34.3877H360.615C360.486 34.3877 360.373 34.3393 360.277 34.2426C360.18 34.1459 360.132 34.033 360.132 33.904V31.5341C360.132 30.8731 360.228 30.2363 360.422 29.6237C360.615 28.995 360.881 28.4146 361.22 27.8825C361.558 27.3344 361.945 26.8346 362.381 26.3832C362.832 25.9318 363.308 25.5368 363.807 25.1983L366.201 23.6022C366.669 23.2959 367.048 23.0299 367.338 22.8042C367.628 22.5785 367.854 22.3689 368.015 22.1754C368.176 21.9658 368.281 21.7482 368.329 21.5225C368.394 21.2807 368.426 20.9905 368.426 20.6519C368.426 19.9909 368.209 19.5315 367.773 19.2735C367.338 18.9994 366.612 18.8624 365.597 18.8624C365.242 18.8624 364.855 18.8785 364.436 18.9108C364.033 18.9269 363.614 18.9511 363.179 18.9833C362.759 19.0156 362.34 19.0559 361.921 19.1042C361.502 19.1365 361.115 19.1768 360.76 19.2251H360.712C360.583 19.2251 360.478 19.1768 360.398 19.08C360.317 18.9833 360.277 18.8705 360.277 18.7415V17.2905C360.277 17.1615 360.317 17.0648 360.398 17.0003C360.494 16.9197 360.607 16.8633 360.736 16.831C361.042 16.7504 361.397 16.6779 361.8 16.6134C362.203 16.5328 362.614 16.4683 363.033 16.4199C363.469 16.3555 363.904 16.3071 364.339 16.2748C364.791 16.2426 365.21 16.2265 365.597 16.2265C367.709 16.2265 369.224 16.5892 370.143 17.3147C371.078 18.0402 371.546 19.1526 371.546 20.6519ZM386.778 20.6519C386.778 21.6676 386.52 22.5382 386.004 23.2636C385.504 23.973 384.755 24.6662 383.755 25.3434L381.579 26.7943C380.434 27.552 379.572 28.2856 378.991 28.995C378.427 29.6882 378.145 30.5346 378.145 31.5341V31.6309H386.101C386.23 31.6309 386.343 31.6712 386.439 31.7518C386.536 31.8324 386.585 31.9372 386.585 32.0662V33.904C386.585 34.033 386.536 34.1459 386.439 34.2426C386.343 34.3393 386.23 34.3877 386.101 34.3877H375.847C375.718 34.3877 375.606 34.3393 375.509 34.2426C375.412 34.1459 375.364 34.033 375.364 33.904V31.5341C375.364 30.8731 375.461 30.2363 375.654 29.6237C375.847 28.995 376.113 28.4146 376.452 27.8825C376.791 27.3344 377.177 26.8346 377.613 26.3832C378.064 25.9318 378.54 25.5368 379.04 25.1983L381.434 23.6022C381.901 23.2959 382.28 23.0299 382.57 22.8042C382.86 22.5785 383.086 22.3689 383.247 22.1754C383.409 21.9658 383.513 21.7482 383.562 21.5225C383.626 21.2807 383.658 20.9905 383.658 20.6519C383.658 19.9909 383.441 19.5315 383.006 19.2735C382.57 18.9994 381.845 18.8624 380.829 18.8624C380.474 18.8624 380.087 18.8785 379.668 18.9108C379.265 18.9269 378.846 18.9511 378.411 18.9833C377.992 19.0156 377.572 19.0559 377.153 19.1042C376.734 19.1365 376.347 19.1768 375.993 19.2251H375.944C375.815 19.2251 375.71 19.1768 375.63 19.08C375.549 18.9833 375.509 18.8705 375.509 18.7415V17.2905C375.509 17.1615 375.549 17.0648 375.63 17.0003C375.727 16.9197 375.839 16.8633 375.968 16.831C376.275 16.7504 376.629 16.6779 377.032 16.6134C377.435 16.5328 377.847 16.4683 378.266 16.4199C378.701 16.3555 379.136 16.3071 379.572 16.2748C380.023 16.2426 380.442 16.2265 380.829 16.2265C382.941 16.2265 384.456 16.5892 385.375 17.3147C386.31 18.0402 386.778 19.1526 386.778 20.6519ZM408.032 28.6564C408.032 30.4782 407.524 31.9211 406.508 32.9851C405.493 34.0491 403.929 34.5812 401.817 34.5812C401.091 34.5812 400.309 34.5247 399.471 34.4119C398.633 34.299 397.867 34.1539 397.174 33.9766C397.045 33.9443 396.932 33.896 396.835 33.8315C396.755 33.7509 396.714 33.6219 396.714 33.4446V32.0178C396.714 31.8888 396.755 31.784 396.835 31.7034C396.916 31.6228 397.021 31.5825 397.15 31.5825H397.198C398.165 31.7115 399.028 31.8001 399.785 31.8485C400.559 31.8969 401.236 31.9211 401.817 31.9211C402.381 31.9211 402.849 31.8485 403.219 31.7034C403.59 31.5422 403.88 31.3246 404.09 31.0505C404.316 30.7603 404.469 30.4137 404.549 30.0106C404.63 29.6076 404.67 29.1562 404.67 28.6564V28.5355C404.67 27.5359 404.332 26.8346 403.655 26.4316C402.994 26.0285 401.906 25.827 400.39 25.827H397.125C397.045 25.827 396.98 25.7948 396.932 25.7303C396.884 25.6497 396.859 25.5771 396.859 25.5126V25.4643L397.633 16.8552C397.649 16.7263 397.698 16.6215 397.778 16.5409C397.875 16.4602 397.988 16.4199 398.117 16.4199H406.895C407.024 16.4199 407.137 16.4683 407.234 16.565C407.33 16.6456 407.379 16.7504 407.379 16.8794V18.7173C407.379 18.8463 407.33 18.9591 407.234 19.0559C407.137 19.1365 407.024 19.1768 406.895 19.1768H400.342L399.979 23.1911H400.39C401.309 23.1911 402.22 23.2556 403.123 23.3846C404.042 23.4974 404.864 23.7473 405.589 24.1342C406.315 24.505 406.903 25.0451 407.355 25.7545C407.806 26.4477 408.032 27.3747 408.032 28.5355V28.6564ZM413.035 34.3877C412.906 34.3877 412.793 34.3393 412.696 34.2426C412.599 34.1459 412.551 34.033 412.551 33.904V32.0662C412.551 31.9372 412.599 31.8324 412.696 31.7518C412.793 31.6712 412.906 31.6309 413.035 31.6309H416.275V19.733L413.107 20.7003C413.027 20.7325 412.93 20.7486 412.817 20.7486C412.64 20.7486 412.551 20.6519 412.551 20.4585V18.1853C412.551 18.0563 412.608 17.9676 412.72 17.9193L417.001 16.5167C417.081 16.4844 417.162 16.4602 417.243 16.4441C417.323 16.428 417.428 16.4199 417.557 16.4199H419.153C419.459 16.4199 419.612 16.5731 419.612 16.8794V31.6309H422.853C422.982 31.6309 423.095 31.6712 423.192 31.7518C423.288 31.8324 423.337 31.9372 423.337 32.0662V33.904C423.337 34.033 423.288 34.1459 423.192 34.2426C423.095 34.3393 422.982 34.3877 422.853 34.3877H413.035Z" fill="#2E302F"/>
<rect x="446.49" y="63.3906" width="47.3905" height="47.3905" rx="8.00967" fill="#38B000" stroke="white" stroke-width="0.667473"/>
<path d="M463.726 82.9522L464.251 82.4274L463.726 82.9522ZM461.818 81.0435L461.293 81.5683L461.818 81.0435ZM469.734 95.1441C469.324 95.1441 468.992 95.4763 468.992 95.8862C468.992 96.2961 469.324 96.6283 469.734 96.6283V95.1441ZM479.674 93.8467L479.073 93.4105V93.4105L479.674 93.8467ZM478.579 94.9413L478.143 94.3409L478.579 94.9413ZM478.579 79.0199L479.015 78.4195V78.4195L478.579 79.0199ZM479.674 80.1144L479.073 80.5506V80.5506L479.674 80.1144ZM462.868 79.0199L462.432 78.4195V78.4195L462.868 79.0199ZM460.086 86.9806C460.086 87.3904 460.418 87.7227 460.828 87.7227C461.238 87.7227 461.57 87.3904 461.57 86.9806H460.086ZM461.773 80.1144L461.173 79.6782L461.773 80.1144ZM459.839 93.165C459.429 93.165 459.097 93.4973 459.097 93.9072C459.097 94.317 459.429 94.6493 459.839 94.6493V93.165ZM465.776 94.6493C466.186 94.6493 466.518 94.317 466.518 93.9072C466.518 93.4973 466.186 93.165 465.776 93.165V94.6493ZM459.839 90.1965C459.429 90.1965 459.097 90.5288 459.097 90.9386C459.097 91.3485 459.429 91.6808 459.839 91.6808V90.1965ZM462.807 91.6808C463.217 91.6808 463.549 91.3485 463.549 90.9386C463.549 90.5288 463.217 90.1965 462.807 90.1965V91.6808ZM461.443 80.6685L460.774 80.3463L461.443 80.6685ZM464.251 82.4274L462.463 80.6388L461.413 81.6883L463.202 83.477L464.251 82.4274ZM478.984 80.6388L477.196 82.4274L478.245 83.477L480.034 81.6883L478.984 80.6388ZM463.202 83.477C464.836 85.1113 466.114 86.391 467.243 87.2529C468.39 88.1278 469.471 88.6419 470.723 88.6419V87.1576C469.926 87.1576 469.158 86.8471 468.143 86.0729C467.112 85.2856 465.915 84.0915 464.251 82.4274L463.202 83.477ZM477.196 82.4274C475.532 84.0915 474.335 85.2856 473.303 86.0729C472.289 86.8471 471.521 87.1576 470.723 87.1576V88.6419C471.976 88.6419 473.057 88.1278 474.204 87.2529C475.333 86.391 476.611 85.1113 478.245 83.477L477.196 82.4274ZM464.251 82.4274L462.343 80.5187L461.293 81.5683L463.202 83.477L464.251 82.4274ZM479.104 80.5187L477.196 82.4274L478.245 83.477L480.154 81.5683L479.104 80.5187ZM469.734 78.8171H471.713V77.3328H469.734V78.8171ZM471.713 95.1441H469.734V96.6283H471.713V95.1441ZM479.876 86.9806C479.876 88.8523 479.875 90.1965 479.763 91.2374C479.651 92.2644 479.438 92.9078 479.073 93.4105L480.274 94.2829C480.854 93.4851 481.113 92.5506 481.238 91.3973C481.362 90.2579 481.361 88.8192 481.361 86.9806H479.876ZM471.713 96.6283C473.552 96.6283 474.99 96.6293 476.13 96.5059C477.283 96.3809 478.217 96.1214 479.015 95.5417L478.143 94.3409C477.64 94.7061 476.997 94.919 475.97 95.0303C474.929 95.143 473.585 95.1441 471.713 95.1441V96.6283ZM479.073 93.4105C478.814 93.7675 478.5 94.0815 478.143 94.3409L479.015 95.5417C479.498 95.1908 479.923 94.766 480.274 94.2829L479.073 93.4105ZM471.713 78.8171C473.585 78.8171 474.929 78.8181 475.97 78.9309C476.997 79.0422 477.64 79.255 478.143 79.6203L479.015 78.4195C478.217 77.8398 477.283 77.5802 476.13 77.4552C474.99 77.3318 473.552 77.3328 471.713 77.3328V78.8171ZM478.143 79.6203C478.5 79.8796 478.814 80.1936 479.073 80.5506L480.274 79.6782C479.923 79.1952 479.498 78.7704 479.015 78.4195L478.143 79.6203ZM469.734 77.3328C467.895 77.3328 466.457 77.3318 465.317 77.4552C464.164 77.5802 463.229 77.8398 462.432 78.4195L463.304 79.6203C463.807 79.255 464.45 79.0422 465.477 78.9309C466.518 78.8181 467.862 78.8171 469.734 78.8171V77.3328ZM462.432 78.4195C461.948 78.7704 461.524 79.1952 461.173 79.6782L462.374 80.5506C462.633 80.1936 462.947 79.8796 463.304 79.6203L462.432 78.4195ZM459.839 94.6493H465.776V93.165H459.839V94.6493ZM459.839 91.6808H462.807V90.1965H459.839V91.6808ZM461.57 86.9806C461.57 85.3625 461.571 84.1357 461.645 83.1532C461.719 82.1725 461.863 81.5057 462.111 80.9906L460.774 80.3463C460.408 81.1066 460.245 81.9885 460.165 83.0414C460.086 84.0924 460.086 85.3839 460.086 86.9806H461.57ZM462.111 80.9906C462.187 80.8329 462.274 80.6876 462.374 80.5506L461.173 79.6782C461.02 79.8888 460.888 80.1107 460.774 80.3463L462.111 80.9906ZM462.343 80.5187L461.968 80.1437L460.918 81.1933L461.293 81.5683L462.343 80.5187ZM481.361 86.9806C481.361 85.3839 481.361 84.0924 481.282 83.0414C481.202 81.9885 481.039 81.1066 480.673 80.3463L479.335 80.9906C479.584 81.5057 479.728 82.1725 479.802 83.1532C479.876 84.1357 479.876 85.3625 479.876 86.9806H481.361ZM480.673 80.3463C480.559 80.1107 480.427 79.8888 480.274 79.6782L479.073 80.5506C479.173 80.6876 479.259 80.8329 479.335 80.9906L480.673 80.3463ZM480.154 81.5683L480.529 81.1933L479.479 80.1437L479.104 80.5187L480.154 81.5683Z" fill="white"/>
<path d="M127.237 96.0284C127.237 96.2219 127.205 96.367 127.141 96.4637C127.076 96.5443 126.939 96.6088 126.729 96.6572C126.455 96.7378 126.052 96.8103 125.52 96.8748C124.988 96.9393 124.352 96.9715 123.61 96.9715C122.82 96.9715 122.086 96.8506 121.409 96.6088C120.748 96.367 120.168 96.0042 119.668 95.5206C119.184 95.0208 118.798 94.4082 118.507 93.6827C118.233 92.9411 118.096 92.0786 118.096 91.0951V88.8461C118.096 87.8627 118.233 87.0083 118.507 86.2828C118.798 85.5412 119.184 84.9285 119.668 84.4449C120.168 83.9451 120.748 83.5743 121.409 83.3325C122.086 83.0907 122.82 82.9697 123.61 82.9697C124.352 82.9697 124.988 83.002 125.52 83.0665C126.052 83.131 126.455 83.2035 126.729 83.2841C126.939 83.3325 127.076 83.405 127.141 83.5018C127.205 83.5824 127.237 83.7194 127.237 83.9129V85.4848C127.237 85.6137 127.197 85.7105 127.116 85.7749C127.036 85.8233 126.931 85.8475 126.802 85.8475H126.729C126.488 85.8152 126.262 85.7911 126.052 85.7749C125.843 85.7427 125.625 85.7266 125.399 85.7266C125.174 85.7105 124.916 85.7024 124.626 85.7024C124.335 85.6863 123.997 85.6782 123.61 85.6782C123.32 85.6782 123.038 85.7266 122.764 85.8233C122.489 85.92 122.24 86.0893 122.014 86.3311C121.804 86.5569 121.627 86.8793 121.482 87.2985C121.353 87.7015 121.288 88.2174 121.288 88.8461V91.0951C121.288 91.7239 121.353 92.2478 121.482 92.667C121.627 93.0701 121.804 93.3925 122.014 93.6343C122.24 93.86 122.489 94.0212 122.764 94.118C123.038 94.2147 123.32 94.2631 123.61 94.2631C123.997 94.2631 124.335 94.2631 124.626 94.2631C124.916 94.247 125.174 94.2389 125.399 94.2389C125.625 94.2228 125.843 94.2066 126.052 94.1905C126.262 94.1583 126.488 94.126 126.729 94.0938H126.802C126.931 94.0938 127.036 94.126 127.116 94.1905C127.197 94.2389 127.237 94.3276 127.237 94.4565V96.0284ZM140.686 90.95C140.686 91.8206 140.557 92.6267 140.299 93.3683C140.057 94.0938 139.694 94.7225 139.211 95.2546C138.727 95.7866 138.123 96.2058 137.397 96.5121C136.688 96.8184 135.857 96.9715 134.906 96.9715C133.955 96.9715 133.117 96.8184 132.391 96.5121C131.682 96.2058 131.085 95.7866 130.602 95.2546C130.118 94.7225 129.747 94.0938 129.489 93.3683C129.248 92.6267 129.127 91.8206 129.127 90.95V88.9912C129.127 88.1207 129.248 87.3226 129.489 86.5972C129.747 85.8556 130.118 85.2187 130.602 84.6867C131.085 84.1547 131.682 83.7355 132.391 83.4292C133.117 83.1229 133.955 82.9697 134.906 82.9697C135.857 82.9697 136.688 83.1229 137.397 83.4292C138.123 83.7355 138.727 84.1547 139.211 84.6867C139.694 85.2187 140.057 85.8556 140.299 86.5972C140.557 87.3226 140.686 88.1207 140.686 88.9912V90.95ZM137.494 88.9912C137.494 87.9917 137.276 87.2017 136.841 86.6213C136.406 86.0248 135.761 85.7266 134.906 85.7266C134.052 85.7266 133.407 86.0248 132.972 86.6213C132.536 87.2017 132.319 87.9917 132.319 88.9912V90.95C132.319 91.9496 132.536 92.7476 132.972 93.3441C133.407 93.9245 134.052 94.2147 134.906 94.2147C135.761 94.2147 136.406 93.9245 136.841 93.3441C137.276 92.7476 137.494 91.9496 137.494 90.95V88.9912ZM154.596 96.2702C154.596 96.3992 154.548 96.5201 154.451 96.633C154.354 96.7297 154.242 96.7781 154.113 96.7781H151.888C151.759 96.7781 151.646 96.7297 151.549 96.633C151.453 96.5201 151.404 96.3992 151.404 96.2702V88.3867C151.404 87.8547 151.38 87.4194 151.332 87.0808C151.299 86.7261 151.211 86.4521 151.066 86.2586C150.937 86.049 150.735 85.9039 150.461 85.8233C150.187 85.7266 149.816 85.6782 149.349 85.6782C148.929 85.6782 148.494 85.7588 148.043 85.92C147.607 86.0651 147.132 86.2747 146.616 86.5488V96.2702C146.616 96.3992 146.568 96.5201 146.471 96.633C146.374 96.7297 146.261 96.7781 146.132 96.7781H143.908C143.779 96.7781 143.666 96.7297 143.569 96.633C143.472 96.5201 143.424 96.3992 143.424 96.2702V83.6227C143.424 83.4937 143.472 83.3809 143.569 83.2841C143.666 83.1874 143.779 83.139 143.908 83.139H146.011C146.14 83.139 146.253 83.1874 146.35 83.2841C146.447 83.3809 146.495 83.4937 146.495 83.6227V84.1305C146.85 83.9048 147.172 83.7194 147.462 83.5743C147.769 83.4292 148.075 83.3164 148.381 83.2358C148.688 83.139 149.002 83.0745 149.324 83.0423C149.647 82.9939 150.01 82.9697 150.413 82.9697C151.283 82.9697 151.993 83.1068 152.541 83.3809C153.089 83.6549 153.508 84.0338 153.798 84.5174C154.105 85.0011 154.314 85.5734 154.427 86.2344C154.54 86.8954 154.596 87.6128 154.596 88.3867V96.2702ZM164.88 96.367C164.88 96.6088 164.727 96.7539 164.421 96.8023C164.131 96.8506 163.849 96.8909 163.574 96.9232C163.317 96.9554 163.051 96.9715 162.776 96.9715C162.099 96.9715 161.511 96.9232 161.011 96.8264C160.527 96.7297 160.132 96.5443 159.826 96.2702C159.52 95.9962 159.294 95.6092 159.149 95.1095C159.004 94.5936 158.931 93.9326 158.931 93.1265V85.5331L156.658 85.1946C156.529 85.1623 156.416 85.1059 156.32 85.0253C156.223 84.9447 156.175 84.8399 156.175 84.7109V83.6227C156.175 83.4937 156.223 83.3809 156.32 83.2841C156.416 83.1874 156.529 83.139 156.658 83.139H158.931V81.156C158.931 81.0271 158.98 80.9223 159.076 80.8417C159.173 80.7611 159.286 80.7046 159.415 80.6724L161.664 80.2855H161.761C162.019 80.2855 162.148 80.4064 162.148 80.6482V83.139H164.324C164.453 83.139 164.566 83.1874 164.663 83.2841C164.759 83.3809 164.808 83.4937 164.808 83.6227V85.0495C164.808 85.1784 164.759 85.2913 164.663 85.388C164.566 85.4848 164.453 85.5331 164.324 85.5331H162.148V93.1265C162.148 93.4328 162.156 93.6746 162.172 93.852C162.188 94.0293 162.228 94.1663 162.293 94.2631C162.357 94.3598 162.446 94.4243 162.559 94.4565C162.688 94.4727 162.865 94.4807 163.091 94.4807H164.373C164.711 94.4807 164.88 94.6016 164.88 94.8435V96.367ZM177.172 96.2944C177.172 96.4234 177.123 96.5362 177.027 96.633C176.93 96.7297 176.817 96.7781 176.688 96.7781H174.633C174.504 96.7781 174.391 96.7297 174.294 96.633C174.197 96.5362 174.149 96.4234 174.149 96.2944V95.9075C173.585 96.2461 173.02 96.5121 172.456 96.7055C171.892 96.8829 171.32 96.9715 170.739 96.9715C170.239 96.9715 169.74 96.9151 169.24 96.8023C168.74 96.6894 168.289 96.4798 167.886 96.1735C167.499 95.8672 167.176 95.4561 166.918 94.9402C166.676 94.4243 166.556 93.7552 166.556 92.933V92.8363C166.556 92.1431 166.66 91.5385 166.87 91.0226C167.096 90.5067 167.442 90.0714 167.91 89.7167C168.393 89.362 169.006 89.096 169.748 88.9187C170.505 88.7414 171.408 88.6527 172.456 88.6527H173.98V87.5886C173.98 86.7987 173.802 86.2747 173.448 86.0168C173.109 85.7588 172.577 85.6298 171.852 85.6298C171.078 85.6298 170.328 85.654 169.603 85.7024C168.877 85.7346 168.313 85.7749 167.91 85.8233H167.789C167.66 85.8233 167.555 85.7991 167.474 85.7508C167.394 85.7024 167.354 85.5895 167.354 85.4122V83.8645C167.354 83.5904 167.507 83.4212 167.813 83.3567C168.297 83.2599 168.877 83.1713 169.554 83.0907C170.247 83.0101 171.013 82.9697 171.852 82.9697C173.577 82.9697 174.891 83.3486 175.793 84.1063C176.712 84.8641 177.172 86.0248 177.172 87.5886V96.2944ZM173.98 90.7808H172.456C171.908 90.7808 171.457 90.8291 171.102 90.9259C170.763 91.0065 170.489 91.1354 170.28 91.3128C170.086 91.474 169.949 91.6836 169.869 91.9415C169.804 92.1995 169.772 92.4977 169.772 92.8363V92.933C169.772 93.5295 169.909 93.9326 170.183 94.1422C170.457 94.3356 170.9 94.4324 171.513 94.4324C171.948 94.4324 172.376 94.3679 172.795 94.2389C173.23 94.1099 173.625 93.9487 173.98 93.7552V90.7808ZM188.969 96.0284C188.969 96.2219 188.937 96.367 188.873 96.4637C188.808 96.5443 188.671 96.6088 188.462 96.6572C188.187 96.7378 187.784 96.8103 187.252 96.8748C186.72 96.9393 186.084 96.9715 185.342 96.9715C184.552 96.9715 183.818 96.8506 183.141 96.6088C182.48 96.367 181.9 96.0042 181.4 95.5206C180.916 95.0208 180.53 94.4082 180.239 93.6827C179.965 92.9411 179.828 92.0786 179.828 91.0951V88.8461C179.828 87.8627 179.965 87.0083 180.239 86.2828C180.53 85.5412 180.916 84.9285 181.4 84.4449C181.9 83.9451 182.48 83.5743 183.141 83.3325C183.818 83.0907 184.552 82.9697 185.342 82.9697C186.084 82.9697 186.72 83.002 187.252 83.0665C187.784 83.131 188.187 83.2035 188.462 83.2841C188.671 83.3325 188.808 83.405 188.873 83.5018C188.937 83.5824 188.969 83.7194 188.969 83.9129V85.4848C188.969 85.6137 188.929 85.7105 188.848 85.7749C188.768 85.8233 188.663 85.8475 188.534 85.8475H188.462C188.22 85.8152 187.994 85.7911 187.784 85.7749C187.575 85.7427 187.357 85.7266 187.131 85.7266C186.906 85.7105 186.648 85.7024 186.358 85.7024C186.067 85.6863 185.729 85.6782 185.342 85.6782C185.052 85.6782 184.77 85.7266 184.496 85.8233C184.221 85.92 183.972 86.0893 183.746 86.3311C183.536 86.5569 183.359 86.8793 183.214 87.2985C183.085 87.7015 183.02 88.2174 183.02 88.8461V91.0951C183.02 91.7239 183.085 92.2478 183.214 92.667C183.359 93.0701 183.536 93.3925 183.746 93.6343C183.972 93.86 184.221 94.0212 184.496 94.118C184.77 94.2147 185.052 94.2631 185.342 94.2631C185.729 94.2631 186.067 94.2631 186.358 94.2631C186.648 94.247 186.906 94.2389 187.131 94.2389C187.357 94.2228 187.575 94.2066 187.784 94.1905C187.994 94.1583 188.22 94.126 188.462 94.0938H188.534C188.663 94.0938 188.768 94.126 188.848 94.1905C188.929 94.2389 188.969 94.3276 188.969 94.4565V96.0284ZM199.242 96.367C199.242 96.6088 199.088 96.7539 198.782 96.8023C198.492 96.8506 198.21 96.8909 197.936 96.9232C197.678 96.9554 197.412 96.9715 197.138 96.9715C196.461 96.9715 195.872 96.9232 195.372 96.8264C194.889 96.7297 194.494 96.5443 194.187 96.2702C193.881 95.9962 193.655 95.6092 193.51 95.1095C193.365 94.5936 193.293 93.9326 193.293 93.1265V85.5331L191.019 85.1946C190.89 85.1623 190.778 85.1059 190.681 85.0253C190.584 84.9447 190.536 84.8399 190.536 84.7109V83.6227C190.536 83.4937 190.584 83.3809 190.681 83.2841C190.778 83.1874 190.89 83.139 191.019 83.139H193.293V81.156C193.293 81.0271 193.341 80.9223 193.438 80.8417C193.534 80.7611 193.647 80.7046 193.776 80.6724L196.025 80.2855H196.122C196.38 80.2855 196.509 80.4064 196.509 80.6482V83.139H198.685C198.814 83.139 198.927 83.1874 199.024 83.2841C199.121 83.3809 199.169 83.4937 199.169 83.6227V85.0495C199.169 85.1784 199.121 85.2913 199.024 85.388C198.927 85.4848 198.814 85.5331 198.685 85.5331H196.509V93.1265C196.509 93.4328 196.517 93.6746 196.533 93.852C196.549 94.0293 196.589 94.1663 196.654 94.2631C196.718 94.3598 196.807 94.4243 196.92 94.4565C197.049 94.4727 197.226 94.4807 197.452 94.4807H198.734C199.072 94.4807 199.242 94.6016 199.242 94.8435V96.367ZM217.675 88.0239C217.675 89.491 217.458 90.7163 217.022 91.6997C216.603 92.667 215.999 93.4409 215.209 94.0212C214.419 94.6016 213.476 95.0127 212.379 95.2546C211.283 95.4964 210.074 95.6173 208.752 95.6173C207.527 95.6173 206.535 95.3352 205.777 94.7709C205.02 94.1905 204.641 93.3199 204.641 92.1592C204.641 92.0786 204.641 92.006 204.641 91.9415C204.657 91.877 204.665 91.8045 204.665 91.7239L204.883 88.8945C204.996 87.5242 205.471 86.5165 206.309 85.8717C207.148 85.2268 208.236 84.9044 209.574 84.9044C209.735 84.9044 209.945 84.9205 210.203 84.9527C210.461 84.9689 210.735 84.993 211.025 85.0253C211.331 85.0575 211.638 85.0978 211.944 85.1462C212.25 85.1784 212.524 85.2187 212.766 85.2671C213.137 85.3155 213.322 85.5251 213.322 85.8959V85.9926L212.621 93.2958C213.25 93.199 213.766 93.0056 214.169 92.7154C214.588 92.4091 214.919 92.0302 215.16 91.5788C215.402 91.1113 215.571 90.5792 215.668 89.9827C215.765 89.3862 215.813 88.7333 215.813 88.0239C215.813 87.2985 215.7 86.5972 215.475 85.92C215.249 85.2429 214.894 84.6545 214.411 84.1547C213.943 83.6388 213.339 83.2277 212.597 82.9214C211.871 82.6151 211.009 82.4619 210.009 82.4619C207.881 82.4619 206.221 82.9859 205.028 84.0338C203.835 85.0817 203.15 86.5569 202.972 88.4592L202.61 92.2801C202.593 92.4252 202.577 92.5622 202.561 92.6912C202.561 92.8202 202.561 92.9491 202.561 93.0781C202.561 93.7875 202.682 94.4404 202.924 95.0369C203.166 95.6334 203.537 96.1493 204.036 96.5846C204.536 97.0199 205.165 97.3585 205.923 97.6003C206.68 97.8421 207.575 97.963 208.607 97.963C209.171 97.963 209.776 97.9469 210.421 97.9147C211.082 97.8824 211.646 97.8421 212.113 97.7938H212.258C212.371 97.7938 212.428 97.8663 212.428 98.0114V98.9062C212.428 99.0996 212.323 99.2044 212.113 99.2205C211.743 99.2689 211.259 99.3173 210.662 99.3656C210.066 99.4301 209.381 99.4624 208.607 99.4624C207.446 99.4624 206.382 99.3173 205.415 99.0271C204.447 98.7369 203.617 98.3177 202.924 97.7696C202.231 97.2375 201.691 96.5766 201.304 95.7866C200.917 94.9805 200.723 94.0696 200.723 93.0539C200.723 92.925 200.723 92.796 200.723 92.667C200.723 92.538 200.731 92.4091 200.747 92.2801L201.11 88.3383C201.207 87.2098 201.481 86.186 201.932 85.2671C202.384 84.332 202.988 83.534 203.746 82.873C204.504 82.212 205.407 81.7042 206.455 81.3495C207.519 80.9948 208.712 80.8175 210.034 80.8175C211.323 80.8175 212.444 81.019 213.395 81.4221C214.362 81.8251 215.16 82.3652 215.789 83.0423C216.418 83.7033 216.885 84.4691 217.192 85.3397C217.514 86.2102 217.675 87.105 217.675 88.0239ZM210.638 87.1775C210.412 87.1453 210.187 87.1211 209.961 87.105C209.751 87.0727 209.534 87.0566 209.308 87.0566C208.696 87.0566 208.252 87.2017 207.978 87.4919C207.704 87.7821 207.527 88.2819 207.446 88.9912L207.18 91.6997C207.164 91.7803 207.156 91.8529 207.156 91.9174C207.156 91.9818 207.156 92.0463 207.156 92.1108C207.156 92.6106 207.293 92.9653 207.567 93.1749C207.841 93.3683 208.292 93.465 208.921 93.465H209.405C209.534 93.465 209.647 93.465 209.743 93.465C209.856 93.465 209.969 93.457 210.082 93.4409L210.638 87.1775ZM231.253 90.95C231.253 91.8206 231.124 92.6267 230.866 93.3683C230.624 94.0938 230.262 94.7225 229.778 95.2546C229.294 95.7866 228.69 96.2058 227.964 96.5121C227.255 96.8184 226.425 96.9715 225.473 96.9715C224.522 96.9715 223.684 96.8184 222.958 96.5121C222.249 96.2058 221.652 95.7866 221.169 95.2546C220.685 94.7225 220.314 94.0938 220.056 93.3683C219.815 92.6267 219.694 91.8206 219.694 90.95V88.9912C219.694 88.1207 219.815 87.3226 220.056 86.5972C220.314 85.8556 220.685 85.2187 221.169 84.6867C221.652 84.1547 222.249 83.7355 222.958 83.4292C223.684 83.1229 224.522 82.9697 225.473 82.9697C226.425 82.9697 227.255 83.1229 227.964 83.4292C228.69 83.7355 229.294 84.1547 229.778 84.6867C230.262 85.2187 230.624 85.8556 230.866 86.5972C231.124 87.3226 231.253 88.1207 231.253 88.9912V90.95ZM228.061 88.9912C228.061 87.9917 227.843 87.2017 227.408 86.6213C226.973 86.0248 226.328 85.7266 225.473 85.7266C224.619 85.7266 223.974 86.0248 223.539 86.6213C223.103 87.2017 222.886 87.9917 222.886 88.9912V90.95C222.886 91.9496 223.103 92.7476 223.539 93.3441C223.974 93.9245 224.619 94.2147 225.473 94.2147C226.328 94.2147 226.973 93.9245 227.408 93.3441C227.843 92.7476 228.061 91.9496 228.061 90.95V88.9912ZM241.004 85.1946C241.004 85.3235 240.956 85.4364 240.859 85.5331C240.762 85.6298 240.649 85.6782 240.52 85.6782C239.859 85.6782 239.263 85.7588 238.731 85.92C238.215 86.0651 237.699 86.2747 237.183 86.5488V96.2702C237.183 96.3992 237.135 96.5201 237.038 96.633C236.941 96.7297 236.828 96.7781 236.699 96.7781H234.475C234.346 96.7781 234.233 96.7297 234.136 96.633C234.039 96.5201 233.991 96.3992 233.991 96.2702V83.6227C233.991 83.4937 234.039 83.3809 234.136 83.2841C234.233 83.1874 234.346 83.139 234.475 83.139H236.578C236.707 83.139 236.82 83.1874 236.917 83.2841C237.014 83.3809 237.062 83.4937 237.062 83.6227V84.1305C237.659 83.663 238.263 83.3567 238.876 83.2116C239.488 83.0504 240.037 82.9697 240.52 82.9697C240.649 82.9697 240.762 83.0181 240.859 83.1148C240.956 83.2116 241.004 83.3244 241.004 83.4534V85.1946ZM254.484 84.8076C254.484 84.985 254.452 85.1059 254.388 85.1704C254.339 85.2187 254.243 85.2752 254.098 85.3397L253.3 85.654C253.493 85.9281 253.638 86.2183 253.735 86.5246C253.848 86.8148 253.904 87.1695 253.904 87.5886V87.7579C253.904 89.2734 253.404 90.3858 252.405 91.0951C251.421 91.8045 250.011 92.1592 248.173 92.1592C247.528 92.1592 246.988 92.1189 246.553 92.0383C246.117 91.9415 245.779 91.8448 245.537 91.7481C245.263 91.9254 245.126 92.135 245.126 92.3768C245.126 92.6187 245.19 92.796 245.319 92.9088C245.464 93.0217 245.674 93.1104 245.948 93.1749L248.802 93.852C249.624 94.0454 250.365 94.2389 251.026 94.4324C251.703 94.6097 252.276 94.8354 252.743 95.1095C253.211 95.3835 253.574 95.7302 253.832 96.1493C254.089 96.5524 254.218 97.0763 254.218 97.7212V97.8905C254.218 99.1319 253.743 100.075 252.792 100.72C251.857 101.365 250.357 101.687 248.294 101.687C246.327 101.687 244.836 101.332 243.82 100.623C242.804 99.9299 242.296 98.9465 242.296 97.6728V97.4552C242.296 96.9554 242.401 96.4798 242.611 96.0284C242.836 95.5609 243.143 95.1498 243.53 94.7951C243.191 94.5371 242.925 94.2147 242.732 93.8278C242.538 93.4247 242.441 93.0056 242.441 92.5703V92.5461C242.441 92.1753 242.522 91.8126 242.683 91.4579C242.845 91.1032 243.086 90.813 243.409 90.5873C243.038 90.2165 242.78 89.8054 242.635 89.354C242.49 88.9026 242.417 88.3706 242.417 87.7579V87.5886C242.417 86.9921 242.522 86.4279 242.732 85.8959C242.941 85.3477 243.272 84.8721 243.723 84.4691C244.191 84.0499 244.787 83.7275 245.513 83.5018C246.238 83.2599 247.125 83.139 248.173 83.139H253.832C254.009 83.139 254.162 83.2035 254.291 83.3325C254.42 83.4615 254.484 83.6146 254.484 83.792V84.8076ZM250.76 87.637C250.76 87.3468 250.72 87.0808 250.639 86.839C250.575 86.581 250.446 86.3634 250.252 86.186C250.059 85.9926 249.793 85.8475 249.454 85.7508C249.116 85.6379 248.689 85.5815 248.173 85.5815C247.657 85.5815 247.23 85.6379 246.891 85.7508C246.553 85.8475 246.287 85.9926 246.093 86.186C245.9 86.3634 245.763 86.581 245.682 86.839C245.601 87.0808 245.561 87.3468 245.561 87.637V87.8305C245.561 88.0562 245.593 88.2819 245.658 88.5076C245.722 88.7333 245.843 88.9429 246.021 89.1363C246.214 89.3137 246.48 89.4588 246.819 89.5716C247.157 89.6845 247.609 89.7409 248.173 89.7409C249.172 89.7409 249.849 89.5797 250.204 89.2573C250.575 88.9187 250.76 88.4431 250.76 87.8305V87.637ZM251.026 97.7212C251.026 97.5922 250.994 97.4713 250.93 97.3585C250.881 97.2456 250.752 97.1328 250.543 97.0199C250.349 96.9071 250.059 96.7942 249.672 96.6813C249.301 96.5524 248.802 96.4153 248.173 96.2702L246.021 95.7624C245.843 96.0204 245.698 96.2622 245.585 96.4879C245.472 96.6975 245.416 97.0199 245.416 97.4552V97.6728C245.416 97.9147 245.456 98.1323 245.537 98.3258C245.634 98.5354 245.787 98.7046 245.996 98.8336C246.222 98.9787 246.52 99.0835 246.891 99.148C247.262 99.2286 247.729 99.2689 248.294 99.2689C248.874 99.2689 249.342 99.2367 249.696 99.1722C250.051 99.1077 250.325 99.019 250.519 98.9062C250.728 98.7933 250.865 98.6482 250.93 98.4709C250.994 98.3096 251.026 98.1162 251.026 97.8905V97.7212ZM266.841 96.2944C266.841 96.4234 266.793 96.5362 266.696 96.633C266.6 96.7297 266.487 96.7781 266.358 96.7781H264.302C264.173 96.7781 264.06 96.7297 263.964 96.633C263.867 96.5362 263.819 96.4234 263.819 96.2944V95.9075C263.254 96.2461 262.69 96.5121 262.126 96.7055C261.562 96.8829 260.989 96.9715 260.409 96.9715C259.909 96.9715 259.409 96.9151 258.91 96.8023C258.41 96.6894 257.958 96.4798 257.555 96.1735C257.168 95.8672 256.846 95.4561 256.588 94.9402C256.346 94.4243 256.225 93.7552 256.225 92.933V92.8363C256.225 92.1431 256.33 91.5385 256.54 91.0226C256.765 90.5067 257.112 90.0714 257.579 89.7167C258.063 89.362 258.676 89.096 259.417 88.9187C260.175 88.7414 261.078 88.6527 262.126 88.6527H263.649V87.5886C263.649 86.7987 263.472 86.2747 263.117 86.0168C262.779 85.7588 262.247 85.6298 261.521 85.6298C260.747 85.6298 259.998 85.654 259.272 85.7024C258.547 85.7346 257.983 85.7749 257.579 85.8233H257.459C257.33 85.8233 257.225 85.7991 257.144 85.7508C257.064 85.7024 257.023 85.5895 257.023 85.4122V83.8645C257.023 83.5904 257.176 83.4212 257.483 83.3567C257.966 83.2599 258.547 83.1713 259.224 83.0907C259.917 83.0101 260.683 82.9697 261.521 82.9697C263.246 82.9697 264.56 83.3486 265.463 84.1063C266.382 84.8641 266.841 86.0248 266.841 87.5886V96.2944ZM263.649 90.7808H262.126C261.578 90.7808 261.126 90.8291 260.772 90.9259C260.433 91.0065 260.159 91.1354 259.949 91.3128C259.756 91.474 259.619 91.6836 259.538 91.9415C259.474 92.1995 259.442 92.4977 259.442 92.8363V92.933C259.442 93.5295 259.579 93.9326 259.853 94.1422C260.127 94.3356 260.57 94.4324 261.183 94.4324C261.618 94.4324 262.045 94.3679 262.464 94.2389C262.9 94.1099 263.295 93.9487 263.649 93.7552V90.7808ZM281.154 96.2702C281.154 96.3992 281.106 96.5201 281.009 96.633C280.912 96.7297 280.799 96.7781 280.67 96.7781H278.446C278.317 96.7781 278.204 96.7297 278.107 96.633C278.01 96.5201 277.962 96.3992 277.962 96.2702V88.3867C277.962 87.8547 277.938 87.4194 277.889 87.0808C277.857 86.7261 277.768 86.4521 277.623 86.2586C277.494 86.049 277.293 85.9039 277.019 85.8233C276.745 85.7266 276.374 85.6782 275.906 85.6782C275.487 85.6782 275.052 85.7588 274.601 85.92C274.165 86.0651 273.69 86.2747 273.174 86.5488V96.2702C273.174 96.3992 273.125 96.5201 273.029 96.633C272.932 96.7297 272.819 96.7781 272.69 96.7781H270.465C270.336 96.7781 270.223 96.7297 270.127 96.633C270.03 96.5201 269.982 96.3992 269.982 96.2702V83.6227C269.982 83.4937 270.03 83.3809 270.127 83.2841C270.223 83.1874 270.336 83.139 270.465 83.139H272.569C272.698 83.139 272.811 83.1874 272.908 83.2841C273.004 83.3809 273.053 83.4937 273.053 83.6227V84.1305C273.407 83.9048 273.73 83.7194 274.02 83.5743C274.326 83.4292 274.633 83.3164 274.939 83.2358C275.245 83.139 275.56 83.0745 275.882 83.0423C276.205 82.9939 276.567 82.9697 276.97 82.9697C277.841 82.9697 278.55 83.1068 279.098 83.3809C279.647 83.6549 280.066 84.0338 280.356 84.5174C280.662 85.0011 280.872 85.5734 280.985 86.2344C281.098 86.8954 281.154 87.6128 281.154 88.3867V96.2702ZM287.63 80.8417C287.63 80.9706 287.582 81.0835 287.485 81.1802C287.388 81.277 287.275 81.3253 287.146 81.3253H284.801C284.672 81.3253 284.551 81.277 284.438 81.1802C284.341 81.0835 284.293 80.9706 284.293 80.8417V78.7136C284.293 78.5846 284.341 78.4718 284.438 78.375C284.551 78.2783 284.672 78.2299 284.801 78.2299H287.146C287.275 78.2299 287.388 78.2783 287.485 78.375C287.582 78.4718 287.63 78.5846 287.63 78.7136V80.8417ZM287.558 96.2702C287.558 96.3992 287.509 96.5201 287.412 96.633C287.316 96.7297 287.203 96.7781 287.074 96.7781H284.849C284.72 96.7781 284.607 96.7297 284.51 96.633C284.414 96.5201 284.365 96.3992 284.365 96.2702V83.6227C284.365 83.4937 284.414 83.3809 284.51 83.2841C284.607 83.1874 284.72 83.139 284.849 83.139H287.074C287.203 83.139 287.316 83.1874 287.412 83.2841C287.509 83.3809 287.558 83.4937 287.558 83.6227V96.2702ZM299.929 93.199C299.929 93.7311 299.832 94.2308 299.639 94.6984C299.445 95.1498 299.147 95.5448 298.744 95.8833C298.357 96.2219 297.865 96.4879 297.269 96.6813C296.672 96.8748 295.979 96.9715 295.189 96.9715C294.947 96.9715 294.649 96.9635 294.294 96.9474C293.956 96.9312 293.585 96.899 293.182 96.8506C292.779 96.8184 292.376 96.7781 291.973 96.7297C291.57 96.6652 291.199 96.5846 290.86 96.4879C290.554 96.4073 290.401 96.2219 290.401 95.9317V94.4807C290.401 94.384 290.433 94.2953 290.498 94.2147C290.578 94.1341 290.683 94.0938 290.812 94.0938H290.909C291.199 94.126 291.537 94.1583 291.924 94.1905C292.327 94.2228 292.722 94.255 293.109 94.2873C293.496 94.3034 293.859 94.3195 294.198 94.3356C294.536 94.3517 294.794 94.3598 294.971 94.3598C295.342 94.3598 295.64 94.3356 295.866 94.2873C296.092 94.2228 296.261 94.1422 296.374 94.0454C296.503 93.9326 296.584 93.8036 296.616 93.6585C296.664 93.5134 296.688 93.3603 296.688 93.199C296.688 92.9733 296.608 92.7718 296.447 92.5945C296.285 92.4171 296.011 92.2075 295.624 91.9657L292.311 89.9344C291.715 89.5636 291.223 89.096 290.836 88.5318C290.465 87.9514 290.28 87.3065 290.28 86.5972C290.28 84.1789 291.812 82.9697 294.875 82.9697C295.358 82.9697 295.794 82.9859 296.181 83.0181C296.584 83.0342 296.954 83.0665 297.293 83.1148C297.632 83.1632 297.954 83.2196 298.26 83.2841C298.567 83.3325 298.873 83.3889 299.179 83.4534C299.469 83.534 299.614 83.7194 299.614 84.0096V85.4122C299.614 85.7185 299.486 85.8717 299.228 85.8717H299.131C298.953 85.8556 298.712 85.8314 298.405 85.7991C298.099 85.7508 297.76 85.7185 297.39 85.7024C297.019 85.6702 296.632 85.646 296.229 85.6298C295.842 85.5976 295.479 85.5815 295.141 85.5815C294.56 85.5815 294.133 85.6621 293.859 85.8233C293.601 85.9684 293.472 86.2264 293.472 86.5972C293.472 86.7906 293.553 86.9599 293.714 87.105C293.891 87.2501 294.133 87.4113 294.439 87.5886L297.607 89.5233C298.107 89.8296 298.51 90.1359 298.816 90.4422C299.123 90.7485 299.357 91.0548 299.518 91.3611C299.695 91.6675 299.808 91.9738 299.856 92.2801C299.905 92.5864 299.929 92.8927 299.929 93.199ZM319.958 96.2702C319.958 96.3992 319.91 96.5201 319.813 96.633C319.717 96.7297 319.604 96.7781 319.475 96.7781H317.25C317.121 96.7781 317.008 96.7297 316.911 96.633C316.815 96.5201 316.766 96.3992 316.766 96.2702V88.0481C316.766 87.5806 316.734 87.2017 316.67 86.9115C316.621 86.6052 316.532 86.3634 316.404 86.186C316.275 86.0087 316.097 85.8878 315.871 85.8233C315.646 85.7427 315.364 85.7024 315.025 85.7024C314.799 85.7024 314.477 85.7508 314.058 85.8475C313.639 85.9281 313.211 86.0813 312.776 86.307C312.808 86.581 312.833 86.8632 312.849 87.1534C312.865 87.4435 312.873 87.7418 312.873 88.0481V96.2702C312.873 96.3992 312.824 96.5201 312.728 96.633C312.631 96.7297 312.518 96.7781 312.389 96.7781H310.164C310.035 96.7781 309.923 96.7297 309.826 96.633C309.729 96.5201 309.681 96.3992 309.681 96.2702V88.0481C309.681 87.5806 309.657 87.2017 309.608 86.9115C309.56 86.6052 309.471 86.3634 309.342 86.186C309.229 86.0087 309.06 85.8878 308.834 85.8233C308.625 85.7427 308.351 85.7024 308.012 85.7024C307.512 85.7024 306.771 85.9684 305.787 86.5004V96.2702C305.787 96.3992 305.739 96.5201 305.642 96.633C305.545 96.7297 305.433 96.7781 305.304 96.7781H303.079C302.95 96.7781 302.837 96.7297 302.74 96.633C302.644 96.5201 302.595 96.3992 302.595 96.2702V83.6227C302.595 83.4937 302.644 83.3809 302.74 83.2841C302.837 83.1874 302.95 83.139 303.079 83.139H305.183C305.312 83.139 305.425 83.1874 305.521 83.2841C305.618 83.3809 305.666 83.4937 305.666 83.6227V84.1305C306.182 83.8081 306.706 83.534 307.238 83.3083C307.77 83.0826 308.399 82.9697 309.125 82.9697C309.818 82.9697 310.39 83.0665 310.841 83.2599C311.309 83.4534 311.68 83.7194 311.954 84.058C312.567 83.7194 313.171 83.4534 313.768 83.2599C314.38 83.0665 315.106 82.9697 315.944 82.9697C316.766 82.9697 317.435 83.1068 317.951 83.3809C318.483 83.6388 318.894 84.0015 319.185 84.4691C319.475 84.9205 319.676 85.4525 319.789 86.0651C319.902 86.6778 319.958 87.3388 319.958 88.0481V96.2702ZM334.242 90.4664C334.242 90.8694 334.081 91.071 333.758 91.071H325.875V91.1435C325.875 91.4982 325.915 91.8609 325.996 92.2317C326.076 92.5864 326.221 92.9169 326.431 93.2232C326.657 93.5134 326.955 93.7552 327.326 93.9487C327.713 94.126 328.196 94.2147 328.777 94.2147C329.663 94.2147 330.494 94.1905 331.268 94.1422C332.058 94.0777 332.711 94.0212 333.226 93.9729H333.299C333.428 93.9729 333.533 94.0051 333.613 94.0696C333.694 94.118 333.734 94.2066 333.734 94.3356V95.9317C333.734 96.1251 333.702 96.2702 333.638 96.367C333.589 96.4637 333.452 96.5282 333.226 96.5604C332.839 96.641 332.477 96.7055 332.138 96.7539C331.8 96.8023 331.453 96.8426 331.098 96.8748C330.76 96.9071 330.381 96.9312 329.962 96.9474C329.559 96.9635 329.083 96.9715 328.535 96.9715C327.922 96.9715 327.269 96.8829 326.576 96.7055C325.899 96.5121 325.27 96.1896 324.69 95.7382C324.11 95.2707 323.626 94.65 323.239 93.8762C322.868 93.0862 322.683 92.0947 322.683 90.9017V89.1122C322.683 88.1771 322.812 87.3307 323.07 86.573C323.328 85.8152 323.698 85.1704 324.182 84.6384C324.682 84.1063 325.294 83.6952 326.02 83.405C326.745 83.1148 327.568 82.9697 328.487 82.9697C329.422 82.9697 330.244 83.1229 330.953 83.4292C331.679 83.7194 332.283 84.1386 332.767 84.6867C333.251 85.2349 333.613 85.8878 333.855 86.6455C334.113 87.3871 334.242 88.2093 334.242 89.1122V90.4664ZM331.026 88.7011C331.026 87.7499 330.792 87.0163 330.324 86.5004C329.857 85.9845 329.244 85.7266 328.487 85.7266C327.729 85.7266 327.108 85.9845 326.625 86.5004C326.141 87.0002 325.899 87.7337 325.899 88.7011V88.7978H331.026V88.7011ZM348.273 90.9017C348.273 92.8041 347.798 94.2953 346.847 95.3755C345.895 96.4395 344.444 96.9715 342.494 96.9715C341.72 96.9715 340.906 96.9151 340.051 96.8023C339.197 96.6894 338.391 96.5362 337.633 96.3428C337.359 96.2622 337.182 96.1816 337.101 96.101C337.02 96.0042 336.98 95.8672 336.98 95.6899V78.8587C336.98 78.7297 337.028 78.6169 337.125 78.5201C337.222 78.4234 337.335 78.375 337.464 78.375H339.688C339.817 78.375 339.93 78.4234 340.027 78.5201C340.124 78.6169 340.172 78.7297 340.172 78.8587V83.139C340.624 83.0745 341.051 83.0342 341.454 83.0181C341.857 82.9859 342.203 82.9697 342.494 82.9697C344.444 82.9697 345.895 83.5098 346.847 84.59C347.798 85.654 348.273 87.1372 348.273 89.0396V90.9017ZM345.081 89.0396C345.081 88.5398 345.041 88.0804 344.96 87.6612C344.896 87.242 344.767 86.8793 344.573 86.573C344.38 86.2667 344.114 86.0248 343.775 85.8475C343.437 85.6702 343.01 85.5815 342.494 85.5815C342.203 85.5815 341.825 85.5976 341.357 85.6298C340.906 85.6621 340.511 85.7024 340.172 85.7508V94.1905C340.398 94.2389 340.728 94.2792 341.164 94.3114C341.615 94.3437 342.058 94.3598 342.494 94.3598C343.01 94.3598 343.437 94.2711 343.775 94.0938C344.114 93.9165 344.38 93.6746 344.573 93.3683C344.767 93.062 344.896 92.6993 344.96 92.2801C345.041 91.8609 345.081 91.4015 345.081 90.9017V89.0396ZM361.045 96.2944C361.045 96.4234 360.997 96.5362 360.9 96.633C360.804 96.7297 360.691 96.7781 360.562 96.7781H358.506C358.377 96.7781 358.264 96.7297 358.168 96.633C358.071 96.5362 358.023 96.4234 358.023 96.2944V95.9075C357.458 96.2461 356.894 96.5121 356.33 96.7055C355.765 96.8829 355.193 96.9715 354.613 96.9715C354.113 96.9715 353.613 96.9151 353.113 96.8023C352.614 96.6894 352.162 96.4798 351.759 96.1735C351.372 95.8672 351.05 95.4561 350.792 94.9402C350.55 94.4243 350.429 93.7552 350.429 92.933V92.8363C350.429 92.1431 350.534 91.5385 350.744 91.0226C350.969 90.5067 351.316 90.0714 351.783 89.7167C352.267 89.362 352.88 89.096 353.621 88.9187C354.379 88.7414 355.282 88.6527 356.33 88.6527H357.853V87.5886C357.853 86.7987 357.676 86.2747 357.321 86.0168C356.983 85.7588 356.451 85.6298 355.725 85.6298C354.951 85.6298 354.202 85.654 353.476 85.7024C352.751 85.7346 352.186 85.7749 351.783 85.8233H351.662C351.533 85.8233 351.429 85.7991 351.348 85.7508C351.267 85.7024 351.227 85.5895 351.227 85.4122V83.8645C351.227 83.5904 351.38 83.4212 351.687 83.3567C352.17 83.2599 352.751 83.1713 353.428 83.0907C354.121 83.0101 354.887 82.9697 355.725 82.9697C357.45 82.9697 358.764 83.3486 359.667 84.1063C360.586 84.8641 361.045 86.0248 361.045 87.5886V96.2944ZM357.853 90.7808H356.33C355.782 90.7808 355.33 90.8291 354.976 90.9259C354.637 91.0065 354.363 91.1354 354.153 91.3128C353.96 91.474 353.823 91.6836 353.742 91.9415C353.678 92.1995 353.645 92.4977 353.645 92.8363V92.933C353.645 93.5295 353.782 93.9326 354.057 94.1422C354.331 94.3356 354.774 94.4324 355.387 94.4324C355.822 94.4324 356.249 94.3679 356.668 94.2389C357.104 94.1099 357.499 93.9487 357.853 93.7552V90.7808ZM374.995 95.6899C374.995 95.8672 374.955 96.0042 374.874 96.101C374.794 96.1816 374.616 96.2622 374.342 96.3428C373.585 96.5362 372.778 96.6894 371.924 96.8023C371.07 96.9151 370.255 96.9715 369.482 96.9715C367.531 96.9715 366.08 96.4395 365.129 95.3755C364.177 94.2953 363.702 92.8041 363.702 90.9017V89.0396C363.702 87.1372 364.177 85.654 365.129 84.59C366.08 83.5098 367.531 82.9697 369.482 82.9697C369.772 82.9697 370.118 82.9859 370.521 83.0181C370.924 83.0342 371.352 83.0745 371.803 83.139V78.8587C371.803 78.7297 371.851 78.6169 371.948 78.5201C372.045 78.4234 372.158 78.375 372.287 78.375H374.512C374.641 78.375 374.753 78.4234 374.85 78.5201C374.947 78.6169 374.995 78.7297 374.995 78.8587V95.6899ZM371.803 85.7508C371.465 85.7024 371.061 85.6621 370.594 85.6298C370.143 85.5976 369.772 85.5815 369.482 85.5815C368.966 85.5815 368.538 85.6702 368.2 85.8475C367.861 86.0248 367.595 86.2667 367.402 86.573C367.208 86.8793 367.071 87.242 366.991 87.6612C366.926 88.0804 366.894 88.5398 366.894 89.0396V90.9017C366.894 91.4015 366.926 91.8609 366.991 92.2801C367.071 92.6993 367.208 93.062 367.402 93.3683C367.595 93.6746 367.861 93.9165 368.2 94.0938C368.538 94.2711 368.966 94.3598 369.482 94.3598C369.917 94.3598 370.352 94.3437 370.787 94.3114C371.239 94.2792 371.577 94.2389 371.803 94.1905V85.7508ZM385.156 85.1946C385.156 85.3235 385.107 85.4364 385.01 85.5331C384.914 85.6298 384.801 85.6782 384.672 85.6782C384.011 85.6782 383.414 85.7588 382.882 85.92C382.366 86.0651 381.851 86.2747 381.335 86.5488V96.2702C381.335 96.3992 381.286 96.5201 381.19 96.633C381.093 96.7297 380.98 96.7781 380.851 96.7781H378.626C378.497 96.7781 378.384 96.7297 378.288 96.633C378.191 96.5201 378.143 96.3992 378.143 96.2702V83.6227C378.143 83.4937 378.191 83.3809 378.288 83.2841C378.384 83.1874 378.497 83.139 378.626 83.139H380.73C380.859 83.139 380.972 83.1874 381.069 83.2841C381.165 83.3809 381.214 83.4937 381.214 83.6227V84.1305C381.81 83.663 382.415 83.3567 383.027 83.2116C383.64 83.0504 384.188 82.9697 384.672 82.9697C384.801 82.9697 384.914 83.0181 385.01 83.1148C385.107 83.2116 385.156 83.3244 385.156 83.4534V85.1946ZM389.599 96.2944C389.599 96.4234 389.55 96.5362 389.453 96.633C389.357 96.7297 389.244 96.7781 389.115 96.7781H386.963C386.834 96.7781 386.721 96.7297 386.624 96.633C386.527 96.5362 386.479 96.4234 386.479 96.2944V93.5618C386.479 93.4328 386.527 93.328 386.624 93.2474C386.721 93.1507 386.834 93.1023 386.963 93.1023H389.115C389.244 93.1023 389.357 93.1507 389.453 93.2474C389.55 93.328 389.599 93.4328 389.599 93.5618V96.2944ZM410.1 96.2702C410.1 96.3992 410.052 96.5201 409.955 96.633C409.859 96.7297 409.746 96.7781 409.617 96.7781H407.392C407.263 96.7781 407.15 96.7297 407.053 96.633C406.957 96.5201 406.908 96.3992 406.908 96.2702V88.0481C406.908 87.5806 406.876 87.2017 406.812 86.9115C406.763 86.6052 406.674 86.3634 406.546 86.186C406.417 86.0087 406.239 85.8878 406.013 85.8233C405.788 85.7427 405.506 85.7024 405.167 85.7024C404.941 85.7024 404.619 85.7508 404.2 85.8475C403.781 85.9281 403.353 86.0813 402.918 86.307C402.95 86.581 402.975 86.8632 402.991 87.1534C403.007 87.4435 403.015 87.7418 403.015 88.0481V96.2702C403.015 96.3992 402.966 96.5201 402.87 96.633C402.773 96.7297 402.66 96.7781 402.531 96.7781H400.306C400.177 96.7781 400.065 96.7297 399.968 96.633C399.871 96.5201 399.823 96.3992 399.823 96.2702V88.0481C399.823 87.5806 399.799 87.2017 399.75 86.9115C399.702 86.6052 399.613 86.3634 399.484 86.186C399.371 86.0087 399.202 85.8878 398.976 85.8233C398.767 85.7427 398.493 85.7024 398.154 85.7024C397.654 85.7024 396.913 85.9684 395.929 86.5004V96.2702C395.929 96.3992 395.881 96.5201 395.784 96.633C395.687 96.7297 395.575 96.7781 395.446 96.7781H393.221C393.092 96.7781 392.979 96.7297 392.882 96.633C392.786 96.5201 392.737 96.3992 392.737 96.2702V83.6227C392.737 83.4937 392.786 83.3809 392.882 83.2841C392.979 83.1874 393.092 83.139 393.221 83.139H395.325C395.454 83.139 395.567 83.1874 395.663 83.2841C395.76 83.3809 395.808 83.4937 395.808 83.6227V84.1305C396.324 83.8081 396.848 83.534 397.38 83.3083C397.912 83.0826 398.541 82.9697 399.267 82.9697C399.96 82.9697 400.532 83.0665 400.983 83.2599C401.451 83.4534 401.822 83.7194 402.096 84.058C402.709 83.7194 403.313 83.4534 403.91 83.2599C404.522 83.0665 405.248 82.9697 406.086 82.9697C406.908 82.9697 407.577 83.1068 408.093 83.3809C408.625 83.6388 409.036 84.0015 409.327 84.4691C409.617 84.9205 409.818 85.4525 409.931 86.0651C410.044 86.6778 410.1 87.3388 410.1 88.0481V96.2702ZM423.344 96.2944C423.344 96.4234 423.296 96.5362 423.199 96.633C423.102 96.7297 422.99 96.7781 422.861 96.7781H420.805C420.676 96.7781 420.563 96.7297 420.466 96.633C420.37 96.5362 420.321 96.4234 420.321 96.2944V95.9075C419.757 96.2461 419.193 96.5121 418.629 96.7055C418.064 96.8829 417.492 96.9715 416.912 96.9715C416.412 96.9715 415.912 96.9151 415.412 96.8023C414.912 96.6894 414.461 96.4798 414.058 96.1735C413.671 95.8672 413.349 95.4561 413.091 94.9402C412.849 94.4243 412.728 93.7552 412.728 92.933V92.8363C412.728 92.1431 412.833 91.5385 413.042 91.0226C413.268 90.5067 413.615 90.0714 414.082 89.7167C414.566 89.362 415.178 89.096 415.92 88.9187C416.678 88.7414 417.581 88.6527 418.629 88.6527H420.152V87.5886C420.152 86.7987 419.975 86.2747 419.62 86.0168C419.281 85.7588 418.749 85.6298 418.024 85.6298C417.25 85.6298 416.5 85.654 415.775 85.7024C415.05 85.7346 414.485 85.7749 414.082 85.8233H413.961C413.832 85.8233 413.728 85.7991 413.647 85.7508C413.566 85.7024 413.526 85.5895 413.526 85.4122V83.8645C413.526 83.5904 413.679 83.4212 413.985 83.3567C414.469 83.2599 415.05 83.1713 415.727 83.0907C416.42 83.0101 417.186 82.9697 418.024 82.9697C419.749 82.9697 421.063 83.3486 421.966 84.1063C422.885 84.8641 423.344 86.0248 423.344 87.5886V96.2944ZM420.152 90.7808H418.629C418.08 90.7808 417.629 90.8291 417.274 90.9259C416.936 91.0065 416.662 91.1354 416.452 91.3128C416.259 91.474 416.122 91.6836 416.041 91.9415C415.977 92.1995 415.944 92.4977 415.944 92.8363V92.933C415.944 93.5295 416.081 93.9326 416.355 94.1422C416.629 94.3356 417.073 94.4324 417.685 94.4324C418.121 94.4324 418.548 94.3679 418.967 94.2389C419.402 94.1099 419.797 93.9487 420.152 93.7552V90.7808Z" fill="#2E302F"/>
<rect x="446.695" y="125.781" width="47.3905" height="47.3905" rx="8.00967" fill="#38B000" stroke="white" stroke-width="0.667473"/>
<path d="M478.236 159.318H473.025C473.901 158.55 474.726 157.729 475.497 156.86C478.389 153.594 479.922 150.15 479.922 146.901C479.922 144.486 478.945 142.17 477.206 140.463C475.468 138.755 473.11 137.796 470.651 137.796C468.192 137.796 465.834 138.755 464.095 140.463C462.356 142.17 461.38 144.486 461.38 146.901C461.38 150.15 462.908 153.594 465.804 156.86C466.575 157.729 467.401 158.55 468.276 159.318H463.065C462.842 159.318 462.627 159.405 462.469 159.56C462.311 159.716 462.222 159.926 462.222 160.146C462.222 160.365 462.311 160.576 462.469 160.731C462.627 160.886 462.842 160.973 463.065 160.973H478.236C478.46 160.973 478.674 160.886 478.832 160.731C478.99 160.576 479.079 160.365 479.079 160.146C479.079 159.926 478.99 159.716 478.832 159.56C478.674 159.405 478.46 159.318 478.236 159.318ZM463.065 146.901C463.065 144.925 463.864 143.03 465.287 141.633C466.71 140.236 468.639 139.451 470.651 139.451C472.663 139.451 474.592 140.236 476.014 141.633C477.437 143.03 478.236 144.925 478.236 146.901C478.236 152.823 472.392 157.766 470.651 159.111C468.909 157.766 463.065 152.823 463.065 146.901ZM474.865 146.901C474.865 146.083 474.618 145.282 474.155 144.602C473.692 143.921 473.033 143.391 472.263 143.077C471.493 142.764 470.646 142.682 469.829 142.842C469.011 143.002 468.26 143.396 467.671 143.975C467.082 144.553 466.68 145.291 466.518 146.094C466.355 146.897 466.438 147.729 466.757 148.485C467.076 149.241 467.616 149.888 468.31 150.343C469.003 150.797 469.817 151.04 470.651 151.04C471.768 151.04 472.84 150.604 473.631 149.828C474.421 149.052 474.865 147.999 474.865 146.901ZM468.122 146.901C468.122 146.41 468.271 145.93 468.548 145.522C468.826 145.113 469.221 144.795 469.683 144.607C470.145 144.419 470.654 144.37 471.144 144.466C471.635 144.561 472.085 144.798 472.439 145.145C472.792 145.493 473.033 145.935 473.131 146.417C473.228 146.898 473.178 147.398 472.987 147.852C472.795 148.305 472.471 148.693 472.056 148.966C471.64 149.239 471.151 149.385 470.651 149.385C469.98 149.385 469.337 149.123 468.863 148.657C468.389 148.191 468.122 147.56 468.122 146.901Z" fill="white" stroke="white" stroke-width="0.0982986"/>
<path d="M124.654 144.901C124.654 144.74 124.71 144.611 124.823 144.514C124.936 144.401 125.073 144.345 125.234 144.345H127.144C127.289 144.345 127.41 144.401 127.507 144.514C127.62 144.611 127.676 144.74 127.676 144.901V146.787C127.676 146.932 127.62 147.061 127.507 147.174C127.41 147.271 127.281 147.319 127.12 147.319H125.234C125.057 147.319 124.911 147.271 124.799 147.174C124.702 147.061 124.654 146.932 124.654 146.787V144.901ZM122.356 151.962C122.662 151.962 122.8 152.115 122.767 152.422C122.735 152.776 122.711 153.155 122.695 153.558C122.679 153.961 122.671 154.276 122.671 154.501C122.671 155.404 122.727 156.218 122.84 156.944C122.969 157.669 123.211 158.29 123.565 158.806C123.936 159.306 124.452 159.693 125.113 159.967C125.79 160.241 126.669 160.378 127.749 160.378C128.055 160.378 128.337 160.37 128.595 160.354C128.869 160.338 129.192 160.305 129.563 160.257C129.579 159.467 129.587 158.782 129.587 158.201C129.587 157.605 129.587 156.968 129.587 156.291V149.23C129.587 149.101 129.635 148.996 129.732 148.915C129.829 148.819 129.941 148.77 130.07 148.77H132.174C132.303 148.77 132.408 148.819 132.489 148.915C132.585 148.996 132.634 149.101 132.634 149.23V158.588C132.634 159.169 132.626 159.814 132.61 160.523C132.61 161.248 132.594 161.893 132.561 162.458C132.561 162.748 132.384 162.925 132.029 162.99C131.336 163.167 130.627 163.288 129.901 163.352C129.192 163.417 128.458 163.449 127.701 163.449C124.976 163.449 122.961 162.844 121.655 161.635C120.365 160.426 119.72 158.508 119.72 155.88C119.72 155.719 119.728 155.493 119.744 155.203C119.761 154.913 119.777 154.606 119.793 154.284C119.825 153.945 119.857 153.615 119.89 153.292C119.938 152.97 119.986 152.688 120.035 152.446C120.067 152.269 120.115 152.148 120.18 152.083C120.244 152.003 120.365 151.962 120.542 151.962H122.356ZM136.219 141.249C136.219 141.12 136.268 141.007 136.365 140.911C136.461 140.814 136.582 140.766 136.727 140.766H138.88C139.041 140.766 139.162 140.814 139.242 140.911C139.323 141.007 139.363 141.12 139.363 141.249V154.84C139.363 155.388 139.476 155.735 139.702 155.88C139.927 156.009 140.266 156.073 140.717 156.073H141.515V159.169H139.823C139.275 159.169 138.775 159.128 138.323 159.048C137.888 158.951 137.509 158.782 137.187 158.54C136.88 158.282 136.639 157.935 136.461 157.5C136.3 157.049 136.219 156.468 136.219 155.759V141.249ZM140.547 156.509C140.547 156.38 140.628 156.275 140.789 156.194C140.95 156.114 141.136 156.073 141.345 156.073H150.487C150.599 156.073 150.801 156.073 151.091 156.073C151.397 156.073 151.72 156.073 152.058 156.073C152.413 156.073 152.744 156.073 153.05 156.073C153.356 156.057 153.574 156.041 153.703 156.025C153.719 155.751 153.727 155.469 153.727 155.179C153.743 154.872 153.751 154.59 153.751 154.332C153.751 153.623 153.638 153.034 153.413 152.567C153.203 152.083 152.889 151.696 152.47 151.406C152.066 151.116 151.567 150.906 150.97 150.777C150.39 150.648 149.721 150.584 148.963 150.584H143.812C143.457 150.584 143.272 150.455 143.256 150.197C143.256 150.165 143.248 150.108 143.232 150.028C143.232 149.947 143.224 149.866 143.208 149.786C143.208 149.689 143.208 149.6 143.208 149.52C143.208 149.439 143.208 149.391 143.208 149.375C143.208 148.972 143.24 148.585 143.304 148.214C143.369 147.843 143.465 147.472 143.594 147.102C143.74 146.731 143.909 146.344 144.102 145.941C144.296 145.538 144.521 145.102 144.779 144.635L146.593 141.249C146.674 141.12 146.762 141.007 146.859 140.911C146.972 140.814 147.109 140.766 147.27 140.766H149.447C149.576 140.766 149.664 140.798 149.713 140.862C149.761 140.911 149.785 140.975 149.785 141.056C149.785 141.136 149.761 141.225 149.713 141.322L147.44 145.651C147.343 145.828 147.246 146.021 147.149 146.231C147.053 146.441 146.964 146.642 146.883 146.836C146.803 147.029 146.73 147.214 146.666 147.392C146.617 147.553 146.593 147.666 146.593 147.73C147.286 147.698 147.834 147.674 148.238 147.658C148.657 147.642 149.036 147.634 149.374 147.634C150.744 147.634 151.905 147.787 152.856 148.093C153.808 148.399 154.581 148.851 155.178 149.447C155.774 150.044 156.21 150.793 156.484 151.696C156.758 152.583 156.895 153.607 156.895 154.767V155.372C156.895 155.549 156.887 155.783 156.871 156.073C156.871 156.364 156.863 156.67 156.847 156.992C156.83 157.299 156.806 157.597 156.774 157.887C156.758 158.177 156.742 158.411 156.726 158.588C156.677 158.879 156.484 159.032 156.145 159.048C155.871 159.08 155.525 159.104 155.105 159.12C154.686 159.12 154.227 159.128 153.727 159.145C153.227 159.161 152.719 159.169 152.203 159.169C151.704 159.169 151.236 159.169 150.801 159.169H141.345C141.136 159.169 140.95 159.128 140.789 159.048C140.628 158.967 140.547 158.862 140.547 158.733V156.509ZM157.553 162.603C157.553 162.361 157.69 162.24 157.964 162.24H158.472C158.923 162.24 159.302 162.216 159.608 162.167C159.931 162.135 160.189 162.046 160.382 161.901C160.575 161.756 160.712 161.539 160.793 161.248C160.89 160.974 160.938 160.587 160.938 160.088V149.23C160.938 149.101 160.978 148.996 161.059 148.915C161.156 148.819 161.277 148.77 161.422 148.77H163.526C163.655 148.77 163.759 148.819 163.84 148.915C163.937 148.996 163.985 149.101 163.985 149.23V156.073H166.137V159.169H163.913V160.305C163.913 160.853 163.872 161.361 163.792 161.829C163.727 162.296 163.606 162.699 163.429 163.038C163.058 163.731 162.55 164.215 161.905 164.489C161.261 164.779 160.43 164.924 159.415 164.924C159.286 164.924 159.052 164.916 158.713 164.9C158.375 164.9 158.101 164.884 157.891 164.852C157.665 164.803 157.553 164.65 157.553 164.392V162.603ZM166.678 161.829C166.678 161.668 166.735 161.531 166.847 161.418C166.96 161.321 167.089 161.273 167.234 161.273H169.096C169.258 161.273 169.395 161.321 169.508 161.418C169.637 161.531 169.701 161.668 169.701 161.829V163.763C169.701 163.892 169.637 164.005 169.508 164.102C169.395 164.215 169.258 164.271 169.096 164.271H167.234C167.089 164.271 166.96 164.215 166.847 164.102C166.735 164.005 166.678 163.892 166.678 163.763V161.829ZM165.179 156.364C165.179 156.283 165.268 156.218 165.445 156.17C165.622 156.106 165.8 156.073 165.977 156.073H167.5C167.887 156.073 168.145 156.041 168.274 155.977C168.403 155.896 168.468 155.662 168.468 155.275C168.468 154.356 168.468 153.397 168.468 152.398C168.468 151.398 168.452 150.318 168.419 149.157C168.419 149.028 168.46 148.923 168.54 148.843C168.637 148.746 168.758 148.698 168.903 148.698H170.934C171.112 148.698 171.241 148.746 171.321 148.843C171.402 148.923 171.45 149.028 171.466 149.157C171.482 149.673 171.491 150.132 171.491 150.535C171.507 150.922 171.515 151.293 171.515 151.648C171.515 152.003 171.515 152.357 171.515 152.712C171.515 153.067 171.515 153.462 171.515 153.897C171.515 154.929 171.507 155.799 171.491 156.509C171.491 157.202 171.466 157.766 171.418 158.201C171.386 158.363 171.329 158.5 171.249 158.612C171.184 158.725 171.055 158.822 170.862 158.903C170.684 158.951 170.443 158.991 170.136 159.024C169.846 159.056 169.516 159.088 169.145 159.12C168.79 159.136 168.419 159.153 168.032 159.169C167.645 159.169 167.291 159.169 166.968 159.169H165.977C165.8 159.169 165.622 159.145 165.445 159.096C165.268 159.048 165.179 158.975 165.179 158.879V156.364ZM182.467 159.169C182.338 159.169 182.225 159.12 182.128 159.024C182.032 158.927 181.983 158.814 181.983 158.685V156.847C181.983 156.718 182.032 156.613 182.128 156.533C182.225 156.452 182.338 156.412 182.467 156.412H185.708V144.514L182.54 145.481C182.459 145.514 182.362 145.53 182.249 145.53C182.072 145.53 181.983 145.433 181.983 145.239V142.966C181.983 142.837 182.04 142.749 182.153 142.7L186.433 141.298C186.514 141.265 186.594 141.241 186.675 141.225C186.755 141.209 186.86 141.201 186.989 141.201H188.585C188.892 141.201 189.045 141.354 189.045 141.66V156.412H192.285C192.414 156.412 192.527 156.452 192.624 156.533C192.72 156.613 192.769 156.718 192.769 156.847V158.685C192.769 158.814 192.72 158.927 192.624 159.024C192.527 159.12 192.414 159.169 192.285 159.169H182.467ZM197.699 159.169C197.57 159.169 197.457 159.12 197.361 159.024C197.264 158.927 197.216 158.814 197.216 158.685V156.847C197.216 156.718 197.264 156.613 197.361 156.533C197.457 156.452 197.57 156.412 197.699 156.412H200.94V144.514L197.772 145.481C197.691 145.514 197.595 145.53 197.482 145.53C197.304 145.53 197.216 145.433 197.216 145.239V142.966C197.216 142.837 197.272 142.749 197.385 142.7L201.665 141.298C201.746 141.265 201.826 141.241 201.907 141.225C201.988 141.209 202.092 141.201 202.221 141.201H203.818C204.124 141.201 204.277 141.354 204.277 141.66V156.412H207.517C207.646 156.412 207.759 156.452 207.856 156.533C207.953 156.613 208.001 156.718 208.001 156.847V158.685C208.001 158.814 207.953 158.927 207.856 159.024C207.759 159.12 207.646 159.169 207.517 159.169H197.699ZM223.838 153.365C223.838 154.268 223.701 155.09 223.427 155.831C223.153 156.557 222.75 157.186 222.218 157.718C221.686 158.234 221.033 158.637 220.259 158.927C219.485 159.217 218.598 159.362 217.599 159.362C216.696 159.362 215.858 159.217 215.084 158.927C214.31 158.637 213.641 158.193 213.077 157.597C212.512 156.984 212.069 156.21 211.747 155.275C211.424 154.324 211.263 153.196 211.263 151.89V149.109C211.263 147.658 211.4 146.416 211.674 145.385C211.964 144.353 212.392 143.514 212.956 142.87C213.52 142.225 214.213 141.757 215.035 141.467C215.874 141.161 216.849 141.007 217.962 141.007C219.026 141.007 219.937 141.064 220.694 141.177C221.452 141.29 222.032 141.386 222.435 141.467C222.613 141.499 222.75 141.556 222.846 141.636C222.943 141.701 222.992 141.814 222.992 141.975V143.474C222.992 143.813 222.838 143.982 222.532 143.982H222.435C222.21 143.95 221.911 143.917 221.541 143.885C221.186 143.837 220.799 143.797 220.38 143.764C219.977 143.732 219.558 143.708 219.122 143.692C218.703 143.676 218.316 143.668 217.962 143.668C217.349 143.668 216.825 143.74 216.39 143.885C215.971 144.03 215.624 144.28 215.35 144.635C215.092 144.973 214.898 145.425 214.769 145.989C214.64 146.553 214.568 147.247 214.552 148.069C214.939 147.988 215.43 147.924 216.027 147.875C216.623 147.827 217.252 147.803 217.913 147.803C218.703 147.803 219.453 147.9 220.162 148.093C220.872 148.27 221.5 148.569 222.048 148.988C222.597 149.391 223.032 149.939 223.354 150.632C223.677 151.309 223.838 152.14 223.838 153.123V153.365ZM220.549 153.123C220.549 152.559 220.46 152.091 220.283 151.72C220.106 151.35 219.864 151.059 219.558 150.85C219.251 150.624 218.897 150.471 218.494 150.39C218.091 150.294 217.671 150.245 217.236 150.245C216.881 150.245 216.438 150.269 215.906 150.318C215.374 150.366 214.923 150.431 214.552 150.511V151.89C214.552 152.905 214.624 153.728 214.769 154.356C214.931 154.985 215.14 155.477 215.398 155.831C215.672 156.186 215.995 156.428 216.366 156.557C216.752 156.686 217.164 156.75 217.599 156.75C218.002 156.75 218.381 156.702 218.735 156.605C219.106 156.492 219.421 156.307 219.679 156.049C219.953 155.791 220.162 155.445 220.307 155.009C220.469 154.574 220.549 154.026 220.549 153.365V153.123ZM240.642 161.829C240.642 161.668 240.699 161.531 240.811 161.418C240.924 161.321 241.053 161.273 241.198 161.273H243.06C243.222 161.273 243.359 161.321 243.471 161.418C243.6 161.531 243.665 161.668 243.665 161.829V163.763C243.665 163.892 243.6 164.005 243.471 164.102C243.359 164.215 243.222 164.271 243.06 164.271H241.198C241.053 164.271 240.924 164.215 240.811 164.102C240.699 164.005 240.642 163.892 240.642 163.763V161.829ZM247.703 156.073C248.09 156.073 248.348 156.041 248.477 155.977C248.606 155.896 248.671 155.662 248.671 155.275C248.671 154.356 248.671 153.413 248.671 152.446C248.687 151.462 248.687 150.39 248.671 149.23C248.671 149.101 248.711 148.996 248.792 148.915C248.888 148.819 249.001 148.77 249.13 148.77H251.137C251.315 148.77 251.444 148.819 251.524 148.915C251.621 148.996 251.669 149.101 251.669 149.23C251.669 149.746 251.669 150.197 251.669 150.584C251.686 150.971 251.694 151.342 251.694 151.696C251.71 152.035 251.718 152.381 251.718 152.736C251.718 153.075 251.718 153.462 251.718 153.897C251.718 154.929 251.71 155.799 251.694 156.509C251.677 157.202 251.645 157.766 251.597 158.201C251.565 158.363 251.516 158.5 251.452 158.612C251.387 158.725 251.258 158.822 251.065 158.903C250.888 158.951 250.589 158.991 250.17 159.024C249.751 159.056 249.275 159.088 248.743 159.12C248.227 159.136 247.687 159.153 247.123 159.169C246.575 159.169 246.075 159.169 245.624 159.169H240.304C238.691 159.169 237.361 159.016 236.313 158.709C235.282 158.403 234.459 157.968 233.847 157.403C233.25 156.823 232.831 156.122 232.589 155.299C232.347 154.477 232.227 153.542 232.227 152.494C232.227 151.737 232.307 150.882 232.468 149.931C232.501 149.754 232.549 149.633 232.613 149.568C232.678 149.488 232.799 149.447 232.976 149.447H234.79C235.096 149.447 235.233 149.608 235.201 149.931C235.153 150.608 235.128 151.172 235.128 151.624C235.128 152.349 235.201 152.994 235.346 153.558C235.491 154.106 235.757 154.566 236.144 154.937C236.531 155.308 237.071 155.59 237.764 155.783C238.474 155.977 239.385 156.073 240.497 156.073H247.703ZM260.684 155.783C260.684 155.622 260.692 155.396 260.708 155.106C260.724 154.816 260.74 154.509 260.756 154.187C260.789 153.865 260.821 153.542 260.853 153.22C260.901 152.881 260.95 152.575 260.998 152.301C261.03 152.14 261.079 152.027 261.143 151.962C261.208 151.882 261.329 151.841 261.506 151.841H263.392C263.682 151.841 263.819 152.003 263.803 152.325C263.771 152.664 263.747 153.034 263.731 153.437C263.715 153.824 263.707 154.131 263.707 154.356C263.707 155.259 263.755 156.081 263.852 156.823C263.965 157.565 264.182 158.201 264.505 158.733C264.843 159.249 265.327 159.652 265.956 159.943C266.6 160.233 267.455 160.378 268.519 160.378C268.761 160.378 269.043 160.37 269.365 160.354C269.688 160.338 270.034 160.297 270.405 160.233C270.421 159.443 270.429 158.758 270.429 158.177C270.429 157.581 270.429 156.952 270.429 156.291V147.875C270.429 147.746 270.478 147.634 270.574 147.537C270.671 147.44 270.792 147.392 270.937 147.392H273.017C273.146 147.392 273.251 147.44 273.331 147.537C273.428 147.634 273.476 147.746 273.476 147.875V148.77C273.896 148.464 274.355 148.222 274.855 148.045C275.355 147.851 275.846 147.706 276.33 147.609C276.83 147.497 277.297 147.424 277.733 147.392C278.168 147.359 278.523 147.343 278.797 147.343C279.828 147.343 280.763 147.456 281.602 147.682C282.456 147.908 283.182 148.278 283.778 148.794C284.375 149.294 284.834 149.963 285.157 150.801C285.479 151.624 285.64 152.631 285.64 153.824V154.816C285.64 155.348 285.608 155.952 285.544 156.63C285.495 157.291 285.415 157.863 285.302 158.346C285.269 158.508 285.197 158.661 285.084 158.806C284.971 158.935 284.786 159.016 284.528 159.048C284.286 159.08 283.907 159.104 283.391 159.12C282.892 159.12 282.343 159.128 281.747 159.145C281.166 159.161 280.586 159.169 280.006 159.169C279.441 159.169 278.99 159.169 278.651 159.169H273.476C273.476 159.685 273.468 160.233 273.452 160.813C273.452 161.41 273.436 161.934 273.404 162.385C273.388 162.659 273.202 162.844 272.848 162.941C272.187 163.119 271.493 163.248 270.768 163.328C270.042 163.409 269.317 163.449 268.591 163.449C265.899 163.449 263.908 162.828 262.618 161.587C261.329 160.346 260.684 158.411 260.684 155.783ZM273.476 156.097C273.847 156.114 274.266 156.13 274.734 156.146C275.218 156.146 275.782 156.146 276.427 156.146H282.061C282.271 156.146 282.408 156.049 282.472 155.856C282.553 155.646 282.593 155.211 282.593 154.55V154.187C282.593 153.462 282.497 152.849 282.303 152.349C282.126 151.849 281.852 151.446 281.481 151.14C281.11 150.834 280.634 150.616 280.054 150.487C279.474 150.358 278.789 150.294 277.999 150.294C277.741 150.294 277.418 150.31 277.031 150.342C276.644 150.374 276.233 150.439 275.798 150.535C275.379 150.616 274.96 150.737 274.54 150.898C274.137 151.043 273.783 151.229 273.476 151.454V156.097ZM294.29 155.638C294.29 155.461 294.298 155.243 294.315 154.985C294.331 154.727 294.347 154.453 294.363 154.163C294.395 153.873 294.435 153.582 294.484 153.292C294.532 152.986 294.581 152.704 294.629 152.446C294.661 152.269 294.709 152.148 294.774 152.083C294.838 152.003 294.959 151.962 295.137 151.962H296.999C297.273 151.962 297.41 152.115 297.41 152.422C297.378 152.776 297.345 153.139 297.313 153.51C297.281 153.865 297.265 154.155 297.265 154.381C297.265 155.219 297.313 156.001 297.41 156.726C297.523 157.436 297.748 158.056 298.087 158.588C298.426 159.104 298.917 159.507 299.562 159.797C300.207 160.104 301.07 160.257 302.15 160.257C302.585 160.257 302.98 160.241 303.335 160.209C303.705 160.192 304.06 160.16 304.399 160.112C304.415 159.709 304.423 159.354 304.423 159.048C304.439 158.725 304.447 158.427 304.447 158.153C304.463 157.879 304.471 157.605 304.471 157.331C304.471 157.057 304.471 156.758 304.471 156.436V154.308C304.471 152.454 305.011 151.1 306.091 150.245C307.172 149.375 308.752 148.939 310.831 148.939C311.396 148.939 311.992 148.972 312.621 149.036C313.266 149.085 313.814 149.157 314.265 149.254C314.394 149.286 314.491 149.334 314.555 149.399C314.636 149.463 314.676 149.576 314.676 149.737V158.661C314.676 158.806 314.628 158.927 314.531 159.024C314.451 159.12 314.338 159.169 314.193 159.169H312.065C311.936 159.169 311.823 159.12 311.726 159.024C311.645 158.927 311.605 158.806 311.605 158.661V151.866C311.315 151.833 311.081 151.809 310.904 151.793C310.743 151.777 310.549 151.769 310.323 151.769C309.405 151.769 308.711 151.978 308.244 152.398C307.776 152.801 307.542 153.534 307.542 154.598V158.588C307.542 159.169 307.534 159.806 307.518 160.499C307.502 161.192 307.478 161.821 307.446 162.385C307.446 162.675 307.268 162.853 306.914 162.917C306.237 163.03 305.479 163.119 304.641 163.183C303.802 163.248 302.948 163.28 302.077 163.28C300.691 163.28 299.506 163.11 298.522 162.772C297.539 162.449 296.733 161.966 296.104 161.321C295.475 160.692 295.016 159.902 294.726 158.951C294.435 158 294.29 156.896 294.29 155.638ZM297.482 165.456C297.482 165.295 297.531 165.166 297.628 165.069C297.74 164.989 297.877 164.948 298.039 164.948H299.635C299.796 164.948 299.925 164.989 300.022 165.069C300.134 165.166 300.191 165.295 300.191 165.456V167.173C300.191 167.302 300.134 167.415 300.022 167.512C299.909 167.608 299.78 167.657 299.635 167.657H298.039C297.877 167.657 297.74 167.608 297.628 167.512C297.531 167.415 297.482 167.302 297.482 167.173V165.456ZM301.956 165.456C301.956 165.295 302.013 165.166 302.126 165.069C302.238 164.989 302.367 164.948 302.512 164.948H304.157C304.286 164.948 304.407 164.989 304.52 165.069C304.632 165.166 304.689 165.295 304.689 165.456V167.173C304.689 167.302 304.632 167.415 304.52 167.512C304.407 167.608 304.286 167.657 304.157 167.657H302.512C302.367 167.657 302.238 167.608 302.126 167.512C302.013 167.415 301.956 167.302 301.956 167.173V165.456ZM315.567 162.603C315.567 162.361 315.704 162.24 315.978 162.24H316.486C316.937 162.24 317.316 162.216 317.622 162.167C317.945 162.135 318.203 162.046 318.396 161.901C318.59 161.756 318.727 161.539 318.807 161.248C318.904 160.974 318.952 160.587 318.952 160.088V149.23C318.952 149.101 318.993 148.996 319.073 148.915C319.17 148.819 319.291 148.77 319.436 148.77H321.54C321.669 148.77 321.774 148.819 321.854 148.915C321.951 148.996 321.999 149.101 321.999 149.23V159.725C321.999 160.338 321.967 160.926 321.903 161.49C321.838 162.055 321.685 162.57 321.443 163.038C321.072 163.731 320.565 164.215 319.92 164.489C319.275 164.779 318.445 164.924 317.429 164.924C317.3 164.924 317.066 164.916 316.728 164.9C316.389 164.9 316.115 164.884 315.905 164.852C315.68 164.803 315.567 164.65 315.567 164.392V162.603ZM325.717 141.249C325.717 141.12 325.757 141.007 325.838 140.911C325.935 140.814 326.056 140.766 326.201 140.766H328.377C328.522 140.766 328.635 140.814 328.716 140.911C328.812 141.007 328.861 141.12 328.861 141.249V158.661C328.861 158.79 328.812 158.911 328.716 159.024C328.635 159.12 328.522 159.169 328.377 159.169H326.201C326.056 159.169 325.935 159.12 325.838 159.024C325.757 158.911 325.717 158.79 325.717 158.661V141.249ZM331.933 156.509C331.933 156.38 331.981 156.275 332.078 156.194C332.175 156.114 332.288 156.073 332.417 156.073H338.728L338.68 153.873C338.648 153.276 338.551 152.752 338.39 152.301C338.245 151.833 338.003 151.438 337.664 151.116C337.342 150.793 336.915 150.552 336.383 150.39C335.867 150.213 335.23 150.124 334.472 150.124C334.408 150.124 334.311 150.124 334.182 150.124C334.053 150.124 333.916 150.124 333.771 150.124C333.626 150.124 333.481 150.132 333.336 150.149C333.19 150.149 333.07 150.157 332.973 150.173C332.667 150.173 332.513 150.052 332.513 149.81V148.02C332.513 147.891 332.546 147.787 332.61 147.706C332.691 147.609 332.82 147.545 332.997 147.513C333.448 147.432 333.9 147.384 334.351 147.368C334.803 147.351 335.141 147.343 335.367 147.343C336.56 147.343 337.551 147.521 338.341 147.875C339.147 148.23 339.784 148.706 340.252 149.302C340.735 149.899 341.082 150.592 341.292 151.382C341.517 152.156 341.646 152.97 341.679 153.824C341.679 153.953 341.679 154.139 341.679 154.381C341.695 154.622 341.703 154.888 341.703 155.179C341.719 155.469 341.727 155.759 341.727 156.049C341.727 156.323 341.727 156.549 341.727 156.726C341.727 156.952 341.719 157.266 341.703 157.669C341.703 158.072 341.687 158.419 341.654 158.709C341.654 158.838 341.606 158.951 341.509 159.048C341.429 159.128 341.3 159.169 341.122 159.169H332.417C332.288 159.169 332.175 159.128 332.078 159.048C331.981 158.967 331.933 158.862 331.933 158.733V156.509ZM347.35 142.797C347.35 142.491 347.511 142.338 347.834 142.338H349.938C350.244 142.338 350.397 142.491 350.397 142.797V153.752C350.397 153.897 350.349 154.018 350.252 154.115C350.172 154.211 350.067 154.26 349.938 154.26H347.81C347.681 154.26 347.568 154.211 347.471 154.115C347.39 154.018 347.35 153.897 347.35 153.752V142.797ZM344.497 156.509C344.497 156.38 344.537 156.275 344.618 156.194C344.714 156.114 344.827 156.073 344.956 156.073H353.88C354.266 156.073 354.516 156.041 354.629 155.977C354.758 155.896 354.823 155.662 354.823 155.275V141.249C354.823 141.12 354.871 141.007 354.968 140.911C355.064 140.814 355.177 140.766 355.306 140.766H357.507C357.636 140.766 357.741 140.814 357.821 140.911C357.918 141.007 357.966 141.12 357.966 141.249V155.324C357.966 155.936 357.95 156.468 357.918 156.92C357.902 157.355 357.878 157.782 357.845 158.201C357.813 158.363 357.765 158.5 357.7 158.612C357.636 158.725 357.507 158.822 357.313 158.903C357.136 158.951 356.878 158.991 356.54 159.024C356.201 159.056 355.83 159.088 355.427 159.12C355.04 159.136 354.629 159.153 354.194 159.169C353.775 159.169 353.396 159.169 353.057 159.169H344.956C344.827 159.169 344.714 159.128 344.618 159.048C344.537 158.967 344.497 158.862 344.497 158.733V156.509ZM361.684 141.249C361.684 141.12 361.724 141.007 361.805 140.911C361.902 140.814 362.023 140.766 362.168 140.766H364.344C364.489 140.766 364.602 140.814 364.683 140.911C364.78 141.007 364.828 141.12 364.828 141.249V158.661C364.828 158.79 364.78 158.911 364.683 159.024C364.602 159.12 364.489 159.169 364.344 159.169H362.168C362.023 159.169 361.902 159.12 361.805 159.024C361.724 158.911 361.684 158.79 361.684 158.661V141.249ZM373.994 155.638C373.994 155.461 374.002 155.243 374.018 154.985C374.034 154.727 374.051 154.453 374.067 154.163C374.099 153.873 374.131 153.582 374.163 153.292C374.212 152.986 374.26 152.704 374.308 152.446C374.357 152.123 374.518 151.962 374.792 151.962H376.654C376.961 151.962 377.098 152.115 377.065 152.422C377.033 152.776 377.001 153.139 376.969 153.51C376.952 153.865 376.944 154.155 376.944 154.381C376.944 155.219 376.993 156.001 377.089 156.726C377.202 157.436 377.428 158.056 377.767 158.588C378.105 159.104 378.597 159.507 379.242 159.797C379.887 160.104 380.749 160.257 381.829 160.257C382.265 160.257 382.66 160.241 383.014 160.209C383.385 160.192 383.74 160.16 384.078 160.112C384.094 159.709 384.102 159.354 384.102 159.048C384.119 158.725 384.127 158.427 384.127 158.153C384.143 157.879 384.151 157.605 384.151 157.331C384.151 157.057 384.151 156.758 384.151 156.436V154.308C384.151 152.47 384.683 151.116 385.747 150.245C386.827 149.375 388.367 148.939 390.366 148.939C391.011 148.939 391.647 148.972 392.276 149.036C392.905 149.101 393.429 149.173 393.848 149.254C393.977 149.286 394.074 149.334 394.138 149.399C394.219 149.463 394.259 149.576 394.259 149.737V155.227C394.259 155.582 394.34 155.815 394.501 155.928C394.662 156.025 394.952 156.073 395.372 156.073H396.484V159.169H394.574C394.009 159.169 393.518 159.128 393.098 159.048C392.679 158.967 392.325 158.814 392.034 158.588C391.76 158.363 391.551 158.056 391.406 157.669C391.261 157.266 391.188 156.75 391.188 156.122V151.866C390.946 151.833 390.745 151.809 390.583 151.793C390.422 151.777 390.229 151.769 390.003 151.769C389.084 151.769 388.391 151.978 387.923 152.398C387.456 152.801 387.222 153.534 387.222 154.598V158.588C387.222 159.169 387.214 159.806 387.198 160.499C387.182 161.192 387.158 161.821 387.125 162.385C387.125 162.675 386.948 162.853 386.593 162.917C385.916 163.03 385.158 163.119 384.32 163.183C383.498 163.248 382.643 163.28 381.757 163.28C380.37 163.28 379.185 163.11 378.202 162.772C377.218 162.449 376.412 161.966 375.784 161.321C375.171 160.692 374.72 159.902 374.429 158.951C374.139 158 373.994 156.896 373.994 155.638ZM377.162 165.456C377.162 165.295 377.218 165.166 377.331 165.069C377.444 164.989 377.573 164.948 377.718 164.948H379.338C379.484 164.948 379.613 164.989 379.725 165.069C379.838 165.166 379.895 165.295 379.895 165.456V167.173C379.895 167.302 379.83 167.415 379.701 167.512C379.588 167.608 379.467 167.657 379.338 167.657H377.718C377.573 167.657 377.444 167.608 377.331 167.512C377.218 167.415 377.162 167.302 377.162 167.173V165.456ZM381.66 165.456C381.66 165.295 381.716 165.166 381.829 165.069C381.942 164.989 382.063 164.948 382.192 164.948H383.836C383.965 164.948 384.086 164.989 384.199 165.069C384.312 165.166 384.368 165.295 384.368 165.456V167.173C384.368 167.302 384.312 167.415 384.199 167.512C384.086 167.608 383.965 167.657 383.836 167.657H382.192C382.063 167.657 381.942 167.608 381.829 167.512C381.716 167.415 381.66 167.302 381.66 167.173V165.456ZM396.303 159.169C396.11 159.169 395.932 159.136 395.771 159.072C395.594 159.007 395.505 158.943 395.505 158.879V156.364C395.505 156.283 395.594 156.218 395.771 156.17C395.948 156.106 396.126 156.073 396.303 156.073H406.581L405.928 154.574L405.444 153.558C404.977 152.527 404.299 151.72 403.413 151.14C402.526 150.544 401.317 150.245 399.785 150.245C399.672 150.245 399.471 150.253 399.181 150.269C398.891 150.269 398.657 150.278 398.479 150.294C398.141 150.326 397.972 150.197 397.972 149.907V148.117C397.972 147.875 398.133 147.722 398.455 147.658C398.858 147.577 399.245 147.521 399.616 147.488C400.003 147.456 400.406 147.44 400.825 147.44C401.712 147.44 402.534 147.537 403.292 147.73C404.05 147.908 404.759 148.222 405.42 148.673C406.081 149.109 406.694 149.697 407.258 150.439C407.822 151.164 408.346 152.075 408.83 153.171L409.144 153.849C409.192 153.977 409.257 154.139 409.337 154.332C409.418 154.509 409.499 154.695 409.579 154.888C409.66 155.066 409.732 155.235 409.797 155.396C409.861 155.557 409.918 155.67 409.966 155.735C410.047 155.864 410.127 155.952 410.208 156.001C410.289 156.049 410.393 156.073 410.522 156.073H410.764V159.169H396.303ZM409.793 156.364C409.793 156.283 409.881 156.218 410.059 156.17C410.236 156.106 410.413 156.073 410.591 156.073H412.235C412.622 156.073 412.872 156.041 412.985 155.977C413.114 155.896 413.178 155.662 413.178 155.275V141.273C413.178 141.128 413.227 141.007 413.323 140.911C413.42 140.814 413.533 140.766 413.662 140.766H415.862C415.991 140.766 416.096 140.814 416.177 140.911C416.274 141.007 416.322 141.128 416.322 141.273V155.324C416.322 155.759 416.314 156.243 416.298 156.775C416.282 157.291 416.249 157.766 416.201 158.201C416.169 158.363 416.112 158.5 416.032 158.612C415.967 158.725 415.838 158.822 415.645 158.903C415.467 158.951 415.218 158.991 414.895 159.024C414.589 159.056 414.25 159.088 413.879 159.12C413.509 159.136 413.122 159.153 412.719 159.169C412.332 159.169 411.977 159.169 411.655 159.169H410.591C410.413 159.169 410.236 159.145 410.059 159.096C409.881 159.048 409.793 158.975 409.793 158.879V156.364ZM420.039 141.249C420.039 141.12 420.079 141.007 420.16 140.911C420.257 140.814 420.378 140.766 420.523 140.766H422.699C422.844 140.766 422.957 140.814 423.038 140.911C423.134 141.007 423.183 141.12 423.183 141.249V158.661C423.183 158.79 423.134 158.911 423.038 159.024C422.957 159.12 422.844 159.169 422.699 159.169H420.523C420.378 159.169 420.257 159.12 420.16 159.024C420.079 158.911 420.039 158.79 420.039 158.661V141.249Z" fill="#2E302F"/>
</svg>
