<svg width="49" height="49" viewBox="0 0 49 49" fill="none" xmlns="http://www.w3.org/2000/svg">
<rect x="0.388428" y="0.0256348" width="48.2344" height="48.2344" rx="8.01" fill="url(#paint0_linear_360_827)"/>
<path d="M22.0232 30.2194C21.9086 28.7301 21.9086 27.2407 21.794 25.6368C21.794 24.8348 21.4503 24.262 20.5338 24.262C19.961 24.262 19.3881 24.3765 19.2736 23.5746C19.159 22.5435 18.9299 21.3978 19.2736 20.3667C19.2736 20.2522 19.7318 20.023 19.961 20.023C21.6795 20.3667 22.0232 19.4502 22.0232 18.0754C22.0232 14.4093 25.1165 12.4616 29.1263 12.6908C30.2719 12.8053 30.2719 13.7219 30.2719 14.5238C30.1574 15.3258 30.6156 16.4715 29.1263 16.4715C27.866 16.3569 26.9495 16.8152 26.9495 18.3045C26.9495 19.3356 27.0641 20.1376 28.3243 20.2521C30.1574 20.3667 29.8137 21.627 29.8137 22.8872C29.9282 24.262 29.2408 24.7202 27.9806 24.7202C26.7204 24.7202 26.4912 25.4076 26.4912 26.5533C26.4912 29.0738 26.4912 31.4796 26.3767 34.0001C26.2621 35.604 25.9184 35.7186 23.7417 35.604C22.2523 35.604 22.0232 34.9166 22.1377 33.6564C21.9086 32.6253 21.9086 31.4797 22.0232 30.2194Z" fill="white"/>
<defs>
<linearGradient id="paint0_linear_360_827" x1="24.5056" y1="0.0256348" x2="24.5056" y2="48.2601" gradientUnits="userSpaceOnUse">
<stop stop-color="#FFC909"/>
<stop offset="1" stop-color="#FFAA00"/>
</linearGradient>
</defs>
</svg>
