<svg width="97" height="88" viewBox="0 0 97 88" fill="none" xmlns="http://www.w3.org/2000/svg">
<path d="M53.7233 7.88976C65.7617 9.15444 76.2517 14.9866 81.7643 23.3397C84.452 27.3974 84.9863 29.1485 87.6575 42.2443C90.0337 53.8944 91.0173 57.4139 92.8843 60.4875C94.1857 62.5251 95.473 65.3626 95.7506 66.7232C96.2015 68.9342 96.0158 69.3264 93.8048 69.7773C92.4442 70.0548 88.8363 70.1707 85.7039 70.0125C80.4265 69.7603 79.6612 69.9164 71.5043 73.3516C59.3194 78.3171 52.2804 80.2843 43.8236 80.9464C26.8077 82.2027 15.3616 75.5913 9.43323 60.8569C2.81782 44.4912 11.7905 22.9088 29.5727 12.8158C35.4318 9.4063 46.7418 7.0994 53.7233 7.88976ZM29.6534 20.5939C20.1998 27.6595 15.4474 35.6263 14.4484 45.9277C13.7605 52.9769 14.1958 55.5453 17.4195 61.7967C20.5409 67.9803 27.8968 73.2116 34.8279 74.1894C42.3213 75.3182 55.5368 72.7998 67.6037 68.1241C76.2204 64.7722 78.4817 64.1338 82.5495 64.1013C85.2221 64.1762 87.5701 63.963 87.7732 63.6559C87.8912 63.3661 87.2909 62.1599 86.2307 60.8704C84.0929 58.2063 83.125 54.3292 81.3579 41.7577C80.2187 33.1325 79.7711 31.8066 77.1511 27.6465C67.7501 12.8233 44.5549 9.40554 29.6534 20.5939Z" fill="#FFD000"/>
<path d="M41.2676 30.8451C42.3088 31.6071 44.2244 34.0507 45.4928 36.3607C47.1203 39.1289 48.2655 40.4011 48.9788 39.9899C49.6245 39.681 52.5314 38.7338 55.558 37.9393C62.4444 36.0918 65.4257 36.8123 66.5291 40.4846C68.3732 46.4859 60.7435 54.2424 49.1851 58.3714C41.077 61.1767 39.4075 60.8086 35.3698 55.3434C28.3372 45.6174 29.0155 31.5727 36.6689 30.0116C38.2846 29.6821 40.1241 30.0155 41.2676 30.8451ZM35.9115 36.7207C34.3736 39.603 35.5548 45.8281 38.8949 51.3471L41.9955 56.5606L45.463 55.3219C51.0044 53.3944 57.4381 48.8935 59.7396 45.4125L61.8207 42.1536L58.5373 42.5576C56.7168 42.7517 53.1642 44.0078 50.5315 45.4306C46.1493 47.8302 45.8091 47.8996 44.5112 46.7471C43.7424 46.0181 42.5418 43.6058 41.7333 41.3792C40.9075 39.0675 39.9793 36.6881 39.5854 36.0599C38.5756 34.5829 36.8748 34.9298 35.9115 36.7207Z" fill="#38B000"/>
</svg>
