<svg width="367" height="348" viewBox="0 0 367 348" fill="none" xmlns="http://www.w3.org/2000/svg">
<path d="M356.846 52.8402C338.184 13.1382 288.927 -11.3097 247.106 5.7658C223.507 15.4113 205.323 35.2744 190.81 55.6113C177.684 74.002 172.162 95.6339 162.435 115.276C125.819 94.0933 86.8377 73.2439 44.2891 92.4331C4.63053 110.29 -8.47226 153.739 6.76568 192.848C23.6594 236.19 65.1597 263.352 106.189 281.072C149.431 299.771 194.446 314.726 239.399 329.404C239.385 329.447 239.371 329.49 239.34 329.556C233.509 345.158 257.356 352.906 265.47 339.991C265.836 339.425 266.178 338.842 266.544 338.275C275.666 341.269 284.748 344.269 293.816 347.312C305.966 351.407 314.446 330.949 302.319 326.052C294.718 322.974 287.121 319.916 279.521 316.838C302.481 277.603 322.946 235.918 340.546 194.497C358.915 151.243 378.353 98.5814 356.846 52.8402ZM168.731 272.867C135.084 259.915 99.5099 247.21 70.7915 224.806C44.3225 204.172 11.7121 156.695 46.5504 128.081C82.9741 98.1671 128.132 132.823 160.404 151.361C168.418 155.973 177.529 152.463 182.407 145.269C207.475 108.235 208.471 60.8472 253.528 37.4981C275.895 25.9091 302.562 34.3197 318.732 52.7082C334.21 70.3 335.172 94.9313 331.47 116.966C320.16 184.308 277.794 242.894 249.677 304.831C222.731 294.007 195.803 283.304 168.731 272.867Z" fill="#E3DBD8" fill-opacity="0.3"/>
</svg>
