<svg width="48" height="47" viewBox="0 0 48 47" fill="none" xmlns="http://www.w3.org/2000/svg">
<rect width="46.5941" height="46.5941" rx="6.6563" transform="matrix(-1 0 0 1 47.5221 0.376465)" fill="url(#paint0_linear_195_485)"/>
<g clip-path="url(#clip0_195_485)">
<path d="M26.4575 23.7514C26.0542 24.3174 25.4959 24.596 24.8064 24.722C24.2763 24.767 23.7363 24.6634 23.2745 24.4106C22.722 24.1087 22.3831 23.5834 22.2196 23.0111C22.0804 22.5235 22.2267 21.9229 22.4933 21.4967C22.8782 20.8812 23.4603 20.5977 24.1652 20.4294C24.7569 20.396 25.2717 20.4516 25.7862 20.7585C26.2688 21.0461 26.6565 21.6003 26.7737 22.1286C26.896 22.6778 26.789 23.286 26.4575 23.7514Z" fill="white"/>
<path d="M37.4101 14.4383C36.8272 15.253 35.9848 15.6823 34.9871 15.874C34.1641 15.9609 33.3031 15.7889 32.6098 15.3509C31.8558 14.8745 31.2589 14.0725 31.0862 13.224C30.9076 12.3445 31.1024 11.3864 31.6415 10.6478C32.2473 9.81757 33.1307 9.38619 34.152 9.20604C35.0127 9.17505 35.7485 9.27712 36.4855 9.73008C37.2354 10.1909 37.7585 10.9738 37.9418 11.8004C38.1411 12.7033 37.9584 13.6715 37.4101 14.4383Z" fill="white"/>
<path d="M17.4114 13.4381C16.7877 14.3276 15.9536 14.796 14.8607 14.9996C13.993 15.0858 13.1477 14.9327 12.4227 14.4564C11.6336 13.9378 11.0699 13.1574 10.8991 12.2518C10.7295 11.3522 10.9336 10.422 11.4864 9.67073C12.0995 8.83743 12.996 8.40635 14.0301 8.24108C14.916 8.20858 15.6316 8.29789 16.3917 8.77849C17.1725 9.27216 17.7362 10.0553 17.9195 10.9309C18.098 11.7833 17.9198 12.7132 17.4114 13.4381Z" fill="white"/>
<path d="M41.7857 27.9915C41.6889 28.1288 41.5851 28.182 41.4213 28.2242C41.2045 28.2142 41.0716 28.1665 40.9206 28.0134C40.4853 27.5717 40.3055 26.9173 40.1525 26.3455C39.8405 25.3376 39.3541 24.3587 38.8454 23.4279C38.7611 23.2736 38.6202 22.9294 38.4794 22.8279L38.6049 27.0661C38.5049 30.3921 38.1492 33.7642 37.4297 37.0214C37.3125 37.5531 37.1838 38.5981 36.7485 38.9724C36.6495 39.0571 36.5773 39.0638 36.4511 39.0957C36.2142 39.0608 36.0794 38.9499 35.9434 38.7716C34.9866 37.5227 34.7049 30.2836 34.5714 28.4186C34.3293 28.9017 34.39 29.7529 34.3456 30.3058L33.8302 35.6723C33.719 36.5247 33.6341 37.4908 33.3026 38.2974C33.1908 38.569 32.9353 38.9624 32.6185 39.0474C32.4838 39.0836 32.3809 39.0802 32.2609 39.0122C31.8377 38.7707 31.6822 37.8964 31.5918 37.4562C31.1674 35.3864 30.8822 33.2963 30.6685 31.1983C30.5334 29.875 30.3936 28.5116 30.4025 27.1828L30.5536 22.9716L28.7227 26.5318C28.4931 27.0519 28.3296 27.3557 27.8607 27.7084C28.1127 28.038 28.3484 28.3612 28.5279 28.7324C28.9686 29.6444 29.4055 30.9675 29.0206 31.9499C28.8875 32.0502 28.891 32.0599 28.7236 32.045C28.3861 31.6826 28.252 30.9902 28.0038 30.5394C27.6445 29.8869 27.1936 29.2726 26.7139 28.6957C27.1071 31.264 27.025 33.7611 26.6983 36.3361C26.6034 37.0837 26.5249 37.8997 26.2838 38.6209C26.2176 38.8187 26.1225 38.9618 25.9248 39.062C25.7715 39.0784 25.7032 39.1085 25.5722 39.0158C25.462 38.9378 25.3988 38.8093 25.364 38.6856C25.1727 38.0042 25.1382 37.2143 25.0574 36.5135L24.5975 32.511C24.4602 33.0758 24.4714 33.7335 24.419 34.3134L24.0808 37.3614C24.0211 37.8213 23.9904 38.6495 23.6491 38.9976C23.5782 39.031 23.5025 39.066 23.4217 39.062C23.2476 39.0538 23.1441 39.0213 23.0308 38.8895C22.7989 38.6194 22.7402 37.8927 22.6808 37.5373C22.1992 34.6534 22.0452 31.6024 22.4393 28.7039C22.2365 28.8789 22.0864 29.1198 21.9306 29.3324C21.6042 29.7781 21.2912 30.228 21.022 30.708C20.8045 31.095 20.6346 31.7813 20.2536 32.018L20.1141 31.9688C20.0681 31.915 20.0291 31.8573 20.0084 31.7904C19.9116 31.4775 19.9343 31.1239 19.9675 30.8034C20.0866 29.6456 20.6164 28.7725 21.2248 27.7919C21.0795 27.7834 20.939 27.7472 20.8087 27.6853C20.1958 27.3936 19.772 25.7213 19.5431 25.0997L18.5441 22.8243C18.4694 22.6681 18.3359 22.2981 18.1989 22.2018L18.2714 25.7127L18.2647 26.8043C18.2631 26.9686 18.2308 27.1919 18.2647 27.3505L17.7534 34.7378C17.6145 35.7613 17.3322 38.4605 16.4811 39.086C16.2751 39.1067 16.2361 39.1073 16.0496 39.0246C15.9212 38.8773 15.8455 38.7452 15.7906 38.5601C15.6357 38.0391 15.5735 37.4771 15.493 36.9421L15.1171 33.8271L14.48 28.1835C14.2692 29.2641 14.1728 30.3836 14.0562 31.4775L13.6123 35.3761L13.359 37.3629C13.2945 37.8122 13.2431 38.2986 13.0128 38.7035C12.9103 38.884 12.7746 39.059 12.559 39.1176C12.3604 39.0997 12.2716 39.0778 12.1305 38.9356C10.5397 37.3349 10.4398 25.1392 10.4612 22.2923L9.16618 25.1653C8.8893 25.8425 8.67214 26.5734 8.33362 27.2235C8.22472 27.4331 8.09218 27.6403 7.89035 27.7801C7.7131 27.9028 7.55406 27.8973 7.34968 27.8691C7.26505 27.8101 7.19575 27.7448 7.1472 27.6552C6.93355 27.2612 7.00349 26.6773 7.04565 26.2505C7.1769 24.922 7.47359 23.5619 7.87566 22.2851C8.64435 20.0488 9.98981 17.6671 12.2876 16.5573C13.4031 16.0187 14.64 15.8914 15.8293 16.2687C17.8859 16.9216 19.2946 18.6101 20.223 20.4009C21.0137 21.9266 21.5033 23.6585 21.7131 25.3455C21.7843 25.9661 21.83 26.5937 21.7348 27.2144C22.4234 26.4513 23.3556 25.422 24.4858 25.3376C25.1481 25.2884 25.7514 25.6644 26.2282 26.063L27.1035 26.9176C27.0534 26.5661 27.0694 26.3127 27.1444 25.9682C27.4756 23.8262 28.381 21.6568 29.684 19.8845C30.6618 18.5542 32.0373 17.195 33.7931 16.9067C35.0054 16.7074 36.2768 17.0404 37.276 17.7115C39.9571 19.512 41.2648 22.6599 41.8093 25.6277C41.9326 26.2635 42.1807 27.4334 41.7857 27.9915Z" fill="white"/>
</g>
<defs>
<linearGradient id="paint0_linear_195_485" x1="23.297" y1="46.5941" x2="23.297" y2="0" gradientUnits="userSpaceOnUse">
<stop stop-color="#007200"/>
<stop offset="1" stop-color="#38B000"/>
</linearGradient>
<clipPath id="clip0_195_485">
<rect width="35" height="30.8824" fill="white" transform="translate(7 8.23511)"/>
</clipPath>
</defs>
</svg>
