<svg width="28" height="36" viewBox="0 0 28 36" fill="none" xmlns="http://www.w3.org/2000/svg">
<path d="M20.1309 0.994977C20.015 0.964608 19.9 0.927985 19.7849 0.894043H18.9173C18.8879 0.908335 18.8585 0.930665 18.8273 0.936024C16.343 1.321 15.1856 4.25613 16.7469 6.24356C16.8058 6.31769 16.8201 6.47758 16.7835 6.56869C16.3831 7.5816 15.9721 8.59005 15.5538 9.59493C15.5093 9.70122 15.421 9.80394 15.3274 9.87183C14.0941 10.7659 12.9555 11.7476 12.259 13.1535C12.1039 13.1044 11.9692 13.0472 11.8292 13.0222C11.3941 12.9454 10.9804 12.9722 10.6718 13.3456C10.5461 13.4974 10.5247 13.6439 10.7458 13.7457C11.4761 14.0807 12.2394 14.2879 13.0999 14.3898C13.0482 14.1932 13.0527 13.9976 12.9581 13.8904C12.6746 13.5689 12.8235 13.3027 13.0081 13.0258C13.1311 12.8409 13.2506 12.6524 13.3861 12.4765C14.1583 11.477 15.1214 10.6891 16.1763 10.0147C17.2026 9.35733 18.1638 8.62757 18.9913 7.72541C19.101 7.60483 19.2999 7.51551 19.4639 7.50389C21.118 7.37974 22.4431 6.16049 22.5956 4.59824C22.7632 2.88593 21.7618 1.42372 20.1309 0.994977ZM16.5579 9.11705C16.5347 9.0974 16.5106 9.07775 16.4875 9.0581C16.7701 8.32566 17.0537 7.59322 17.3363 6.86435C17.7019 7.04478 18.0658 7.22432 18.5089 7.44226C17.8348 8.02107 17.1963 8.56951 16.5579 9.11705Z" fill="white"/>
<path d="M26.8542 15.5608C26.4494 13.6931 25.8787 11.8834 24.8586 10.2444C23.8563 8.63388 22.5037 7.69868 20.5178 7.91126C19.8839 7.97915 19.3301 8.14529 18.9066 8.658C17.3265 10.5686 15.5797 12.2809 13.2755 13.3135C13.1248 13.3814 13.0758 13.451 13.1507 13.6199C13.2621 13.8708 13.3397 14.1361 13.4654 14.4916H14.5613C15.0527 14.4907 15.5832 14.6069 16.0237 14.4568C16.4865 14.3005 16.8646 13.8914 17.2757 13.5877C17.4558 13.4546 17.6261 13.3072 17.8463 13.1295C17.8249 13.5913 17.8071 13.9745 17.7893 14.3577C17.8223 14.38 17.8553 14.4014 17.8882 14.4238C18.1879 14.1218 18.5258 13.8494 18.7799 13.5136C19.43 12.6543 19.6351 11.6467 19.652 10.59C19.6654 9.75309 20.2896 9.11801 21.1019 9.11354C21.9178 9.10818 22.558 9.7254 22.5768 10.5632C22.5848 10.9187 22.5661 11.2778 22.517 11.6298C22.1327 14.4273 20.7961 16.5068 18.055 17.5107C17.8829 17.5733 17.8187 17.6456 17.808 17.8359C17.7269 19.3267 17.6074 20.8148 17.5467 22.3056C17.5004 23.4274 17.4852 24.5538 17.5271 25.6757C17.561 26.5627 17.8499 26.844 18.7122 27.0343C19.1232 27.1245 19.5414 27.1799 19.9561 27.2513C19.9561 27.7024 19.9677 28.1258 19.9543 28.5474C19.907 30.0954 19.8428 31.6433 19.8018 33.1913C19.7724 34.2613 20.5678 35.1072 21.5914 35.126C22.6249 35.1456 23.4274 34.348 23.4613 33.2717C23.5077 31.7684 23.5603 30.2651 23.6022 28.7618C23.6165 28.2517 23.6049 27.7417 23.6049 27.2174C23.7939 27.1951 23.9036 27.1888 24.0097 27.1683C24.8711 27.0048 25.736 26.861 26.5894 26.6663C27.1084 26.5475 27.4704 26.2447 27.4115 25.6301C27.3999 25.5104 27.4418 25.3872 27.4508 25.2648C27.6915 22.0028 27.5489 18.7639 26.8542 15.5608ZM19.8607 22.1921C19.7974 21.984 19.7448 21.808 19.677 21.5865C20.5125 21.382 21.3195 21.1846 22.1452 20.9818C22.1844 21.1354 22.2139 21.2498 22.2495 21.3918C21.4532 21.6589 20.6712 21.9206 19.8607 22.1921Z" fill="white"/>
<path d="M13.0268 30.3516C12.8261 31.2537 11.9219 31.8147 11.0481 31.62C10.1288 31.4145 9.59552 30.566 9.73195 29.6352C9.888 28.5705 10.0084 27.4977 10.0931 26.4241C10.1243 26.0221 10.0432 25.6014 9.95755 25.2004C9.66329 23.8168 8.78497 23.028 7.29674 22.8315C6.51561 22.7279 5.72379 22.7074 4.93999 22.6163C3.80665 22.4841 2.84362 22.0509 2.41293 20.8968C2.26045 20.4877 2.17039 20.0349 2.15434 19.5972C2.05001 16.8532 2.61267 14.2468 3.81646 11.7761C4.28727 10.8096 4.93642 10.037 5.9699 9.65739C7.81213 8.98211 9.29591 10.1111 9.15057 12.0727C9.14076 12.2049 9.11757 12.3371 9.09974 12.4693C9.05961 12.4871 9.0186 12.505 8.97847 12.5228C8.75198 12.0995 8.49785 11.6877 8.30435 11.2491C8.01633 10.5962 7.41087 10.221 6.70376 10.3139C6.04837 10.4005 5.53029 10.9213 5.47857 11.6153C5.45806 11.8815 5.52048 12.1718 5.615 12.4255C6.07244 13.6474 6.86783 14.6237 7.8915 15.4124C8.11264 15.5821 8.11888 15.7233 8.06181 15.9671C7.82551 16.9729 7.61507 17.9858 7.40106 18.9969C7.37342 19.1247 7.3761 19.2586 7.3645 19.3944C7.85226 19.4998 8.32308 19.5757 8.77962 19.7061C11.3914 20.4502 13.0589 22.4671 13.3834 25.212C13.5894 26.9502 13.4039 28.658 13.0268 30.3516Z" fill="white"/>
<path d="M7.15406 23.5713H0.653611C0.435146 27.3952 0.218465 31.1905 0 35.0153C0.418204 35.0153 0.783798 34.9992 1.14761 35.0215C1.41155 35.0367 1.48289 34.9376 1.50607 34.6848C1.5676 33.9889 1.66212 33.2967 1.74415 32.5973H6.06173C6.15714 33.4003 6.25166 34.1926 6.34707 34.9974H7.80588C7.58742 31.1682 7.37074 27.3711 7.15406 23.5713ZM1.80122 31.9042C1.88236 29.6175 1.96351 27.3335 2.04554 25.0299H5.76034C5.84237 27.3184 5.92441 29.5952 6.00734 31.9042H1.80122Z" fill="white"/>
<path d="M12.1662 5.77739C12.1706 7.59152 10.7029 9.07338 8.88831 9.08857C7.07015 9.10286 5.57211 7.61028 5.573 5.78364C5.573 3.97129 7.04875 2.49658 8.86602 2.4939C10.6806 2.49122 12.1617 3.96504 12.1662 5.77739Z" fill="white"/>
<path d="M22.2683 10.4979C22.2816 12.8971 21.5371 14.9703 19.5317 16.4307C18.2218 17.3847 16.7014 17.666 14.9608 17.6821C14.7031 17.6651 14.293 17.6428 13.8837 17.6097C13.2042 17.5562 12.7378 17.0238 12.7753 16.353C12.8101 15.7349 13.3397 15.274 13.9916 15.2686C14.7887 15.2624 15.6002 15.3302 16.3804 15.2043C18.3707 14.8836 19.5593 13.6099 19.8553 11.6055C19.9071 11.2545 19.9151 10.8963 19.9409 10.5417C19.99 9.88426 20.4804 9.40281 21.1082 9.39835C21.7199 9.39388 22.2656 9.86461 22.2683 10.4979Z" fill="white"/>
<path d="M15.9059 14.8739C15.9042 14.9159 15.9024 14.9587 15.8997 15.0007C15.3691 15.0007 14.8297 15.0597 14.3089 14.9882C13.1658 14.8319 12.2438 15.6688 12.5567 17.0265C11.8898 16.855 11.2486 16.7309 10.6351 16.5254C8.76169 15.8975 7.21906 14.8248 6.23196 13.0615C6.05897 12.7534 5.91362 12.4229 5.80751 12.0861C5.61847 11.4823 5.94483 10.866 6.52711 10.6561C7.09957 10.4489 7.75408 10.6945 7.97522 11.267C8.64309 12.9919 9.99223 13.8931 11.6731 14.3996C12.8127 14.7426 13.9879 14.8087 15.1721 14.7935C15.4164 14.7899 15.6616 14.8453 15.9059 14.8739Z" fill="white"/>
</svg>
