<svg width="90" height="90" viewBox="0 0 90 90" fill="none" xmlns="http://www.w3.org/2000/svg">
<path fill-rule="evenodd" clip-rule="evenodd" d="M31.8382 89.2225C32.8118 88.9739 33.4139 87.9224 33.2679 86.9603C33.254 86.8737 33.2347 86.7889 33.21 86.7062C33.2744 86.5015 33.31 86.2896 33.3115 86.0539C33.3181 85.6856 33.2779 85.3235 33.2251 84.9715C33.1905 84.7151 33.1534 84.4584 33.1161 84.2016L33.1159 84.2004L33.1132 84.1819C33.0766 83.9293 33.0399 83.6767 33.0061 83.4245C32.9747 83.1973 32.9443 82.9703 32.9141 82.7436C32.846 82.2337 32.7782 81.7255 32.6988 81.2216C32.6818 81.1007 32.6652 80.9795 32.6488 80.8584C32.6359 80.7627 32.6231 80.667 32.6104 80.5713C32.5233 79.9188 32.4363 79.2663 32.3084 78.6288C32.1255 77.7894 31.9553 76.9398 31.7851 76.0903C31.6704 75.5406 31.5158 74.9976 31.3612 74.4541L31.3604 74.4515C31.3167 74.2979 31.273 74.1443 31.2301 73.9905C31.2066 73.906 31.1833 73.8213 31.1604 73.7366C30.971 73.0579 30.7247 72.3729 30.4644 71.7093L30.3044 71.2986L30.3014 71.291C30.0802 70.7228 29.8615 70.1608 29.6281 69.5972C29.5923 69.505 29.557 69.4118 29.5215 69.3183C29.3528 68.8733 29.1807 68.4193 28.9394 68.0207C28.5778 67.4381 28.044 67.0554 27.3669 66.9219C26.2821 66.7198 25.1816 67.2772 24.906 68.3998C24.7168 69.163 25.0225 70.0392 25.6374 70.5232C25.7527 70.7861 25.8561 71.0552 25.959 71.3232C26.0365 71.525 26.1138 71.7262 26.1958 71.9237C26.3185 72.2274 26.436 72.5306 26.555 72.8375C26.6112 72.9823 26.6676 73.1279 26.7251 73.2748C26.9108 73.7801 27.0964 74.2853 27.2467 74.7981C27.2965 74.9834 27.3474 75.168 27.3987 75.3522C27.4395 75.4985 27.4804 75.6445 27.5215 75.7905C27.6144 76.1215 27.7073 76.4524 27.7971 76.786C27.8708 77.1575 27.9475 77.5294 28.0241 77.9014C28.1006 78.2733 28.1773 78.6452 28.251 79.0168C28.3476 79.4574 28.4127 79.9048 28.4778 80.3521L28.4781 80.355C28.5107 80.5789 28.5433 80.8029 28.5798 81.026L28.8329 82.7845C28.4561 82.5843 28.0839 82.3966 27.7092 82.2077L27.697 82.2015C27.5561 82.1305 27.4148 82.0592 27.2728 81.987C26.7882 81.7466 26.3018 81.5113 25.816 81.2763L25.813 81.2748C24.1635 80.4768 22.5203 79.6819 20.9738 78.6984C21.0484 78.7529 21.113 78.7947 21.1876 78.8492C20.188 78.1952 19.2303 77.4767 18.3006 76.7152C16.7851 75.4153 15.424 73.9711 14.0631 72.5269C13.9747 72.4263 13.8857 72.3261 13.7965 72.2262C13.7205 72.1412 13.6444 72.0564 13.5683 71.9715C13.1537 71.5095 12.7392 71.0475 12.357 70.5597C12.1649 70.3191 11.9672 70.0818 11.7695 69.8444C11.3741 69.3695 10.9786 68.8945 10.6271 68.3937L10.6312 68.3999C10.1523 67.7176 9.67344 67.0344 9.19562 66.3419C8.69501 65.5592 8.21961 64.7562 7.77091 63.9217C7.12495 62.6844 6.56272 61.4219 6.07513 60.1101C5.67976 59.0046 5.34389 57.8828 5.06752 56.7446C4.79631 55.5608 4.61745 54.3758 4.48804 53.1617C4.38271 51.835 4.35848 50.5058 4.40387 49.1728C4.47589 47.7045 4.66179 46.2489 4.91605 44.8009C5.20593 43.2416 5.58696 41.6925 6.06915 40.1662C6.50437 38.8538 7.01679 37.5732 7.57483 36.2976L7.57948 36.2881C7.83277 35.7661 8.08604 35.2442 8.35066 34.7235C8.43988 34.5458 8.52534 34.3635 8.61109 34.1804C8.76787 33.8456 8.92578 33.5085 9.11012 33.1936C9.25214 32.95 9.39415 32.7058 9.53641 32.4612C9.99468 31.6733 10.4554 30.8812 10.9215 30.0974C11.2257 29.647 11.5425 29.1865 11.848 28.7247C11.9679 28.5495 12.084 28.3712 12.2003 28.1925C12.4183 27.8574 12.6371 27.5211 12.8834 27.2027C13.2601 26.7173 13.6371 26.2291 14.0142 25.7394C14.3514 25.3015 14.6887 24.8625 15.026 24.4234L15.1098 24.3144C15.4475 23.9254 15.7855 23.5336 16.1234 23.1418C16.2807 22.9593 16.4382 22.7768 16.5955 22.5946C16.7761 22.3856 16.9566 22.1769 17.1369 21.9691C17.5427 21.502 17.9803 21.052 18.4153 20.6048C18.548 20.4683 18.6806 20.332 18.8119 20.1956C20.0902 18.8738 21.4203 17.6039 22.7619 16.3353C24.9635 14.3901 27.1866 12.4588 29.5919 10.7556C30.828 9.91348 32.1033 9.13341 33.4166 8.42683L33.4052 8.42555C34.6285 7.80116 35.8683 7.2363 37.156 6.75753C38.3576 6.32682 39.5745 5.967 40.8191 5.66797L40.8899 5.65281C40.894 5.65326 40.8982 5.65229 40.9025 5.6509L40.9077 5.64903C40.9138 5.64681 40.9198 5.64463 40.9254 5.64526C42.3776 5.3464 43.8323 5.12852 45.3008 4.99294C46.6389 4.88892 47.9593 4.84061 49.296 4.85179C50.1264 4.85245 50.9568 4.85308 51.7745 4.86383C52.0777 4.88625 52.3834 4.9118 52.6891 4.93735C52.9948 4.9629 53.3005 4.98845 53.6037 5.01086C53.8178 5.02725 54.0347 5.0402 54.2526 5.0532L54.2547 5.05333C54.6994 5.0799 55.1476 5.10668 55.5821 5.16306L59.3983 5.6939C59.8715 5.78135 60.3418 5.86848 60.8122 5.95561C61.2854 6.04327 61.7586 6.13093 62.2347 6.21892C64.0434 6.54818 65.8254 7.0129 67.5858 7.56747C68.7083 7.94683 69.8016 8.38064 70.876 8.88149C71.5846 9.24915 72.2792 9.63833 72.9586 10.0604C73.8709 10.67 74.7312 11.3314 75.5763 12.0258C76.6781 13.0026 77.7786 13.9909 78.7879 15.0727C79.3735 15.715 79.9097 16.3863 80.4193 17.0893C81.2121 18.2507 81.8846 19.4564 82.5546 20.6848C82.9894 21.5409 83.4254 22.3855 83.8476 23.2517C84.0434 23.6658 84.2507 24.0812 84.4467 24.4953C84.4921 24.5914 84.5367 24.6888 84.5815 24.7866C84.8034 25.2705 85.0301 25.7647 85.3783 26.1682C86.0194 26.932 87.1446 27.1848 88.0134 26.6361C88.572 26.2834 88.9357 25.7128 89.0096 25.052C89.081 24.4141 88.8385 23.7987 88.4008 23.3806C88.2905 23.1513 88.1805 22.922 88.0707 22.6929L88.0702 22.6917C87.3509 21.1916 86.6344 19.6975 85.8275 18.2366C84.8023 16.3687 83.7379 14.5424 82.3251 12.9425C81.5385 12.0355 80.7025 11.1576 79.8119 10.3544C78.3433 9.04811 76.8834 7.76587 75.2386 6.69366C72.7246 5.03973 69.895 3.93874 67.0082 3.14277C64.1999 2.36714 61.3178 1.83702 58.4434 1.44615C57.6599 1.33542 56.8777 1.21325 56.1448 1.06204C56.0172 1.04776 55.8866 1.03315 55.7544 1.01987C55.627 1.00709 55.4981 0.995558 55.369 0.986767C54.5872 0.933047 53.7958 0.867294 53.0148 0.802389L52.9562 0.797521C52.8773 0.791041 52.7979 0.784021 52.7182 0.77697C52.4062 0.749423 52.0889 0.721375 51.7766 0.723178C50.4853 0.717092 49.2056 0.712289 47.9143 0.706203C46.6345 0.7014 45.3534 0.811832 44.0913 0.958959C42.6531 1.13253 41.2224 1.34151 39.812 1.67966C34.5286 2.92241 29.5631 5.44648 25.3312 8.83699L25.1264 9.00057C23.3573 10.4131 21.5831 11.8299 19.9426 13.3899C19.5052 13.8064 19.0682 14.2201 18.6312 14.6338L18.6154 14.6487C18.1804 15.0604 17.7454 15.4721 17.3101 15.8867C16.747 16.4254 16.2097 16.9965 15.6724 17.5676C15.4579 17.7956 15.2433 18.0236 15.0272 18.2496C13.5651 19.77 12.2043 21.4171 10.9093 23.0946C10.2744 23.9232 9.6523 24.7418 9.0592 25.6097C8.90953 25.8292 8.758 26.0478 8.60638 26.2666C8.12869 26.9556 7.65015 27.646 7.22777 28.3692C7.06422 28.6486 6.90256 28.9282 6.74132 29.2071C6.50901 29.6089 6.27759 30.0092 6.04264 30.405C5.86013 30.696 5.67761 30.987 5.52802 31.2933C5.34651 31.6602 5.16006 32.0253 4.97369 32.3904L4.96743 32.4028C4.58964 33.1429 4.21185 33.883 3.87345 34.6377C2.64462 37.3723 1.67906 40.2286 1.10709 43.1751C0.493251 46.2899 0.161669 49.4594 0.39465 52.6344C0.620122 55.6701 1.23676 58.6113 2.27767 61.473C2.78792 62.8911 3.39705 64.2512 4.07828 65.5847C4.62812 66.6497 5.2235 67.7198 5.91011 68.6963C5.91873 68.7131 5.92997 68.7277 5.94145 68.7421C5.95522 68.7594 5.9693 68.7764 5.9796 68.7964C6.10647 68.9775 6.23289 69.1594 6.35945 69.3415L6.3718 69.3594C6.90556 70.1278 7.44174 70.8996 8.02688 71.6323C8.7756 72.5696 9.53814 73.4855 10.3248 74.3924C11.1127 75.288 11.9159 76.1507 12.7304 77.0147C13.3039 77.6207 13.9099 78.188 14.5115 78.7511L14.5186 78.7577C14.6829 78.9115 14.8469 79.0651 15.0099 79.2191C16.0522 80.2123 17.2553 81.1083 18.4585 81.9004C19.5226 82.5962 20.6145 83.2489 21.7508 83.8144C22.0519 83.9616 22.3539 84.1097 22.6563 84.2581C23.4299 84.6376 24.206 85.0183 24.9776 85.3866C25.0988 85.4449 25.2199 85.5034 25.3411 85.5621C25.0356 85.5723 24.7298 85.5817 24.4242 85.59C23.043 85.6454 21.663 85.6053 20.2821 85.5653L19.8722 85.5535C18.0443 85.4989 16.2151 85.4557 14.3809 85.4581C12.7998 85.4657 11.1934 85.4936 9.60843 85.6392C8.5121 85.7472 7.76814 86.9327 7.92935 87.9658C8.00996 88.4823 8.30198 88.9649 8.71696 89.2766C9.16353 89.6149 9.69509 89.709 10.2433 89.655C10.2901 89.6487 10.3395 89.6456 10.3888 89.6425C10.4382 89.6394 10.4876 89.6362 10.5345 89.6299C10.4408 89.6425 10.3484 89.6437 10.2661 89.6576C11.846 89.5575 13.441 89.5284 15.0221 89.5208C16.035 89.5231 17.041 89.5497 18.0479 89.5763C18.7146 89.5939 19.3816 89.6116 20.0513 89.6222C20.4403 89.6278 20.8297 89.6354 21.2195 89.643C22.4912 89.6678 23.7665 89.6927 25.0426 89.6501C25.3324 89.6391 25.6243 89.6324 25.9172 89.6256C26.4789 89.6127 27.0438 89.5996 27.6023 89.5559C28.0858 89.512 28.569 89.4709 29.0521 89.4298C29.5355 89.3888 30.0189 89.3477 30.5026 89.3038C30.9595 89.3434 31.3874 89.3336 31.8382 89.2225Z" fill="#FFAA00"/>
</svg>
