<svg width="48" height="47" viewBox="0 0 48 47" fill="none" xmlns="http://www.w3.org/2000/svg">
<rect width="46.5941" height="46.5941" rx="6.6563" transform="matrix(-1 0 0 1 47.5221 0.376465)" fill="url(#paint0_linear_195_485)"/>
<path d="M31.1309 6.99498C31.015 6.96461 30.9 6.92799 30.7849 6.89404H29.9173C29.8879 6.90833 29.8585 6.93067 29.8273 6.93602C27.343 7.321 26.1856 10.2561 27.7469 12.2436C27.8058 12.3177 27.8201 12.4776 27.7835 12.5687C27.3831 13.5816 26.9721 14.5901 26.5538 15.5949C26.5093 15.7012 26.421 15.8039 26.3274 15.8718C25.0941 16.7659 23.9555 17.7476 23.259 19.1535C23.1039 19.1044 22.9692 19.0472 22.8292 19.0222C22.3941 18.9454 21.9804 18.9722 21.6718 19.3456C21.5461 19.4974 21.5247 19.6439 21.7458 19.7457C22.4761 20.0807 23.2394 20.2879 24.0999 20.3898C24.0482 20.1932 24.0527 19.9976 23.9581 19.8904C23.6746 19.5689 23.8235 19.3027 24.0081 19.0258C24.1311 18.8409 24.2506 18.6524 24.3861 18.4765C25.1583 17.477 26.1214 16.6891 27.1763 16.0147C28.2026 15.3573 29.1638 14.6276 29.9913 13.7254C30.101 13.6048 30.2999 13.5155 30.4639 13.5039C32.118 13.3797 33.4431 12.1605 33.5956 10.5982C33.7632 8.88593 32.7618 7.42372 31.1309 6.99498ZM27.5579 15.1171C27.5347 15.0974 27.5106 15.0778 27.4875 15.0581C27.7701 14.3257 28.0537 13.5932 28.3363 12.8643C28.7019 13.0448 29.0658 13.2243 29.5089 13.4423C28.8348 14.0211 28.1963 14.5695 27.5579 15.1171Z" fill="white"/>
<path d="M37.8542 21.5608C37.4494 19.6931 36.8787 17.8834 35.8586 16.2444C34.8563 14.6339 33.5037 13.6987 31.5178 13.9113C30.8839 13.9791 30.3301 14.1453 29.9066 14.658C28.3265 16.5686 26.5797 18.2809 24.2755 19.3135C24.1248 19.3814 24.0758 19.451 24.1507 19.6199C24.2621 19.8708 24.3397 20.1361 24.4654 20.4916H25.5613C26.0527 20.4907 26.5832 20.6069 27.0237 20.4568C27.4865 20.3005 27.8646 19.8914 28.2757 19.5877C28.4558 19.4546 28.6261 19.3072 28.8463 19.1295C28.8249 19.5913 28.8071 19.9745 28.7893 20.3577C28.8223 20.38 28.8553 20.4014 28.8882 20.4238C29.1879 20.1218 29.5258 19.8494 29.7799 19.5136C30.43 18.6543 30.6351 17.6467 30.652 16.59C30.6654 15.7531 31.2896 15.118 32.1019 15.1135C32.9178 15.1082 33.558 15.7254 33.5768 16.5632C33.5848 16.9187 33.5661 17.2778 33.517 17.6298C33.1327 20.4273 31.7961 22.5068 29.055 23.5107C28.8829 23.5733 28.8187 23.6456 28.808 23.8359C28.7269 25.3267 28.6074 26.8148 28.5467 28.3056C28.5004 29.4274 28.4852 30.5538 28.5271 31.6757C28.561 32.5627 28.8499 32.844 29.7122 33.0343C30.1232 33.1245 30.5414 33.1799 30.9561 33.2513C30.9561 33.7024 30.9677 34.1258 30.9543 34.5474C30.907 36.0954 30.8428 37.6433 30.8018 39.1913C30.7724 40.2613 31.5678 41.1072 32.5914 41.126C33.6249 41.1456 34.4274 40.348 34.4613 39.2717C34.5077 37.7684 34.5603 36.2651 34.6022 34.7618C34.6165 34.2517 34.6049 33.7417 34.6049 33.2174C34.7939 33.1951 34.9036 33.1888 35.0097 33.1683C35.8711 33.0048 36.736 32.861 37.5894 32.6663C38.1084 32.5475 38.4704 32.2447 38.4115 31.6301C38.3999 31.5104 38.4418 31.3872 38.4508 31.2648C38.6915 28.0028 38.5489 24.7639 37.8542 21.5608ZM30.8607 28.1921C30.7974 27.984 30.7448 27.808 30.677 27.5865C31.5125 27.382 32.3195 27.1846 33.1452 26.9818C33.1844 27.1354 33.2139 27.2498 33.2495 27.3918C32.4532 27.6589 31.6712 27.9206 30.8607 28.1921Z" fill="white"/>
<path d="M24.0268 36.3516C23.8261 37.2537 22.9219 37.8147 22.0481 37.62C21.1288 37.4145 20.5955 36.566 20.732 35.6352C20.888 34.5705 21.0084 33.4977 21.0931 32.4241C21.1243 32.0221 21.0432 31.6014 20.9575 31.2004C20.6633 29.8168 19.785 29.028 18.2967 28.8315C17.5156 28.7279 16.7238 28.7074 15.94 28.6163C14.8066 28.4841 13.8436 28.0509 13.4129 26.8968C13.2605 26.4877 13.1704 26.0349 13.1543 25.5972C13.05 22.8532 13.6127 20.2468 14.8165 17.7761C15.2873 16.8096 15.9364 16.037 16.9699 15.6574C18.8121 14.9821 20.2959 16.1111 20.1506 18.0727C20.1408 18.2049 20.1176 18.3371 20.0997 18.4693C20.0596 18.4871 20.0186 18.505 19.9785 18.5228C19.752 18.0995 19.4978 17.6877 19.3043 17.2491C19.0163 16.5962 18.4109 16.221 17.7038 16.3139C17.0484 16.4005 16.5303 16.9213 16.4786 17.6153C16.4581 17.8815 16.5205 18.1718 16.615 18.4255C17.0724 19.6474 17.8678 20.6237 18.8915 21.4124C19.1126 21.5821 19.1189 21.7233 19.0618 21.9671C18.8255 22.9729 18.6151 23.9858 18.4011 24.9969C18.3734 25.1247 18.3761 25.2586 18.3645 25.3944C18.8523 25.4998 19.3231 25.5757 19.7796 25.7061C22.3914 26.4502 24.0589 28.4671 24.3834 31.212C24.5894 32.9502 24.4039 34.658 24.0268 36.3516Z" fill="white"/>
<path d="M18.1541 29.5713H11.6536C11.4351 33.3952 11.2185 37.1905 11 41.0153C11.4182 41.0153 11.7838 40.9992 12.1476 41.0215C12.4116 41.0367 12.4829 40.9376 12.5061 40.6848C12.5676 39.9889 12.6621 39.2967 12.7442 38.5973H17.0617C17.1571 39.4003 17.2517 40.1926 17.3471 40.9974H18.8059C18.5874 37.1682 18.3707 33.3711 18.1541 29.5713ZM12.8012 37.9042C12.8824 35.6175 12.9635 33.3335 13.0455 31.0299H16.7603C16.8424 33.3184 16.9244 35.5952 17.0073 37.9042H12.8012Z" fill="white"/>
<path d="M23.1662 11.7774C23.1706 13.5915 21.7029 15.0734 19.8883 15.0886C18.0702 15.1029 16.5721 13.6103 16.573 11.7836C16.573 9.97129 18.0488 8.49658 19.866 8.4939C21.6806 8.49122 23.1617 9.96504 23.1662 11.7774Z" fill="white"/>
<path d="M33.2683 16.4979C33.2816 18.8971 32.5371 20.9703 30.5317 22.4307C29.2218 23.3847 27.7014 23.666 25.9608 23.6821C25.7031 23.6651 25.293 23.6428 24.8837 23.6097C24.2042 23.5562 23.7378 23.0238 23.7753 22.353C23.8101 21.7349 24.3397 21.274 24.9916 21.2686C25.7887 21.2624 26.6002 21.3302 27.3804 21.2043C29.3707 20.8836 30.5593 19.6099 30.8553 17.6055C30.9071 17.2545 30.9151 16.8963 30.9409 16.5417C30.99 15.8843 31.4804 15.4028 32.1082 15.3983C32.7199 15.3939 33.2656 15.8646 33.2683 16.4979Z" fill="white"/>
<path d="M26.9059 20.8739C26.9042 20.9159 26.9024 20.9587 26.8997 21.0007C26.3691 21.0007 25.8297 21.0597 25.3089 20.9882C24.1658 20.8319 23.2438 21.6688 23.5567 23.0265C22.8898 22.855 22.2486 22.7309 21.6351 22.5254C19.7617 21.8975 18.2191 20.8248 17.232 19.0615C17.059 18.7534 16.9136 18.4229 16.8075 18.0861C16.6185 17.4823 16.9448 16.866 17.5271 16.6561C18.0996 16.4489 18.7541 16.6945 18.9752 17.267C19.6431 18.9919 20.9922 19.8931 22.6731 20.3996C23.8127 20.7426 24.9879 20.8087 26.1721 20.7935C26.4164 20.7899 26.6616 20.8453 26.9059 20.8739Z" fill="white"/>
<defs>
<linearGradient id="paint0_linear_195_485" x1="23.297" y1="46.5941" x2="23.297" y2="0" gradientUnits="userSpaceOnUse">
<stop stop-color="#007200"/>
<stop offset="1" stop-color="#38B000"/>
</linearGradient>
</defs>
</svg>
