<svg width="463" height="49" viewBox="0 0 463 49" fill="none" xmlns="http://www.w3.org/2000/svg">
<rect x="414.49" y="0.390625" width="47.3905" height="47.3905" rx="8.00967" fill="#38B000" stroke="white" stroke-width="0.667473"/>
<path d="M431.726 19.9522L432.251 19.4274L431.726 19.9522ZM429.818 18.0435L429.293 18.5683L429.818 18.0435ZM437.734 32.1441C437.324 32.1441 436.992 32.4763 436.992 32.8862C436.992 33.2961 437.324 33.6283 437.734 33.6283V32.1441ZM447.674 30.8467L447.073 30.4105V30.4105L447.674 30.8467ZM446.579 31.9413L446.143 31.3409L446.579 31.9413ZM446.579 16.0199L447.015 15.4195V15.4195L446.579 16.0199ZM447.674 17.1144L447.073 17.5506V17.5506L447.674 17.1144ZM430.868 16.0199L430.432 15.4195V15.4195L430.868 16.0199ZM428.086 23.9806C428.086 24.3904 428.418 24.7227 428.828 24.7227C429.238 24.7227 429.57 24.3904 429.57 23.9806H428.086ZM429.773 17.1144L429.173 16.6782L429.773 17.1144ZM427.839 30.165C427.429 30.165 427.097 30.4973 427.097 30.9072C427.097 31.317 427.429 31.6493 427.839 31.6493V30.165ZM433.776 31.6493C434.186 31.6493 434.518 31.317 434.518 30.9072C434.518 30.4973 434.186 30.165 433.776 30.165V31.6493ZM427.839 27.1965C427.429 27.1965 427.097 27.5288 427.097 27.9386C427.097 28.3485 427.429 28.6808 427.839 28.6808V27.1965ZM430.807 28.6808C431.217 28.6808 431.549 28.3485 431.549 27.9386C431.549 27.5288 431.217 27.1965 430.807 27.1965V28.6808ZM429.443 17.6685L428.774 17.3463L429.443 17.6685ZM432.251 19.4274L430.463 17.6388L429.413 18.6883L431.202 20.477L432.251 19.4274ZM446.984 17.6388L445.196 19.4274L446.245 20.477L448.034 18.6883L446.984 17.6388ZM431.202 20.477C432.836 22.1113 434.114 23.391 435.243 24.2529C436.39 25.1278 437.471 25.6419 438.723 25.6419V24.1576C437.926 24.1576 437.158 23.8471 436.143 23.0729C435.112 22.2856 433.915 21.0915 432.251 19.4274L431.202 20.477ZM445.196 19.4274C443.532 21.0915 442.335 22.2856 441.303 23.0729C440.289 23.8471 439.521 24.1576 438.723 24.1576V25.6419C439.976 25.6419 441.057 25.1278 442.204 24.2529C443.333 23.391 444.611 22.1113 446.245 20.477L445.196 19.4274ZM432.251 19.4274L430.343 17.5187L429.293 18.5683L431.202 20.477L432.251 19.4274ZM447.104 17.5187L445.196 19.4274L446.245 20.477L448.154 18.5683L447.104 17.5187ZM437.734 15.8171H439.713V14.3328H437.734V15.8171ZM439.713 32.1441H437.734V33.6283H439.713V32.1441ZM447.876 23.9806C447.876 25.8523 447.875 27.1965 447.763 28.2374C447.651 29.2644 447.438 29.9078 447.073 30.4105L448.274 31.2829C448.854 30.4851 449.113 29.5506 449.238 28.3973C449.362 27.2579 449.361 25.8192 449.361 23.9806H447.876ZM439.713 33.6283C441.552 33.6283 442.99 33.6293 444.13 33.5059C445.283 33.3809 446.217 33.1214 447.015 32.5417L446.143 31.3409C445.64 31.7061 444.997 31.919 443.97 32.0303C442.929 32.143 441.585 32.1441 439.713 32.1441V33.6283ZM447.073 30.4105C446.814 30.7675 446.5 31.0815 446.143 31.3409L447.015 32.5417C447.498 32.1908 447.923 31.766 448.274 31.2829L447.073 30.4105ZM439.713 15.8171C441.585 15.8171 442.929 15.8181 443.97 15.9309C444.997 16.0422 445.64 16.255 446.143 16.6203L447.015 15.4195C446.217 14.8398 445.283 14.5802 444.13 14.4552C442.99 14.3318 441.552 14.3328 439.713 14.3328V15.8171ZM446.143 16.6203C446.5 16.8796 446.814 17.1936 447.073 17.5506L448.274 16.6782C447.923 16.1952 447.498 15.7704 447.015 15.4195L446.143 16.6203ZM437.734 14.3328C435.895 14.3328 434.457 14.3318 433.317 14.4552C432.164 14.5802 431.229 14.8398 430.432 15.4195L431.304 16.6203C431.807 16.255 432.45 16.0422 433.477 15.9309C434.518 15.8181 435.862 15.8171 437.734 15.8171V14.3328ZM430.432 15.4195C429.948 15.7704 429.524 16.1952 429.173 16.6782L430.374 17.5506C430.633 17.1936 430.947 16.8796 431.304 16.6203L430.432 15.4195ZM427.839 31.6493H433.776V30.165H427.839V31.6493ZM427.839 28.6808H430.807V27.1965H427.839V28.6808ZM429.57 23.9806C429.57 22.3625 429.571 21.1357 429.645 20.1532C429.719 19.1725 429.863 18.5057 430.111 17.9906L428.774 17.3463C428.408 18.1066 428.245 18.9885 428.165 20.0414C428.086 21.0924 428.086 22.3839 428.086 23.9806H429.57ZM430.111 17.9906C430.187 17.8329 430.274 17.6876 430.374 17.5506L429.173 16.6782C429.02 16.8888 428.888 17.1107 428.774 17.3463L430.111 17.9906ZM430.343 17.5187L429.968 17.1437L428.918 18.1933L429.293 18.5683L430.343 17.5187ZM449.361 23.9806C449.361 22.3839 449.361 21.0924 449.282 20.0414C449.202 18.9885 449.039 18.1066 448.673 17.3463L447.335 17.9906C447.584 18.5057 447.728 19.1725 447.802 20.1532C447.876 21.1357 447.876 22.3625 447.876 23.9806H449.361ZM448.673 17.3463C448.559 17.1107 448.427 16.8888 448.274 16.6782L447.073 17.5506C447.173 17.6876 447.259 17.8329 447.335 17.9906L448.673 17.3463ZM448.154 18.5683L448.529 18.1933L447.479 17.1437L447.104 17.5187L448.154 18.5683Z" fill="white"/>
<path d="M95.2373 33.0284C95.2373 33.2219 95.2051 33.367 95.1406 33.4637C95.0761 33.5443 94.9391 33.6088 94.7295 33.6572C94.4554 33.7378 94.0524 33.8103 93.5203 33.8748C92.9883 33.9393 92.3515 33.9715 91.6099 33.9715C90.8199 33.9715 90.0864 33.8506 89.4093 33.6088C88.7483 33.367 88.1679 33.0042 87.6681 32.5206C87.1845 32.0208 86.7975 31.4082 86.5074 30.6827C86.2333 29.9411 86.0962 29.0786 86.0962 28.0951V25.8461C86.0962 24.8627 86.2333 24.0083 86.5074 23.2828C86.7975 22.5412 87.1845 21.9285 87.6681 21.4449C88.1679 20.9451 88.7483 20.5743 89.4093 20.3325C90.0864 20.0907 90.8199 19.9697 91.6099 19.9697C92.3515 19.9697 92.9883 20.002 93.5203 20.0665C94.0524 20.131 94.4554 20.2035 94.7295 20.2841C94.9391 20.3325 95.0761 20.405 95.1406 20.5018C95.2051 20.5824 95.2373 20.7194 95.2373 20.9129V22.4848C95.2373 22.6137 95.197 22.7105 95.1164 22.7749C95.0358 22.8233 94.931 22.8475 94.802 22.8475H94.7295C94.4876 22.8152 94.2619 22.7911 94.0524 22.7749C93.8428 22.7427 93.6251 22.7266 93.3994 22.7266C93.1737 22.7105 92.9158 22.7024 92.6256 22.7024C92.3354 22.6863 91.9968 22.6782 91.6099 22.6782C91.3197 22.6782 91.0376 22.7266 90.7635 22.8233C90.4894 22.92 90.2396 23.0893 90.0138 23.3311C89.8043 23.5569 89.6269 23.8793 89.4818 24.2985C89.3529 24.7015 89.2884 25.2174 89.2884 25.8461V28.0951C89.2884 28.7239 89.3529 29.2478 89.4818 29.667C89.6269 30.0701 89.8043 30.3925 90.0138 30.6343C90.2396 30.86 90.4894 31.0212 90.7635 31.118C91.0376 31.2147 91.3197 31.2631 91.6099 31.2631C91.9968 31.2631 92.3354 31.2631 92.6256 31.2631C92.9158 31.247 93.1737 31.2389 93.3994 31.2389C93.6251 31.2228 93.8428 31.2066 94.0524 31.1905C94.2619 31.1583 94.4876 31.126 94.7295 31.0938H94.802C94.931 31.0938 95.0358 31.126 95.1164 31.1905C95.197 31.2389 95.2373 31.3276 95.2373 31.4565V33.0284ZM108.686 27.95C108.686 28.8206 108.557 29.6267 108.299 30.3683C108.057 31.0938 107.694 31.7225 107.211 32.2546C106.727 32.7866 106.123 33.2058 105.397 33.5121C104.688 33.8184 103.857 33.9715 102.906 33.9715C101.955 33.9715 101.117 33.8184 100.391 33.5121C99.6819 33.2058 99.0854 32.7866 98.6017 32.2546C98.1181 31.7225 97.7473 31.0938 97.4893 30.3683C97.2475 29.6267 97.1266 28.8206 97.1266 27.95V25.9912C97.1266 25.1207 97.2475 24.3226 97.4893 23.5972C97.7473 22.8556 98.1181 22.2187 98.6017 21.6867C99.0854 21.1547 99.6819 20.7355 100.391 20.4292C101.117 20.1229 101.955 19.9697 102.906 19.9697C103.857 19.9697 104.688 20.1229 105.397 20.4292C106.123 20.7355 106.727 21.1547 107.211 21.6867C107.694 22.2187 108.057 22.8556 108.299 23.5972C108.557 24.3226 108.686 25.1207 108.686 25.9912V27.95ZM105.494 25.9912C105.494 24.9917 105.276 24.2017 104.841 23.6213C104.406 23.0248 103.761 22.7266 102.906 22.7266C102.052 22.7266 101.407 23.0248 100.972 23.6213C100.536 24.2017 100.319 24.9917 100.319 25.9912V27.95C100.319 28.9496 100.536 29.7476 100.972 30.3441C101.407 30.9245 102.052 31.2147 102.906 31.2147C103.761 31.2147 104.406 30.9245 104.841 30.3441C105.276 29.7476 105.494 28.9496 105.494 27.95V25.9912ZM122.596 33.2702C122.596 33.3992 122.548 33.5201 122.451 33.633C122.354 33.7297 122.242 33.7781 122.113 33.7781H119.888C119.759 33.7781 119.646 33.7297 119.549 33.633C119.453 33.5201 119.404 33.3992 119.404 33.2702V25.3867C119.404 24.8547 119.38 24.4194 119.332 24.0808C119.299 23.7261 119.211 23.4521 119.066 23.2586C118.937 23.049 118.735 22.9039 118.461 22.8233C118.187 22.7266 117.816 22.6782 117.349 22.6782C116.929 22.6782 116.494 22.7588 116.043 22.92C115.607 23.0651 115.132 23.2747 114.616 23.5488V33.2702C114.616 33.3992 114.568 33.5201 114.471 33.633C114.374 33.7297 114.261 33.7781 114.132 33.7781H111.908C111.779 33.7781 111.666 33.7297 111.569 33.633C111.472 33.5201 111.424 33.3992 111.424 33.2702V20.6227C111.424 20.4937 111.472 20.3809 111.569 20.2841C111.666 20.1874 111.779 20.139 111.908 20.139H114.011C114.14 20.139 114.253 20.1874 114.35 20.2841C114.447 20.3809 114.495 20.4937 114.495 20.6227V21.1305C114.85 20.9048 115.172 20.7194 115.462 20.5743C115.769 20.4292 116.075 20.3164 116.381 20.2358C116.688 20.139 117.002 20.0745 117.324 20.0423C117.647 19.9939 118.01 19.9697 118.413 19.9697C119.283 19.9697 119.993 20.1068 120.541 20.3809C121.089 20.6549 121.508 21.0338 121.798 21.5174C122.105 22.0011 122.314 22.5734 122.427 23.2344C122.54 23.8954 122.596 24.6128 122.596 25.3867V33.2702ZM132.88 33.367C132.88 33.6088 132.727 33.7539 132.421 33.8023C132.131 33.8506 131.849 33.8909 131.574 33.9232C131.317 33.9554 131.051 33.9715 130.776 33.9715C130.099 33.9715 129.511 33.9232 129.011 33.8264C128.527 33.7297 128.132 33.5443 127.826 33.2702C127.52 32.9962 127.294 32.6092 127.149 32.1095C127.004 31.5936 126.931 30.9326 126.931 30.1265V22.5331L124.658 22.1946C124.529 22.1623 124.416 22.1059 124.32 22.0253C124.223 21.9447 124.175 21.8399 124.175 21.7109V20.6227C124.175 20.4937 124.223 20.3809 124.32 20.2841C124.416 20.1874 124.529 20.139 124.658 20.139H126.931V18.156C126.931 18.0271 126.98 17.9223 127.076 17.8417C127.173 17.7611 127.286 17.7046 127.415 17.6724L129.664 17.2855H129.761C130.019 17.2855 130.148 17.4064 130.148 17.6482V20.139H132.324C132.453 20.139 132.566 20.1874 132.663 20.2841C132.759 20.3809 132.808 20.4937 132.808 20.6227V22.0495C132.808 22.1784 132.759 22.2913 132.663 22.388C132.566 22.4848 132.453 22.5331 132.324 22.5331H130.148V30.1265C130.148 30.4328 130.156 30.6746 130.172 30.852C130.188 31.0293 130.228 31.1663 130.293 31.2631C130.357 31.3598 130.446 31.4243 130.559 31.4565C130.688 31.4727 130.865 31.4807 131.091 31.4807H132.373C132.711 31.4807 132.88 31.6016 132.88 31.8435V33.367ZM145.172 33.2944C145.172 33.4234 145.123 33.5362 145.027 33.633C144.93 33.7297 144.817 33.7781 144.688 33.7781H142.633C142.504 33.7781 142.391 33.7297 142.294 33.633C142.197 33.5362 142.149 33.4234 142.149 33.2944V32.9075C141.585 33.2461 141.02 33.5121 140.456 33.7055C139.892 33.8829 139.32 33.9715 138.739 33.9715C138.239 33.9715 137.74 33.9151 137.24 33.8023C136.74 33.6894 136.289 33.4798 135.886 33.1735C135.499 32.8672 135.176 32.4561 134.918 31.9402C134.676 31.4243 134.556 30.7552 134.556 29.933V29.8363C134.556 29.1431 134.66 28.5385 134.87 28.0226C135.096 27.5067 135.442 27.0714 135.91 26.7167C136.393 26.362 137.006 26.096 137.748 25.9187C138.505 25.7414 139.408 25.6527 140.456 25.6527H141.98V24.5886C141.98 23.7987 141.802 23.2747 141.448 23.0168C141.109 22.7588 140.577 22.6298 139.852 22.6298C139.078 22.6298 138.328 22.654 137.603 22.7024C136.877 22.7346 136.313 22.7749 135.91 22.8233H135.789C135.66 22.8233 135.555 22.7991 135.474 22.7508C135.394 22.7024 135.354 22.5895 135.354 22.4122V20.8645C135.354 20.5904 135.507 20.4212 135.813 20.3567C136.297 20.2599 136.877 20.1713 137.554 20.0907C138.247 20.0101 139.013 19.9697 139.852 19.9697C141.577 19.9697 142.891 20.3486 143.793 21.1063C144.712 21.8641 145.172 23.0248 145.172 24.5886V33.2944ZM141.98 27.7808H140.456C139.908 27.7808 139.457 27.8291 139.102 27.9259C138.763 28.0065 138.489 28.1354 138.28 28.3128C138.086 28.474 137.949 28.6836 137.869 28.9415C137.804 29.1995 137.772 29.4977 137.772 29.8363V29.933C137.772 30.5295 137.909 30.9326 138.183 31.1422C138.457 31.3356 138.9 31.4324 139.513 31.4324C139.948 31.4324 140.376 31.3679 140.795 31.2389C141.23 31.1099 141.625 30.9487 141.98 30.7552V27.7808ZM156.969 33.0284C156.969 33.2219 156.937 33.367 156.873 33.4637C156.808 33.5443 156.671 33.6088 156.462 33.6572C156.187 33.7378 155.784 33.8103 155.252 33.8748C154.72 33.9393 154.084 33.9715 153.342 33.9715C152.552 33.9715 151.818 33.8506 151.141 33.6088C150.48 33.367 149.9 33.0042 149.4 32.5206C148.916 32.0208 148.53 31.4082 148.239 30.6827C147.965 29.9411 147.828 29.0786 147.828 28.0951V25.8461C147.828 24.8627 147.965 24.0083 148.239 23.2828C148.53 22.5412 148.916 21.9285 149.4 21.4449C149.9 20.9451 150.48 20.5743 151.141 20.3325C151.818 20.0907 152.552 19.9697 153.342 19.9697C154.084 19.9697 154.72 20.002 155.252 20.0665C155.784 20.131 156.187 20.2035 156.462 20.2841C156.671 20.3325 156.808 20.405 156.873 20.5018C156.937 20.5824 156.969 20.7194 156.969 20.9129V22.4848C156.969 22.6137 156.929 22.7105 156.848 22.7749C156.768 22.8233 156.663 22.8475 156.534 22.8475H156.462C156.22 22.8152 155.994 22.7911 155.784 22.7749C155.575 22.7427 155.357 22.7266 155.131 22.7266C154.906 22.7105 154.648 22.7024 154.358 22.7024C154.067 22.6863 153.729 22.6782 153.342 22.6782C153.052 22.6782 152.77 22.7266 152.496 22.8233C152.221 22.92 151.972 23.0893 151.746 23.3311C151.536 23.5569 151.359 23.8793 151.214 24.2985C151.085 24.7015 151.02 25.2174 151.02 25.8461V28.0951C151.02 28.7239 151.085 29.2478 151.214 29.667C151.359 30.0701 151.536 30.3925 151.746 30.6343C151.972 30.86 152.221 31.0212 152.496 31.118C152.77 31.2147 153.052 31.2631 153.342 31.2631C153.729 31.2631 154.067 31.2631 154.358 31.2631C154.648 31.247 154.906 31.2389 155.131 31.2389C155.357 31.2228 155.575 31.2066 155.784 31.1905C155.994 31.1583 156.22 31.126 156.462 31.0938H156.534C156.663 31.0938 156.768 31.126 156.848 31.1905C156.929 31.2389 156.969 31.3276 156.969 31.4565V33.0284ZM167.242 33.367C167.242 33.6088 167.088 33.7539 166.782 33.8023C166.492 33.8506 166.21 33.8909 165.936 33.9232C165.678 33.9554 165.412 33.9715 165.138 33.9715C164.461 33.9715 163.872 33.9232 163.372 33.8264C162.889 33.7297 162.494 33.5443 162.187 33.2702C161.881 32.9962 161.655 32.6092 161.51 32.1095C161.365 31.5936 161.293 30.9326 161.293 30.1265V22.5331L159.019 22.1946C158.89 22.1623 158.778 22.1059 158.681 22.0253C158.584 21.9447 158.536 21.8399 158.536 21.7109V20.6227C158.536 20.4937 158.584 20.3809 158.681 20.2841C158.778 20.1874 158.89 20.139 159.019 20.139H161.293V18.156C161.293 18.0271 161.341 17.9223 161.438 17.8417C161.534 17.7611 161.647 17.7046 161.776 17.6724L164.025 17.2855H164.122C164.38 17.2855 164.509 17.4064 164.509 17.6482V20.139H166.685C166.814 20.139 166.927 20.1874 167.024 20.2841C167.121 20.3809 167.169 20.4937 167.169 20.6227V22.0495C167.169 22.1784 167.121 22.2913 167.024 22.388C166.927 22.4848 166.814 22.5331 166.685 22.5331H164.509V30.1265C164.509 30.4328 164.517 30.6746 164.533 30.852C164.549 31.0293 164.589 31.1663 164.654 31.2631C164.718 31.3598 164.807 31.4243 164.92 31.4565C165.049 31.4727 165.226 31.4807 165.452 31.4807H166.734C167.072 31.4807 167.242 31.6016 167.242 31.8435V33.367ZM185.675 25.0239C185.675 26.491 185.458 27.7163 185.022 28.6997C184.603 29.667 183.999 30.4409 183.209 31.0212C182.419 31.6016 181.476 32.0127 180.379 32.2546C179.283 32.4964 178.074 32.6173 176.752 32.6173C175.527 32.6173 174.535 32.3352 173.777 31.7709C173.02 31.1905 172.641 30.3199 172.641 29.1592C172.641 29.0786 172.641 29.006 172.641 28.9415C172.657 28.877 172.665 28.8045 172.665 28.7239L172.883 25.8945C172.996 24.5242 173.471 23.5165 174.309 22.8717C175.148 22.2268 176.236 21.9044 177.574 21.9044C177.735 21.9044 177.945 21.9205 178.203 21.9527C178.461 21.9689 178.735 21.993 179.025 22.0253C179.331 22.0575 179.638 22.0978 179.944 22.1462C180.25 22.1784 180.524 22.2187 180.766 22.2671C181.137 22.3155 181.322 22.5251 181.322 22.8959V22.9926L180.621 30.2958C181.25 30.199 181.766 30.0056 182.169 29.7154C182.588 29.4091 182.919 29.0302 183.16 28.5788C183.402 28.1113 183.571 27.5792 183.668 26.9827C183.765 26.3862 183.813 25.7333 183.813 25.0239C183.813 24.2985 183.7 23.5972 183.475 22.92C183.249 22.2429 182.894 21.6545 182.411 21.1547C181.943 20.6388 181.339 20.2277 180.597 19.9214C179.871 19.6151 179.009 19.4619 178.009 19.4619C175.881 19.4619 174.221 19.9859 173.028 21.0338C171.835 22.0817 171.15 23.5569 170.972 25.4592L170.61 29.2801C170.593 29.4252 170.577 29.5622 170.561 29.6912C170.561 29.8202 170.561 29.9491 170.561 30.0781C170.561 30.7875 170.682 31.4404 170.924 32.0369C171.166 32.6334 171.537 33.1493 172.036 33.5846C172.536 34.0199 173.165 34.3585 173.923 34.6003C174.68 34.8421 175.575 34.963 176.607 34.963C177.171 34.963 177.776 34.9469 178.421 34.9147C179.082 34.8824 179.646 34.8421 180.113 34.7938H180.258C180.371 34.7938 180.428 34.8663 180.428 35.0114V35.9062C180.428 36.0996 180.323 36.2044 180.113 36.2205C179.743 36.2689 179.259 36.3173 178.662 36.3656C178.066 36.4301 177.381 36.4624 176.607 36.4624C175.446 36.4624 174.382 36.3173 173.415 36.0271C172.447 35.7369 171.617 35.3177 170.924 34.7696C170.231 34.2375 169.691 33.5766 169.304 32.7866C168.917 31.9805 168.723 31.0696 168.723 30.0539C168.723 29.925 168.723 29.796 168.723 29.667C168.723 29.538 168.731 29.4091 168.747 29.2801L169.11 25.3383C169.207 24.2098 169.481 23.186 169.932 22.2671C170.384 21.332 170.988 20.534 171.746 19.873C172.504 19.212 173.407 18.7042 174.455 18.3495C175.519 17.9948 176.712 17.8175 178.034 17.8175C179.323 17.8175 180.444 18.019 181.395 18.4221C182.362 18.8251 183.16 19.3652 183.789 20.0423C184.418 20.7033 184.885 21.4691 185.192 22.3397C185.514 23.2102 185.675 24.105 185.675 25.0239ZM178.638 24.1775C178.412 24.1453 178.187 24.1211 177.961 24.105C177.751 24.0727 177.534 24.0566 177.308 24.0566C176.696 24.0566 176.252 24.2017 175.978 24.4919C175.704 24.7821 175.527 25.2819 175.446 25.9912L175.18 28.6997C175.164 28.7803 175.156 28.8529 175.156 28.9174C175.156 28.9818 175.156 29.0463 175.156 29.1108C175.156 29.6106 175.293 29.9653 175.567 30.1749C175.841 30.3683 176.292 30.465 176.921 30.465H177.405C177.534 30.465 177.647 30.465 177.743 30.465C177.856 30.465 177.969 30.457 178.082 30.4409L178.638 24.1775ZM199.253 27.95C199.253 28.8206 199.124 29.6267 198.866 30.3683C198.624 31.0938 198.262 31.7225 197.778 32.2546C197.294 32.7866 196.69 33.2058 195.964 33.5121C195.255 33.8184 194.425 33.9715 193.473 33.9715C192.522 33.9715 191.684 33.8184 190.958 33.5121C190.249 33.2058 189.652 32.7866 189.169 32.2546C188.685 31.7225 188.314 31.0938 188.056 30.3683C187.815 29.6267 187.694 28.8206 187.694 27.95V25.9912C187.694 25.1207 187.815 24.3226 188.056 23.5972C188.314 22.8556 188.685 22.2187 189.169 21.6867C189.652 21.1547 190.249 20.7355 190.958 20.4292C191.684 20.1229 192.522 19.9697 193.473 19.9697C194.425 19.9697 195.255 20.1229 195.964 20.4292C196.69 20.7355 197.294 21.1547 197.778 21.6867C198.262 22.2187 198.624 22.8556 198.866 23.5972C199.124 24.3226 199.253 25.1207 199.253 25.9912V27.95ZM196.061 25.9912C196.061 24.9917 195.843 24.2017 195.408 23.6213C194.973 23.0248 194.328 22.7266 193.473 22.7266C192.619 22.7266 191.974 23.0248 191.539 23.6213C191.103 24.2017 190.886 24.9917 190.886 25.9912V27.95C190.886 28.9496 191.103 29.7476 191.539 30.3441C191.974 30.9245 192.619 31.2147 193.473 31.2147C194.328 31.2147 194.973 30.9245 195.408 30.3441C195.843 29.7476 196.061 28.9496 196.061 27.95V25.9912ZM209.004 22.1946C209.004 22.3235 208.956 22.4364 208.859 22.5331C208.762 22.6298 208.649 22.6782 208.52 22.6782C207.859 22.6782 207.263 22.7588 206.731 22.92C206.215 23.0651 205.699 23.2747 205.183 23.5488V33.2702C205.183 33.3992 205.135 33.5201 205.038 33.633C204.941 33.7297 204.828 33.7781 204.699 33.7781H202.475C202.346 33.7781 202.233 33.7297 202.136 33.633C202.039 33.5201 201.991 33.3992 201.991 33.2702V20.6227C201.991 20.4937 202.039 20.3809 202.136 20.2841C202.233 20.1874 202.346 20.139 202.475 20.139H204.578C204.707 20.139 204.82 20.1874 204.917 20.2841C205.014 20.3809 205.062 20.4937 205.062 20.6227V21.1305C205.659 20.663 206.263 20.3567 206.876 20.2116C207.488 20.0504 208.037 19.9697 208.52 19.9697C208.649 19.9697 208.762 20.0181 208.859 20.1148C208.956 20.2116 209.004 20.3244 209.004 20.4534V22.1946ZM222.484 21.8076C222.484 21.985 222.452 22.1059 222.388 22.1704C222.339 22.2187 222.243 22.2752 222.098 22.3397L221.3 22.654C221.493 22.9281 221.638 23.2183 221.735 23.5246C221.848 23.8148 221.904 24.1695 221.904 24.5886V24.7579C221.904 26.2734 221.404 27.3858 220.405 28.0951C219.421 28.8045 218.011 29.1592 216.173 29.1592C215.528 29.1592 214.988 29.1189 214.553 29.0383C214.117 28.9415 213.779 28.8448 213.537 28.7481C213.263 28.9254 213.126 29.135 213.126 29.3768C213.126 29.6187 213.19 29.796 213.319 29.9088C213.464 30.0217 213.674 30.1104 213.948 30.1749L216.802 30.852C217.624 31.0454 218.365 31.2389 219.026 31.4324C219.703 31.6097 220.276 31.8354 220.743 32.1095C221.211 32.3835 221.574 32.7302 221.832 33.1493C222.089 33.5524 222.218 34.0763 222.218 34.7212V34.8905C222.218 36.1319 221.743 37.075 220.792 37.7199C219.857 38.3647 218.357 38.6872 216.294 38.6872C214.327 38.6872 212.836 38.3325 211.82 37.6231C210.804 36.9299 210.296 35.9465 210.296 34.6728V34.4552C210.296 33.9554 210.401 33.4798 210.611 33.0284C210.836 32.5609 211.143 32.1498 211.53 31.7951C211.191 31.5371 210.925 31.2147 210.732 30.8278C210.538 30.4247 210.441 30.0056 210.441 29.5703V29.5461C210.441 29.1753 210.522 28.8126 210.683 28.4579C210.845 28.1032 211.086 27.813 211.409 27.5873C211.038 27.2165 210.78 26.8054 210.635 26.354C210.49 25.9026 210.417 25.3706 210.417 24.7579V24.5886C210.417 23.9921 210.522 23.4279 210.732 22.8959C210.941 22.3477 211.272 21.8721 211.723 21.4691C212.191 21.0499 212.787 20.7275 213.513 20.5018C214.238 20.2599 215.125 20.139 216.173 20.139H221.832C222.009 20.139 222.162 20.2035 222.291 20.3325C222.42 20.4615 222.484 20.6146 222.484 20.792V21.8076ZM218.76 24.637C218.76 24.3468 218.72 24.0808 218.639 23.839C218.575 23.581 218.446 23.3634 218.252 23.186C218.059 22.9926 217.793 22.8475 217.454 22.7508C217.116 22.6379 216.689 22.5815 216.173 22.5815C215.657 22.5815 215.23 22.6379 214.891 22.7508C214.553 22.8475 214.287 22.9926 214.093 23.186C213.9 23.3634 213.763 23.581 213.682 23.839C213.601 24.0808 213.561 24.3468 213.561 24.637V24.8305C213.561 25.0562 213.593 25.2819 213.658 25.5076C213.722 25.7333 213.843 25.9429 214.021 26.1363C214.214 26.3137 214.48 26.4588 214.819 26.5716C215.157 26.6845 215.609 26.7409 216.173 26.7409C217.172 26.7409 217.849 26.5797 218.204 26.2573C218.575 25.9187 218.76 25.4431 218.76 24.8305V24.637ZM219.026 34.7212C219.026 34.5922 218.994 34.4713 218.93 34.3585C218.881 34.2456 218.752 34.1328 218.543 34.0199C218.349 33.9071 218.059 33.7942 217.672 33.6813C217.301 33.5524 216.802 33.4153 216.173 33.2702L214.021 32.7624C213.843 33.0204 213.698 33.2622 213.585 33.4879C213.472 33.6975 213.416 34.0199 213.416 34.4552V34.6728C213.416 34.9147 213.456 35.1323 213.537 35.3258C213.634 35.5354 213.787 35.7046 213.996 35.8336C214.222 35.9787 214.52 36.0835 214.891 36.148C215.262 36.2286 215.729 36.2689 216.294 36.2689C216.874 36.2689 217.342 36.2367 217.696 36.1722C218.051 36.1077 218.325 36.019 218.519 35.9062C218.728 35.7933 218.865 35.6482 218.93 35.4709C218.994 35.3096 219.026 35.1162 219.026 34.8905V34.7212ZM234.841 33.2944C234.841 33.4234 234.793 33.5362 234.696 33.633C234.6 33.7297 234.487 33.7781 234.358 33.7781H232.302C232.173 33.7781 232.06 33.7297 231.964 33.633C231.867 33.5362 231.819 33.4234 231.819 33.2944V32.9075C231.254 33.2461 230.69 33.5121 230.126 33.7055C229.562 33.8829 228.989 33.9715 228.409 33.9715C227.909 33.9715 227.409 33.9151 226.91 33.8023C226.41 33.6894 225.958 33.4798 225.555 33.1735C225.168 32.8672 224.846 32.4561 224.588 31.9402C224.346 31.4243 224.225 30.7552 224.225 29.933V29.8363C224.225 29.1431 224.33 28.5385 224.54 28.0226C224.765 27.5067 225.112 27.0714 225.579 26.7167C226.063 26.362 226.676 26.096 227.417 25.9187C228.175 25.7414 229.078 25.6527 230.126 25.6527H231.649V24.5886C231.649 23.7987 231.472 23.2747 231.117 23.0168C230.779 22.7588 230.247 22.6298 229.521 22.6298C228.747 22.6298 227.998 22.654 227.272 22.7024C226.547 22.7346 225.983 22.7749 225.579 22.8233H225.459C225.33 22.8233 225.225 22.7991 225.144 22.7508C225.064 22.7024 225.023 22.5895 225.023 22.4122V20.8645C225.023 20.5904 225.176 20.4212 225.483 20.3567C225.966 20.2599 226.547 20.1713 227.224 20.0907C227.917 20.0101 228.683 19.9697 229.521 19.9697C231.246 19.9697 232.56 20.3486 233.463 21.1063C234.382 21.8641 234.841 23.0248 234.841 24.5886V33.2944ZM231.649 27.7808H230.126C229.578 27.7808 229.126 27.8291 228.772 27.9259C228.433 28.0065 228.159 28.1354 227.949 28.3128C227.756 28.474 227.619 28.6836 227.538 28.9415C227.474 29.1995 227.442 29.4977 227.442 29.8363V29.933C227.442 30.5295 227.579 30.9326 227.853 31.1422C228.127 31.3356 228.57 31.4324 229.183 31.4324C229.618 31.4324 230.045 31.3679 230.464 31.2389C230.9 31.1099 231.295 30.9487 231.649 30.7552V27.7808ZM249.154 33.2702C249.154 33.3992 249.106 33.5201 249.009 33.633C248.912 33.7297 248.799 33.7781 248.67 33.7781H246.446C246.317 33.7781 246.204 33.7297 246.107 33.633C246.01 33.5201 245.962 33.3992 245.962 33.2702V25.3867C245.962 24.8547 245.938 24.4194 245.889 24.0808C245.857 23.7261 245.768 23.4521 245.623 23.2586C245.494 23.049 245.293 22.9039 245.019 22.8233C244.745 22.7266 244.374 22.6782 243.906 22.6782C243.487 22.6782 243.052 22.7588 242.601 22.92C242.165 23.0651 241.69 23.2747 241.174 23.5488V33.2702C241.174 33.3992 241.125 33.5201 241.029 33.633C240.932 33.7297 240.819 33.7781 240.69 33.7781H238.465C238.336 33.7781 238.223 33.7297 238.127 33.633C238.03 33.5201 237.982 33.3992 237.982 33.2702V20.6227C237.982 20.4937 238.03 20.3809 238.127 20.2841C238.223 20.1874 238.336 20.139 238.465 20.139H240.569C240.698 20.139 240.811 20.1874 240.908 20.2841C241.004 20.3809 241.053 20.4937 241.053 20.6227V21.1305C241.407 20.9048 241.73 20.7194 242.02 20.5743C242.326 20.4292 242.633 20.3164 242.939 20.2358C243.245 20.139 243.56 20.0745 243.882 20.0423C244.205 19.9939 244.567 19.9697 244.97 19.9697C245.841 19.9697 246.55 20.1068 247.098 20.3809C247.647 20.6549 248.066 21.0338 248.356 21.5174C248.662 22.0011 248.872 22.5734 248.985 23.2344C249.098 23.8954 249.154 24.6128 249.154 25.3867V33.2702ZM255.63 17.8417C255.63 17.9706 255.582 18.0835 255.485 18.1802C255.388 18.277 255.275 18.3253 255.146 18.3253H252.801C252.672 18.3253 252.551 18.277 252.438 18.1802C252.341 18.0835 252.293 17.9706 252.293 17.8417V15.7136C252.293 15.5846 252.341 15.4718 252.438 15.375C252.551 15.2783 252.672 15.2299 252.801 15.2299H255.146C255.275 15.2299 255.388 15.2783 255.485 15.375C255.582 15.4718 255.63 15.5846 255.63 15.7136V17.8417ZM255.558 33.2702C255.558 33.3992 255.509 33.5201 255.412 33.633C255.316 33.7297 255.203 33.7781 255.074 33.7781H252.849C252.72 33.7781 252.607 33.7297 252.51 33.633C252.414 33.5201 252.365 33.3992 252.365 33.2702V20.6227C252.365 20.4937 252.414 20.3809 252.51 20.2841C252.607 20.1874 252.72 20.139 252.849 20.139H255.074C255.203 20.139 255.316 20.1874 255.412 20.2841C255.509 20.3809 255.558 20.4937 255.558 20.6227V33.2702ZM267.929 30.199C267.929 30.7311 267.832 31.2308 267.639 31.6984C267.445 32.1498 267.147 32.5448 266.744 32.8833C266.357 33.2219 265.865 33.4879 265.269 33.6813C264.672 33.8748 263.979 33.9715 263.189 33.9715C262.947 33.9715 262.649 33.9635 262.294 33.9474C261.956 33.9312 261.585 33.899 261.182 33.8506C260.779 33.8184 260.376 33.7781 259.973 33.7297C259.57 33.6652 259.199 33.5846 258.86 33.4879C258.554 33.4073 258.401 33.2219 258.401 32.9317V31.4807C258.401 31.384 258.433 31.2953 258.498 31.2147C258.578 31.1341 258.683 31.0938 258.812 31.0938H258.909C259.199 31.126 259.537 31.1583 259.924 31.1905C260.327 31.2228 260.722 31.255 261.109 31.2873C261.496 31.3034 261.859 31.3195 262.198 31.3356C262.536 31.3517 262.794 31.3598 262.971 31.3598C263.342 31.3598 263.64 31.3356 263.866 31.2873C264.092 31.2228 264.261 31.1422 264.374 31.0454C264.503 30.9326 264.584 30.8036 264.616 30.6585C264.664 30.5134 264.688 30.3603 264.688 30.199C264.688 29.9733 264.608 29.7718 264.447 29.5945C264.285 29.4171 264.011 29.2075 263.624 28.9657L260.311 26.9344C259.715 26.5636 259.223 26.096 258.836 25.5318C258.465 24.9514 258.28 24.3065 258.28 23.5972C258.28 21.1789 259.812 19.9697 262.875 19.9697C263.358 19.9697 263.794 19.9859 264.181 20.0181C264.584 20.0342 264.954 20.0665 265.293 20.1148C265.632 20.1632 265.954 20.2196 266.26 20.2841C266.567 20.3325 266.873 20.3889 267.179 20.4534C267.469 20.534 267.614 20.7194 267.614 21.0096V22.4122C267.614 22.7185 267.486 22.8717 267.228 22.8717H267.131C266.953 22.8556 266.712 22.8314 266.405 22.7991C266.099 22.7508 265.76 22.7185 265.39 22.7024C265.019 22.6702 264.632 22.646 264.229 22.6298C263.842 22.5976 263.479 22.5815 263.141 22.5815C262.56 22.5815 262.133 22.6621 261.859 22.8233C261.601 22.9684 261.472 23.2264 261.472 23.5972C261.472 23.7906 261.553 23.9599 261.714 24.105C261.891 24.2501 262.133 24.4113 262.439 24.5886L265.607 26.5233C266.107 26.8296 266.51 27.1359 266.816 27.4422C267.123 27.7485 267.357 28.0548 267.518 28.3611C267.695 28.6675 267.808 28.9738 267.856 29.2801C267.905 29.5864 267.929 29.8927 267.929 30.199ZM287.958 33.2702C287.958 33.3992 287.91 33.5201 287.813 33.633C287.717 33.7297 287.604 33.7781 287.475 33.7781H285.25C285.121 33.7781 285.008 33.7297 284.911 33.633C284.815 33.5201 284.766 33.3992 284.766 33.2702V25.0481C284.766 24.5806 284.734 24.2017 284.67 23.9115C284.621 23.6052 284.532 23.3634 284.404 23.186C284.275 23.0087 284.097 22.8878 283.871 22.8233C283.646 22.7427 283.364 22.7024 283.025 22.7024C282.799 22.7024 282.477 22.7508 282.058 22.8475C281.639 22.9281 281.211 23.0813 280.776 23.307C280.808 23.581 280.833 23.8632 280.849 24.1534C280.865 24.4435 280.873 24.7418 280.873 25.0481V33.2702C280.873 33.3992 280.824 33.5201 280.728 33.633C280.631 33.7297 280.518 33.7781 280.389 33.7781H278.164C278.035 33.7781 277.923 33.7297 277.826 33.633C277.729 33.5201 277.681 33.3992 277.681 33.2702V25.0481C277.681 24.5806 277.657 24.2017 277.608 23.9115C277.56 23.6052 277.471 23.3634 277.342 23.186C277.229 23.0087 277.06 22.8878 276.834 22.8233C276.625 22.7427 276.351 22.7024 276.012 22.7024C275.512 22.7024 274.771 22.9684 273.787 23.5004V33.2702C273.787 33.3992 273.739 33.5201 273.642 33.633C273.545 33.7297 273.433 33.7781 273.304 33.7781H271.079C270.95 33.7781 270.837 33.7297 270.74 33.633C270.644 33.5201 270.595 33.3992 270.595 33.2702V20.6227C270.595 20.4937 270.644 20.3809 270.74 20.2841C270.837 20.1874 270.95 20.139 271.079 20.139H273.183C273.312 20.139 273.425 20.1874 273.521 20.2841C273.618 20.3809 273.666 20.4937 273.666 20.6227V21.1305C274.182 20.8081 274.706 20.534 275.238 20.3083C275.77 20.0826 276.399 19.9697 277.125 19.9697C277.818 19.9697 278.39 20.0665 278.841 20.2599C279.309 20.4534 279.68 20.7194 279.954 21.058C280.567 20.7194 281.171 20.4534 281.768 20.2599C282.38 20.0665 283.106 19.9697 283.944 19.9697C284.766 19.9697 285.435 20.1068 285.951 20.3809C286.483 20.6388 286.894 21.0015 287.185 21.4691C287.475 21.9205 287.676 22.4525 287.789 23.0651C287.902 23.6778 287.958 24.3388 287.958 25.0481V33.2702ZM302.242 27.4664C302.242 27.8694 302.081 28.071 301.758 28.071H293.875V28.1435C293.875 28.4982 293.915 28.8609 293.996 29.2317C294.076 29.5864 294.221 29.9169 294.431 30.2232C294.657 30.5134 294.955 30.7552 295.326 30.9487C295.713 31.126 296.196 31.2147 296.777 31.2147C297.663 31.2147 298.494 31.1905 299.268 31.1422C300.058 31.0777 300.711 31.0212 301.226 30.9729H301.299C301.428 30.9729 301.533 31.0051 301.613 31.0696C301.694 31.118 301.734 31.2066 301.734 31.3356V32.9317C301.734 33.1251 301.702 33.2702 301.638 33.367C301.589 33.4637 301.452 33.5282 301.226 33.5604C300.839 33.641 300.477 33.7055 300.138 33.7539C299.8 33.8023 299.453 33.8426 299.098 33.8748C298.76 33.9071 298.381 33.9312 297.962 33.9474C297.559 33.9635 297.083 33.9715 296.535 33.9715C295.922 33.9715 295.269 33.8829 294.576 33.7055C293.899 33.5121 293.27 33.1896 292.69 32.7382C292.11 32.2707 291.626 31.65 291.239 30.8762C290.868 30.0862 290.683 29.0947 290.683 27.9017V26.1122C290.683 25.1771 290.812 24.3307 291.07 23.573C291.328 22.8152 291.698 22.1704 292.182 21.6384C292.682 21.1063 293.294 20.6952 294.02 20.405C294.745 20.1148 295.568 19.9697 296.487 19.9697C297.422 19.9697 298.244 20.1229 298.953 20.4292C299.679 20.7194 300.283 21.1386 300.767 21.6867C301.251 22.2349 301.613 22.8878 301.855 23.6455C302.113 24.3871 302.242 25.2093 302.242 26.1122V27.4664ZM299.026 25.7011C299.026 24.7499 298.792 24.0163 298.324 23.5004C297.857 22.9845 297.244 22.7266 296.487 22.7266C295.729 22.7266 295.108 22.9845 294.625 23.5004C294.141 24.0002 293.899 24.7337 293.899 25.7011V25.7978H299.026V25.7011ZM316.273 27.9017C316.273 29.8041 315.798 31.2953 314.847 32.3755C313.895 33.4395 312.444 33.9715 310.494 33.9715C309.72 33.9715 308.906 33.9151 308.051 33.8023C307.197 33.6894 306.391 33.5362 305.633 33.3428C305.359 33.2622 305.182 33.1816 305.101 33.101C305.02 33.0042 304.98 32.8672 304.98 32.6899V15.8587C304.98 15.7297 305.028 15.6169 305.125 15.5201C305.222 15.4234 305.335 15.375 305.464 15.375H307.688C307.817 15.375 307.93 15.4234 308.027 15.5201C308.124 15.6169 308.172 15.7297 308.172 15.8587V20.139C308.624 20.0745 309.051 20.0342 309.454 20.0181C309.857 19.9859 310.203 19.9697 310.494 19.9697C312.444 19.9697 313.895 20.5098 314.847 21.59C315.798 22.654 316.273 24.1372 316.273 26.0396V27.9017ZM313.081 26.0396C313.081 25.5398 313.041 25.0804 312.96 24.6612C312.896 24.242 312.767 23.8793 312.573 23.573C312.38 23.2667 312.114 23.0248 311.775 22.8475C311.437 22.6702 311.01 22.5815 310.494 22.5815C310.203 22.5815 309.825 22.5976 309.357 22.6298C308.906 22.6621 308.511 22.7024 308.172 22.7508V31.1905C308.398 31.2389 308.728 31.2792 309.164 31.3114C309.615 31.3437 310.058 31.3598 310.494 31.3598C311.01 31.3598 311.437 31.2711 311.775 31.0938C312.114 30.9165 312.38 30.6746 312.573 30.3683C312.767 30.062 312.896 29.6993 312.96 29.2801C313.041 28.8609 313.081 28.4015 313.081 27.9017V26.0396ZM329.045 33.2944C329.045 33.4234 328.997 33.5362 328.9 33.633C328.804 33.7297 328.691 33.7781 328.562 33.7781H326.506C326.377 33.7781 326.264 33.7297 326.168 33.633C326.071 33.5362 326.023 33.4234 326.023 33.2944V32.9075C325.458 33.2461 324.894 33.5121 324.33 33.7055C323.765 33.8829 323.193 33.9715 322.613 33.9715C322.113 33.9715 321.613 33.9151 321.113 33.8023C320.614 33.6894 320.162 33.4798 319.759 33.1735C319.372 32.8672 319.05 32.4561 318.792 31.9402C318.55 31.4243 318.429 30.7552 318.429 29.933V29.8363C318.429 29.1431 318.534 28.5385 318.744 28.0226C318.969 27.5067 319.316 27.0714 319.783 26.7167C320.267 26.362 320.88 26.096 321.621 25.9187C322.379 25.7414 323.282 25.6527 324.33 25.6527H325.853V24.5886C325.853 23.7987 325.676 23.2747 325.321 23.0168C324.983 22.7588 324.451 22.6298 323.725 22.6298C322.951 22.6298 322.202 22.654 321.476 22.7024C320.751 22.7346 320.186 22.7749 319.783 22.8233H319.662C319.533 22.8233 319.429 22.7991 319.348 22.7508C319.267 22.7024 319.227 22.5895 319.227 22.4122V20.8645C319.227 20.5904 319.38 20.4212 319.687 20.3567C320.17 20.2599 320.751 20.1713 321.428 20.0907C322.121 20.0101 322.887 19.9697 323.725 19.9697C325.45 19.9697 326.764 20.3486 327.667 21.1063C328.586 21.8641 329.045 23.0248 329.045 24.5886V33.2944ZM325.853 27.7808H324.33C323.782 27.7808 323.33 27.8291 322.976 27.9259C322.637 28.0065 322.363 28.1354 322.153 28.3128C321.96 28.474 321.823 28.6836 321.742 28.9415C321.678 29.1995 321.645 29.4977 321.645 29.8363V29.933C321.645 30.5295 321.782 30.9326 322.057 31.1422C322.331 31.3356 322.774 31.4324 323.387 31.4324C323.822 31.4324 324.249 31.3679 324.668 31.2389C325.104 31.1099 325.499 30.9487 325.853 30.7552V27.7808ZM342.995 32.6899C342.995 32.8672 342.955 33.0042 342.874 33.101C342.794 33.1816 342.616 33.2622 342.342 33.3428C341.585 33.5362 340.778 33.6894 339.924 33.8023C339.07 33.9151 338.255 33.9715 337.482 33.9715C335.531 33.9715 334.08 33.4395 333.129 32.3755C332.177 31.2953 331.702 29.8041 331.702 27.9017V26.0396C331.702 24.1372 332.177 22.654 333.129 21.59C334.08 20.5098 335.531 19.9697 337.482 19.9697C337.772 19.9697 338.118 19.9859 338.521 20.0181C338.924 20.0342 339.352 20.0745 339.803 20.139V15.8587C339.803 15.7297 339.851 15.6169 339.948 15.5201C340.045 15.4234 340.158 15.375 340.287 15.375H342.512C342.641 15.375 342.753 15.4234 342.85 15.5201C342.947 15.6169 342.995 15.7297 342.995 15.8587V32.6899ZM339.803 22.7508C339.465 22.7024 339.061 22.6621 338.594 22.6298C338.143 22.5976 337.772 22.5815 337.482 22.5815C336.966 22.5815 336.538 22.6702 336.2 22.8475C335.861 23.0248 335.595 23.2667 335.402 23.573C335.208 23.8793 335.071 24.242 334.991 24.6612C334.926 25.0804 334.894 25.5398 334.894 26.0396V27.9017C334.894 28.4015 334.926 28.8609 334.991 29.2801C335.071 29.6993 335.208 30.062 335.402 30.3683C335.595 30.6746 335.861 30.9165 336.2 31.0938C336.538 31.2711 336.966 31.3598 337.482 31.3598C337.917 31.3598 338.352 31.3437 338.787 31.3114C339.239 31.2792 339.577 31.2389 339.803 31.1905V22.7508ZM353.156 22.1946C353.156 22.3235 353.107 22.4364 353.01 22.5331C352.914 22.6298 352.801 22.6782 352.672 22.6782C352.011 22.6782 351.414 22.7588 350.882 22.92C350.366 23.0651 349.851 23.2747 349.335 23.5488V33.2702C349.335 33.3992 349.286 33.5201 349.19 33.633C349.093 33.7297 348.98 33.7781 348.851 33.7781H346.626C346.497 33.7781 346.384 33.7297 346.288 33.633C346.191 33.5201 346.143 33.3992 346.143 33.2702V20.6227C346.143 20.4937 346.191 20.3809 346.288 20.2841C346.384 20.1874 346.497 20.139 346.626 20.139H348.73C348.859 20.139 348.972 20.1874 349.069 20.2841C349.165 20.3809 349.214 20.4937 349.214 20.6227V21.1305C349.81 20.663 350.415 20.3567 351.027 20.2116C351.64 20.0504 352.188 19.9697 352.672 19.9697C352.801 19.9697 352.914 20.0181 353.01 20.1148C353.107 20.2116 353.156 20.3244 353.156 20.4534V22.1946ZM357.599 33.2944C357.599 33.4234 357.55 33.5362 357.453 33.633C357.357 33.7297 357.244 33.7781 357.115 33.7781H354.963C354.834 33.7781 354.721 33.7297 354.624 33.633C354.527 33.5362 354.479 33.4234 354.479 33.2944V30.5618C354.479 30.4328 354.527 30.328 354.624 30.2474C354.721 30.1507 354.834 30.1023 354.963 30.1023H357.115C357.244 30.1023 357.357 30.1507 357.453 30.2474C357.55 30.328 357.599 30.4328 357.599 30.5618V33.2944ZM378.1 33.2702C378.1 33.3992 378.052 33.5201 377.955 33.633C377.859 33.7297 377.746 33.7781 377.617 33.7781H375.392C375.263 33.7781 375.15 33.7297 375.053 33.633C374.957 33.5201 374.908 33.3992 374.908 33.2702V25.0481C374.908 24.5806 374.876 24.2017 374.812 23.9115C374.763 23.6052 374.674 23.3634 374.546 23.186C374.417 23.0087 374.239 22.8878 374.013 22.8233C373.788 22.7427 373.506 22.7024 373.167 22.7024C372.941 22.7024 372.619 22.7508 372.2 22.8475C371.781 22.9281 371.353 23.0813 370.918 23.307C370.95 23.581 370.975 23.8632 370.991 24.1534C371.007 24.4435 371.015 24.7418 371.015 25.0481V33.2702C371.015 33.3992 370.966 33.5201 370.87 33.633C370.773 33.7297 370.66 33.7781 370.531 33.7781H368.306C368.177 33.7781 368.065 33.7297 367.968 33.633C367.871 33.5201 367.823 33.3992 367.823 33.2702V25.0481C367.823 24.5806 367.799 24.2017 367.75 23.9115C367.702 23.6052 367.613 23.3634 367.484 23.186C367.371 23.0087 367.202 22.8878 366.976 22.8233C366.767 22.7427 366.493 22.7024 366.154 22.7024C365.654 22.7024 364.913 22.9684 363.929 23.5004V33.2702C363.929 33.3992 363.881 33.5201 363.784 33.633C363.687 33.7297 363.575 33.7781 363.446 33.7781H361.221C361.092 33.7781 360.979 33.7297 360.882 33.633C360.786 33.5201 360.737 33.3992 360.737 33.2702V20.6227C360.737 20.4937 360.786 20.3809 360.882 20.2841C360.979 20.1874 361.092 20.139 361.221 20.139H363.325C363.454 20.139 363.567 20.1874 363.663 20.2841C363.76 20.3809 363.808 20.4937 363.808 20.6227V21.1305C364.324 20.8081 364.848 20.534 365.38 20.3083C365.912 20.0826 366.541 19.9697 367.267 19.9697C367.96 19.9697 368.532 20.0665 368.983 20.2599C369.451 20.4534 369.822 20.7194 370.096 21.058C370.709 20.7194 371.313 20.4534 371.91 20.2599C372.522 20.0665 373.248 19.9697 374.086 19.9697C374.908 19.9697 375.577 20.1068 376.093 20.3809C376.625 20.6388 377.036 21.0015 377.327 21.4691C377.617 21.9205 377.818 22.4525 377.931 23.0651C378.044 23.6778 378.1 24.3388 378.1 25.0481V33.2702ZM391.344 33.2944C391.344 33.4234 391.296 33.5362 391.199 33.633C391.102 33.7297 390.99 33.7781 390.861 33.7781H388.805C388.676 33.7781 388.563 33.7297 388.466 33.633C388.37 33.5362 388.321 33.4234 388.321 33.2944V32.9075C387.757 33.2461 387.193 33.5121 386.629 33.7055C386.064 33.8829 385.492 33.9715 384.912 33.9715C384.412 33.9715 383.912 33.9151 383.412 33.8023C382.912 33.6894 382.461 33.4798 382.058 33.1735C381.671 32.8672 381.349 32.4561 381.091 31.9402C380.849 31.4243 380.728 30.7552 380.728 29.933V29.8363C380.728 29.1431 380.833 28.5385 381.042 28.0226C381.268 27.5067 381.615 27.0714 382.082 26.7167C382.566 26.362 383.178 26.096 383.92 25.9187C384.678 25.7414 385.581 25.6527 386.629 25.6527H388.152V24.5886C388.152 23.7987 387.975 23.2747 387.62 23.0168C387.281 22.7588 386.749 22.6298 386.024 22.6298C385.25 22.6298 384.5 22.654 383.775 22.7024C383.05 22.7346 382.485 22.7749 382.082 22.8233H381.961C381.832 22.8233 381.728 22.7991 381.647 22.7508C381.566 22.7024 381.526 22.5895 381.526 22.4122V20.8645C381.526 20.5904 381.679 20.4212 381.985 20.3567C382.469 20.2599 383.05 20.1713 383.727 20.0907C384.42 20.0101 385.186 19.9697 386.024 19.9697C387.749 19.9697 389.063 20.3486 389.966 21.1063C390.885 21.8641 391.344 23.0248 391.344 24.5886V33.2944ZM388.152 27.7808H386.629C386.08 27.7808 385.629 27.8291 385.274 27.9259C384.936 28.0065 384.662 28.1354 384.452 28.3128C384.259 28.474 384.122 28.6836 384.041 28.9415C383.977 29.1995 383.944 29.4977 383.944 29.8363V29.933C383.944 30.5295 384.081 30.9326 384.355 31.1422C384.629 31.3356 385.073 31.4324 385.685 31.4324C386.121 31.4324 386.548 31.3679 386.967 31.2389C387.402 31.1099 387.797 30.9487 388.152 30.7552V27.7808Z" fill="#2E302F"/>
</svg>
