<svg width="630" height="51" viewBox="0 0 291 49" fill="none" xmlns="http://www.w3.org/2000/svg">
<rect x="242.724" y="1" width="47.3905" height="47.3905" rx="8.00967" fill="#38B000" stroke="white" stroke-width="0.667473"/>
<path d="M272.881 24.0835V23.5256C272.881 23.4421 272.881 23.4003 272.88 23.365C272.842 20.6967 270.688 18.5429 268.02 18.5047C267.985 18.5042 267.943 18.5042 267.859 18.5042H267.302M276.368 24.7809V23.8045C276.368 22.9715 276.368 22.5549 276.337 22.2038C275.996 18.402 272.983 15.3889 269.181 15.0485C268.83 15.0171 268.414 15.0171 267.581 15.0171L266.604 15.0171M263.426 22.1415C262.979 23.167 263.205 24.3616 263.996 25.1527L266.36 27.5167C267.151 28.3077 268.346 28.534 269.372 28.0869C270.397 27.6399 271.592 27.8662 272.383 28.6572L273.821 30.0954C273.891 30.1651 273.926 30.1999 273.954 30.2306C274.647 30.9853 274.647 32.1453 273.954 32.9C273.926 32.9307 273.891 32.9655 273.821 33.0352L272.947 33.9094C272.235 34.6213 271.209 34.9201 270.226 34.7017C263.529 33.2136 258.3 27.9837 256.811 21.2872C256.593 20.3044 256.892 19.2781 257.604 18.5662L258.478 17.692C258.548 17.6224 258.582 17.5875 258.613 17.5593C259.368 16.8659 260.528 16.8659 261.282 17.5593C261.313 17.5875 261.348 17.6224 261.418 17.692L262.856 19.1302C263.647 19.9213 263.873 21.1159 263.426 22.1415Z" stroke="white" stroke-width="1.47944" stroke-linecap="round"/>
<path d="M50.8016 26.3107C50.8016 27.81 50.6566 29.0917 50.3664 30.1557C50.0762 31.2036 49.657 32.0581 49.1089 32.7191C48.5607 33.364 47.8997 33.8396 47.1259 34.1459C46.352 34.4361 45.4734 34.5812 44.49 34.5812C43.5065 34.5812 42.6198 34.4361 41.8299 34.1459C41.056 33.8396 40.395 33.364 39.8469 32.7191C39.3149 32.0581 38.9038 31.2036 38.6136 30.1557C38.3234 29.0917 38.1783 27.81 38.1783 26.3107V24.5211C38.1783 23.0218 38.3234 21.7482 38.6136 20.7003C38.9038 19.6362 39.3149 18.7737 39.8469 18.1127C40.395 17.4517 41.056 16.9761 41.8299 16.686C42.6198 16.3796 43.5065 16.2265 44.49 16.2265C45.4734 16.2265 46.352 16.3796 47.1259 16.686C47.8997 16.9761 48.5607 17.4517 49.1089 18.1127C49.657 18.7737 50.0762 19.6362 50.3664 20.7003C50.6566 21.7482 50.8016 23.0218 50.8016 24.5211V26.3107ZM47.4402 24.5211C47.4402 23.4249 47.3596 22.522 47.1984 21.8127C47.0533 21.0872 46.8437 20.5149 46.5697 20.0957C46.3117 19.6765 46.0054 19.3864 45.6507 19.2251C45.296 19.0478 44.9091 18.9591 44.49 18.9591C44.0708 18.9591 43.6839 19.0478 43.3292 19.2251C42.9745 19.3864 42.6601 19.6765 42.3861 20.0957C42.1281 20.5149 41.9185 21.0872 41.7573 21.8127C41.6122 22.522 41.5397 23.4249 41.5397 24.5211V26.3107C41.5397 27.407 41.6122 28.3098 41.7573 29.0191C41.9185 29.7285 42.1281 30.2928 42.3861 30.7119C42.6601 31.1311 42.9745 31.4293 43.3292 31.6067C43.6839 31.7679 44.0708 31.8485 44.49 31.8485C44.9091 31.8485 45.296 31.7679 45.6507 31.6067C46.0054 31.4293 46.3117 31.1311 46.5697 30.7119C46.8437 30.2928 47.0533 29.7285 47.1984 29.0191C47.3596 28.3098 47.4402 27.407 47.4402 26.3107V24.5211ZM65.4535 28.6564C65.4535 30.4782 64.9457 31.9211 63.93 32.9851C62.9144 34.0491 61.3505 34.5812 59.2386 34.5812C58.5131 34.5812 57.7312 34.5247 56.8929 34.4119C56.0545 34.299 55.2887 34.1539 54.5955 33.9766C54.4665 33.9443 54.3537 33.896 54.2569 33.8315C54.1763 33.7509 54.136 33.6219 54.136 33.4446V32.0178C54.136 31.8888 54.1763 31.784 54.2569 31.7034C54.3375 31.6228 54.4423 31.5825 54.5713 31.5825H54.6197C55.587 31.7115 56.4495 31.8001 57.2072 31.8485C57.9811 31.8969 58.6582 31.9211 59.2386 31.9211C59.8028 31.9211 60.2704 31.8485 60.6412 31.7034C61.012 31.5422 61.3022 31.3246 61.5118 31.0505C61.7375 30.7603 61.8906 30.4137 61.9712 30.0106C62.0518 29.6076 62.0921 29.1562 62.0921 28.6564V28.5355C62.0921 27.5359 61.7536 26.8346 61.0765 26.4316C60.4155 26.0285 59.3272 25.827 57.8118 25.827H54.5471C54.4665 25.827 54.402 25.7948 54.3537 25.7303C54.3053 25.6497 54.2811 25.5771 54.2811 25.5126V25.4643L55.055 16.8552C55.0711 16.7263 55.1195 16.6215 55.2001 16.5409C55.2968 16.4602 55.4096 16.4199 55.5386 16.4199H64.3169C64.4459 16.4199 64.5588 16.4683 64.6555 16.565C64.7522 16.6456 64.8006 16.7504 64.8006 16.8794V18.7173C64.8006 18.8463 64.7522 18.9591 64.6555 19.0559C64.5588 19.1365 64.4459 19.1768 64.3169 19.1768H57.7634L57.4007 23.1911H57.8118C58.7307 23.1911 59.6416 23.2556 60.5444 23.3846C61.4634 23.4974 62.2856 23.7473 63.0111 24.1342C63.7366 24.505 64.325 25.0451 64.7764 25.7545C65.2278 26.4477 65.4535 27.3747 65.4535 28.5355V28.6564ZM86.5864 29.3577C86.5864 30.2605 86.4252 31.0424 86.1027 31.7034C85.7964 32.3483 85.3692 32.8884 84.8211 33.3237C84.289 33.7428 83.6522 34.0572 82.9106 34.2668C82.169 34.4764 81.371 34.5812 80.5165 34.5812C79.6137 34.5812 78.7834 34.5247 78.0257 34.4119C77.2841 34.299 76.5667 34.1539 75.8734 33.9766C75.7445 33.9443 75.6316 33.896 75.5349 33.8315C75.4543 33.7509 75.414 33.6461 75.414 33.5171V32.0178C75.414 31.8888 75.4543 31.784 75.5349 31.7034C75.6155 31.6228 75.7203 31.5825 75.8493 31.5825H75.8976C76.8649 31.6792 77.7275 31.7598 78.4852 31.8243C79.259 31.8888 79.9361 31.9211 80.5165 31.9211C81.5 31.9211 82.1932 31.7115 82.5962 31.2923C83.0154 30.857 83.225 30.2121 83.225 29.3577V28.8499C83.225 28.5274 83.1927 28.2211 83.1283 27.9309C83.0799 27.6407 82.967 27.3828 82.7897 27.1571C82.6285 26.9314 82.4028 26.754 82.1126 26.625C81.8224 26.4799 81.4516 26.4074 81.0002 26.4074H76.7198C76.4135 26.4074 76.2604 26.2542 76.2604 25.9479V24.4244C76.2604 24.1181 76.4135 23.9649 76.7198 23.9649H81.0002C81.4516 23.9649 81.8224 23.9005 82.1126 23.7715C82.4028 23.6425 82.6285 23.4732 82.7897 23.2636C82.967 23.0379 83.0799 22.7881 83.1283 22.514C83.1927 22.2238 83.225 21.9175 83.225 21.595V21.2081C83.225 20.9018 83.1847 20.6116 83.1041 20.3375C83.0396 20.0473 82.9026 19.7975 82.693 19.5879C82.4995 19.3783 82.2254 19.209 81.8708 19.08C81.5161 18.9511 81.0647 18.8866 80.5165 18.8866C80.0812 18.8866 79.6943 18.8946 79.3558 18.9108C79.0333 18.9269 78.7028 18.9511 78.3643 18.9833C78.0257 18.9994 77.663 19.0317 77.276 19.08C76.8891 19.1284 76.4297 19.1768 75.8976 19.2251H75.8493C75.7203 19.2251 75.6155 19.1848 75.5349 19.1042C75.4543 19.0236 75.414 18.9188 75.414 18.7898V17.2905C75.414 17.1615 75.4543 17.0648 75.5349 17.0003C75.6316 16.9197 75.7445 16.8633 75.8734 16.831C76.5667 16.6537 77.2841 16.5086 78.0257 16.3958C78.7834 16.2829 79.6137 16.2265 80.5165 16.2265C81.3871 16.2265 82.1932 16.3152 82.9348 16.4925C83.6764 16.6698 84.3132 16.96 84.8452 17.3631C85.3934 17.75 85.8206 18.2578 86.1269 18.8866C86.4332 19.5153 86.5864 20.2892 86.5864 21.2081V21.595C86.5864 22.4495 86.401 23.175 86.0302 23.7715C85.6755 24.3519 85.1677 24.8194 84.5067 25.1741C85.1838 25.5449 85.6997 26.0608 86.0544 26.7218C86.409 27.3666 86.5864 28.076 86.5864 28.8499V29.3577ZM102.641 28.5838C102.641 29.4867 102.504 30.3089 102.23 31.0505C101.956 31.776 101.553 32.4047 101.021 32.9367C100.489 33.4526 99.8357 33.8557 99.0618 34.1459C98.288 34.4361 97.4013 34.5812 96.4017 34.5812C95.4989 34.5812 94.6606 34.4361 93.8867 34.1459C93.1129 33.8557 92.4438 33.4123 91.8796 32.8158C91.3153 32.2032 90.872 31.4293 90.5495 30.4943C90.2271 29.5431 90.0659 28.4146 90.0659 27.1087V24.3277C90.0659 22.8767 90.2029 21.6353 90.477 20.6036C90.7672 19.5718 91.1944 18.7334 91.7587 18.0885C92.3229 17.4437 93.0162 16.9761 93.8384 16.686C94.6767 16.3796 95.6521 16.2265 96.7645 16.2265C97.8285 16.2265 98.7394 16.2829 99.4971 16.3958C100.255 16.5086 100.835 16.6053 101.238 16.686C101.416 16.7182 101.553 16.7746 101.649 16.8552C101.746 16.9197 101.794 17.0326 101.794 17.1938V18.6931C101.794 19.0317 101.641 19.201 101.335 19.201H101.238C101.013 19.1687 100.714 19.1365 100.344 19.1042C99.9888 19.0559 99.6019 19.0156 99.1827 18.9833C98.7797 18.9511 98.3605 18.9269 97.9252 18.9108C97.5061 18.8946 97.1192 18.8866 96.7645 18.8866C96.1518 18.8866 95.6279 18.9591 95.1926 19.1042C94.7734 19.2493 94.4268 19.4992 94.1527 19.8539C93.8948 20.1924 93.7013 20.6439 93.5724 21.2081C93.4434 21.7724 93.3708 22.4656 93.3547 23.2878C93.7416 23.2072 94.2333 23.1427 94.8299 23.0944C95.4264 23.046 96.0551 23.0218 96.7161 23.0218C97.5061 23.0218 98.2557 23.1186 98.9651 23.312C99.6745 23.4894 100.303 23.7876 100.851 24.2068C101.399 24.6098 101.835 25.158 102.157 25.8512C102.48 26.5283 102.641 27.3586 102.641 28.342V28.5838ZM99.352 28.342C99.352 27.7778 99.2634 27.3102 99.086 26.9394C98.9087 26.5686 98.6668 26.2784 98.3605 26.0688C98.0542 25.8431 97.6995 25.69 97.2965 25.6094C96.8934 25.5126 96.4743 25.4643 96.039 25.4643C95.6843 25.4643 95.241 25.4885 94.7089 25.5368C94.1769 25.5852 93.7255 25.6497 93.3547 25.7303V27.1087C93.3547 28.1244 93.4273 28.9466 93.5724 29.5753C93.7336 30.2041 93.9432 30.6958 94.2011 31.0505C94.4752 31.4052 94.7976 31.647 95.1684 31.776C95.5553 31.9049 95.9664 31.9694 96.4017 31.9694C96.8048 31.9694 97.1836 31.9211 97.5383 31.8243C97.9091 31.7115 98.2235 31.5261 98.4814 31.2681C98.7555 31.0102 98.9651 30.6636 99.1102 30.2283C99.2714 29.793 99.352 29.2448 99.352 28.5838V28.342ZM117.873 28.5838C117.873 29.4867 117.736 30.3089 117.462 31.0505C117.188 31.776 116.785 32.4047 116.253 32.9367C115.721 33.4526 115.068 33.8557 114.294 34.1459C113.52 34.4361 112.634 34.5812 111.634 34.5812C110.731 34.5812 109.893 34.4361 109.119 34.1459C108.345 33.8557 107.676 33.4123 107.112 32.8158C106.548 32.2032 106.104 31.4293 105.782 30.4943C105.459 29.5431 105.298 28.4146 105.298 27.1087V24.3277C105.298 22.8767 105.435 21.6353 105.709 20.6036C105.999 19.5718 106.427 18.7334 106.991 18.0885C107.555 17.4437 108.248 16.9761 109.071 16.686C109.909 16.3796 110.884 16.2265 111.997 16.2265C113.061 16.2265 113.972 16.2829 114.729 16.3958C115.487 16.5086 116.067 16.6053 116.471 16.686C116.648 16.7182 116.785 16.7746 116.882 16.8552C116.978 16.9197 117.027 17.0326 117.027 17.1938V18.6931C117.027 19.0317 116.874 19.201 116.567 19.201H116.471C116.245 19.1687 115.947 19.1365 115.576 19.1042C115.221 19.0559 114.834 19.0156 114.415 18.9833C114.012 18.9511 113.593 18.9269 113.158 18.9108C112.738 18.8946 112.351 18.8866 111.997 18.8866C111.384 18.8866 110.86 18.9591 110.425 19.1042C110.006 19.2493 109.659 19.4992 109.385 19.8539C109.127 20.1924 108.934 20.6439 108.805 21.2081C108.676 21.7724 108.603 22.4656 108.587 23.2878C108.974 23.2072 109.466 23.1427 110.062 23.0944C110.659 23.046 111.287 23.0218 111.948 23.0218C112.738 23.0218 113.488 23.1186 114.197 23.312C114.907 23.4894 115.535 23.7876 116.084 24.2068C116.632 24.6098 117.067 25.158 117.389 25.8512C117.712 26.5283 117.873 27.3586 117.873 28.342V28.5838ZM114.584 28.342C114.584 27.7778 114.496 27.3102 114.318 26.9394C114.141 26.5686 113.899 26.2784 113.593 26.0688C113.286 25.8431 112.932 25.69 112.529 25.6094C112.126 25.5126 111.707 25.4643 111.271 25.4643C110.917 25.4643 110.473 25.4885 109.941 25.5368C109.409 25.5852 108.958 25.6497 108.587 25.7303V27.1087C108.587 28.1244 108.66 28.9466 108.805 29.5753C108.966 30.2041 109.175 30.6958 109.433 31.0505C109.707 31.4052 110.03 31.647 110.401 31.776C110.788 31.9049 111.199 31.9694 111.634 31.9694C112.037 31.9694 112.416 31.9211 112.771 31.8243C113.141 31.7115 113.456 31.5261 113.714 31.2681C113.988 31.0102 114.197 30.6636 114.342 30.2283C114.504 29.793 114.584 29.2448 114.584 28.5838V28.342ZM131.848 27.7133C131.848 28.0035 131.695 28.1486 131.388 28.1486H126.649C126.52 28.1486 126.407 28.1083 126.31 28.0276C126.213 27.947 126.165 27.8422 126.165 27.7133V26.1898C126.165 26.0608 126.213 25.956 126.31 25.8754C126.407 25.7787 126.52 25.7303 126.649 25.7303H131.388C131.695 25.7303 131.848 25.8834 131.848 26.1898V27.7133ZM142.06 34.3877C141.931 34.3877 141.818 34.3393 141.721 34.2426C141.625 34.1459 141.576 34.033 141.576 33.904V32.0662C141.576 31.9372 141.625 31.8324 141.721 31.7518C141.818 31.6712 141.931 31.6309 142.06 31.6309H145.3V19.733L142.133 20.7003C142.052 20.7325 141.955 20.7486 141.842 20.7486C141.665 20.7486 141.576 20.6519 141.576 20.4585V18.1853C141.576 18.0563 141.633 17.9676 141.746 17.9193L146.026 16.5167C146.107 16.4844 146.187 16.4602 146.268 16.4441C146.348 16.428 146.453 16.4199 146.582 16.4199H148.178C148.485 16.4199 148.638 16.5731 148.638 16.8794V31.6309H151.878C152.007 31.6309 152.12 31.6712 152.217 31.7518C152.313 31.8324 152.362 31.9372 152.362 32.0662V33.904C152.362 34.033 152.313 34.1459 152.217 34.2426C152.12 34.3393 152.007 34.3877 151.878 34.3877H142.06ZM167.546 20.6519C167.546 21.6676 167.288 22.5382 166.772 23.2636C166.272 23.973 165.522 24.6662 164.523 25.3434L162.346 26.7943C161.202 27.552 160.339 28.2856 159.759 28.995C159.195 29.6882 158.913 30.5346 158.913 31.5341V31.6309H166.869C166.998 31.6309 167.11 31.6712 167.207 31.7518C167.304 31.8324 167.352 31.9372 167.352 32.0662V33.904C167.352 34.033 167.304 34.1459 167.207 34.2426C167.11 34.3393 166.998 34.3877 166.869 34.3877H156.615C156.486 34.3877 156.373 34.3393 156.277 34.2426C156.18 34.1459 156.132 34.033 156.132 33.904V31.5341C156.132 30.8731 156.228 30.2363 156.422 29.6237C156.615 28.995 156.881 28.4146 157.22 27.8825C157.558 27.3344 157.945 26.8346 158.381 26.3832C158.832 25.9318 159.308 25.5368 159.807 25.1983L162.201 23.6022C162.669 23.2959 163.048 23.0299 163.338 22.8042C163.628 22.5785 163.854 22.3689 164.015 22.1754C164.176 21.9658 164.281 21.7482 164.329 21.5225C164.394 21.2807 164.426 20.9905 164.426 20.6519C164.426 19.9909 164.209 19.5315 163.773 19.2735C163.338 18.9994 162.612 18.8624 161.597 18.8624C161.242 18.8624 160.855 18.8785 160.436 18.9108C160.033 18.9269 159.614 18.9511 159.179 18.9833C158.759 19.0156 158.34 19.0559 157.921 19.1042C157.502 19.1365 157.115 19.1768 156.76 19.2251H156.712C156.583 19.2251 156.478 19.1768 156.398 19.08C156.317 18.9833 156.277 18.8705 156.277 18.7415V17.2905C156.277 17.1615 156.317 17.0648 156.398 17.0003C156.494 16.9197 156.607 16.8633 156.736 16.831C157.042 16.7504 157.397 16.6779 157.8 16.6134C158.203 16.5328 158.614 16.4683 159.033 16.4199C159.469 16.3555 159.904 16.3071 160.339 16.2748C160.791 16.2426 161.21 16.2265 161.597 16.2265C163.709 16.2265 165.224 16.5892 166.143 17.3147C167.078 18.0402 167.546 19.1526 167.546 20.6519ZM182.778 20.6519C182.778 21.6676 182.52 22.5382 182.004 23.2636C181.504 23.973 180.755 24.6662 179.755 25.3434L177.579 26.7943C176.434 27.552 175.572 28.2856 174.991 28.995C174.427 29.6882 174.145 30.5346 174.145 31.5341V31.6309H182.101C182.23 31.6309 182.343 31.6712 182.439 31.7518C182.536 31.8324 182.585 31.9372 182.585 32.0662V33.904C182.585 34.033 182.536 34.1459 182.439 34.2426C182.343 34.3393 182.23 34.3877 182.101 34.3877H171.847C171.718 34.3877 171.606 34.3393 171.509 34.2426C171.412 34.1459 171.364 34.033 171.364 33.904V31.5341C171.364 30.8731 171.461 30.2363 171.654 29.6237C171.847 28.995 172.113 28.4146 172.452 27.8825C172.791 27.3344 173.177 26.8346 173.613 26.3832C174.064 25.9318 174.54 25.5368 175.04 25.1983L177.434 23.6022C177.901 23.2959 178.28 23.0299 178.57 22.8042C178.86 22.5785 179.086 22.3689 179.247 22.1754C179.409 21.9658 179.513 21.7482 179.562 21.5225C179.626 21.2807 179.658 20.9905 179.658 20.6519C179.658 19.9909 179.441 19.5315 179.006 19.2735C178.57 18.9994 177.845 18.8624 176.829 18.8624C176.474 18.8624 176.087 18.8785 175.668 18.9108C175.265 18.9269 174.846 18.9511 174.411 18.9833C173.992 19.0156 173.572 19.0559 173.153 19.1042C172.734 19.1365 172.347 19.1768 171.993 19.2251H171.944C171.815 19.2251 171.71 19.1768 171.63 19.08C171.549 18.9833 171.509 18.8705 171.509 18.7415V17.2905C171.509 17.1615 171.549 17.0648 171.63 17.0003C171.727 16.9197 171.839 16.8633 171.968 16.831C172.275 16.7504 172.629 16.6779 173.032 16.6134C173.435 16.5328 173.847 16.4683 174.266 16.4199C174.701 16.3555 175.136 16.3071 175.572 16.2748C176.023 16.2426 176.442 16.2265 176.829 16.2265C178.941 16.2265 180.456 16.5892 181.375 17.3147C182.31 18.0402 182.778 19.1526 182.778 20.6519ZM204.032 28.6564C204.032 30.4782 203.524 31.9211 202.508 32.9851C201.493 34.0491 199.929 34.5812 197.817 34.5812C197.091 34.5812 196.309 34.5247 195.471 34.4119C194.633 34.299 193.867 34.1539 193.174 33.9766C193.045 33.9443 192.932 33.896 192.835 33.8315C192.755 33.7509 192.714 33.6219 192.714 33.4446V32.0178C192.714 31.8888 192.755 31.784 192.835 31.7034C192.916 31.6228 193.021 31.5825 193.15 31.5825H193.198C194.165 31.7115 195.028 31.8001 195.785 31.8485C196.559 31.8969 197.236 31.9211 197.817 31.9211C198.381 31.9211 198.849 31.8485 199.219 31.7034C199.59 31.5422 199.88 31.3246 200.09 31.0505C200.316 30.7603 200.469 30.4137 200.549 30.0106C200.63 29.6076 200.67 29.1562 200.67 28.6564V28.5355C200.67 27.5359 200.332 26.8346 199.655 26.4316C198.994 26.0285 197.906 25.827 196.39 25.827H193.125C193.045 25.827 192.98 25.7948 192.932 25.7303C192.884 25.6497 192.859 25.5771 192.859 25.5126V25.4643L193.633 16.8552C193.649 16.7263 193.698 16.6215 193.778 16.5409C193.875 16.4602 193.988 16.4199 194.117 16.4199H202.895C203.024 16.4199 203.137 16.4683 203.234 16.565C203.33 16.6456 203.379 16.7504 203.379 16.8794V18.7173C203.379 18.8463 203.33 18.9591 203.234 19.0559C203.137 19.1365 203.024 19.1768 202.895 19.1768H196.342L195.979 23.1911H196.39C197.309 23.1911 198.22 23.2556 199.123 23.3846C200.042 23.4974 200.864 23.7473 201.589 24.1342C202.315 24.505 202.903 25.0451 203.355 25.7545C203.806 26.4477 204.032 27.3747 204.032 28.5355V28.6564ZM209.035 34.3877C208.906 34.3877 208.793 34.3393 208.696 34.2426C208.599 34.1459 208.551 34.033 208.551 33.904V32.0662C208.551 31.9372 208.599 31.8324 208.696 31.7518C208.793 31.6712 208.906 31.6309 209.035 31.6309H212.275V19.733L209.107 20.7003C209.027 20.7325 208.93 20.7486 208.817 20.7486C208.64 20.7486 208.551 20.6519 208.551 20.4585V18.1853C208.551 18.0563 208.608 17.9676 208.72 17.9193L213.001 16.5167C213.081 16.4844 213.162 16.4602 213.243 16.4441C213.323 16.428 213.428 16.4199 213.557 16.4199H215.153C215.459 16.4199 215.612 16.5731 215.612 16.8794V31.6309H218.853C218.982 31.6309 219.095 31.6712 219.192 31.7518C219.288 31.8324 219.337 31.9372 219.337 32.0662V33.904C219.337 34.033 219.288 34.1459 219.192 34.2426C219.095 34.3393 218.982 34.3877 218.853 34.3877H209.035Z" fill="#2E302F"/>
</svg>
