<svg width="900" height="20" viewBox="0 0 1181 45" fill="none" xmlns="http://www.w3.org/2000/svg">
<g clip-path="url(#clip0_195_485)">
<path d="M0.532043 5.73047V24.1401H18.9417V5.73047H0.532043ZM20.8632 5.73047V24.1401H39.2729V5.73047H20.8632ZM170.241 11.7667C169.07 11.7667 168.048 12.0371 167.117 12.4876C166.186 12.9981 165.496 13.6887 164.985 14.6197C164.475 15.5207 164.205 16.542 164.205 17.7132V20.0254H161.472V23.2087H164.205V36.6631H168.139V23.2392H174.025V31.7982C174.025 35.3119 175.677 37.0836 178.98 37.0836C179.521 37.0836 180.091 36.9937 180.632 36.9036C181.202 36.7834 181.623 36.6331 181.863 36.5129L181.893 36.483V33.2693L181.743 33.3895C181.503 33.5397 181.292 33.6602 180.932 33.7503C180.632 33.8403 180.362 33.8699 180.151 33.8699C179.371 33.8699 178.83 33.6898 178.44 33.2394C178.079 32.8189 177.899 32.1283 177.899 31.1072V23.2392H181.893V20.0254H177.959V15.1001L177.839 15.1306L174.115 16.2416L174.025 16.2715V20.0254H168.139V17.9232C168.139 16.9622 168.379 16.2118 168.8 15.7312C169.22 15.2507 169.851 15.0104 170.632 15.0104C171.172 15.0104 171.742 15.1301 172.373 15.4004L172.523 15.4908V12.0969L172.433 12.067C171.893 11.8868 171.172 11.7667 170.241 11.7667ZM81.7378 12.9979C81.0771 12.9979 80.5365 13.2385 80.0861 13.6589C79.6356 14.0794 79.3951 14.6201 79.3951 15.2808C79.3951 15.9114 79.6356 16.4517 80.0861 16.8721C80.5365 17.2925 81.0771 17.5026 81.7378 17.5026C82.3985 17.5026 82.9691 17.2625 83.3895 16.8721C83.84 16.4517 84.0799 15.9114 84.0799 15.2808C84.0799 14.6501 83.84 14.1094 83.3895 13.6589C82.9991 13.2385 82.4285 12.9979 81.7378 12.9979ZM70.5058 13.4789L64.5593 28.0442L63.4783 31.1072H63.3886C63.2084 30.4165 62.878 29.3654 62.3375 28.1041L56.5411 13.5387H50.865V36.7534H54.619V22.428C54.619 21.527 54.6191 20.506 54.589 19.2447C54.559 18.6141 54.4988 18.1334 54.4688 17.7731H54.5591C54.7393 18.674 54.9492 19.3346 55.0994 19.755L62.0671 36.693H64.7095L71.6168 19.6049C71.7669 19.2145 71.9171 18.4337 72.0672 17.7731H72.1576C72.0675 19.4849 72.0075 21.0166 71.9775 21.9476V36.6631H75.9714V13.4789H70.5058ZM95.3119 19.6354C93.54 19.6354 91.9186 20.0253 90.5672 20.8061C89.2158 21.587 88.1345 22.6684 87.4438 24.0199C86.7231 25.4013 86.3628 26.993 86.3628 28.8249C86.3628 30.4166 86.7232 31.8278 87.4139 33.1191C88.1046 34.3804 89.0653 35.4016 90.3566 36.0924C91.5879 36.7831 93.0297 37.1435 94.6514 37.1435C96.5134 37.1435 98.1048 36.7533 99.3661 36.0325L99.3961 36.0026V32.3988L99.2459 32.5185C98.6753 32.9389 98.015 33.2995 97.3543 33.5098C96.6635 33.75 96.0325 33.8699 95.4919 33.8699C93.9303 33.8699 92.6992 33.4198 91.8283 32.4287C90.9274 31.4677 90.4769 30.1465 90.4769 28.4947C90.4769 26.7829 90.9273 25.4315 91.8582 24.4404C92.7892 23.4494 94.0209 22.9388 95.5224 22.9388C96.7838 22.9388 98.0747 23.3591 99.2459 24.1999L99.3961 24.3202V20.5058L99.3661 20.4759C98.8556 20.2657 98.2852 20.0254 97.5044 19.8753C96.7837 19.7251 96.0326 19.6354 95.3119 19.6354ZM137.627 19.6354C135.765 19.6354 134.233 20.0855 133.032 21.0765C131.83 22.0075 131.26 23.2692 131.26 24.7407C131.26 25.5216 131.38 26.2119 131.65 26.7826C131.92 27.3532 132.311 27.8941 132.851 28.3446C133.392 28.765 134.173 29.2455 135.254 29.696C136.155 30.0864 136.846 30.3866 137.266 30.6268C137.687 30.8671 137.957 31.1375 138.167 31.3477C138.318 31.588 138.407 31.8882 138.407 32.2786C138.407 33.3898 137.566 33.9303 135.855 33.9303C135.194 33.9303 134.503 33.81 133.693 33.5397C132.882 33.2694 132.131 32.8792 131.5 32.4287L131.35 32.3085V36.1223L131.44 36.1528C132.011 36.4231 132.702 36.603 133.542 36.8132C134.383 36.9634 135.134 37.0836 135.795 37.0836C137.807 37.0836 139.459 36.6329 140.63 35.6419C141.831 34.6809 142.462 33.4497 142.462 31.858C142.462 30.7468 142.162 29.7558 141.501 29.005C140.63 28.2843 139.548 27.5333 137.987 26.9327C136.755 26.4222 135.975 26.0319 135.615 25.7015C135.314 25.4012 135.164 24.981 135.164 24.4404C135.164 23.99 135.344 23.5395 135.795 23.2392C136.245 22.9388 136.756 22.7887 137.506 22.7887C138.167 22.7887 138.858 22.9088 139.519 23.089C140.18 23.2692 140.78 23.5392 141.26 23.8996L141.41 24.0199V20.3557L141.321 20.3257C140.87 20.1456 140.27 19.9656 139.549 19.8154C138.828 19.6953 138.167 19.6354 137.627 19.6354ZM121.019 19.6653C118.286 19.6653 116.094 20.4761 114.562 22.0678C113 23.6595 112.25 25.8515 112.25 28.6144C112.25 31.1971 113.031 33.2997 114.532 34.8313C116.034 36.3329 118.076 37.1136 120.629 37.1136C123.302 37.1136 125.434 36.3028 126.965 34.6811C128.527 33.0594 129.278 30.8971 129.278 28.2243C129.278 25.5815 128.557 23.4792 127.086 21.9476C125.674 20.416 123.602 19.6653 121.019 19.6653ZM152.763 19.6653C150.03 19.6653 147.837 20.4761 146.306 22.0678C144.774 23.6595 143.993 25.8515 143.993 28.6144C143.993 31.1971 144.774 33.2997 146.276 34.8313C147.778 36.3329 149.819 37.1136 152.372 37.1136C155.045 37.1136 157.177 36.3028 158.709 34.6811C160.27 33.0594 161.021 30.8971 161.021 28.2243C161.021 25.5815 160.3 23.4792 158.829 21.9476C157.417 20.416 155.345 19.6653 152.763 19.6653ZM110.388 19.755C109.427 19.755 108.526 20.0558 107.745 20.6865C107.084 21.227 106.634 22.0079 106.244 22.9388H106.214V20.0254H102.309V36.6631H106.214V28.1639C106.214 26.7224 106.514 25.5213 107.174 24.6504C107.835 23.7495 108.676 23.299 109.697 23.299C110.058 23.299 110.418 23.3891 110.869 23.4492C111.289 23.5693 111.589 23.6896 111.799 23.8398L111.95 23.9595V20.0553L111.859 20.0254C111.589 19.8452 111.049 19.755 110.388 19.755ZM79.7558 20.0254V36.6631H83.6599V20.0254H79.7558ZM120.839 22.8784C122.22 22.8784 123.302 23.3288 124.082 24.2598C124.863 25.1908 125.284 26.5422 125.284 28.314C125.224 30.1159 124.893 31.5277 124.142 32.4587C123.422 33.3896 122.28 33.84 120.869 33.84C119.457 33.84 118.316 33.3899 117.505 32.3988C116.695 31.4678 116.304 30.1162 116.304 28.4044C116.304 26.6325 116.725 25.2812 117.505 24.3202C118.316 23.3592 119.427 22.8784 120.839 22.8784ZM152.552 22.8784C153.904 22.8784 155.015 23.3288 155.796 24.2598C156.577 25.1908 156.997 26.5422 156.997 28.314C156.997 30.1159 156.606 31.5277 155.856 32.4587C155.135 33.3896 153.994 33.84 152.583 33.84C151.141 33.84 150.03 33.3899 149.219 32.3988C148.408 31.4678 148.017 30.1162 148.017 28.4044C148.017 26.6325 148.438 25.2812 149.219 24.3202C150.03 23.3592 151.141 22.8784 152.552 22.8784ZM0.532043 26.0617V44.4713H18.9417V26.0617H0.532043ZM20.8632 26.0617V44.4713H39.2729V26.0617H20.8632Z" fill="#004B23"/>
</g>
<path d="M320.786 32.779C316.659 30.3952 312.711 28.1154 308.763 25.8346C306.941 24.7817 305.13 23.7093 303.292 22.685C302.773 22.3958 302.703 22.156 302.948 21.6015C304.65 17.7528 306.306 13.8838 307.979 10.0224C308.269 9.35361 308.497 8.6423 309.447 8.63052C310.397 8.61874 310.633 9.30122 310.93 9.98529C314.1 17.3033 317.276 24.6193 320.455 31.9333C320.546 32.1422 320.622 32.3576 320.786 32.779ZM302.152 23.432C302.395 22.8607 302.59 22.7751 303.149 23.1144C305.036 24.2603 306.965 25.339 309.001 26.5148L298.318 32.6932" fill="#004B23"/>
<path d="M309.541 41.8524C305.625 41.8524 301.797 40.6911 298.541 38.5156C295.285 36.34 292.747 33.2478 291.249 29.6299C289.75 26.012 289.358 22.0311 290.122 18.1904C290.886 14.3497 292.772 10.8218 295.541 8.05276C298.31 5.28378 301.837 3.39807 305.678 2.63411C309.519 1.87015 313.5 2.26224 317.118 3.76081C320.736 5.25937 323.828 7.7971 326.003 11.0531C328.179 14.3091 329.34 18.1371 329.34 22.053C329.34 24.6531 328.828 27.2277 327.833 29.6299C326.838 32.0321 325.38 34.2147 323.541 36.0533C321.703 37.8918 319.52 39.3502 317.118 40.3452C314.716 41.3402 312.141 41.8524 309.541 41.8524ZM309.541 4.36335C306.042 4.36335 302.622 5.40083 299.713 7.3446C296.804 9.28836 294.537 12.0511 293.198 15.2835C291.859 18.5158 291.508 22.0726 292.191 25.5041C292.874 28.9356 294.558 32.0876 297.032 34.5615C299.506 37.0354 302.658 38.7202 306.09 39.4028C309.521 40.0853 313.078 39.735 316.31 38.3961C319.543 37.0572 322.305 34.7899 324.249 31.8809C326.193 28.9718 327.23 25.5517 327.23 22.053C327.23 17.3614 325.367 12.862 322.049 9.54453C318.732 6.22708 314.232 4.36335 309.541 4.36335Z" fill="#004B23"/>
<path d="M349.776 14.4064H354.262V29.325H351.357V19.234C351.357 18.944 351.36 18.5376 351.367 18.0146C351.374 17.4919 351.377 17.0887 351.377 16.8051L348.55 29.325H345.52L342.714 16.8051C342.714 17.0885 342.717 17.4916 342.723 18.0146C342.73 18.5374 342.733 18.9438 342.734 19.234V29.325H339.829V14.406H344.365L347.081 26.1365L349.776 14.4064ZM364.102 18.5164C364.88 18.8679 365.541 19.4339 366.008 20.1479C366.471 20.8314 366.772 21.6117 366.887 22.4291C366.976 23.1554 367.008 23.8874 366.982 24.6186H358.948C358.992 25.7253 359.377 26.5012 360.101 26.9463C360.581 27.2335 361.133 27.3775 361.692 27.3612C362.142 27.3966 362.593 27.2947 362.985 27.0689C363.377 26.843 363.691 26.5039 363.887 26.0961H366.832C366.699 26.8583 366.324 27.5573 365.763 28.0898C364.774 29.1626 363.391 29.6992 361.612 29.6994C360.198 29.7181 358.822 29.2376 357.726 28.3422C356.604 27.4369 356.043 25.9646 356.043 23.9252C356.043 22.0143 356.549 20.5489 357.563 19.529C358.08 19.0177 358.698 18.6181 359.376 18.355C360.055 18.0919 360.78 17.9709 361.508 17.9995C362.399 17.9856 363.284 18.1618 364.102 18.5164ZM359.787 21.0079C359.355 21.4806 359.085 22.0792 359.018 22.716H363.988C363.985 22.3884 363.916 22.0648 363.784 21.7651C363.651 21.4653 363.459 21.1957 363.219 20.9727C362.742 20.5699 362.133 20.358 361.509 20.3778C361.194 20.3584 360.878 20.4044 360.582 20.5129C360.286 20.6213 360.015 20.7898 359.787 21.0079ZM367.308 20.4485V18.3944H368.846V15.3174H371.7V18.394H373.491V20.4485H371.7V26.2782C371.661 26.5713 371.721 26.8692 371.872 27.1235C371.987 27.2346 372.338 27.2902 372.925 27.2902C373.012 27.2902 373.105 27.2891 373.203 27.2856C373.301 27.2821 373.397 27.2769 373.491 27.2701V29.4262L372.125 29.4765C370.762 29.5234 369.831 29.2873 369.332 28.7683C368.975 28.3427 368.8 27.7935 368.846 27.2399V20.4485L367.308 20.4485ZM379.713 22.6148C380.106 22.5807 380.494 22.4956 380.865 22.3616C381.043 22.3092 381.199 22.2013 381.311 22.0538C381.423 21.9063 381.485 21.7268 381.487 21.5416C381.506 21.3562 381.471 21.1693 381.387 21.0033C381.302 20.8373 381.171 20.6992 381.01 20.6057C380.57 20.4089 380.09 20.3203 379.609 20.3472C378.919 20.3472 378.43 20.516 378.143 20.8535C377.918 21.1486 377.777 21.498 377.732 21.8658H374.949C374.972 21.0088 375.256 20.1791 375.762 19.4872C376.528 18.5155 377.843 18.0297 379.706 18.0297C380.825 18.0087 381.934 18.255 382.939 18.7484C383.88 19.2276 384.351 20.1317 384.351 21.4608V26.5212C384.351 26.8721 384.358 27.2972 384.371 27.7965C384.364 28.0632 384.423 28.3275 384.544 28.5655C384.653 28.7127 384.8 28.828 384.969 28.8995V29.325H381.831C381.749 29.1225 381.688 28.9122 381.649 28.6973C381.615 28.5016 381.588 28.2789 381.568 28.0293C381.164 28.4641 380.697 28.836 380.183 29.1326C379.538 29.4956 378.807 29.6807 378.066 29.6688C377.159 29.7031 376.272 29.3982 375.577 28.8137C375.243 28.5082 374.982 28.1321 374.812 27.7127C374.642 27.2934 374.568 26.8414 374.595 26.3897C374.595 25.0334 375.122 24.0517 376.175 23.4446C376.973 23.0497 377.838 22.8092 378.724 22.7357L379.713 22.6148ZM381.477 23.9607C381.3 24.0715 381.113 24.1648 380.917 24.2392C380.665 24.3267 380.406 24.3925 380.143 24.4361L379.486 24.5578C379.026 24.6174 378.579 24.7507 378.161 24.9526C377.944 25.0719 377.764 25.2501 377.644 25.4667C377.523 25.6833 377.466 25.9294 377.479 26.177C377.461 26.375 377.489 26.5747 377.561 26.76C377.633 26.9454 377.748 27.1114 377.895 27.2448C378.185 27.4683 378.543 27.5845 378.908 27.5739C379.531 27.576 380.139 27.385 380.65 27.0272C381.18 26.6629 381.456 25.9983 381.477 25.0335L381.477 23.9607ZM389.817 29.325H386.932V14.406H389.817V29.325ZM392.863 14.4064H395.981V26.6425H403.43V29.325H392.864L392.863 14.4064ZM416.651 15.9953C417.117 16.6615 417.357 17.4599 417.336 18.2727C417.375 19.0637 417.13 19.8426 416.645 20.4689C416.326 20.8257 415.94 21.1149 415.507 21.3191C416.212 21.5528 416.819 22.016 417.23 22.6348C417.633 23.2912 417.835 24.0511 417.812 24.8208C417.824 25.6612 417.593 26.4872 417.147 27.1995C416.851 27.6946 416.454 28.1217 415.981 28.453C415.509 28.7842 414.972 29.0122 414.405 29.1221C413.711 29.2619 413.005 29.3299 412.297 29.325H405.575V14.406H412.785C414.604 14.4335 415.893 14.9632 416.651 15.9953ZM408.551 16.9974V20.2864H412.177C412.726 20.3105 413.272 20.1827 413.754 19.9172C413.964 19.7737 414.131 19.5762 414.238 19.3455C414.344 19.1148 414.387 18.8595 414.36 18.6068C414.36 17.9117 414.093 17.4529 413.559 17.2302C412.987 17.0595 412.392 16.9809 411.796 16.9974L408.551 16.9974ZM408.551 22.7561V26.7336H412.172C412.689 26.7581 413.205 26.6683 413.684 26.4706C414.337 26.1471 414.664 25.5264 414.664 24.6084C414.692 24.2761 414.615 23.9434 414.445 23.6568C414.274 23.3701 414.019 23.1438 413.713 23.0093C413.239 22.8253 412.732 22.7391 412.223 22.7561L408.551 22.7561Z" fill="#004B23"/>
<g clip-path="url(#clip1_195_485)">
<path d="M527.847 6.74036H534.682V31.6175H547.328V37.9267H527.847V6.74036ZM550.344 16.7991H556.902V37.9129H550.344V16.7991ZM553.623 6.29761C554.376 6.29761 555.111 6.52076 555.737 6.93885C556.363 7.35694 556.85 7.95118 557.138 8.64644C557.426 9.34169 557.502 10.1067 557.355 10.8448C557.208 11.5829 556.846 12.2609 556.314 12.793C555.781 13.3251 555.103 13.6875 554.365 13.8343C553.627 13.9811 552.862 13.9058 552.167 13.6178C551.472 13.3298 550.877 12.8421 550.459 12.2164C550.041 11.5907 549.818 10.8551 549.818 10.1025C549.818 9.09339 550.219 8.1256 550.933 7.41204C551.646 6.69848 552.614 6.29761 553.623 6.29761ZM584.353 6.74036H590.911V25.3775L598.355 16.7715H606.394L597.788 26.5535L606.214 37.9267H597.968L590.994 27.4806H590.911V37.9267H584.353V6.74036ZM560.541 16.7991H566.795V19.6909H566.878C567.509 18.6138 568.419 17.7274 569.513 17.1257C570.607 16.5241 571.843 16.2296 573.09 16.2734C579.745 16.2734 580.963 20.6456 580.963 26.3322V37.9267H574.46V27.6466C574.46 25.1976 574.46 22.1122 571.043 22.1122C567.625 22.1122 567.099 24.7825 567.099 27.5359V37.9821H560.541V16.7991Z" fill="#004B23"/>
<path d="M620.216 24.8936C620.229 24.3612 620.134 23.8317 619.937 23.3372C619.739 22.8427 619.443 22.3935 619.066 22.017C618.69 21.6404 618.241 21.3443 617.746 21.1467C617.252 20.9491 616.722 20.854 616.19 20.8673C615.043 20.7948 613.914 21.1766 613.047 21.93C612.179 22.6835 611.643 23.7481 611.555 24.8936H620.216ZM625.75 34.2606C624.656 35.5723 623.284 36.625 621.734 37.3427C620.183 38.0605 618.493 38.4255 616.785 38.4114C610.226 38.4114 604.969 34.0392 604.969 27.2457C604.969 20.4522 610.226 16.0939 616.785 16.0939C622.914 16.0939 626.76 20.4661 626.76 27.2457V29.3073H611.541C611.722 30.4801 612.322 31.5474 613.23 32.3109C614.139 33.0743 615.294 33.482 616.48 33.4581C617.415 33.4567 618.334 33.2188 619.152 32.7663C619.969 32.3139 620.659 31.6618 621.157 30.8707L625.75 34.2606ZM640.444 21.8912C639.373 21.8581 638.317 22.1455 637.41 22.7164C636.503 23.2874 635.788 24.1159 635.355 25.096C634.922 26.0761 634.791 27.1632 634.98 28.2179C635.168 29.2727 635.668 30.2471 636.413 31.0165C637.159 31.7859 638.117 32.3153 639.166 32.5368C640.214 32.7583 641.304 32.6618 642.298 32.2598C643.291 31.8578 644.141 31.1684 644.74 30.2801C645.34 29.3918 645.66 28.3448 645.66 27.2734C645.719 26.5624 645.624 25.8471 645.383 25.1759C645.141 24.5046 644.758 23.8932 644.259 23.3829C643.761 22.8725 643.158 22.4752 642.493 22.2179C641.828 21.9605 641.115 21.8491 640.403 21.8912M651.748 37.9133H645.66V35.1461C644.9 36.1604 643.917 36.9871 642.787 37.5628C641.658 38.1384 640.411 38.4476 639.144 38.4667C632.834 38.4667 628.684 33.9147 628.684 27.4809C628.684 21.5729 632.364 16.1492 638.369 16.1492C639.631 16.0383 640.902 16.2317 642.074 16.7131C643.247 17.1946 644.287 17.9502 645.107 18.9164H645.19V6.74072H651.748V37.9133Z" fill="#004B23"/>
<path d="M699.067 0.196133H661.378C660.95 0.190618 660.525 0.270392 660.128 0.430799C659.732 0.591207 659.371 0.829034 659.067 1.13041C658.763 1.43179 658.522 1.79068 658.358 2.18614C658.194 2.58161 658.111 3.00573 658.113 3.43376V41.2753C658.116 41.6998 658.204 42.1195 658.37 42.5101C658.536 42.9008 658.778 43.2547 659.081 43.5517C659.385 43.8487 659.744 44.0828 660.138 44.2406C660.532 44.3985 660.953 44.4769 661.378 44.4714H699.067C699.496 44.4824 699.923 44.4082 700.322 44.253C700.722 44.0979 701.087 43.8648 701.396 43.5675C701.705 43.2702 701.952 42.9144 702.122 42.5209C702.292 42.1274 702.383 41.704 702.388 41.2753V3.43376C702.388 3.00151 702.302 2.57361 702.134 2.1753C701.966 1.77698 701.72 1.41631 701.411 1.11456C701.101 0.812804 700.734 0.576079 700.332 0.418343C699.929 0.260606 699.499 0.18505 699.067 0.196133ZM671.229 37.927H664.671V16.7994H671.229V37.927ZM667.95 13.9353C667.198 13.9353 666.462 13.7121 665.836 13.2941C665.211 12.876 664.723 12.2817 664.435 11.5865C664.147 10.8912 664.072 10.1262 664.218 9.38809C664.365 8.65001 664.728 7.97204 665.26 7.43992C665.792 6.90779 666.47 6.54541 667.208 6.3986C667.946 6.25179 668.711 6.32714 669.406 6.61512C670.101 6.90311 670.696 7.39079 671.114 8.01651C671.532 8.64222 671.755 9.37786 671.755 10.1304C671.755 11.1395 671.354 12.1073 670.641 12.8209C669.927 13.5344 668.959 13.9353 667.95 13.9353ZM695.802 37.927H689.244V27.6606C689.244 25.2117 689.244 22.1262 685.84 22.1262C682.436 22.1262 681.897 24.7966 681.897 27.5499V37.9961H675.339V16.7994H681.634V19.7049H681.717C682.35 18.6304 683.261 17.7468 684.354 17.1476C685.448 16.5485 686.683 16.256 687.929 16.3013C694.571 16.3013 695.802 20.6734 695.802 26.36V37.927Z" fill="#004B23"/>
</g>
<path d="M818.09 0.348892C814.877 1.67714 811.366 5.48785 810.251 10.2421C808.838 16.2818 814.706 18.807 815.177 17.9521C815.732 16.9658 814.148 16.6238 813.806 13.4971C813.378 9.47261 815.262 4.97488 817.616 2.96265C818.044 2.57791 818.044 3.09089 818.044 4.03441C818.044 5.70465 817.958 20.9078 817.958 24.0773C817.958 28.3613 817.787 29.7292 817.445 31.0575C817.103 32.4285 816.587 33.3262 817.018 33.6712C817.445 34.056 819.329 33.1155 820.401 31.6163C821.687 29.8178 822.157 27.6346 822.242 25.2345C822.328 22.3643 822.328 17.8696 822.328 15.2559C822.328 12.9016 822.371 5.9642 822.285 1.76569C822.245 0.864925 819.418 -0.206837 818.09 0.348892ZM931.706 20.3918C931.62 22.6177 931.107 24.3735 930.506 25.5735C929.306 27.9704 926.866 28.7002 925.837 25.2742C925.281 23.3903 925.238 20.3063 925.666 17.6956C926.093 15.0391 927.251 13.0268 929.177 13.2406C931.022 13.4543 931.919 15.8971 931.706 20.3918ZM899.672 34.2239C899.629 37.9064 899.073 41.1614 897.831 42.1049C896.075 43.4331 893.678 42.4469 894.148 39.7507C894.576 37.3537 896.631 34.9109 899.672 31.9125C899.672 31.9552 899.672 32.6392 899.672 34.2239ZM899.202 20.3918C899.073 22.404 898.56 24.459 898.002 25.6162C896.802 28.0132 894.319 28.743 893.333 25.317C892.649 22.9628 892.82 19.9643 893.162 18.0376C893.632 15.5551 894.704 13.2833 896.673 13.2833C898.515 13.2406 899.458 15.3383 899.202 20.3918ZM880.658 20.349C880.53 22.4895 880.102 24.288 879.458 25.6162C878.258 27.9704 875.818 28.743 874.789 25.317C874.02 22.8773 874.276 19.4941 874.618 17.6956C875.089 14.9963 876.289 13.1123 878.13 13.2833C879.974 13.4543 880.872 15.8971 880.658 20.349ZM965.623 22.8773C965.153 22.8773 964.939 23.3475 964.765 24.1628C964.167 26.9475 963.523 27.5888 962.71 27.5888C961.81 27.5888 960.955 26.2178 960.741 23.4361C960.57 21.2528 960.613 17.2253 960.826 13.2436C960.869 12.4314 960.655 11.6161 958.43 10.8039C957.486 10.4619 956.118 9.9459 955.431 11.6161C953.504 16.2849 952.732 20.0101 952.561 21.5093C952.561 21.5948 952.475 21.5948 952.433 21.4238C952.304 20.2238 952.048 18.0406 952.048 13.4146C952.048 12.5139 951.834 11.7444 950.848 11.1032C950.207 10.6757 948.234 9.98865 947.55 10.8467C946.952 11.5306 946.222 13.4177 945.495 15.6864C944.897 17.4849 944.466 18.7276 944.466 18.7276C944.466 18.7276 944.466 13.8452 944.466 11.9612C944.466 11.2772 943.996 11.0177 943.825 10.9749C943.184 10.8039 941.898 10.4619 941.342 10.4619C940.658 10.4619 940.484 10.8467 940.484 11.4054C940.484 11.4909 940.399 17.8727 940.399 22.3246C940.399 22.5383 940.399 22.7093 940.399 22.9658C940.014 25.0208 938.814 27.8056 937.486 27.8056C936.158 27.8056 935.559 26.6483 935.559 21.3383C935.559 18.2543 935.645 16.8834 935.687 14.6574C935.73 13.3719 935.773 12.3887 935.773 12.1322C935.773 11.4482 934.573 11.1032 934.017 10.9749C933.461 10.8467 932.988 10.8039 932.603 10.8039C932.048 10.8467 931.703 11.1887 931.703 11.6619C931.703 11.9184 931.703 12.4314 931.703 12.4314C931.019 11.3596 929.904 10.5902 929.177 10.3764C927.208 9.77796 925.11 10.2909 923.525 12.5169C922.283 14.2726 921.513 16.2421 921.214 19.0696C921 21.1246 921.086 23.2223 921.47 25.0208C921 27.033 920.142 27.8483 919.202 27.8483C917.831 27.8483 916.848 25.6223 916.976 21.7658C917.061 19.2406 917.574 17.4391 918.133 14.8711C918.39 13.7566 918.176 13.2009 917.706 12.6452C917.278 12.1322 916.335 11.8757 914.964 12.2177C913.977 12.4314 912.609 12.6879 911.367 12.8589C911.367 12.8589 911.452 12.5597 911.495 12.0009C911.837 9.17337 908.753 9.42986 907.77 10.3306C907.171 10.8864 906.783 11.4879 906.655 12.6421C906.399 14.4406 907.898 15.2986 907.898 15.2986C907.428 17.5246 906.228 20.3948 904.985 22.4926C904.344 23.6071 903.828 24.462 903.186 25.32C903.186 24.9781 903.186 24.6788 903.186 24.3338C903.186 19.6651 903.229 16.0253 903.272 14.6971C903.315 13.4116 903.357 12.4284 903.357 12.2146C903.357 11.7016 903.058 11.5306 902.457 11.2711C901.901 11.0574 901.257 10.9291 900.615 10.8436C899.757 10.7581 899.287 11.2283 899.287 11.7444C899.287 11.8299 899.287 12.4711 899.287 12.4711C898.603 11.3993 897.489 10.6299 896.762 10.4161C894.792 9.81765 892.695 10.3306 891.11 12.5566C889.867 14.3123 889.055 16.752 888.799 19.0666C888.585 21.2498 888.628 23.091 888.927 24.6758C888.628 26.2605 887.684 27.888 886.658 27.888C885.33 27.888 884.603 26.7307 884.603 21.4208C884.603 18.3368 884.689 16.9658 884.731 14.7398C884.774 13.4543 884.817 12.4711 884.817 12.2146C884.817 11.5306 883.617 11.1856 883.061 11.0574C882.463 10.9291 881.989 10.8864 881.605 10.8864C881.092 10.9291 880.747 11.3993 880.747 11.6986V12.4681C880.063 11.3963 878.948 10.6268 878.221 10.4131C876.252 9.8146 874.154 10.3703 872.569 12.5535C871.54 13.9673 870.728 15.552 870.258 19.0635C870.13 20.0925 870.087 21.033 870.087 21.891C869.659 24.4162 867.861 27.2865 866.362 27.2865C865.504 27.2865 864.649 25.6162 864.649 22.0193C864.649 17.2223 864.948 10.4558 864.991 9.77185C864.991 9.77185 866.875 9.7291 867.217 9.7291C868.16 9.7291 869.015 9.7291 870.258 9.68635C870.899 9.64361 871.501 7.41764 870.856 7.11535C870.557 6.9871 868.502 6.9016 867.687 6.85886C867.003 6.85886 865.073 6.68786 865.073 6.68786C865.073 6.68786 865.244 2.19012 865.287 1.67714C865.33 1.29241 864.817 1.07866 864.517 0.950418C863.791 0.651179 863.146 0.522937 862.42 0.351943C861.348 0.138202 860.878 0.351943 860.792 1.25271C860.664 2.58096 860.578 6.51992 860.578 6.51992C859.809 6.51992 857.153 6.34893 856.383 6.34893C855.656 6.34893 854.884 9.43292 855.87 9.47567C857.027 9.51842 858.997 9.56117 860.325 9.60391C860.325 9.60391 860.282 16.4986 860.282 18.6391C860.282 18.8528 860.282 19.0666 860.282 19.2803C859.556 23.0483 856.985 25.1033 856.985 25.1033C857.54 22.6208 856.429 20.7338 854.414 19.1521C853.687 18.5536 852.188 17.4391 850.56 16.2391C850.56 16.2391 851.504 15.2956 852.359 13.4116C852.957 12.0833 853 10.5413 851.501 10.1993C849.061 9.64361 847.088 11.4421 846.49 13.3261C846.02 14.7826 846.276 15.8971 847.174 17.0085C847.259 17.094 847.302 17.1795 847.388 17.265C846.832 18.3368 846.102 19.7475 845.461 20.8193C843.705 23.8605 842.377 26.3002 841.351 26.3002C840.539 26.3002 840.539 23.8605 840.539 21.546C840.539 19.5765 840.667 16.578 840.795 13.494C840.838 12.465 840.325 11.9093 839.467 11.3535C838.954 11.0543 837.839 10.41 837.198 10.41C836.255 10.41 833.473 10.5383 830.859 18.12C830.517 19.0635 829.873 20.8193 829.873 20.8193L829.916 11.6986C829.916 11.4848 829.787 11.2711 829.531 11.1429C829.103 10.8864 827.903 10.4161 826.874 10.4161C826.361 10.4161 826.148 10.6299 826.148 11.1001L826.062 25.3597C826.062 26.4315 826.105 27.714 826.19 28.2727C826.276 28.8285 826.49 29.259 826.703 29.5582C826.917 29.8147 827.174 30.0285 827.561 30.114C827.946 30.1995 830.001 30.456 830.132 29.6865C830.261 28.743 830.261 27.717 831.375 23.8635C833.088 17.8666 835.271 14.9566 836.343 13.9276C836.514 13.7566 836.728 13.7566 836.728 14.0131C836.685 15.3414 836.514 18.5963 836.429 21.378C836.129 28.8285 837.5 30.1995 839.427 30.1995C840.926 30.1995 842.981 28.743 845.25 25.0178C846.664 22.7063 847.992 20.4345 848.975 18.7643C849.659 19.4055 850.432 20.0498 851.159 20.7765C852.914 22.4467 853.513 24.0315 853.128 25.5735C852.829 26.7307 851.714 27.9277 849.745 26.7735C849.189 26.4315 848.933 26.175 848.331 25.7872C848.032 25.5735 847.562 25.5307 847.259 25.7445C846.533 26.3002 846.102 27.03 845.846 27.885C845.632 28.743 846.444 29.1705 847.345 29.5979C848.114 29.9399 849.742 30.2392 850.814 30.2819C854.881 30.4102 858.136 28.3124 860.407 22.8742C860.792 27.543 862.548 30.1964 865.546 30.1964C867.559 30.1964 869.571 27.5827 870.472 25.0575C870.728 26.0865 871.113 27.0269 871.586 27.7567C873.898 31.4392 878.395 30.627 880.664 27.5002C881.348 26.5567 881.476 26.172 881.476 26.172C881.818 29.1277 884.176 30.1537 885.544 30.1537C887.086 30.1537 888.628 29.4269 889.739 26.9414C889.867 27.1979 889.995 27.4544 890.166 27.7109C892.478 31.3934 896.976 30.5812 899.244 27.4544C899.33 27.3262 899.458 27.1552 899.544 27.0697L899.629 28.9964C899.629 28.9964 898.344 30.1964 897.531 30.9231C894.063 34.1354 891.406 36.5323 891.192 39.3598C890.936 42.9568 893.849 44.2851 896.075 44.4561C898.429 44.627 900.444 43.3415 901.641 41.5431C902.713 39.9583 903.44 36.5323 903.397 33.1064C903.397 31.7354 903.354 30.0224 903.312 28.1811C904.554 26.7674 905.925 24.9689 907.165 22.8712C908.536 20.6025 910.035 17.5185 910.805 15.1185C910.805 15.1185 912.09 15.1185 913.461 15.033C913.889 14.9902 914.017 15.0757 913.932 15.4177C913.846 15.8024 912.176 22.1414 913.675 26.3368C914.704 29.2071 917.015 30.1476 918.387 30.1476C919.971 30.1476 921.513 28.9476 922.325 27.1491C922.411 27.3628 922.539 27.5338 922.625 27.7048C924.936 31.3873 929.434 30.575 931.703 27.4483C932.216 26.7643 932.515 26.12 932.515 26.12C932.985 29.1613 935.385 30.1018 936.71 30.1018C938.124 30.1018 939.452 29.5033 940.564 26.9323C940.606 28.0468 940.692 28.9872 940.777 29.2865C940.863 29.4575 941.248 29.6712 941.547 29.7995C942.832 30.2697 944.161 30.056 944.631 29.9705C944.973 29.885 945.229 29.6285 945.272 28.9414C945.358 27.1002 945.315 24.0162 945.871 21.7048C946.814 17.8513 947.669 16.352 948.097 15.6223C948.31 15.1948 948.61 15.152 948.61 15.5795C948.61 16.4803 948.652 19.091 949.037 22.5597C949.294 25.1307 949.678 26.6697 949.938 27.143C950.707 28.514 951.694 28.5995 952.463 28.5995C952.976 28.5995 954.005 28.4712 953.92 27.5704C953.877 27.143 953.962 24.4865 954.863 20.7185C955.462 18.236 956.491 16.007 956.833 15.1948C956.961 14.8956 957.046 15.152 957.046 15.1948C956.961 16.9078 956.79 22.4742 957.474 25.5582C958.417 29.7109 961.156 30.1415 962.1 30.1415C964.112 30.1415 965.782 28.5995 966.338 24.5323C966.436 23.604 966.265 22.8773 965.623 22.8773Z" fill="#004B23"/>
<path d="M1092.31 5.90423C1091.05 7.39973 1089.03 8.57928 1087.01 8.41077C1086.76 6.38868 1087.75 4.24022 1088.9 2.91322C1090.17 1.3756 1092.38 0.280299 1094.17 0.196045C1094.38 2.30238 1093.56 4.3666 1092.31 5.90423ZM1094.15 8.81097C1091.22 8.64247 1088.71 10.475 1087.33 10.475C1085.92 10.475 1083.79 8.89523 1081.47 8.93735C1078.46 8.97948 1075.66 10.6856 1074.13 13.4028C1070.97 18.8372 1073.31 26.8834 1076.36 31.3067C1077.85 33.4973 1079.64 35.8985 1082 35.8142C1084.23 35.73 1085.12 34.3609 1087.81 34.3609C1090.53 34.3609 1091.3 35.8142 1093.66 35.7721C1096.1 35.73 1097.64 33.5815 1099.13 31.3909C1100.84 28.9055 1101.53 26.4832 1101.58 26.3568C1101.53 26.3147 1096.86 24.5243 1096.82 19.132C1096.78 14.6245 1100.5 12.476 1100.67 12.3496C1098.57 9.23224 1095.28 8.89523 1094.15 8.81097ZM1111.05 2.70259V35.5404H1116.14V24.3136H1123.19C1129.64 24.3136 1134.16 19.8903 1134.16 13.487C1134.16 7.08378 1129.72 2.70259 1123.36 2.70259H1111.05ZM1116.14 6.99952H1122.02C1126.44 6.99952 1128.96 9.35862 1128.96 13.5081C1128.96 17.6576 1126.44 20.0378 1122 20.0378H1116.14V6.99952ZM1143.47 35.7932C1146.67 35.7932 1149.63 34.1713 1150.98 31.6016H1151.09V35.5404H1155.8V19.1952C1155.8 14.456 1152.01 11.4018 1146.18 11.4018C1140.77 11.4018 1136.77 14.4981 1136.62 18.7529H1141.21C1141.59 16.7308 1143.47 15.4038 1146.03 15.4038C1149.15 15.4038 1150.9 16.8572 1150.9 19.5322V21.3437L1144.54 21.7228C1138.62 22.0809 1135.42 24.5032 1135.42 28.7159C1135.42 32.9707 1138.73 35.7932 1143.47 35.7932ZM1144.83 31.8965C1142.12 31.8965 1140.39 30.5905 1140.39 28.5895C1140.39 26.5253 1142.06 25.3247 1145.23 25.1351L1150.9 24.777V26.6306C1150.9 29.7059 1148.29 31.8965 1144.83 31.8965ZM1162.1 44.4713C1167.06 44.4713 1169.4 42.5756 1171.44 36.8253L1180.39 11.7177H1175.21L1169.21 31.1171H1169.1L1163.11 11.7177H1157.78L1166.41 35.6247L1165.95 37.0781C1165.17 39.5425 1163.91 40.4903 1161.65 40.4903C1161.25 40.4903 1160.47 40.4482 1160.16 40.4061V44.3449C1160.45 44.4292 1161.72 44.4713 1162.1 44.4713Z" fill="#004B23"/>
<defs>
<clipPath id="clip0_195_485">
<rect width="181.361" height="38.7409" fill="white" transform="translate(0.532043 5.73047)"/>
</clipPath>
<clipPath id="clip1_195_485">
<rect width="177.101" height="44.2753" fill="white" transform="translate(526.671 0.196045)"/>
</clipPath>
</defs>
</svg>
