 <svg width="4000" height="300" viewBox="0 0 1512 116" fill="none" xmlns="http://www.w3.org/2000/svg">
                    <g clip-path="url(#clip0_206_932)">
                        <g clip-path="url(#clip1_206_932)">
                            <path d="M-37.8606 51.8769H-53.5183V56.4889H-42.4223C-42.9771 63.0072 -48.4018 65.7744 -53.5183 65.7744C-60.0527 65.7744 -65.7856 60.609 -65.7856 53.4143C-65.7856 46.404 -60.3609 40.9926 -53.5183 40.9926C-48.2785 40.9926 -45.1346 44.3132 -45.1346 44.3132L-41.8675 40.9311C-41.8675 40.9311 -46.0593 36.3191 -53.6416 36.3191C-63.3199 36.3806 -70.8405 44.5592 -70.8405 53.3528C-70.8405 62.0233 -63.813 70.4479 -53.395 70.4479C-44.2716 70.4479 -37.5523 64.1756 -37.5523 54.9516C-37.5523 52.9838 -37.8606 51.8769 -37.8606 51.8769ZM-25.0384 48.5563C-31.4495 48.5563 -36.0729 53.5372 -36.0729 59.4406C-36.0729 65.344 -31.6344 70.4479 -24.9768 70.4479C-18.9972 70.4479 -14.0657 65.8359 -14.0657 59.5636C-14.004 52.2459 -19.737 48.5563 -25.0384 48.5563ZM-24.9768 52.8608C-21.8329 52.8608 -18.8123 55.3821 -18.8123 59.5021C-18.8123 63.4992 -21.7713 66.1434 -24.9768 66.1434C-28.4905 66.1434 -31.2646 63.3762 -31.2646 59.5021C-31.2646 55.6895 -28.4905 52.8608 -24.9768 52.8608ZM-1.05862 48.5563C-7.46968 48.5563 -12.093 53.5372 -12.093 59.4406C-12.093 65.344 -7.65461 70.4479 -0.996971 70.4479C4.98257 70.4479 9.91415 65.8359 9.91415 59.5636C9.9758 52.2459 4.24284 48.5563 -1.05862 48.5563ZM-0.996971 52.8608C2.14691 52.8608 5.16751 55.3821 5.16751 59.5021C5.16751 63.4992 2.20856 66.1434 -0.996971 66.1434C-4.51072 66.1434 -7.28474 63.3762 -7.28474 59.5021C-7.22309 55.6895 -4.51072 52.8608 -0.996971 52.8608ZM22.4897 48.5563C16.5718 48.5563 11.9484 53.7217 11.9484 59.5021C11.9484 66.0819 17.3115 70.4479 22.3664 70.4479C25.5103 70.4479 27.1747 69.2181 28.4076 67.8037V69.956C28.4076 73.7071 26.1267 75.9823 22.613 75.9823C19.2842 75.9823 17.5581 73.5226 17.0033 72.1083L12.8115 73.8916C14.2909 77.0277 17.3115 80.3484 22.6746 80.3484C28.5309 80.3484 33.031 76.6588 33.031 68.9106V49.2327H28.4076V51.0775C26.9898 49.5402 25.0788 48.5563 22.4897 48.5563ZM22.9212 52.8608C25.8185 52.8608 28.7775 55.3206 28.7775 59.5021C28.7775 63.8067 25.8185 66.1434 22.8596 66.1434C19.7157 66.1434 16.8184 63.6222 16.8184 59.5636C16.7567 55.3206 19.839 52.8608 22.9212 52.8608ZM53.4354 48.4948C47.8873 48.4948 43.2023 52.9223 43.2023 59.4406C43.2023 66.3279 48.3805 70.4479 53.9902 70.4479C58.6135 70.4479 61.5108 67.9267 63.1752 65.6515L59.3533 63.1302C58.367 64.6676 56.7025 66.1434 53.9902 66.1434C50.9079 66.1434 49.4901 64.4831 48.6271 62.8228L63.3602 56.7349L62.6205 54.9516C61.141 51.4465 57.8122 48.4948 53.4354 48.4948ZM53.6203 52.7378C55.6546 52.7378 57.0724 53.7832 57.6889 55.0746L47.8873 59.1946C47.4558 55.997 50.4764 52.7378 53.6203 52.7378ZM36.2365 69.7715H41.0448V37.549H36.2365V69.7715ZM83.2715 53.5373H77.3535V47.6339H72.5453V53.5373H66.6274V58.3337H72.5453V64.2371H77.3535V58.3337H83.2715V53.5373Z" fill="#004B23" />
                        </g>
                        <g clip-path="url(#clip2_206_932)">
                            <path d="M189.532 41.7305V60.1401H207.942V41.7305H189.532ZM209.863 41.7305V60.1401H228.273V41.7305H209.863ZM359.241 47.7667C358.07 47.7667 357.048 48.0371 356.117 48.4876C355.186 48.9981 354.496 49.6887 353.985 50.6197C353.475 51.5207 353.205 52.542 353.205 53.7132V56.0254H350.472V59.2087H353.205V72.6631H357.139V59.2392H363.025V67.7982C363.025 71.3119 364.676 73.0836 367.98 73.0836C368.521 73.0836 369.091 72.9937 369.632 72.9036C370.202 72.7834 370.623 72.6331 370.863 72.5129L370.893 72.483V69.2693L370.743 69.3895C370.503 69.5397 370.292 69.6602 369.932 69.7502C369.632 69.8403 369.362 69.8699 369.151 69.8699C368.371 69.8699 367.83 69.6898 367.44 69.2394C367.079 68.8189 366.899 68.1283 366.899 67.1072V59.2392H370.893V56.0254H366.959V51.1001L366.839 51.1306L363.115 52.2416L363.025 52.2715V56.0254H357.139V53.9232C357.139 52.9622 357.379 52.2118 357.8 51.7312C358.22 51.2507 358.851 51.0104 359.632 51.0104C360.172 51.0104 360.742 51.1301 361.373 51.4004L361.523 51.4908V48.0969L361.433 48.067C360.893 47.8868 360.172 47.7667 359.241 47.7667ZM270.738 48.9979C270.077 48.9979 269.537 49.2385 269.086 49.6589C268.636 50.0794 268.395 50.6201 268.395 51.2808C268.395 51.9114 268.636 52.4517 269.086 52.8721C269.537 53.2925 270.077 53.5026 270.738 53.5026C271.398 53.5026 271.969 53.2625 272.39 52.8721C272.84 52.4517 273.08 51.9114 273.08 51.2808C273.08 50.6501 272.84 50.1094 272.39 49.6589C271.999 49.2385 271.429 48.9979 270.738 48.9979ZM259.506 49.4789L253.559 64.0442L252.478 67.1072H252.389C252.208 66.4165 251.878 65.3654 251.337 64.1041L245.541 49.5387H239.865V72.7534H243.619V58.428C243.619 57.527 243.619 56.5061 243.589 55.2447C243.559 54.6141 243.499 54.1334 243.469 53.7731H243.559C243.739 54.674 243.949 55.3346 244.099 55.755L251.067 72.693H253.709L260.617 55.6049C260.767 55.2145 260.917 54.4337 261.067 53.7731H261.158C261.067 55.4849 261.008 57.0166 260.978 57.9476V72.6631H264.971V49.4789H259.506ZM284.312 55.6354C282.54 55.6354 280.919 56.0253 279.567 56.8061C278.216 57.587 277.135 58.6684 276.444 60.0199C275.723 61.4013 275.363 62.993 275.363 64.8249C275.363 66.4166 275.723 67.8278 276.414 69.1191C277.105 70.3804 278.065 71.4016 279.357 72.0924C280.588 72.7831 282.03 73.1435 283.651 73.1435C285.513 73.1435 287.105 72.7533 288.366 72.0325L288.396 72.0026V68.3988L288.246 68.5185C287.675 68.9389 287.015 69.2995 286.354 69.5098C285.664 69.75 285.033 69.8699 284.492 69.8699C282.93 69.8699 281.699 69.4198 280.828 68.4287C279.927 67.4677 279.477 66.1465 279.477 64.4947C279.477 62.7829 279.927 61.4315 280.858 60.4404C281.789 59.4494 283.021 58.9389 284.522 58.9389C285.784 58.9389 287.075 59.3591 288.246 60.1999L288.396 60.3202V56.5058L288.366 56.4759C287.856 56.2657 287.285 56.0254 286.504 55.8753C285.784 55.7251 285.033 55.6354 284.312 55.6354ZM326.627 55.6354C324.765 55.6354 323.233 56.0855 322.032 57.0765C320.83 58.0075 320.26 59.2692 320.26 60.7407C320.26 61.5216 320.38 62.212 320.65 62.7826C320.92 63.3532 321.311 63.8941 321.851 64.3446C322.392 64.765 323.173 65.2455 324.254 65.696C325.155 66.0864 325.846 66.3866 326.266 66.6268C326.687 66.8671 326.957 67.1375 327.167 67.3477C327.318 67.588 327.407 67.8882 327.407 68.2786C327.407 69.3898 326.566 69.9303 324.855 69.9303C324.194 69.9303 323.503 69.81 322.693 69.5397C321.882 69.2694 321.131 68.8792 320.5 68.4287L320.35 68.3085V72.1223L320.44 72.1528C321.011 72.4231 321.702 72.603 322.542 72.8132C323.383 72.9634 324.134 73.0836 324.795 73.0836C326.807 73.0836 328.459 72.6329 329.63 71.6419C330.831 70.6809 331.462 69.4497 331.462 67.858C331.462 66.7468 331.162 65.7558 330.501 65.005C329.63 64.2843 328.548 63.5333 326.987 62.9327C325.755 62.4222 324.975 62.0319 324.615 61.7015C324.314 61.4012 324.164 60.981 324.164 60.4404C324.164 59.99 324.344 59.5395 324.795 59.2392C325.245 58.9389 325.756 58.7887 326.506 58.7887C327.167 58.7887 327.858 58.9088 328.519 59.089C329.18 59.2692 329.78 59.5392 330.26 59.8996L330.41 60.0199V56.3557L330.321 56.3257C329.87 56.1456 329.27 55.9656 328.549 55.8154C327.828 55.6953 327.167 55.6354 326.627 55.6354ZM310.019 55.6653C307.286 55.6653 305.094 56.4761 303.562 58.0678C302 59.6595 301.25 61.8515 301.25 64.6144C301.25 67.1971 302.031 69.2997 303.532 70.8313C305.034 72.3329 307.076 73.1136 309.629 73.1136C312.302 73.1136 314.434 72.3028 315.965 70.6811C317.527 69.0594 318.278 66.8971 318.278 64.2243C318.278 61.5815 317.557 59.4792 316.086 57.9476C314.674 56.416 312.602 55.6653 310.019 55.6653ZM341.763 55.6653C339.03 55.6653 336.837 56.4761 335.306 58.0678C333.774 59.6595 332.993 61.8515 332.993 64.6144C332.993 67.1971 333.774 69.2997 335.276 70.8313C336.778 72.3329 338.819 73.1136 341.372 73.1136C344.045 73.1136 346.177 72.3028 347.709 70.6811C349.27 69.0594 350.021 66.8971 350.021 64.2243C350.021 61.5815 349.3 59.4792 347.829 57.9476C346.417 56.416 344.345 55.6653 341.763 55.6653ZM299.388 55.755C298.427 55.755 297.526 56.0558 296.745 56.6865C296.084 57.227 295.634 58.0079 295.244 58.9389H295.214V56.0254H291.309V72.6631H295.214V64.1639C295.214 62.7224 295.514 61.5213 296.174 60.6504C296.835 59.7495 297.676 59.299 298.697 59.299C299.058 59.299 299.418 59.3891 299.869 59.4492C300.289 59.5693 300.589 59.6896 300.799 59.8398L300.95 59.9595V56.0553L300.859 56.0254C300.589 55.8452 300.049 55.755 299.388 55.755ZM268.756 56.0254V72.6631H272.66V56.0254H268.756ZM309.839 58.8784C311.22 58.8784 312.302 59.3288 313.082 60.2598C313.863 61.1908 314.284 62.5422 314.284 64.314C314.224 66.1159 313.893 67.5277 313.142 68.4587C312.422 69.3896 311.28 69.84 309.869 69.84C308.457 69.84 307.316 69.3899 306.505 68.3988C305.695 67.4678 305.304 66.1162 305.304 64.4044C305.304 62.6325 305.725 61.2812 306.505 60.3202C307.316 59.3592 308.427 58.8784 309.839 58.8784ZM341.552 58.8784C342.904 58.8784 344.015 59.3288 344.796 60.2598C345.577 61.1908 345.997 62.5422 345.997 64.314C345.997 66.1159 345.606 67.5277 344.856 68.4587C344.135 69.3896 342.994 69.84 341.583 69.84C340.141 69.84 339.03 69.3899 338.219 68.3988C337.408 67.4678 337.017 66.1162 337.017 64.4044C337.017 62.6325 337.438 61.2812 338.219 60.3202C339.03 59.3592 340.141 58.8784 341.552 58.8784ZM189.532 62.0617V80.4713H207.942V62.0617H189.532ZM209.863 62.0617V80.4713H228.273V62.0617H209.863Z" fill="#004B23" />
                        </g>
                        <path d="M509.786 68.779C505.659 66.3952 501.711 64.1154 497.763 61.8346C495.941 60.7817 494.13 59.7093 492.292 58.685C491.773 58.3958 491.703 58.156 491.948 57.6015C493.65 53.7528 495.306 49.8838 496.979 46.0224C497.269 45.3536 497.497 44.6423 498.447 44.6305C499.397 44.6187 499.633 45.3012 499.93 45.9853C503.1 53.3033 506.276 60.6193 509.455 67.9333C509.546 68.1422 509.622 68.3576 509.786 68.779ZM491.152 59.432C491.395 58.8607 491.59 58.7751 492.149 59.1144C494.036 60.2603 495.965 61.339 498.001 62.5148L487.318 68.6932" fill="#004B23" />
                        <path d="M498.541 77.8524C494.625 77.8524 490.797 76.6911 487.541 74.5156C484.285 72.34 481.747 69.2478 480.249 65.6299C478.75 62.012 478.358 58.0311 479.122 54.1904C479.886 50.3497 481.772 46.8218 484.541 44.0528C487.31 41.2838 490.837 39.3981 494.678 38.6341C498.519 37.8701 502.5 38.2622 506.118 39.7608C509.736 41.2594 512.828 43.7971 515.003 47.0531C517.179 50.3091 518.34 54.1371 518.34 58.053C518.34 60.6531 517.828 63.2277 516.833 65.6299C515.838 68.0321 514.38 70.2147 512.541 72.0533C510.703 73.8918 508.52 75.3502 506.118 76.3452C503.716 77.3402 501.141 77.8524 498.541 77.8524ZM498.541 40.3634C495.042 40.3634 491.622 41.4008 488.713 43.3446C485.804 45.2884 483.537 48.0511 482.198 51.2835C480.859 54.5158 480.508 58.0726 481.191 61.5041C481.874 64.9356 483.558 68.0876 486.032 70.5615C488.506 73.0354 491.658 74.7202 495.09 75.4028C498.521 76.0853 502.078 75.735 505.31 74.3961C508.543 73.0572 511.305 70.7899 513.249 67.8809C515.193 64.9718 516.23 61.5517 516.23 58.053C516.23 53.3614 514.367 48.862 511.049 45.5445C507.732 42.2271 503.232 40.3634 498.541 40.3634Z" fill="#004B23" />
                        <path d="M538.776 50.4064H543.262V65.325H540.357V55.234C540.357 54.944 540.36 54.5376 540.367 54.0146C540.374 53.4919 540.377 53.0887 540.377 52.8051L537.55 65.325H534.52L531.714 52.8051C531.714 53.0885 531.717 53.4916 531.723 54.0146C531.73 54.5374 531.733 54.9438 531.734 55.234V65.325H528.829V50.406H533.365L536.081 62.1365L538.776 50.4064ZM553.102 54.5164C553.88 54.8679 554.541 55.4339 555.008 56.1479C555.471 56.8314 555.772 57.6117 555.887 58.4291C555.976 59.1554 556.008 59.8874 555.982 60.6186H547.948C547.992 61.7253 548.377 62.5012 549.101 62.9463C549.581 63.2335 550.133 63.3775 550.692 63.3612C551.142 63.3966 551.593 63.2947 551.985 63.0689C552.377 62.843 552.691 62.5039 552.887 62.0961H555.832C555.699 62.8583 555.324 63.5573 554.763 64.0898C553.774 65.1626 552.391 65.6992 550.612 65.6994C549.198 65.7181 547.822 65.2376 546.726 64.3422C545.604 63.4369 545.043 61.9646 545.043 59.9252C545.043 58.0143 545.549 56.5489 546.563 55.529C547.08 55.0177 547.698 54.6181 548.376 54.355C549.055 54.0919 549.78 53.9709 550.508 53.9995C551.399 53.9856 552.284 54.1618 553.102 54.5164ZM548.787 57.0079C548.355 57.4806 548.085 58.0792 548.018 58.716H552.988C552.985 58.3884 552.916 58.0648 552.784 57.7651C552.651 57.4653 552.459 57.1957 552.219 56.9727C551.742 56.5699 551.133 56.358 550.509 56.3778C550.194 56.3584 549.878 56.4044 549.582 56.5129C549.286 56.6213 549.015 56.7898 548.787 57.0079ZM556.308 56.4485V54.3944H557.846V51.3174H560.7V54.394H562.491V56.4485H560.7V62.2782C560.661 62.5713 560.721 62.8692 560.872 63.1235C560.987 63.2346 561.338 63.2902 561.925 63.2902C562.012 63.2902 562.105 63.2891 562.203 63.2856C562.301 63.2821 562.397 63.2769 562.491 63.2701V65.4262L561.125 65.4765C559.762 65.5234 558.831 65.2873 558.332 64.7683C557.975 64.3427 557.8 63.7935 557.846 63.2399V56.4485L556.308 56.4485ZM568.713 58.6148C569.106 58.5807 569.494 58.4956 569.865 58.3616C570.043 58.3092 570.199 58.2013 570.311 58.0538C570.423 57.9063 570.485 57.7268 570.487 57.5416C570.506 57.3562 570.471 57.1693 570.387 57.0033C570.302 56.8373 570.171 56.6992 570.01 56.6057C569.57 56.4089 569.09 56.3203 568.609 56.3472C567.919 56.3472 567.43 56.516 567.143 56.8535C566.918 57.1486 566.777 57.498 566.732 57.8658H563.949C563.972 57.0088 564.256 56.1791 564.762 55.4872C565.528 54.5155 566.843 54.0297 568.706 54.0297C569.825 54.0087 570.934 54.255 571.939 54.7484C572.88 55.2276 573.351 56.1317 573.351 57.4608V62.5212C573.351 62.8721 573.358 63.2972 573.371 63.7965C573.364 64.0632 573.423 64.3275 573.544 64.5655C573.653 64.7127 573.8 64.828 573.969 64.8995V65.325H570.831C570.749 65.1225 570.688 64.9122 570.649 64.6973C570.615 64.5016 570.588 64.2789 570.568 64.0293C570.164 64.4641 569.697 64.836 569.183 65.1326C568.538 65.4956 567.807 65.6807 567.066 65.6688C566.159 65.7031 565.272 65.3982 564.577 64.8137C564.243 64.5082 563.982 64.1321 563.812 63.7127C563.642 63.2934 563.568 62.8414 563.595 62.3897C563.595 61.0334 564.122 60.0517 565.175 59.4446C565.973 59.0497 566.838 58.8092 567.724 58.7357L568.713 58.6148ZM570.477 59.9607C570.3 60.0715 570.113 60.1648 569.917 60.2392C569.665 60.3267 569.406 60.3925 569.143 60.4361L568.486 60.5578C568.026 60.6174 567.579 60.7507 567.161 60.9526C566.944 61.0719 566.764 61.2501 566.644 61.4667C566.523 61.6833 566.466 61.9294 566.479 62.177C566.461 62.375 566.489 62.5747 566.561 62.76C566.633 62.9454 566.748 63.1114 566.895 63.2448C567.185 63.4683 567.543 63.5845 567.908 63.5739C568.531 63.576 569.139 63.385 569.65 63.0272C570.18 62.6629 570.456 61.9983 570.477 61.0335L570.477 59.9607ZM578.817 65.325H575.932V50.406H578.817V65.325ZM581.863 50.4064H584.981V62.6425H592.43V65.325H581.864L581.863 50.4064ZM605.651 51.9953C606.117 52.6615 606.357 53.4599 606.336 54.2727C606.375 55.0637 606.13 55.8426 605.645 56.4689C605.326 56.8257 604.94 57.1149 604.507 57.3191C605.212 57.5528 605.819 58.016 606.23 58.6348C606.633 59.2912 606.835 60.0511 606.812 60.8208C606.824 61.6612 606.593 62.4872 606.147 63.1995C605.851 63.6946 605.454 64.1217 604.981 64.453C604.509 64.7842 603.972 65.0122 603.405 65.1221C602.711 65.2619 602.005 65.3299 601.297 65.325H594.575V50.406H601.785C603.604 50.4335 604.893 50.9632 605.651 51.9953ZM597.551 52.9974V56.2864H601.177C601.726 56.3105 602.272 56.1827 602.754 55.9172C602.964 55.7737 603.131 55.5762 603.238 55.3455C603.344 55.1148 603.387 54.8595 603.36 54.6068C603.36 53.9117 603.093 53.4529 602.559 53.2302C601.987 53.0595 601.392 52.9809 600.796 52.9974L597.551 52.9974ZM597.551 58.7561V62.7336H601.172C601.689 62.7581 602.205 62.6683 602.684 62.4706C603.337 62.1471 603.664 61.5264 603.664 60.6084C603.692 60.2761 603.615 59.9434 603.445 59.6568C603.274 59.3701 603.019 59.1438 602.714 59.0093C602.239 58.8253 601.732 58.7391 601.223 58.7561L597.551 58.7561Z" fill="#004B23" />
                        <g clip-path="url(#clip3_206_932)">
                            <path d="M716.847 42.7404H723.682V67.6175H736.328V73.9267H716.847V42.7404ZM739.344 52.7991H745.902V73.9129H739.344V52.7991ZM742.623 42.2976C743.376 42.2976 744.111 42.5208 744.737 42.9389C745.363 43.3569 745.85 43.9512 746.138 44.6464C746.426 45.3417 746.502 46.1067 746.355 46.8448C746.208 47.5829 745.846 48.2609 745.314 48.793C744.781 49.3251 744.103 49.6875 743.365 49.8343C742.627 49.9811 741.862 49.9058 741.167 49.6178C740.472 49.3298 739.877 48.8421 739.459 48.2164C739.041 47.5907 738.818 46.8551 738.818 46.1025C738.818 45.0934 739.219 44.1256 739.933 43.412C740.646 42.6985 741.614 42.2976 742.623 42.2976ZM773.353 42.7404H779.911V61.3775L787.355 52.7715H795.394L786.788 62.5535L795.214 73.9267H786.967L779.994 63.4806H779.911V73.9267H773.353V42.7404ZM749.541 52.7991H755.795V55.6909H755.878C756.509 54.6138 757.419 53.7274 758.513 53.1257C759.607 52.5241 760.843 52.2296 762.09 52.2734C768.745 52.2734 769.963 56.6456 769.963 62.3322V73.9267H763.46V63.6466C763.46 61.1976 763.46 58.1122 760.043 58.1122C756.625 58.1122 756.099 60.7825 756.099 63.5359V73.9821H749.541V52.7991Z" fill="#004B23" />
                            <path d="M809.216 60.8936C809.229 60.3612 809.134 59.8317 808.937 59.3372C808.739 58.8427 808.443 58.3935 808.066 58.017C807.69 57.6404 807.241 57.3443 806.746 57.1467C806.252 56.9491 805.722 56.854 805.19 56.8673C804.043 56.7948 802.914 57.1766 802.047 57.93C801.179 58.6835 800.643 59.7481 800.555 60.8936H809.216ZM814.75 70.2606C813.656 71.5723 812.284 72.625 810.734 73.3427C809.183 74.0605 807.493 74.4255 805.785 74.4114C799.226 74.4114 793.969 70.0392 793.969 63.2457C793.969 56.4522 799.226 52.0939 805.785 52.0939C811.914 52.0939 815.76 56.4661 815.76 63.2457V65.3073H800.541C800.722 66.4801 801.322 67.5474 802.23 68.3109C803.139 69.0743 804.294 69.482 805.48 69.4581C806.415 69.4567 807.334 69.2188 808.152 68.7663C808.969 68.3139 809.659 67.6618 810.157 66.8707L814.75 70.2606ZM829.444 57.8912C828.373 57.8581 827.317 58.1455 826.41 58.7164C825.503 59.2874 824.788 60.1159 824.355 61.096C823.922 62.0761 823.791 63.1632 823.98 64.2179C824.168 65.2727 824.668 66.2471 825.413 67.0165C826.159 67.7859 827.117 68.3153 828.166 68.5368C829.214 68.7583 830.304 68.6618 831.298 68.2598C832.291 67.8578 833.141 67.1684 833.74 66.2801C834.34 65.3918 834.66 64.3448 834.66 63.2734C834.719 62.5624 834.624 61.8471 834.383 61.1759C834.141 60.5046 833.758 59.8932 833.259 59.3829C832.761 58.8725 832.158 58.4752 831.493 58.2179C830.828 57.9605 830.115 57.8491 829.403 57.8912M840.748 73.9133H834.66V71.1461C833.9 72.1604 832.917 72.9871 831.787 73.5628C830.658 74.1384 829.411 74.4476 828.144 74.4667C821.834 74.4667 817.684 69.9147 817.684 63.4809C817.684 57.5729 821.364 52.1492 827.369 52.1492C828.631 52.0383 829.902 52.2317 831.074 52.7131C832.247 53.1946 833.287 53.9502 834.107 54.9164H834.19V42.7407H840.748V73.9133Z" fill="#004B23" />
                            <path d="M888.067 36.1961H850.378C849.95 36.1906 849.525 36.2704 849.128 36.4308C848.732 36.5912 848.371 36.829 848.067 37.1304C847.763 37.4318 847.522 37.7907 847.358 38.1861C847.194 38.5816 847.111 39.0057 847.113 39.4338V77.2753C847.116 77.6998 847.204 78.1195 847.37 78.5101C847.536 78.9008 847.778 79.2547 848.081 79.5517C848.385 79.8487 848.744 80.0828 849.138 80.2406C849.532 80.3985 849.953 80.4769 850.378 80.4714H888.067C888.496 80.4824 888.923 80.4082 889.322 80.253C889.722 80.0979 890.087 79.8648 890.396 79.5675C890.705 79.2702 890.952 78.9144 891.122 78.5209C891.292 78.1274 891.383 77.704 891.388 77.2753V39.4338C891.388 39.0015 891.302 38.5736 891.134 38.1753C890.966 37.777 890.72 37.4163 890.411 37.1146C890.101 36.8128 889.734 36.5761 889.332 36.4183C888.929 36.2606 888.499 36.185 888.067 36.1961ZM860.229 73.927H853.671V52.7994H860.229V73.927ZM856.95 49.9353C856.198 49.9353 855.462 49.7121 854.836 49.2941C854.211 48.876 853.723 48.2817 853.435 47.5865C853.147 46.8912 853.072 46.1262 853.218 45.3881C853.365 44.65 853.728 43.972 854.26 43.4399C854.792 42.9078 855.47 42.5454 856.208 42.3986C856.946 42.2518 857.711 42.3271 858.406 42.6151C859.101 42.9031 859.696 43.3908 860.114 44.0165C860.532 44.6422 860.755 45.3779 860.755 46.1304C860.755 47.1395 860.354 48.1073 859.641 48.8209C858.927 49.5344 857.959 49.9353 856.95 49.9353ZM884.802 73.927H878.244V63.6606C878.244 61.2117 878.244 58.1262 874.84 58.1262C871.436 58.1262 870.897 60.7966 870.897 63.5499V73.9961H864.339V52.7994H870.634V55.7049H870.717C871.35 54.6304 872.261 53.7468 873.354 53.1476C874.448 52.5485 875.683 52.2561 876.929 52.3013C883.571 52.3013 884.802 56.6734 884.802 62.36V73.927Z" fill="#004B23" />
                        </g>
                        <path d="M1007.09 36.3489C1003.88 37.6771 1000.37 41.4879 999.251 46.2421C997.838 52.2818 1003.71 54.807 1004.18 53.9521C1004.73 52.9658 1003.15 52.6238 1002.81 49.4971C1002.38 45.4726 1004.26 40.9749 1006.62 38.9626C1007.04 38.5779 1007.04 39.0909 1007.04 40.0344C1007.04 41.7046 1006.96 56.9078 1006.96 60.0773C1006.96 64.3613 1006.79 65.7292 1006.45 67.0575C1006.1 68.4285 1005.59 69.3262 1006.02 69.6712C1006.45 70.056 1008.33 69.1155 1009.4 67.6163C1010.69 65.8178 1011.16 63.6346 1011.24 61.2345C1011.33 58.3643 1011.33 53.8696 1011.33 51.2559C1011.33 48.9016 1011.37 41.9642 1011.29 37.7657C1011.25 36.8649 1008.42 35.7932 1007.09 36.3489ZM1120.71 56.3918C1120.62 58.6177 1120.11 60.3735 1119.51 61.5735C1118.31 63.9704 1115.87 64.7002 1114.84 61.2742C1114.28 59.3903 1114.24 56.3063 1114.67 53.6956C1115.09 51.0391 1116.25 49.0268 1118.18 49.2406C1120.02 49.4543 1120.92 51.8971 1120.71 56.3918ZM1088.67 70.2239C1088.63 73.9064 1088.07 77.1614 1086.83 78.1049C1085.07 79.4331 1082.68 78.4469 1083.15 75.7507C1083.58 73.3537 1085.63 70.9109 1088.67 67.9125C1088.67 67.9552 1088.67 68.6392 1088.67 70.2239ZM1088.2 56.3918C1088.07 58.404 1087.56 60.459 1087 61.6162C1085.8 64.0132 1083.32 64.743 1082.33 61.317C1081.65 58.9628 1081.82 55.9643 1082.16 54.0376C1082.63 51.5551 1083.7 49.2833 1085.67 49.2833C1087.51 49.2406 1088.46 51.3383 1088.2 56.3918ZM1069.66 56.349C1069.53 58.4895 1069.1 60.288 1068.46 61.6162C1067.26 63.9704 1064.82 64.743 1063.79 61.317C1063.02 58.8773 1063.28 55.4941 1063.62 53.6956C1064.09 50.9963 1065.29 49.1123 1067.13 49.2833C1068.97 49.4543 1069.87 51.8971 1069.66 56.349ZM1154.62 58.8773C1154.15 58.8773 1153.94 59.3475 1153.77 60.1628C1153.17 62.9475 1152.52 63.5888 1151.71 63.5888C1150.81 63.5888 1149.95 62.2178 1149.74 59.4361C1149.57 57.2528 1149.61 53.2253 1149.83 49.2436C1149.87 48.4314 1149.66 47.6161 1147.43 46.8039C1146.49 46.4619 1145.12 45.9459 1144.43 47.6161C1142.5 52.2849 1141.73 56.0101 1141.56 57.5093C1141.56 57.5948 1141.48 57.5948 1141.43 57.4238C1141.3 56.2238 1141.05 54.0406 1141.05 49.4146C1141.05 48.5139 1140.83 47.7444 1139.85 47.1032C1139.21 46.6757 1137.23 45.9886 1136.55 46.8467C1135.95 47.5306 1135.22 49.4177 1134.5 51.6864C1133.9 53.4849 1133.47 54.7276 1133.47 54.7276C1133.47 54.7276 1133.47 49.8452 1133.47 47.9612C1133.47 47.2772 1133 47.0177 1132.82 46.9749C1132.18 46.8039 1130.9 46.4619 1130.34 46.4619C1129.66 46.4619 1129.48 46.8467 1129.48 47.4054C1129.48 47.4909 1129.4 53.8727 1129.4 58.3246C1129.4 58.5383 1129.4 58.7093 1129.4 58.9658C1129.01 61.0208 1127.81 63.8056 1126.49 63.8056C1125.16 63.8056 1124.56 62.6483 1124.56 57.3383C1124.56 54.2544 1124.64 52.8834 1124.69 50.6574C1124.73 49.3719 1124.77 48.3887 1124.77 48.1322C1124.77 47.4482 1123.57 47.1032 1123.02 46.9749C1122.46 46.8467 1121.99 46.8039 1121.6 46.8039C1121.05 46.8467 1120.7 47.1887 1120.7 47.6619C1120.7 47.9184 1120.7 48.4314 1120.7 48.4314C1120.02 47.3596 1118.9 46.5902 1118.18 46.3764C1116.21 45.778 1114.11 46.2909 1112.53 48.5169C1111.28 50.2726 1110.51 52.2421 1110.21 55.0696C1110 57.1246 1110.09 59.2223 1110.47 61.0208C1110 63.033 1109.14 63.8483 1108.2 63.8483C1106.83 63.8483 1105.85 61.6223 1105.98 57.7658C1106.06 55.2406 1106.57 53.4391 1107.13 50.8711C1107.39 49.7566 1107.18 49.2009 1106.71 48.6452C1106.28 48.1322 1105.33 47.8757 1103.96 48.2177C1102.98 48.4314 1101.61 48.6879 1100.37 48.8589C1100.37 48.8589 1100.45 48.5597 1100.49 48.0009C1100.84 45.1734 1097.75 45.4299 1096.77 46.3306C1096.17 46.8864 1095.78 47.4879 1095.66 48.6421C1095.4 50.4406 1096.9 51.2986 1096.9 51.2986C1096.43 53.5246 1095.23 56.3948 1093.98 58.4926C1093.34 59.6071 1092.83 60.462 1092.19 61.32C1092.19 60.9781 1092.19 60.6788 1092.19 60.3338C1092.19 55.6651 1092.23 52.0253 1092.27 50.6971C1092.31 49.4116 1092.36 48.4284 1092.36 48.2146C1092.36 47.7016 1092.06 47.5306 1091.46 47.2711C1090.9 47.0574 1090.26 46.9291 1089.62 46.8436C1088.76 46.7581 1088.29 47.2283 1088.29 47.7444C1088.29 47.8299 1088.29 48.4711 1088.29 48.4711C1087.6 47.3993 1086.49 46.6299 1085.76 46.4161C1083.79 45.8177 1081.69 46.3306 1080.11 48.5566C1078.87 50.3123 1078.06 52.752 1077.8 55.0666C1077.58 57.2498 1077.63 59.091 1077.93 60.6758C1077.63 62.2605 1076.68 63.888 1075.66 63.888C1074.33 63.888 1073.6 62.7307 1073.6 57.4208C1073.6 54.3368 1073.69 52.9658 1073.73 50.7398C1073.77 49.4543 1073.82 48.4711 1073.82 48.2146C1073.82 47.5306 1072.62 47.1856 1072.06 47.0574C1071.46 46.9291 1070.99 46.8864 1070.6 46.8864C1070.09 46.9291 1069.75 47.3993 1069.75 47.6986V48.4681C1069.06 47.3963 1067.95 46.6268 1067.22 46.4131C1065.25 45.8146 1063.15 46.3703 1061.57 48.5535C1060.54 49.9673 1059.73 51.552 1059.26 55.0635C1059.13 56.0925 1059.09 57.033 1059.09 57.891C1058.66 60.4162 1056.86 63.2865 1055.36 63.2865C1054.5 63.2865 1053.65 61.6162 1053.65 58.0193C1053.65 53.2223 1053.95 46.4558 1053.99 45.7719C1053.99 45.7719 1055.87 45.7291 1056.22 45.7291C1057.16 45.7291 1058.02 45.7291 1059.26 45.6864C1059.9 45.6436 1060.5 43.4176 1059.86 43.1153C1059.56 42.9871 1057.5 42.9016 1056.69 42.8589C1056 42.8589 1054.07 42.6879 1054.07 42.6879C1054.07 42.6879 1054.24 38.1901 1054.29 37.6771C1054.33 37.2924 1053.82 37.0787 1053.52 36.9504C1052.79 36.6512 1052.15 36.5229 1051.42 36.3519C1050.35 36.1382 1049.88 36.3519 1049.79 37.2527C1049.66 38.581 1049.58 42.5199 1049.58 42.5199C1048.81 42.5199 1046.15 42.3489 1045.38 42.3489C1044.66 42.3489 1043.88 45.4329 1044.87 45.4757C1046.03 45.5184 1048 45.5612 1049.33 45.6039C1049.33 45.6039 1049.28 52.4986 1049.28 54.6391C1049.28 54.8528 1049.28 55.0666 1049.28 55.2803C1048.56 59.0483 1045.98 61.1033 1045.98 61.1033C1046.54 58.6208 1045.43 56.7338 1043.41 55.1521C1042.69 54.5536 1041.19 53.4391 1039.56 52.2391C1039.56 52.2391 1040.5 51.2956 1041.36 49.4116C1041.96 48.0833 1042 46.5413 1040.5 46.1993C1038.06 45.6436 1036.09 47.4421 1035.49 49.3261C1035.02 50.7826 1035.28 51.8971 1036.17 53.0085C1036.26 53.094 1036.3 53.1795 1036.39 53.265C1035.83 54.3368 1035.1 55.7475 1034.46 56.8193C1032.71 59.8605 1031.38 62.3002 1030.35 62.3002C1029.54 62.3002 1029.54 59.8605 1029.54 57.546C1029.54 55.5765 1029.67 52.578 1029.8 49.494C1029.84 48.465 1029.32 47.9093 1028.47 47.3535C1027.95 47.0543 1026.84 46.41 1026.2 46.41C1025.25 46.41 1022.47 46.5383 1019.86 54.12C1019.52 55.0635 1018.87 56.8193 1018.87 56.8193L1018.92 47.6986C1018.92 47.4848 1018.79 47.2711 1018.53 47.1429C1018.1 46.8864 1016.9 46.4161 1015.87 46.4161C1015.36 46.4161 1015.15 46.6299 1015.15 47.1001L1015.06 61.3597C1015.06 62.4315 1015.1 63.714 1015.19 64.2727C1015.28 64.8285 1015.49 65.259 1015.7 65.5582C1015.92 65.8147 1016.17 66.0285 1016.56 66.114C1016.95 66.1995 1019 66.456 1019.13 65.6865C1019.26 64.743 1019.26 63.717 1020.38 59.8636C1022.09 53.8666 1024.27 50.9566 1025.34 49.9276C1025.51 49.7566 1025.73 49.7566 1025.73 50.0131C1025.69 51.3414 1025.51 54.5963 1025.43 57.378C1025.13 64.8285 1026.5 66.1995 1028.43 66.1995C1029.93 66.1995 1031.98 64.743 1034.25 61.0178C1035.66 58.7063 1036.99 56.4345 1037.98 54.7643C1038.66 55.4055 1039.43 56.0498 1040.16 56.7765C1041.91 58.4467 1042.51 60.0315 1042.13 61.5735C1041.83 62.7307 1040.71 63.9277 1038.74 62.7735C1038.19 62.4315 1037.93 62.175 1037.33 61.7872C1037.03 61.5735 1036.56 61.5307 1036.26 61.7445C1035.53 62.3002 1035.1 63.03 1034.85 63.885C1034.63 64.743 1035.44 65.1705 1036.34 65.5979C1037.11 65.9399 1038.74 66.2392 1039.81 66.2819C1043.88 66.4102 1047.14 64.3124 1049.41 58.8742C1049.79 63.543 1051.55 66.1964 1054.55 66.1964C1056.56 66.1964 1058.57 63.5827 1059.47 61.0575C1059.73 62.0865 1060.11 63.0269 1060.59 63.7567C1062.9 67.4392 1067.4 66.627 1069.66 63.5002C1070.35 62.5567 1070.48 62.172 1070.48 62.172C1070.82 65.1277 1073.18 66.1537 1074.54 66.1537C1076.09 66.1537 1077.63 65.4269 1078.74 62.9414C1078.87 63.1979 1079 63.4544 1079.17 63.7109C1081.48 67.3934 1085.98 66.5812 1088.24 63.4544C1088.33 63.3262 1088.46 63.1552 1088.54 63.0697L1088.63 64.9964C1088.63 64.9964 1087.34 66.1964 1086.53 66.9231C1083.06 70.1354 1080.41 72.5323 1080.19 75.3598C1079.94 78.9568 1082.85 80.2851 1085.07 80.4561C1087.43 80.627 1089.44 79.3415 1090.64 77.5431C1091.71 75.9583 1092.44 72.5323 1092.4 69.1064C1092.4 67.7354 1092.35 66.0224 1092.31 64.1811C1093.55 62.7674 1094.93 60.9689 1096.17 58.8712C1097.54 56.6025 1099.04 53.5185 1099.8 51.1185C1099.8 51.1185 1101.09 51.1185 1102.46 51.033C1102.89 50.9902 1103.02 51.0757 1102.93 51.4177C1102.85 51.8024 1101.18 58.1414 1102.68 62.3368C1103.7 65.2071 1106.02 66.1476 1107.39 66.1476C1108.97 66.1476 1110.51 64.9476 1111.33 63.1491C1111.41 63.3628 1111.54 63.5338 1111.62 63.7048C1113.94 67.3873 1118.43 66.575 1120.7 63.4483C1121.22 62.7643 1121.51 62.12 1121.51 62.12C1121.99 65.1613 1124.39 66.1018 1125.71 66.1018C1127.12 66.1018 1128.45 65.5033 1129.56 62.9323C1129.61 64.0468 1129.69 64.9872 1129.78 65.2865C1129.86 65.4575 1130.25 65.6712 1130.55 65.7995C1131.83 66.2697 1133.16 66.056 1133.63 65.9705C1133.97 65.885 1134.23 65.6285 1134.27 64.9414C1134.36 63.1002 1134.31 60.0162 1134.87 57.7048C1135.81 53.8513 1136.67 52.352 1137.1 51.6223C1137.31 51.1948 1137.61 51.152 1137.61 51.5795C1137.61 52.4803 1137.65 55.091 1138.04 58.5597C1138.29 61.1307 1138.68 62.6697 1138.94 63.143C1139.71 64.514 1140.69 64.5995 1141.46 64.5995C1141.98 64.5995 1143.01 64.4712 1142.92 63.5704C1142.88 63.143 1142.96 60.4865 1143.86 56.7185C1144.46 54.236 1145.49 52.007 1145.83 51.1948C1145.96 50.8956 1146.05 51.152 1146.05 51.1948C1145.96 52.9078 1145.79 58.4742 1146.47 61.5582C1147.42 65.7109 1150.16 66.1415 1151.1 66.1415C1153.11 66.1415 1154.78 64.5995 1155.34 60.5323C1155.44 59.604 1155.26 58.8773 1154.62 58.8773Z" fill="#004B23" />
                        <path d="M1281.31 41.9042C1280.05 43.3997 1278.03 44.5793 1276.01 44.4108C1275.76 42.3887 1276.75 40.2402 1277.9 38.9132C1279.17 37.3756 1281.38 36.2803 1283.17 36.196C1283.38 38.3024 1282.56 40.3666 1281.31 41.9042ZM1283.15 44.811C1280.22 44.6425 1277.71 46.475 1276.33 46.475C1274.92 46.475 1272.79 44.8952 1270.47 44.9374C1267.46 44.9795 1264.66 46.6856 1263.13 49.4028C1259.97 54.8372 1262.31 62.8834 1265.36 67.3067C1266.85 69.4973 1268.64 71.8985 1271 71.8142C1273.23 71.73 1274.12 70.3609 1276.81 70.3609C1279.53 70.3609 1280.3 71.8142 1282.66 71.7721C1285.1 71.73 1286.64 69.5815 1288.13 67.3909C1289.84 64.9055 1290.53 62.4832 1290.58 62.3568C1290.53 62.3147 1285.86 60.5243 1285.82 55.132C1285.78 50.6245 1289.5 48.476 1289.67 48.3496C1287.57 45.2322 1284.28 44.8952 1283.15 44.811ZM1300.05 38.7026V71.5404H1305.14V60.3136H1312.19C1318.64 60.3136 1323.16 55.8903 1323.16 49.487C1323.16 43.0838 1318.72 38.7026 1312.36 38.7026H1300.05ZM1305.14 42.9995H1311.02C1315.44 42.9995 1317.96 45.3586 1317.96 49.5081C1317.96 53.6576 1315.44 56.0378 1311 56.0378H1305.14V42.9995ZM1332.47 71.7932C1335.67 71.7932 1338.63 70.1713 1339.98 67.6016H1340.09V71.5404H1344.8V55.1952C1344.8 50.456 1341.01 47.4018 1335.18 47.4018C1329.77 47.4018 1325.77 50.4981 1325.62 54.7529H1330.21C1330.59 52.7308 1332.47 51.4038 1335.03 51.4038C1338.15 51.4038 1339.9 52.8572 1339.9 55.5322V57.3437L1333.54 57.7228C1327.62 58.0809 1324.42 60.5032 1324.42 64.7159C1324.42 68.9707 1327.73 71.7932 1332.47 71.7932ZM1333.83 67.8965C1331.12 67.8965 1329.39 66.5905 1329.39 64.5895C1329.39 62.5253 1331.06 61.3247 1334.23 61.1351L1339.9 60.777V62.6306C1339.9 65.7059 1337.29 67.8965 1333.83 67.8965ZM1351.1 80.4713C1356.06 80.4713 1358.4 78.5756 1360.44 72.8253L1369.39 47.7177H1364.21L1358.21 67.1171H1358.1L1352.11 47.7177H1346.78L1355.41 71.6247L1354.95 73.0781C1354.17 75.5425 1352.91 76.4903 1350.65 76.4903C1350.25 76.4903 1349.47 76.4482 1349.16 76.4061V80.3449C1349.45 80.4292 1350.72 80.4713 1351.1 80.4713Z" fill="#004B23" />
                        <path d="M1489.66 51.2384V50.3258C1486.61 50.3258 1483.4 50.9763 1483.4 54.5658C1483.4 56.3842 1484.34 57.6154 1485.95 57.6154C1487.14 57.6154 1488.2 56.888 1488.87 55.7043C1489.7 54.2473 1489.66 52.8784 1489.66 51.2384ZM1493.9 61.5007C1493.62 61.7492 1493.22 61.7673 1492.91 61.6024C1491.51 60.4413 1491.26 59.9014 1490.49 58.7945C1488.18 61.1529 1486.55 61.8577 1483.55 61.8577C1480.01 61.8577 1477.25 59.671 1477.25 55.2954C1477.25 51.8777 1479.1 49.5509 1481.74 48.4124C1484.02 47.4072 1487.22 47.2288 1489.66 46.9509V46.4065C1489.66 45.4035 1489.73 44.2198 1489.15 43.3547C1488.63 42.5798 1487.65 42.2591 1486.78 42.2591C1485.18 42.2591 1483.74 43.0836 1483.4 44.7891C1483.32 45.1686 1483.05 45.5413 1482.67 45.5594L1478.58 45.1212C1478.24 45.0444 1477.86 44.7642 1477.95 44.2379C1478.89 39.2863 1483.37 37.7954 1487.37 37.7954C1489.42 37.7954 1492.1 38.3398 1493.71 39.8917C1495.76 41.8028 1495.57 44.3554 1495.57 47.1339V53.6961C1495.57 55.6682 1496.38 56.5333 1497.15 57.5996C1497.43 57.9768 1497.49 58.4331 1497.14 58.7177C1496.28 59.4338 1494.76 60.7666 1493.91 61.512H1493.9M1544.86 51.2384V50.3258C1541.81 50.3258 1538.59 50.9763 1538.59 54.5658C1538.59 56.3842 1539.54 57.6154 1541.16 57.6154C1542.33 57.6154 1543.4 56.888 1544.07 55.7043C1544.9 54.2473 1544.86 52.8784 1544.86 51.2384ZM1549.1 61.5007C1548.82 61.7492 1548.42 61.7673 1548.11 61.6024C1546.71 60.4413 1546.46 59.9014 1545.69 58.7945C1543.38 61.1529 1541.74 61.8577 1538.75 61.8577C1535.2 61.8577 1532.45 59.671 1532.45 55.2954C1532.45 51.8777 1534.3 49.5509 1536.94 48.4124C1539.22 47.4072 1542.42 47.2288 1544.86 46.9509V46.4065C1544.86 45.4035 1544.93 44.2198 1544.34 43.3547C1543.83 42.5798 1542.85 42.2591 1541.98 42.2591C1540.37 42.2591 1538.95 43.0836 1538.6 44.7891C1538.53 45.1686 1538.25 45.5413 1537.86 45.5594L1533.78 45.1212C1533.44 45.0444 1533.05 44.7642 1533.15 44.2379C1534.09 39.2863 1538.57 37.7954 1542.57 37.7954C1544.62 37.7954 1547.3 38.3398 1548.91 39.8917C1550.96 41.8028 1550.77 44.3554 1550.77 47.1339V53.6961C1550.77 55.6682 1551.59 56.5333 1552.36 57.5996C1552.62 57.9768 1552.68 58.4331 1552.33 58.7177C1551.47 59.4338 1549.95 60.7666 1549.1 61.512M1600.96 61.5595H1596.77C1596.34 61.5301 1596.01 61.1935 1596.01 60.7779V39.1621C1596.04 38.7668 1596.39 38.4573 1596.82 38.4573H1600.72C1601.09 38.4799 1601.39 38.7238 1601.47 39.0627V42.3675H1601.55C1602.73 39.4106 1604.38 38.001 1607.29 38.001C1609.18 38.001 1611.02 38.6832 1612.21 40.5491C1613.31 42.2772 1613.31 45.1844 1613.31 47.2762V60.8795C1613.26 61.259 1612.91 61.5595 1612.5 61.5595H1608.27C1607.89 61.5301 1607.57 61.2455 1607.53 60.8795V49.1421C1607.53 46.7792 1607.8 43.3208 1604.89 43.3208C1603.87 43.3208 1602.93 44.0075 1602.46 45.0489C1601.86 46.3704 1601.79 47.6851 1601.79 49.1421V60.7779C1601.79 61.2116 1601.42 61.5595 1600.97 61.5595M1583.23 38.001C1589.47 38.001 1592.86 43.3682 1592.86 50.1902C1592.86 56.7818 1589.12 62.0113 1583.23 62.0113C1577.09 62.0113 1573.75 56.644 1573.75 49.9598C1573.75 43.2304 1577.13 38.001 1583.23 38.001ZM1583.26 42.4149C1580.16 42.4149 1579.96 46.6414 1579.96 49.2776C1579.96 51.9183 1579.92 57.5566 1583.23 57.5566C1586.49 57.5566 1586.64 53.0094 1586.64 50.2377C1586.64 48.4124 1586.57 46.2348 1586.02 44.5045C1585.54 43 1584.6 42.4149 1583.26 42.4149ZM1505.4 61.5595H1501.19C1500.79 61.5301 1500.47 61.2297 1500.44 60.8434V39.2344C1500.44 38.8006 1500.8 38.4573 1501.25 38.4573H1505.18C1505.59 38.4799 1505.91 38.7893 1505.94 39.1801V42.0061H1506.02C1507.04 39.275 1508.97 38.001 1511.56 38.001C1514.2 38.001 1515.84 39.275 1517.03 42.0061C1518.05 39.275 1520.36 38.001 1522.84 38.001C1524.61 38.001 1526.54 38.7306 1527.72 40.3638C1529.05 42.1823 1528.78 44.8252 1528.78 47.1407V60.7779C1528.78 61.2116 1528.42 61.5595 1527.97 61.5595H1523.76C1523.34 61.5301 1523 61.1935 1523 60.7779V49.325C1523 48.4124 1523.09 46.1399 1522.89 45.2748C1522.57 43.8223 1521.63 43.4157 1520.41 43.4157C1519.39 43.4157 1518.32 44.0956 1517.89 45.1844C1517.46 46.2755 1517.5 48.0984 1517.5 49.325V60.7779C1517.5 61.2116 1517.14 61.5595 1516.69 61.5595H1512.49C1512.06 61.5301 1511.73 61.1935 1511.73 60.7779V49.325C1511.73 46.9148 1512.12 43.3682 1509.13 43.3682C1506.11 43.3682 1506.23 46.8267 1506.23 49.325V60.7779C1506.23 61.2116 1505.86 61.5595 1505.41 61.5595M1555.89 42.2726V39.1801C1555.89 38.7125 1556.25 38.3985 1556.67 38.3985H1570.51C1570.96 38.3985 1571.31 38.7193 1571.31 39.1801V41.8276C1571.31 42.2726 1570.93 42.8532 1570.27 43.7703L1563.1 54.0101C1565.76 53.9446 1568.57 54.3422 1570.99 55.7043C1571.54 56.0115 1571.69 56.461 1571.73 56.9061V60.2041C1571.73 60.6536 1571.23 61.1822 1570.71 60.9089C1566.45 58.6771 1560.79 58.4331 1556.09 60.9338C1555.61 61.1935 1555.1 60.6717 1555.1 60.2222V57.089C1555.1 56.5853 1555.1 55.7269 1555.61 54.9634L1563.92 43.0475H1556.69C1556.25 43.0475 1555.89 42.7335 1555.89 42.2726ZM1564.94 66.0977C1563.93 64.8056 1558.26 65.4878 1555.71 65.7882C1554.94 65.8831 1554.82 65.2077 1555.52 64.722C1560.04 61.5437 1567.45 62.4608 1568.32 63.527C1569.18 64.5978 1568.09 72.0319 1563.84 75.5785C1563.19 76.1229 1562.57 75.8337 1562.86 75.1109C1563.82 72.7299 1565.95 67.3943 1564.94 66.0977ZM1561.65 69.8566C1562.96 68.8852 1561.84 67.4418 1560.5 68.0088C1551.64 71.7699 1542.01 73.5816 1533.25 73.5816C1520.26 73.5816 1507.69 70.0237 1497.52 64.1076C1496.63 63.5857 1495.97 64.4984 1496.71 65.167C1506.13 73.6764 1518.59 78.7952 1532.42 78.7952C1542.29 78.7952 1553.75 75.6846 1561.65 69.8566Z" fill="#004B23" />
                    </g>
                    <defs>
                        <clipPath id="clip0_206_932">
                            <rect width="1512" height="115.116" fill="white" transform="translate(-0.00012207 0.775879)" />
                        </clipPath>
                        <clipPath id="clip1_206_932">
                            <rect width="154.112" height="44.2753" fill="white" transform="translate(-70.8405 36.196)" />
                        </clipPath>
                        <clipPath id="clip2_206_932">
                            <rect width="181.361" height="38.7409" fill="white" transform="translate(189.532 41.7305)" />
                        </clipPath>
                        <clipPath id="clip3_206_932">
                            <rect width="177.101" height="44.2753" fill="white" transform="translate(715.671 36.196)" />
                        </clipPath>
                    </defs>
                </svg>