<svg width="32" height="34" viewBox="0 0 32 34" fill="none" xmlns="http://www.w3.org/2000/svg">
<path d="M12.5845 0.574665C3.54747 1.37916 -1.19825 8.71757 0.389494 16.9371C0.30062 17.5996 0.374637 18.3231 0.700099 19.1287C3.87461 26.9913 11.5573 35.0683 20.911 32.6105C28.9336 30.5055 32.7188 20.6285 31.0756 13.0665C29.3108 4.80513 20.7117 -0.145043 12.5845 0.574665ZM18.997 23.466C14.779 24.5067 11.2469 20.0803 9.88837 16.5931C9.77655 16.3023 9.63381 16.0332 9.47686 15.7833C8.66744 11.8553 10.4174 9.04804 14.9735 8.89645C18.8845 8.77297 22.8787 11.1485 23.7457 15.1192C24.4969 18.5434 22.5876 22.5704 18.997 23.466Z" fill="#E3DBD8" fill-opacity="0.3"/>
</svg>
