<svg width="235" height="162" viewBox="0 0 235 162" fill="none" xmlns="http://www.w3.org/2000/svg">
<path d="M116.767 17.4342C101.856 17.4342 86 14.3761 86 8.71709C86 3.05813 101.856 0 116.767 0C131.678 0 147.534 3.05813 147.534 8.71709C147.534 14.3761 131.678 17.4342 116.767 17.4342ZM116.767 1.42903C99.4801 1.42903 87.431 5.25884 87.431 8.71709C87.431 12.1753 99.4801 16.0051 116.767 16.0051C134.053 16.0051 146.103 12.1753 146.103 8.71709C146.103 5.25884 134.053 1.42903 116.767 1.42903Z" fill="#FFB700"/>
<path d="M0 161.511L43.9035 84H184.5V161.511H0Z" fill="#FFB700"/>
<path d="M234.5 84L190.596 161.511H50V84H234.5Z" fill="#FFB700"/>
<path d="M119 12H116V105H119V12Z" fill="#FFB700"/>
</svg>
