<svg width="551" height="530" viewBox="0 0 551 530" fill="none" xmlns="http://www.w3.org/2000/svg">
<path d="M548.906 220.107C560.052 156.131 521.153 84.6224 455.958 69.7526C419.16 61.3741 380.236 69.9808 345.358 82.2838C313.815 93.4073 288.73 114.924 260.242 130.454C233.884 73.6511 204.377 15.2411 136.503 2.31409C73.2629 -9.76995 20.4409 31.7373 5.65054 92.0842C-10.7326 158.968 16.4583 227.17 51.1079 283.53C87.6066 342.956 129.436 399.355 171.426 455.365C171.372 455.405 171.319 455.445 171.225 455.499C150.894 469.446 173.202 499.112 194.016 490.361C194.941 489.986 195.851 489.571 196.775 489.196C205.283 500.58 213.738 511.937 222.138 523.335C233.38 538.63 261.05 521.05 250.519 504.804C243.927 494.612 237.321 484.446 230.729 474.254C291.912 446.234 352.156 413.124 408.703 377.898C467.741 341.105 536.074 293.822 548.906 220.107ZM133.87 326.767C104.112 282.462 71.8079 236.818 56.0594 185.25C41.5306 137.741 42.3856 52.482 108.931 47.4333C178.503 42.1563 203.754 122.548 227.097 172.453C232.886 184.856 246.911 188.35 258.939 183.78C320.806 160.22 362.306 103.646 436.757 113.665C473.715 118.641 498.877 151.507 502.835 187.539C506.632 222.017 486.853 252.682 463.631 276.234C392.664 348.218 291.512 383.184 204.776 434.328C181.328 398.3 157.8 362.433 133.87 326.767Z" fill="#E3DBD8" fill-opacity="0.3"/>
</svg>
