<svg width="145" height="151" viewBox="0 0 145 151" fill="none" xmlns="http://www.w3.org/2000/svg">
<path fill-rule="evenodd" clip-rule="evenodd" d="M63.2 47.4962C51.4907 57.9712 30.8084 64.368 37.2189 79.9756C44.4686 97.6264 67.5842 105.543 85.7221 103.34C102.192 101.339 113.384 86.9106 115.702 70.441C118.002 54.1035 111.66 36.3907 96.1323 29.0158C82.9897 22.7738 73.2953 38.4651 63.2 47.4962Z" fill="#FFB700" fill-opacity="0.49"/>
<path fill-rule="evenodd" clip-rule="evenodd" d="M47.9166 52.1704C35.1241 63.6144 12.5287 70.6029 19.5322 87.6542C27.4525 106.938 52.7063 115.587 72.522 113.18C90.5149 110.994 102.743 95.2307 105.276 77.2377C107.788 59.3889 100.86 40.0376 83.8952 31.9804C69.5369 25.161 58.9458 42.3039 47.9166 52.1704Z" stroke="#FFB700" stroke-width="2"/>
</svg>
