<svg width="200" height="112" viewBox="0 0 200 112" fill="none" xmlns="http://www.w3.org/2000/svg">
<path d="M156.561 76.826C170.596 71.0014 182 61.437 188.799 51.4991C191.897 47.0517 194.38 42.2307 196.142 37.2397C197.514 33.4622 198.419 29.6129 198.829 25.8051C199.087 23.3664 199.11 20.9633 198.898 18.6344C198.7 17.0391 198.537 16.2418 198.432 16.2601C198.326 16.2785 198.613 19.6724 197.653 25.829C196.247 34.3986 192.573 42.9062 187.088 50.2952C180.426 59.5811 169.331 68.3822 155.849 73.6661C148.723 76.4704 141.483 78.1401 134.386 78.6162C126.611 79.175 119.167 78.0416 112.486 75.2819C105.481 72.3417 99.7414 67.2629 95.8276 60.5407C93.652 56.8627 92.1928 52.6424 91.5158 48.0702C94.4228 48.6321 97.4501 49.2568 100.658 49.7065C104.468 50.3116 108.448 50.3626 112.502 49.8583C116.755 49.2896 121.053 47.7247 125.096 45.2737C129.223 42.8218 132.962 39.4486 136.002 35.435C139.041 31.4215 141.293 26.8839 142.57 22.2004C143.93 16.9171 143.598 11.7026 141.632 7.46203C140.503 5.11289 138.745 3.27034 136.531 2.11466C134.392 1.0567 131.967 0.545797 129.407 0.613425C127.103 0.649037 124.754 0.9431 122.396 1.49112C120.089 2.00014 117.783 2.69627 115.496 3.57335C113.238 4.40672 111.007 5.43306 108.826 6.64147C106.641 7.82731 104.521 9.21939 102.497 10.798C100.47 12.3657 98.5715 14.1514 96.8414 16.1176C95.0652 18.0465 93.4827 20.1661 92.1343 22.4223C89.4193 26.9516 87.6106 31.8788 86.8555 36.8032C86.6392 38.1592 86.4928 39.51 86.4171 40.849C84.949 40.6396 83.4708 40.4699 81.9958 40.3729C75.6143 39.9647 68.903 41.1164 62.325 43.7484C56.9185 45.927 51.6671 48.9255 46.7503 52.6413C39.3238 58.3281 32.6363 65.2343 27.0198 73.0168C23.2492 78.1514 19.789 83.5057 16.669 89.0334C14.1838 93.3689 12.4557 96.7003 11.221 99.1903C10.2344 101.155 9.52228 102.66 9.04025 103.768L8.96726 102.613C8.80659 101.135 8.49329 99.7157 8.03266 98.3797C7.27646 96.1987 6.24589 94.1916 4.9642 92.404C2.78853 89.4131 1.02301 88.0292 0.452273 88.4402C-0.118452 88.8513 0.650294 91.1375 1.94685 94.4823C2.70321 96.353 3.32936 98.3059 3.82125 100.328C4.09227 101.44 4.264 102.598 4.33447 103.791L4.37406 105.812C4.39169 106.223 4.41036 106.658 4.47862 107.153C4.55596 107.74 4.70633 108.297 4.92619 108.81C5.20265 109.44 5.62079 109.964 6.15133 110.345C6.68188 110.725 7.31201 110.954 7.99769 111.014C8.32796 111.037 8.6662 111.029 9.0086 110.989C9.35933 110.936 9.72014 110.843 9.89498 110.804L10.9864 110.462C12.3446 110.03 13.632 109.594 14.8598 109.138C17.0399 108.342 19.2043 107.422 21.3429 106.382C24.9611 104.594 27.0722 103.061 26.927 102.418C26.7817 101.774 24.3974 102.15 20.6822 103.048C18.8186 103.492 16.6316 104.08 14.2 104.727L11.9423 105.31C12.6751 104.289 13.5672 102.866 14.7772 100.898C16.2505 98.4852 18.1982 95.3347 20.7837 91.1414C23.9915 85.9376 27.4529 80.8819 31.1485 76.0024C36.4883 68.8592 42.7651 62.5224 49.6909 57.2828C54.1379 53.978 58.8732 51.308 63.7423 49.3599C69.4791 47.0725 75.3306 46.0793 80.8914 46.4491C82.79 46.5454 84.6847 46.8264 86.6513 47.1355C87.2755 53.1888 89.0996 58.7495 92.0115 63.4761C96.4233 70.7929 102.834 76.2724 110.614 79.3776C117.832 82.2139 125.852 83.2889 134.201 82.5392C141.663 81.8752 149.251 79.9473 156.69 76.825L156.561 76.826ZM91.716 36.8208C92.4028 32.6352 93.9815 28.4588 96.3239 24.6311C97.4657 22.7461 98.8068 20.9804 100.311 19.3807C101.826 17.735 103.476 16.244 105.228 14.9375C106.991 13.5856 108.836 12.3965 110.735 11.3873C112.67 10.3395 114.647 9.45264 116.646 8.73593C118.66 8.00072 120.689 7.42646 122.715 7.01825C124.712 6.56839 126.7 6.33003 128.65 6.30668C130.386 6.17449 132.027 6.50781 133.43 7.27752C134.833 8.04723 135.956 9.22988 136.7 10.7221C138.069 13.8632 138.258 17.6827 137.234 21.5373C136.771 23.4183 136.057 25.2771 135.117 27.0513C134.191 28.8577 133.079 30.5803 131.807 32.178C129.303 35.3423 126.295 38.0182 122.996 40.0154C119.697 42.0126 116.19 43.282 112.722 43.7334C109.183 44.1386 105.71 44.0721 102.382 43.5355C98.6414 43.0083 94.9698 42.1793 91.2914 41.4625C91.344 39.915 91.497 38.3486 91.7493 36.7744" fill="#FFB700"/>
</svg>
