<svg width="674" height="267" viewBox="0 0 674 267" fill="none" xmlns="http://www.w3.org/2000/svg">
<path d="M31.6823 259.398L29.8506 257.197L248.967 76.0815H674V78.9396H249.998L31.6823 259.398Z" fill="#38B000"/>
<path d="M30.7672 263.227C41.0415 263.227 49.3704 261.014 49.3704 258.283C49.3704 255.552 41.0415 253.338 30.7672 253.338C20.493 253.338 12.1641 255.552 12.1641 258.283C12.1641 261.014 20.493 263.227 30.7672 263.227Z" fill="#38B000"/>
<path d="M30.7668 267C15.8556 267 0 263.942 0 258.283C0 252.624 15.8556 249.566 30.7668 249.566C45.6779 249.566 61.5336 252.624 61.5336 258.283C61.5336 263.942 45.6779 267 30.7668 267ZM30.7668 250.995C13.4801 250.995 1.43101 254.825 1.43101 258.283C1.43101 261.741 13.4801 265.571 30.7668 265.571C48.0534 265.571 60.1026 261.741 60.1026 258.283C60.1026 254.825 48.0534 250.995 30.7668 250.995Z" fill="#38B000"/>
<path d="M433 77.5106L476.904 0H674V77.5106H433Z" fill="#38B000"/>
</svg>
