<svg width="30" height="47" viewBox="0 0 48 47" fill="none" xmlns="http://www.w3.org/2000/svg">
<rect width="46.5941" height="46.5941" rx="6.6563" transform="matrix(-1 0 0 1 47.5221 0.376465)" fill="url(#paint0_linear_195_485)"/>
<path d="M37.0902 23.8154V30.9863C37.0902 33.0743 31.6973 35.4154 24.4999 35.4154C17.3025 35.4154 11.9097 33.0743 11.9097 30.9863V23.8154L23.9124 31.8511C24.1012 31.9776 24.2901 32.0409 24.4999 32.0409C24.7098 32.0409 24.8986 31.9776 25.0875 31.8511L37.0902 23.8154Z" fill="white"/>
<path d="M23.4493 19.519C23.3862 20.1088 23.8065 20.6355 24.3739 20.6987L36.1 22.0048L24.5 29.757L10 20.0667L24.5 10.3765L39 20.0667L38.8109 20.172L24.6261 18.5921C24.0167 18.5289 23.5123 18.9502 23.4493 19.519Z" fill="white"/>
<defs>
<linearGradient id="paint0_linear_195_485" x1="23.297" y1="46.5941" x2="23.297" y2="0" gradientUnits="userSpaceOnUse">
<stop stop-color="#007200"/>
<stop offset="1" stop-color="#38B000"/>
</linearGradient>
</defs>
</svg>
