<svg width="185" height="156" viewBox="0 0 185 156" fill="none" xmlns="http://www.w3.org/2000/svg">
<g clip-path="url(#clip0_998_766)">
<path d="M176.878 104.539C163.262 108.451 148.781 110.067 134.578 108.836C128.833 108.336 122.632 107.01 117.859 103.567C113.087 100.124 110.692 94.699 111.909 89.0982C113.127 83.4973 117.033 79.2135 121.691 76.3994C126.349 73.5854 133.353 71.8213 138.676 74.205C143.999 76.5888 146.601 82.681 146.988 88.053C147.448 94.6357 144.198 100.733 139.383 105.007C128.839 114.377 113.747 113.787 100.693 110.88C86.341 107.68 72.7792 101.14 61.2567 91.9749C56.4376 88.1457 51.1101 83.0725 52.3625 76.3509C53.6149 69.6293 59.0646 65.6969 65.0159 63.7389C68.2606 62.6711 71.7092 62.1126 75.1247 61.8281C78.0106 61.5854 81.4787 61.4929 84.0098 63.1809C86.1293 64.5971 87.4858 67.4199 87.3633 69.922C87.2032 73.2603 84.3246 75.0773 81.3697 75.8515C75.5707 77.364 69.0375 77.2778 63.0924 76.6954C57.1472 76.1129 51.3204 74.7221 45.7404 72.6262C34.4641 68.396 24.2996 61.2484 16.5826 51.9985C14.6255 49.6489 12.8551 47.1747 11.2324 44.591C10.613 43.6093 9.24785 43.0424 8.12875 42.9858C7.39233 42.9548 6.08294 43.2749 6.69865 44.2824C21.4063 68.3143 50.9754 82.4842 78.7981 79.6349C82.3576 79.2665 86.3432 78.8408 89.3012 76.6832C91.8592 74.8131 92.7798 71.6357 91.9325 68.6153C89.8297 61.1033 81.4443 58.5991 74.4756 58.7899C67.5069 58.9807 58.8207 60.5935 53.1804 65.3972C47.9672 69.8332 45.641 76.968 48.919 83.3032C50.6132 86.5868 53.3713 89.2243 56.1691 91.5783C59.3678 94.2816 62.7677 96.7571 66.2904 99.0352C73.4938 103.673 81.2216 107.473 89.3107 110.28C97.3997 113.088 105.023 114.836 113.112 115.523C120.706 116.162 128.699 115.609 135.689 112.464C142.284 109.497 148.125 104.282 150.623 97.3933C152.905 91.1043 151.813 83.7012 147.783 78.285C138.982 66.4581 120.463 68.7603 111.669 79.0494C107.614 83.795 105.669 90.0924 107.955 96.1477C110.384 102.572 116.623 106.539 122.824 108.812C129.971 111.431 137.608 111.988 145.138 112.017C153.224 112.051 161.303 111.332 169.225 109.81C173.004 109.085 176.733 108.184 180.423 107.115C181.508 106.808 180.683 105.67 180.156 105.275C179.276 104.607 177.957 104.242 176.888 104.545L176.878 104.539Z" fill="#38B000"/>
</g>
<defs>
<clipPath id="clip0_998_766">
<rect width="179.2" height="64.6093" fill="white" transform="translate(147.162 155.312) rotate(-145.207)"/>
</clipPath>
</defs>
</svg>
