<svg width="48" height="47" viewBox="0 0 48 47" fill="none" xmlns="http://www.w3.org/2000/svg">
<path d="M15.7319 0.916657C2.91231 4.33737 -2.08905 16.0985 2.25559 27.5441C2.29333 28.5209 2.58105 29.5449 3.25158 30.6242C9.79319 41.1585 22.8841 50.8736 35.7461 44.9915C46.7786 39.9509 49.7607 24.7723 45.5007 14.2879C40.8905 2.82628 27.2618 -2.15418 15.7319 0.916657ZM30.6999 32.2947C24.8828 34.8497 18.686 29.3558 15.8559 24.6714C15.622 24.2804 15.349 23.9284 15.0603 23.6076C12.9111 18.1505 14.73 13.6677 21.2566 12.3092C26.8608 11.1525 33.2103 13.5757 35.4532 19.0798C37.3924 23.8256 35.6492 30.1057 30.6999 32.2947Z" fill="#E3DBD8" fill-opacity="0.3"/>
</svg>
