<svg width="705" height="592" viewBox="0 0 705 592" fill="none" xmlns="http://www.w3.org/2000/svg">
<path d="M608.906 282.107C620.052 218.131 581.153 146.623 515.957 131.753C479.16 123.374 440.236 131.981 405.358 144.284C373.815 155.408 348.73 176.924 320.242 192.454C293.883 135.651 264.377 77.2414 196.503 64.3143C133.263 52.2303 80.4408 93.7375 65.6505 154.084C49.2674 220.968 76.4582 289.17 111.108 345.53C147.607 404.957 189.436 461.355 231.426 517.365C231.372 517.405 231.319 517.445 231.225 517.499C210.894 531.447 233.202 561.112 254.016 552.362C254.94 551.986 255.851 551.571 256.775 551.196C265.283 562.58 273.738 573.937 282.138 585.335C293.379 600.63 321.05 583.051 310.519 566.804C303.927 556.612 297.321 546.447 290.729 536.254C351.912 508.234 412.156 475.124 468.703 439.899C527.741 403.105 596.074 355.822 608.906 282.107ZM193.87 388.767C164.111 344.462 131.808 298.818 116.059 247.25C101.53 199.741 102.386 114.482 168.931 109.434C238.503 104.157 263.754 184.548 287.097 234.454C292.886 246.856 306.911 250.35 318.939 245.78C380.806 222.22 422.306 165.646 496.757 175.665C533.715 180.641 558.876 213.508 562.835 249.539C566.632 284.017 546.853 314.682 523.63 338.234C452.664 410.218 351.512 445.184 264.776 496.329C241.328 460.301 217.8 424.433 193.87 388.767Z" fill="#E3DBD8" fill-opacity="0.3"/>
<path d="M595.557 463.208C553.354 490.836 511.326 518.585 469.807 547.258C459.789 554.171 471.165 571.878 481.652 565.366C525.461 538.206 568.615 510.149 611.728 481.905C625.001 473.236 608.736 454.593 595.557 463.208Z" fill="#E3DBD8" fill-opacity="0.3"/>
<path d="M95.3327 17.1565C104.935 9.66697 92.5157 -4.74371 82.9397 2.82619C16.8051 55.092 -12.4338 140.262 12.1206 221.378C14.6538 229.776 28.0082 227.911 25.9304 218.937C8.15466 142.616 33.1489 65.604 95.3327 17.1565Z" fill="#E3DBD8" fill-opacity="0.3"/>
<path d="M702.535 422.682C707.864 408.202 700.722 393.683 686.669 387.899C676.14 383.574 660.535 386.39 655.983 397.776C652.634 396.973 648.321 398.702 646.755 401.971C639.417 417.256 650.11 435.39 665.234 441.107C680.773 446.998 696.952 437.806 702.535 422.682ZM685.791 417.796C682.349 423.476 675.786 426.023 669.811 422.501C664.279 419.234 661.478 412.108 660.552 405.786C661.731 405.504 662.789 404.66 663.378 403.079C667.689 391.438 694.468 403.516 685.791 417.796Z" fill="#E3DBD8" fill-opacity="0.3"/>
<path d="M38.2501 268.724C24.3179 260.689 9.95955 266.505 3.89412 280.049C3.09059 280.92 2.46123 282.045 2.11324 283.545C-1.28639 298.187 1.63729 317.729 17.7123 323.687C31.4966 328.801 47.0462 318.324 52.3617 305.678C58.2128 291.893 50.7757 275.955 38.2501 268.724ZM24.2463 308.469C17.0661 305.684 16.4481 295.665 18.0275 289.222C18.1613 288.686 18.2282 288.15 18.2549 287.628C21.08 281.104 26.4778 278.812 33.243 283.231C39.0437 287.035 42.4206 294.548 39.6357 301.193C37.2391 306.926 30.3682 310.826 24.2463 308.469Z" fill="#E3DBD8" fill-opacity="0.3"/>
</svg>
