<svg width="20" height="58" viewBox="0 0 20 58" fill="none" xmlns="http://www.w3.org/2000/svg">
<path d="M58.5352 37.6822C63.8638 23.2013 56.7216 8.6825 42.6693 2.89847C32.14 -1.42617 16.5354 1.38963 11.9833 12.7762C8.63437 11.9731 4.3215 13.7018 2.75489 16.9705C-4.58273 32.2554 6.10976 50.3902 21.2337 56.1071C36.7729 61.998 52.9523 52.8061 58.5352 37.6822ZM41.7907 32.7961C38.3492 38.4762 31.7861 41.0224 25.8113 37.5007C20.2786 34.2333 17.4778 27.1077 16.5524 20.7855C17.7311 20.504 18.7891 19.6599 19.3782 18.0792C23.6893 6.43822 50.468 18.5155 41.7907 32.7961Z" fill="#E3DBD8" fill-opacity="0.3"/>
</svg>
