<svg width="29" height="26" viewBox="0 0 29 26" fill="none" xmlns="http://www.w3.org/2000/svg">
<path d="M27.0902 13.8154V20.9863C27.0902 23.0743 21.6973 25.4154 14.4999 25.4154C7.30249 25.4154 1.90967 23.0743 1.90967 20.9863V13.8154L13.9124 21.8511C14.1012 21.9776 14.2901 22.0409 14.4999 22.0409C14.7098 22.0409 14.8986 21.9776 15.0875 21.8511L27.0902 13.8154Z" fill="white"/>
<path d="M13.4493 9.519C13.3862 10.1088 13.8065 10.6355 14.3739 10.6987L26.1 12.0048L14.5 19.757L0 10.0667L14.5 0.376465L29 10.0667L28.8109 10.172L14.6261 8.59211C14.0167 8.52891 13.5123 8.95023 13.4493 9.519Z" fill="white"/>
</svg>
