<svg width="36" height="39" viewBox="0 0 36 39" fill="none" xmlns="http://www.w3.org/2000/svg">
<path d="M15.8352 8.34984L4.08359 20.1015C3.64548 20.5396 3.12955 20.7586 2.53578 20.7586C1.94201 20.7586 1.42711 20.5396 0.991057 20.1015C0.55501 19.6634 0.336471 19.1479 0.335441 18.5552C0.33441 17.9625 0.552949 17.447 0.991058 17.0089L16.4537 1.54627C16.8918 1.10816 17.4073 0.88962 18 0.89065C18.5927 0.891681 19.1082 1.11022 19.5463 1.54627L35.0089 17.0089C35.447 17.4471 35.6661 17.963 35.6661 18.5568C35.6661 19.1505 35.447 19.6654 35.0089 20.1015C34.5708 20.5375 34.0549 20.7566 33.4611 20.7586C32.8674 20.7607 32.3525 20.5416 31.9164 20.1015L20.1648 8.34984L20.1648 35.8734C20.1648 36.4404 19.9457 36.9429 19.5076 37.381C19.0695 37.8191 18.567 38.0382 18 38.0382C17.433 38.0382 16.9305 37.8191 16.4924 37.381C16.0543 36.9429 15.8352 36.4404 15.8352 35.8734L15.8352 8.34984Z" fill="white"/>
</svg>
