<svg width="17" height="17" viewBox="0 0 17 17" fill="none" xmlns="http://www.w3.org/2000/svg">
<path d="M9.76741 14.7811L4.08254 9.11314C4.01507 9.04566 3.96716 8.97256 3.93882 8.89384C3.91048 8.81512 3.89653 8.73077 3.89698 8.6408C3.89698 8.55084 3.91093 8.46649 3.93882 8.38777C3.96671 8.30905 4.01462 8.23595 4.08254 8.16847L9.76741 2.4836C9.92485 2.32616 10.1217 2.24744 10.3578 2.24744C10.594 2.24744 10.7964 2.33178 10.9651 2.50047C11.1338 2.66916 11.2181 2.86597 11.2181 3.09089C11.2181 3.31581 11.1338 3.51261 10.9651 3.68131L6.00561 8.6408L10.9651 13.6003C11.1226 13.7577 11.2013 13.9519 11.2013 14.1826C11.2013 14.4134 11.1169 14.6129 10.9482 14.7811C10.7796 14.9498 10.5827 15.0342 10.3578 15.0342C10.1329 15.0342 9.9361 14.9498 9.76741 14.7811Z" fill="#FFB700"/>
</svg>
