<svg width="1213" height="455" viewBox="0 0 1213 455" fill="none" xmlns="http://www.w3.org/2000/svg">
<path d="M1211.56 63.4555H-75.2M1211.56 147.011H-75.2M1211.56 230.567H-75.2M1211.56 314.122H-75.2M1211.56 397.678H-75.2M1211.56 481.233H-75.2M1138.44 0.788818V543.9M1050.71 0.788818V543.9M962.978 0.788818V543.9M875.244 0.788818V543.9M787.511 0.788818V543.9M699.778 0.788818V543.9M612.044 0.788818V543.9M524.311 0.788818V543.9M436.578 0.788818V543.9M348.844 0.788818V543.9M261.111 0.788818V543.9M173.378 0.788818V543.9M85.6444 0.788818V543.9M-2.0889 0.788818V543.9" stroke="url(#paint0_radial_358_1302)" stroke-width="1.04444" stroke-linecap="round"/>
<defs>
<radialGradient id="paint0_radial_358_1302" cx="0" cy="0" r="1" gradientUnits="userSpaceOnUse" gradientTransform="translate(568.178 272.344) rotate(90) scale(271.556 643.378)">
<stop offset="0.62" stop-color="#E6D6C7"/>
<stop offset="1" stop-color="#E6D6C7" stop-opacity="0"/>
</radialGradient>
</defs>
</svg>
