<svg width="48" height="49" viewBox="0 0 48 49" fill="none" xmlns="http://www.w3.org/2000/svg">
<path d="M45.1802 13.9266C39.8589 2.3624 27.2296 -1.96034 15.6505 2.84514C6.97983 6.45122 -0.497174 17.1853 3.4753 26.4894C1.05094 27.9708 -0.461967 31.4928 0.52657 34.315C5.1423 47.5192 21.9521 51.8867 34.1182 46.4178C46.6282 40.8087 50.7273 26.0146 45.1802 13.9266ZM32.5511 20.8248C33.8488 26.1479 31.4974 31.4582 25.9553 32.8806C20.8197 34.1942 15.033 31.6624 10.8099 28.5076C11.3346 27.6566 11.4611 26.5472 10.8846 25.2805C6.62305 15.9682 29.3031 7.42713 32.5511 20.8248Z" fill="#E3DBD8" fill-opacity="0.3"/>
</svg>
