<svg width="48" height="47" viewBox="0 0 48 47" fill="none" xmlns="http://www.w3.org/2000/svg">
<rect width="46.5941" height="46.5941" rx="6.6563" transform="matrix(-1 0 0 1 47.5221 0.376465)" fill="url(#paint0_linear_195_485)"/>
<path d="M24.4212 20.7475C24.1394 20.8519 23.863 20.5964 23.9564 20.3246C24.5975 18.4588 26.9186 17.7628 29.0764 19.4181C30.2114 20.289 30.638 20.474 30.6487 20.4787C29.9004 21.1852 29.0456 23.5562 27.18 23.8184C25.125 24.1703 23.3061 22.2608 24.7942 21.387C25.7728 20.8124 26.9251 20.4786 28.1602 20.4786C26.8654 20.2029 25.5727 20.3211 24.4212 20.7475Z" fill="white"/>
<path d="M15.1154 19.418C18.8401 16.5605 21.2156 21.0667 19.739 20.6201C18.6903 20.3028 17.5439 20.2337 16.3939 20.4785C18.3423 20.4785 20.1384 21.3218 21.3359 22.6945C21.2375 20.5373 21.0888 19.187 20.9163 18.1826C19.921 18.1503 18.5945 17.3912 17.866 16.063C16.6101 13.9402 17.1925 11.7638 17.38 10.3904C18.3613 11.2929 22.6481 10.2354 24.3475 12.9857C25.0981 14.2006 24.88 15.679 24.0903 16.7608C23.8403 17.1033 23.2426 16.939 23.2255 16.5234C23.1514 14.7153 22.1986 13.3492 20.4223 12.5926C21.2194 13.568 21.7427 14.6599 22.0131 15.7886C22.4333 17.5467 22.8722 18.7 23.0334 24.3038C23.0498 24.8721 22.5623 25.3425 21.9604 25.3354C21.5247 25.3302 21.1514 25.069 20.9838 24.6891C20.729 24.1113 20.3141 23.5133 19.6391 22.9654C18.9976 23.635 18.0215 23.9913 17.0115 23.8184C15.1539 23.5573 14.2869 21.1811 13.5429 20.4784C13.5538 20.4739 13.9804 20.2889 15.1154 19.418Z" fill="white"/>
<path d="M9.63987 26.4002C10.8043 25.654 12.0716 26.1857 12.6536 26.5031L19.9574 31.5518L24.234 31.5527L25.3031 30.543H21.3756C20.1945 30.543 18.8716 29.8163 18.8716 28.523C18.8716 27.15 20.1945 26.5031 21.3756 26.5031H22.8475C23.9408 26.5031 25.2185 26.5952 26.1193 26.1397C26.9753 25.7284 27.9609 25.4943 29.013 25.4943C30.7796 25.4943 32.3608 26.1595 33.4443 27.2085L39.2019 32.5616L32.7871 38.62L30.6488 35.5908H20.5444C19.4668 35.5908 18.4266 35.2174 17.621 34.5415L9.56676 27.7842C9.119 27.4085 9.14425 26.7178 9.63987 26.4002Z" fill="white"/>
<defs>
<linearGradient id="paint0_linear_195_485" x1="23.297" y1="46.5941" x2="23.297" y2="0" gradientUnits="userSpaceOnUse">
<stop stop-color="#007200"/>
<stop offset="1" stop-color="#38B000"/>
</linearGradient>
</defs>
</svg>
