<svg width="261" height="264" viewBox="0 0 261 264" fill="none" xmlns="http://www.w3.org/2000/svg">
<g clip-path="url(#clip0_300_1243)">
<path d="M153.594 221.47C158.794 192.155 165.09 162.771 166.148 132.932C166.426 125.024 166.411 117.068 165.702 109.187C167.634 98.9965 163.211 95.4439 152.418 98.5274C151.473 100.314 150.521 102.107 149.573 103.907C142.165 111.953 141.726 126.901 131.831 133.04C124.452 137.625 115.572 134.171 108.062 131.947C99.148 129.313 85.2681 123.022 76.558 129.624C62.3614 140.382 75.3728 151.61 82.5553 158.057C107.074 180.08 134.613 198.587 158.908 220.852C163.348 224.919 157.225 232.292 152.247 228.995C132.697 216.066 114.83 200.565 96.7576 185.678C84.1514 175.294 63.4422 163.182 58.8736 146.139C55.3089 132.824 63.1785 121.513 75.5745 116.99C82.2709 114.543 88.8776 114.686 95.893 115.777C100.249 116.453 104.35 118.329 108.651 119.009C112.624 121.164 116.72 121.394 120.924 119.699C126.162 120.528 129.196 118.359 130.028 113.19C139.052 102.363 140.406 80.3023 156.957 77.0913C172.148 74.1387 176.781 90.223 178.26 101.963C183.431 142.92 172.658 184.876 165.11 224.864C163.669 232.469 152.265 228.971 153.594 221.47Z" fill="#FAD299"/>
<path d="M140.527 104.443C154.119 106.273 167.743 110.079 178.556 118.773C180.26 120.141 179.264 123.789 176.791 122.702C164.954 117.501 153.307 112.305 140.419 110.347C136.731 109.802 136.737 103.936 140.527 104.443Z" fill="#FAD299"/>
<path d="M129.153 119.77C137.088 119.432 143.984 119.064 151.847 120.8C159.322 122.452 166.422 125.74 172.533 130.344C174.965 132.174 172.778 135.644 170.055 134.339C157.666 128.35 143.118 122.058 129.113 121.858C127.757 121.844 127.821 119.822 129.153 119.77Z" fill="#FAD299"/>
<path d="M66.3866 126.507C85.1238 131.934 103.866 137.369 122.604 142.796C138.984 147.545 156.875 151.003 172.031 158.932C173.079 159.481 172.541 161.281 171.371 161.182C154.338 159.742 137.347 153.044 121 148.259C102.277 142.787 83.5486 137.307 64.8258 131.835C61.376 130.838 62.9368 125.511 66.3866 126.507Z" fill="#FAD299"/>
<path d="M76.1411 152.898C104.76 160.888 136.462 164.814 162.913 178.904C164.279 179.635 163.222 181.561 161.852 181.265C132.622 174.906 103.288 166.619 74.462 158.567C70.8053 157.543 72.4711 151.871 76.1411 152.898Z" fill="#FAD299"/>
<path d="M111.013 183.101C128.388 189.666 146.903 192.41 164.119 199.473C166.143 200.308 165.3 203.531 163.135 202.809C145.553 196.919 127.025 194.338 109.589 187.933C106.548 186.821 107.978 181.949 111.013 183.101Z" fill="#FAD299"/>
<path d="M212.875 164.421C208.974 159.913 206.948 154.124 205.009 148.491C204.073 145.775 203.127 142.876 203.831 140.091C205.102 135.057 211.833 132.792 216.473 135.139C221.113 137.485 223.406 143.114 223.02 148.301C223.86 145.228 225.788 142.465 228.381 140.622C231.015 138.738 234.972 137.964 237.327 140.186C238.233 141.045 238.765 142.232 239.002 143.454C239.972 148.512 236.139 153.153 232.306 156.601C227.787 160.647 222.874 164.246 217.663 167.33" fill="#FAD299"/>
<path d="M39.0254 109.558C36.1886 101.221 31.4805 91.3792 22.6876 90.9272C21.3888 90.8614 19.9905 91.0656 19.0262 91.9422C15.8293 94.883 20.7272 100.916 18.0824 104.351C15.7086 107.428 10.0832 104.911 7.22794 107.56C5.2286 109.411 5.88837 112.952 7.89485 114.793C9.90134 116.634 12.7602 117.164 15.4574 117.435C23.2338 118.216 31.1555 117.465 38.654 115.24" fill="#FAD299"/>
</g>
<defs>
<clipPath id="clip0_300_1243">
<rect width="180.52" height="194.69" fill="white" transform="matrix(-0.81348 0.581592 0.581592 0.81348 147.594 0)"/>
</clipPath>
</defs>
</svg>
