<svg width="35" height="32" viewBox="0 0 35 32" fill="none" xmlns="http://www.w3.org/2000/svg">
<g clip-path="url(#clip0_305_1275)">
<path d="M19.4575 15.7514C19.0542 16.3174 18.4959 16.596 17.8064 16.722C17.2763 16.767 16.7363 16.6634 16.2745 16.4106C15.722 16.1087 15.3831 15.5834 15.2196 15.0111C15.0804 14.5235 15.2267 13.9229 15.4933 13.4967C15.8782 12.8812 16.4603 12.5977 17.1652 12.4294C17.7569 12.396 18.2717 12.4516 18.7862 12.7585C19.2688 13.0461 19.6565 13.6003 19.7737 14.1286C19.896 14.6778 19.789 15.286 19.4575 15.7514Z" fill="white"/>
<path d="M30.4101 6.43826C29.8272 7.25303 28.9848 7.68229 27.9871 7.87398C27.1641 7.96087 26.3031 7.78892 25.6098 7.35085C24.8558 6.87451 24.2589 6.07249 24.0862 5.224C23.9076 4.34452 24.1024 3.38636 24.6415 2.64784C25.2473 1.81757 26.1307 1.38619 27.152 1.20604C28.0127 1.17505 28.7485 1.27712 29.4855 1.73008C30.2354 2.19093 30.7585 2.97381 30.9418 3.80043C31.1411 4.7033 30.9584 5.67149 30.4101 6.43826Z" fill="white"/>
<path d="M10.4114 5.43807C9.78772 6.32757 8.95355 6.79602 7.86071 6.99956C6.99302 7.08584 6.14768 6.93272 5.42274 6.45638C4.6336 5.9378 4.06994 5.15736 3.89908 4.25175C3.7295 3.35222 3.93357 2.42201 4.48638 1.67073C5.09955 0.837428 5.99598 0.406346 7.03006 0.241083C7.91596 0.208577 8.63164 0.297892 9.39171 0.778492C10.1725 1.27216 10.7362 2.05533 10.9195 2.93086C11.098 3.78331 10.9198 4.71322 10.4114 5.43807Z" fill="white"/>
<path d="M34.7857 19.9915C34.6889 20.1288 34.5851 20.182 34.4213 20.2242C34.2045 20.2142 34.0716 20.1665 33.9206 20.0134C33.4853 19.5717 33.3055 18.9173 33.1525 18.3455C32.8405 17.3376 32.3541 16.3587 31.8454 15.4279C31.7611 15.2736 31.6202 14.9294 31.4794 14.8279L31.6049 19.0661C31.5049 22.3921 31.1492 25.7642 30.4297 29.0214C30.3125 29.5531 30.1838 30.5981 29.7485 30.9724C29.6495 31.0571 29.5773 31.0638 29.4511 31.0957C29.2142 31.0608 29.0794 30.9499 28.9434 30.7716C27.9866 29.5227 27.7049 22.2836 27.5714 20.4186C27.3293 20.9017 27.39 21.7529 27.3456 22.3058L26.8302 27.6723C26.719 28.5247 26.6341 29.4908 26.3026 30.2974C26.1908 30.569 25.9353 30.9624 25.6185 31.0474C25.4838 31.0836 25.3809 31.0802 25.2609 31.0122C24.8377 30.7707 24.6822 29.8964 24.5918 29.4562C24.1674 27.3864 23.8822 25.2963 23.6685 23.1983C23.5334 21.875 23.3936 20.5116 23.4025 19.1828L23.5536 14.9716L21.7227 18.5318C21.4931 19.0519 21.3296 19.3557 20.8607 19.7084C21.1127 20.038 21.3484 20.3612 21.5279 20.7324C21.9686 21.6444 22.4055 22.9675 22.0206 23.9499C21.8875 24.0502 21.891 24.0599 21.7236 24.045C21.3861 23.6826 21.252 22.9902 21.0038 22.5394C20.6445 21.8869 20.1936 21.2726 19.7139 20.6957C20.1071 23.264 20.025 25.7611 19.6983 28.3361C19.6034 29.0837 19.5249 29.8997 19.2838 30.6209C19.2176 30.8187 19.1225 30.9618 18.9248 31.062C18.7715 31.0784 18.7032 31.1085 18.5722 31.0158C18.462 30.9378 18.3988 30.8093 18.364 30.6856C18.1727 30.0042 18.1382 29.2143 18.0574 28.5135L17.5975 24.511C17.4602 25.0758 17.4714 25.7335 17.419 26.3134L17.0808 29.3614C17.0211 29.8213 16.9904 30.6495 16.6491 30.9976C16.5782 31.031 16.5025 31.066 16.4217 31.062C16.2476 31.0538 16.1441 31.0213 16.0308 30.8895C15.7989 30.6194 15.7402 29.8927 15.6808 29.5373C15.1992 26.6534 15.0452 23.6024 15.4393 20.7039C15.2365 20.8789 15.0864 21.1198 14.9306 21.3324C14.6042 21.7781 14.2912 22.228 14.022 22.708C13.8045 23.095 13.6346 23.7813 13.2536 24.018L13.1141 23.9688C13.0681 23.915 13.0291 23.8573 13.0084 23.7904C12.9116 23.4775 12.9343 23.1239 12.9675 22.8034C13.0866 21.6456 13.6164 20.7725 14.2248 19.7919C14.0795 19.7834 13.939 19.7472 13.8087 19.6853C13.1958 19.3936 12.772 17.7213 12.5431 17.0997L11.5441 14.8243C11.4694 14.6681 11.3359 14.2981 11.1989 14.2018L11.2714 17.7127L11.2647 18.8043C11.2631 18.9686 11.2308 19.1919 11.2647 19.3505L10.7534 26.7378C10.6145 27.7613 10.3322 30.4605 9.48107 31.086C9.27508 31.1067 9.23612 31.1073 9.04962 31.0246C8.92124 30.8773 8.84555 30.7452 8.79062 30.5601C8.63573 30.0391 8.57345 29.4771 8.49298 28.9421L8.11709 25.8271L7.47997 20.1835C7.2692 21.2641 7.17275 22.3836 7.05619 23.4775L6.61228 27.3761L6.35903 29.3629C6.29452 29.8122 6.2431 30.2986 6.01285 30.7035C5.91033 30.884 5.7746 31.059 5.55904 31.1176C5.3604 31.0997 5.27162 31.0778 5.13046 30.9356C3.53974 29.3349 3.43978 17.1392 3.46118 14.2923L2.16618 17.1653C1.8893 17.8425 1.67214 18.5734 1.33362 19.2235C1.22472 19.4331 1.09218 19.6403 0.890348 19.7801C0.713105 19.9028 0.554065 19.8973 0.349676 19.8691C0.265046 19.8101 0.195745 19.7448 0.147203 19.6552C-0.0664472 19.2612 0.00349213 18.6773 0.0456473 18.2505C0.176903 16.922 0.473587 15.5619 0.875658 14.2851C1.64435 12.0488 2.98981 9.6671 5.28758 8.55735C6.4031 8.01872 7.63997 7.89144 8.82926 8.26875C10.8859 8.9216 12.2946 10.6101 13.223 12.4009C14.0137 13.9266 14.5033 15.6585 14.7131 17.3455C14.7843 17.9661 14.83 18.5937 14.7348 19.2144C15.4234 18.4513 16.3556 17.422 17.4858 17.3376C18.1481 17.2884 18.7514 17.6644 19.2282 18.063L20.1035 18.9176C20.0534 18.5661 20.0694 18.3127 20.1444 17.9682C20.4756 15.8262 21.381 13.6568 22.684 11.8845C23.6618 10.5542 25.0373 9.19501 26.7931 8.90671C28.0054 8.70742 29.2768 9.04038 30.276 9.71146C32.9571 11.512 34.2648 14.6599 34.8093 17.6277C34.9326 18.2635 35.1807 19.4334 34.7857 19.9915Z" fill="white"/>
</g>
<defs>
<clipPath id="clip0_305_1275">
<rect width="35" height="30.8824" fill="white" transform="translate(0 0.235107)"/>
</clipPath>
</defs>
</svg>
