<svg width="77" height="80" viewBox="0 0 77 80" fill="none" xmlns="http://www.w3.org/2000/svg">
<path d="M31.0068 1.13209C9.16436 3.07654 -2.30593 20.8133 1.53161 40.6796C1.3168 42.2809 1.4957 44.0297 2.28233 45.9768C9.95506 64.9806 28.524 84.5025 51.1316 78.5621C70.522 73.4744 79.6709 49.6017 75.6993 31.3245C71.4337 11.357 50.65 -0.607431 31.0068 1.13209ZM46.5056 56.46C36.3106 58.9753 27.7737 48.2767 24.4902 39.8483C24.2199 39.1455 23.8749 38.4951 23.4956 37.8911C21.5392 28.3972 25.769 21.612 36.7807 21.2457C46.2335 20.9472 55.8874 26.6888 57.9831 36.2858C59.7986 44.562 55.1838 54.2952 46.5056 56.46Z" fill="white" fill-opacity="0.38"/>
</svg>
