<svg width="27" height="27" viewBox="0 0 27 27" fill="none" xmlns="http://www.w3.org/2000/svg">
<path d="M8.79718 9.23694V17.5942C8.79718 17.9058 8.69161 18.1671 8.48048 18.3783C8.26935 18.5894 8.00837 18.6946 7.69754 18.6938C7.38671 18.6931 7.12573 18.5876 6.9146 18.3772C6.70347 18.1668 6.5979 17.9058 6.5979 17.5942V6.59781C6.5979 6.28624 6.70347 6.02526 6.9146 5.81487C7.12573 5.60447 7.38671 5.4989 7.69754 5.49817H18.6939C19.0055 5.49817 19.2669 5.60373 19.478 5.81487C19.6891 6.026 19.7943 6.28698 19.7936 6.59781C19.7928 6.90864 19.6873 7.16999 19.4769 7.38185C19.2665 7.59372 19.0055 7.69892 18.6939 7.69745H10.3367L20.1235 17.4842C20.3251 17.6858 20.4259 17.9424 20.4259 18.254C20.4259 18.5656 20.3251 18.8221 20.1235 19.0237C19.9219 19.2253 19.6653 19.3261 19.3537 19.3261C19.0422 19.3261 18.7856 19.2253 18.584 19.0237L8.79718 9.23694Z" fill="#FFAA00"/>
</svg>
