<svg width="75" height="34" viewBox="0 0 75 34" fill="none" xmlns="http://www.w3.org/2000/svg">
<path d="M32.3706 32.829C33.5609 31.876 33.5455 30.9608 32.3371 29.9403C31.8023 29.4603 26.5782 27.0752 20.7379 24.5877C14.8541 22.0483 9.63003 19.6633 9.04756 19.179C7.96542 18.3621 7.96963 18.3143 8.9424 17.1017C9.48704 16.3802 13.0931 13.6687 16.9812 11.0301C21.1767 8.17815 24.1244 5.8413 24.3743 5.19004C25.0804 3.18432 24.6748 2.3309 22.9217 2.03184C21.5462 1.81421 20.3587 2.19031 16.7331 4.03446C10.7381 7.11226 5.61618 10.6519 3.51905 13.16C2.06622 14.9075 1.7602 15.6499 1.55796 17.9406C1.34308 20.3745 1.44833 20.8166 2.79289 22.4744C5.00344 25.2185 7.21828 26.2798 17.7929 29.6181C30.334 33.5629 31.2758 33.7904 32.3706 32.829Z" fill="#FFB700"/>
<path d="M23.8994 20.9236C32.9049 21.3339 43.4362 21.3499 49.8283 20.8562C67.7384 19.5517 72.3213 18.8502 73.4625 17.3638C73.8429 16.8684 74.0801 16.3603 73.9454 16.2522C73.5538 15.7848 69.1662 14.8202 67.531 14.8202C66.5639 14.8791 57.4642 14.9895 47.2544 15.1461C25.6289 15.4973 22.5845 15.6614 20.0411 16.6873C18.5982 17.2332 18.1742 17.6767 18.2023 18.4487C18.271 19.8495 20.3553 20.7549 23.8994 20.9236Z" fill="#FFB700"/>
</svg>
