<svg width="31" height="29" viewBox="0 0 31 29" fill="none" xmlns="http://www.w3.org/2000/svg">
<path d="M15.4212 10.7475C15.1394 10.8519 14.863 10.5964 14.9564 10.3246C15.5975 8.4588 17.9186 7.76277 20.0764 9.41811C21.2114 10.289 21.638 10.474 21.6487 10.4787C20.9004 11.1852 20.0456 13.5562 18.18 13.8184C16.125 14.1703 14.3061 12.2608 15.7942 11.387C16.7728 10.8124 17.9251 10.4786 19.1602 10.4786C17.8654 10.2029 16.5727 10.3211 15.4212 10.7475Z" fill="white"/>
<path d="M6.11539 9.41797C9.84013 6.56053 12.2156 11.0667 10.739 10.6201C9.69032 10.3028 8.54387 10.2337 7.39388 10.4785C9.34232 10.4785 11.1384 11.3218 12.3359 12.6945C12.2375 10.5373 12.0888 9.18705 11.9163 8.18261C10.921 8.1503 9.5945 7.39123 8.86601 6.06298C7.61011 3.94025 8.19252 1.76375 8.37996 0.390381C9.36129 1.2929 13.6481 0.235386 15.3475 2.98567C16.0981 4.20057 15.88 5.67896 15.0903 6.76083C14.8403 7.10332 14.2426 6.93899 14.2255 6.52336C14.1514 4.71529 13.1986 3.34924 11.4223 2.59262C12.2194 3.56797 12.7427 4.65994 13.0131 5.78858C13.4333 7.54673 13.8722 8.70004 14.0334 14.3038C14.0498 14.8721 13.5623 15.3425 12.9604 15.3354C12.5247 15.3302 12.1514 15.069 11.9838 14.6891C11.729 14.1113 11.3141 13.5133 10.6391 12.9654C9.99763 13.635 9.02151 13.9913 8.01151 13.8184C6.15388 13.5573 5.28694 11.1811 4.54289 10.4784C4.55378 10.4739 4.98037 10.2889 6.11539 9.41797Z" fill="white"/>
<path d="M0.639866 16.4002C1.80429 15.654 3.07162 16.1857 3.65363 16.5031L10.9574 21.5518L15.234 21.5527L16.3031 20.543H12.3756C11.1945 20.543 9.8716 19.8163 9.8716 18.523C9.8716 17.15 11.1945 16.5031 12.3756 16.5031H13.8475C14.9408 16.5031 16.2185 16.5952 17.1193 16.1397C17.9753 15.7284 18.9609 15.4943 20.013 15.4943C21.7796 15.4943 23.3608 16.1595 24.4443 17.2085L30.2019 22.5616L23.7871 28.62L21.6488 25.5908H11.5444C10.4668 25.5908 9.42657 25.2174 8.62097 24.5415L0.566763 17.7842C0.118996 17.4085 0.144255 16.7178 0.639866 16.4002Z" fill="white"/>
</svg>
