<svg width="190" height="135" viewBox="0 0 190 135" fill="none" xmlns="http://www.w3.org/2000/svg">
<g clip-path="url(#clip0_998_880)">
<path d="M182.953 79.9661C170.17 86.075 156.156 90.0615 141.944 91.1941C136.195 91.6503 129.86 91.3675 124.585 88.7601C119.309 86.1527 116.051 81.1984 116.326 75.4734C116.601 69.7484 119.745 64.878 123.875 61.3328C128.004 57.7877 134.62 54.8906 140.263 56.362C145.907 57.8335 149.481 63.4119 150.749 68.6462C152.291 75.0623 150.093 81.6127 146.051 86.624C137.2 97.6076 122.218 99.5189 108.863 98.8093C94.1795 98.0245 79.7235 93.816 66.8448 86.6804C61.4593 83.7002 55.3667 79.5771 55.4912 72.7409C55.6157 65.9048 60.3407 61.1259 65.8866 58.2114C68.9103 56.6222 72.2192 55.5015 75.5408 54.6565C78.3469 53.9403 81.752 53.2759 84.5273 54.5225C86.8516 55.569 88.6559 58.1289 88.9485 60.6168C89.3423 63.9357 86.8035 66.2033 84.0171 67.4552C78.5477 69.9051 72.0902 70.8997 66.1305 71.3076C60.1708 71.7156 54.1943 71.3067 48.3447 70.1616C36.5244 67.8528 25.3185 62.4831 16.1791 54.6355C13.8607 52.6417 11.7058 50.494 9.67842 48.214C8.9054 47.3481 7.46531 47.0146 6.35224 47.1437C5.62082 47.2348 4.38233 47.7669 5.15605 48.6588C23.6326 69.93 55.1367 79.0191 82.106 71.6115C85.5558 70.66 89.4162 69.5816 91.977 66.9648C94.1908 64.6978 94.5738 61.4119 93.239 58.573C89.9238 51.5118 81.2399 50.4276 74.3985 51.7673C67.5572 53.107 59.2569 56.133 54.4879 61.8026C50.0793 67.0391 48.9641 74.4602 53.2438 80.1666C55.4573 83.1252 58.6134 85.2707 61.7617 87.13C65.3631 89.2675 69.1253 91.1472 72.976 92.8119C80.8467 96.1955 89.0963 98.6667 97.538 100.099C105.98 101.531 113.787 101.996 121.879 101.336C129.473 100.712 137.265 98.8452 143.64 94.5887C149.654 90.5728 154.553 84.4636 155.878 77.2574C157.089 70.6777 154.79 63.5568 149.919 58.8811C139.285 48.6711 121.402 54.0016 114.429 65.6024C111.213 70.9529 110.336 77.485 113.59 83.0795C117.048 89.0139 123.857 91.8959 130.348 93.1128C137.83 94.5151 145.453 93.8017 152.885 92.5868C160.865 91.2841 168.715 89.2395 176.276 86.4296C179.883 85.0902 183.413 83.5857 186.875 81.921C187.894 81.4396 186.893 80.4529 186.308 80.151C185.329 79.6375 183.968 79.4952 182.964 79.9711L182.953 79.9661Z" fill="#FEA439"/>
</g>
<defs>
<clipPath id="clip0_998_880">
<rect width="179.2" height="64.6093" fill="white" transform="translate(162.035 134.952) rotate(-154.718)"/>
</clipPath>
</defs>
</svg>
