<svg width="739" height="703" viewBox="0 0 739 703" fill="none" xmlns="http://www.w3.org/2000/svg">
<path d="M719.402 107.131C681.736 26.9966 582.316 -22.349 497.904 12.1162C450.272 31.5847 413.57 71.676 384.278 112.724C357.784 149.844 346.639 193.505 327.006 233.15C253.099 190.396 174.42 148.313 88.5405 187.045C8.49398 223.087 -17.9526 310.784 12.8036 389.721C46.9018 477.202 130.666 532.027 213.479 567.793C300.759 605.533 391.616 635.719 482.348 665.346C482.32 665.433 482.292 665.519 482.229 665.653C470.461 697.143 518.594 712.782 534.971 686.713C535.709 685.571 536.4 684.394 537.137 683.251C555.549 689.294 573.88 695.348 592.183 701.49C616.708 709.756 633.824 668.464 609.345 658.58C594.005 652.368 578.671 646.195 563.331 639.982C609.672 560.791 650.98 476.653 686.503 393.05C723.58 305.746 762.814 199.454 719.402 107.131ZM339.714 551.231C271.8 525.088 199.998 499.445 142.033 454.224C88.6079 412.578 22.7874 316.75 93.1047 258.997C166.622 198.618 257.767 268.568 322.907 305.985C339.082 315.294 357.471 308.208 367.316 293.688C417.915 218.938 419.925 123.292 510.867 76.1645C556.013 52.7732 609.837 69.7491 642.475 106.864C673.716 142.371 675.657 192.087 668.185 236.562C645.356 372.485 559.845 490.733 503.094 615.748C448.707 593.901 394.356 572.296 339.714 551.231Z" fill="white" fill-opacity="0.38"/>
</svg>
