<svg width="307" height="292" viewBox="0 0 307 292" fill="none" xmlns="http://www.w3.org/2000/svg">
<path d="M298.438 44.8386C282.854 11.6839 241.72 -8.73234 206.795 5.52728C187.088 13.5822 171.903 30.1696 159.783 47.1528C148.822 62.5106 144.211 80.5752 136.088 96.9779C105.51 79.2887 72.9571 61.8775 37.4252 77.9023C4.3068 92.8144 -6.63519 129.098 6.08985 161.758C20.1976 197.952 54.8541 220.635 89.1173 235.433C125.228 251.048 162.82 263.537 200.359 275.794C200.348 275.83 200.336 275.866 200.31 275.921C195.441 288.95 215.355 295.421 222.131 284.635C222.437 284.162 222.723 283.675 223.028 283.203C230.645 285.703 238.23 288.208 245.802 290.749C255.949 294.169 263.031 277.085 252.903 272.995C246.556 270.425 240.212 267.871 233.865 265.301C253.038 232.536 270.129 197.725 284.826 163.135C300.166 127.013 316.399 83.0366 298.438 44.8386ZM141.346 228.581C113.247 217.764 83.5395 207.155 59.5572 188.445C37.4531 171.214 10.2205 131.566 39.3136 107.672C69.7307 82.6906 107.441 111.631 134.392 127.113C141.084 130.964 148.693 128.032 152.766 122.025C173.7 91.0979 174.532 51.5252 212.158 32.0266C230.837 22.3487 253.106 29.3723 266.61 44.7284C279.536 59.4191 280.339 79.9885 277.247 98.3896C267.802 154.626 232.423 203.55 208.943 255.274C186.44 246.235 163.953 237.296 141.346 228.581Z" fill="#E3DBD8" fill-opacity="0.3"/>
</svg>
